  0
SECTION
  2
HEADER
  9
$ANGBASE
  50
0.0
  9
$ANGDIR
  70
1
  9
$MEASUREMENT
  70
1
  0
ENDSEC
  0
SECTION
  2
TABLES
  0
TABLE
  2
LTYPE
  70
4
  0
LTYPE
  5
40F
  2
CONTINUOUS
  70
0
  3
Solid line
  72
65
  73
0
  40
0.0
  0
LTYPE
  5
410
  2
DASHDOT
 70
0
  3
Dash Dot ____ _ ____ _
 72
65
 73
4
 40
2.0
 49
1.25
 49
-0.25
 49
0.25
 49
-0.25
  0
LTYPE
  5
411
  2
DASHED
 70
0
  3
Dashed __ __ __ __ __
 72
65
 73
2
 40
0.75
 49
0.5
 49
-0.25
  0
LTYPE
  5
43B
  2
DOTTED
 70
0
  3
Dotted .  .  .  .
 72
65
 73
2
 40
0.2
 49
0.0
 49
-0.2
  0
ENDTAB
  0
TABLE
  2
STYLE
  70
4
  0
STYLE
  2
KICAD
  70
0
  40
0
  41
1
  42
1
  50
0
  71
0
  3
isocp.shx
  0
STYLE
  2
KICADB
  70
0
  40
0
  41
1
  42
1
  50
0
  71
0
  3
isocp.shx
  0
STYLE
  2
KICADI
  70
0
  40
0
  41
1
  42
1
  50
15
  71
0
  3
isocp.shx
  0
STYLE
  2
KICADBI
  70
0
  40
0
  41
1
  42
1
  50
15
  71
0
  3
isocp.shx
  0
ENDTAB
  0
TABLE
  2
LAYER
  70
1
  0
LAYER
  2
BLACK
  70
0
  62
7
  6
CONTINUOUS
  0
ENDTAB
  0
ENDSEC
  0
SECTION
  2
ENTITIES
0
LINE
8
BLACK
6
CONTINUOUS
10
190.001
20
0.099993
11
190.008
21
0.098944
0
LINE
8
BLACK
6
CONTINUOUS
10
190.008
20
0.098944
11
190.015
21
0.098902
0
LINE
8
BLACK
6
CONTINUOUS
10
190.015
20
0.098902
11
190.022
21
0.096772
0
LINE
8
BLACK
6
CONTINUOUS
10
190.022
20
0.096772
11
190.029
21
0.09563
0
LINE
8
BLACK
6
CONTINUOUS
10
190.029
20
0.09563
11
190.035
21
0.092733
0
LINE
8
BLACK
6
CONTINUOUS
10
190.035
20
0.092733
11
190.042
21
0.090778
0
LINE
8
BLACK
6
CONTINUOUS
10
190.042
20
0.090778
11
190.048
21
0.086737
0
LINE
8
BLACK
6
CONTINUOUS
10
190.048
20
0.086737
11
190.055
21
0.083581
0
LINE
8
BLACK
6
CONTINUOUS
10
190.055
20
0.083581
11
190.06
21
0.079066
0
LINE
8
BLACK
6
CONTINUOUS
10
190.06
20
0.079066
11
190.066
21
0.075356
0
LINE
8
BLACK
6
CONTINUOUS
10
190.066
20
0.075356
11
190.071
21
0.069729
0
LINE
8
BLACK
6
CONTINUOUS
10
190.071
20
0.069729
11
190.076
21
0.064812
0
LINE
8
BLACK
6
CONTINUOUS
10
190.076
20
0.064812
11
190.08
21
0.059043
0
LINE
8
BLACK
6
CONTINUOUS
10
190.08
20
0.059043
11
190.084
21
0.053877
0
LINE
8
BLACK
6
CONTINUOUS
10
190.084
20
0.053877
11
190.087
21
0.047114
0
LINE
8
BLACK
6
CONTINUOUS
10
190.087
20
0.047114
11
190.091
21
0.040833
0
LINE
8
BLACK
6
CONTINUOUS
10
190.091
20
0.040833
11
190.093
21
0.034279
0
LINE
8
BLACK
6
CONTINUOUS
10
190.093
20
0.034279
11
190.096
21
0.028067
0
LINE
8
BLACK
6
CONTINUOUS
10
190.096
20
0.028067
11
190.097
21
0.020712
0
LINE
8
BLACK
6
CONTINUOUS
10
190.097
20
0.020712
11
190.099
21
0.013572
0
LINE
8
BLACK
6
CONTINUOUS
10
190.099
20
0.013572
11
190.099
21
0.00675
0
LINE
8
BLACK
6
CONTINUOUS
10
190.099
20
0.00675
11
190.1
21
0
0
LINE
8
BLACK
6
CONTINUOUS
10
190.1
20
0
11
190.1
21
-140
0
LINE
8
BLACK
6
CONTINUOUS
10
190.1
20
-140
11
190.1
21
-140.001
0
LINE
8
BLACK
6
CONTINUOUS
10
190.1
20
-140.001
11
190.099
21
-140.008
0
LINE
8
BLACK
6
CONTINUOUS
10
190.099
20
-140.008
11
190.099
21
-140.015
0
LINE
8
BLACK
6
CONTINUOUS
10
190.099
20
-140.015
11
190.097
21
-140.022
0
LINE
8
BLACK
6
CONTINUOUS
10
190.097
20
-140.022
11
190.096
21
-140.029
0
LINE
8
BLACK
6
CONTINUOUS
10
190.096
20
-140.029
11
190.093
21
-140.035
0
LINE
8
BLACK
6
CONTINUOUS
10
190.093
20
-140.035
11
190.091
21
-140.042
0
LINE
8
BLACK
6
CONTINUOUS
10
190.091
20
-140.042
11
190.087
21
-140.048
0
LINE
8
BLACK
6
CONTINUOUS
10
190.087
20
-140.048
11
190.084
21
-140.055
0
LINE
8
BLACK
6
CONTINUOUS
10
190.084
20
-140.055
11
190.079
21
-140.06
0
LINE
8
BLACK
6
CONTINUOUS
10
190.079
20
-140.06
11
190.075
21
-140.066
0
LINE
8
BLACK
6
CONTINUOUS
10
190.075
20
-140.066
11
190.07
21
-140.071
0
LINE
8
BLACK
6
CONTINUOUS
10
190.07
20
-140.071
11
190.065
21
-140.076
0
LINE
8
BLACK
6
CONTINUOUS
10
190.065
20
-140.076
11
190.059
21
-140.08
0
LINE
8
BLACK
6
CONTINUOUS
10
190.059
20
-140.08
11
190.054
21
-140.084
0
LINE
8
BLACK
6
CONTINUOUS
10
190.054
20
-140.084
11
190.047
21
-140.087
0
LINE
8
BLACK
6
CONTINUOUS
10
190.047
20
-140.087
11
190.041
21
-140.091
0
LINE
8
BLACK
6
CONTINUOUS
10
190.041
20
-140.091
11
190.034
21
-140.093
0
LINE
8
BLACK
6
CONTINUOUS
10
190.034
20
-140.093
11
190.028
21
-140.096
0
LINE
8
BLACK
6
CONTINUOUS
10
190.028
20
-140.096
11
190.021
21
-140.097
0
LINE
8
BLACK
6
CONTINUOUS
10
190.021
20
-140.097
11
190.014
21
-140.099
0
LINE
8
BLACK
6
CONTINUOUS
10
190.014
20
-140.099
11
190.007
21
-140.099
0
LINE
8
BLACK
6
CONTINUOUS
10
190.007
20
-140.099
11
190
21
-140.1
0
LINE
8
BLACK
6
CONTINUOUS
10
190
20
-140.1
11
0
21
-140.1
0
LINE
8
BLACK
6
CONTINUOUS
10
0
20
-140.1
11
-0.001222
21
-140.1
0
LINE
8
BLACK
6
CONTINUOUS
10
-0.001222
20
-140.1
11
-0.00796
21
-140.099
0
LINE
8
BLACK
6
CONTINUOUS
10
-0.00796
20
-140.099
11
-0.014781
21
-140.099
0
LINE
8
BLACK
6
CONTINUOUS
10
-0.014781
20
-140.099
11
-0.021902
21
-140.097
0
LINE
8
BLACK
6
CONTINUOUS
10
-0.021902
20
-140.097
11
-0.029237
21
-140.096
0
LINE
8
BLACK
6
CONTINUOUS
10
-0.029237
20
-140.096
11
-0.035407
21
-140.093
0
LINE
8
BLACK
6
CONTINUOUS
10
-0.035407
20
-140.093
11
-0.041945
21
-140.091
0
LINE
8
BLACK
6
CONTINUOUS
10
-0.041945
20
-140.091
11
-0.048179
21
-140.087
0
LINE
8
BLACK
6
CONTINUOUS
10
-0.048179
20
-140.087
11
-0.054902
21
-140.084
0
LINE
8
BLACK
6
CONTINUOUS
10
-0.054902
20
-140.084
11
-0.060015
21
-140.079
0
LINE
8
BLACK
6
CONTINUOUS
10
-0.060015
20
-140.079
11
-0.065738
21
-140.075
0
LINE
8
BLACK
6
CONTINUOUS
10
-0.065738
20
-140.075
11
-0.070586
21
-140.07
0
LINE
8
BLACK
6
CONTINUOUS
10
-0.070586
20
-140.07
11
-0.076154
21
-140.065
0
LINE
8
BLACK
6
CONTINUOUS
10
-0.076154
20
-140.065
11
-0.079794
21
-140.059
0
LINE
8
BLACK
6
CONTINUOUS
10
-0.079794
20
-140.059
11
-0.084245
21
-140.054
0
LINE
8
BLACK
6
CONTINUOUS
10
-0.084245
20
-140.054
11
-0.08732
21
-140.047
0
LINE
8
BLACK
6
CONTINUOUS
10
-0.08732
20
-140.047
11
-0.091283
21
-140.041
0
LINE
8
BLACK
6
CONTINUOUS
10
-0.091283
20
-140.041
11
-0.093156
21
-140.034
0
LINE
8
BLACK
6
CONTINUOUS
10
-0.093156
20
-140.034
11
-0.095981
21
-140.028
0
LINE
8
BLACK
6
CONTINUOUS
10
-0.095981
20
-140.028
11
-0.097034
21
-140.021
0
LINE
8
BLACK
6
CONTINUOUS
10
-0.097034
20
-140.021
11
-0.099075
21
-140.014
0
LINE
8
BLACK
6
CONTINUOUS
10
-0.099075
20
-140.014
11
-0.099033
21
-140.007
0
LINE
8
BLACK
6
CONTINUOUS
10
-0.099033
20
-140.007
11
-0.1
21
-140
0
LINE
8
BLACK
6
CONTINUOUS
10
-0.1
20
-140
11
-0.1
21
0
0
LINE
8
BLACK
6
CONTINUOUS
10
-0.1
20
0
11
-0.099993
21
0.001222
0
LINE
8
BLACK
6
CONTINUOUS
10
-0.099993
20
0.001222
11
-0.098944
21
0.00796
0
LINE
8
BLACK
6
CONTINUOUS
10
-0.098944
20
0.00796
11
-0.098902
21
0.014781
0
LINE
8
BLACK
6
CONTINUOUS
10
-0.098902
20
0.014781
11
-0.096772
21
0.021902
0
LINE
8
BLACK
6
CONTINUOUS
10
-0.096772
20
0.021902
11
-0.09563
21
0.029237
0
LINE
8
BLACK
6
CONTINUOUS
10
-0.09563
20
0.029237
11
-0.092733
21
0.035407
0
LINE
8
BLACK
6
CONTINUOUS
10
-0.092733
20
0.035407
11
-0.090778
21
0.041945
0
LINE
8
BLACK
6
CONTINUOUS
10
-0.090778
20
0.041945
11
-0.086737
21
0.048179
0
LINE
8
BLACK
6
CONTINUOUS
10
-0.086737
20
0.048179
11
-0.083581
21
0.054902
0
LINE
8
BLACK
6
CONTINUOUS
10
-0.083581
20
0.054902
11
-0.079066
21
0.060015
0
LINE
8
BLACK
6
CONTINUOUS
10
-0.079066
20
0.060015
11
-0.075356
21
0.065738
0
LINE
8
BLACK
6
CONTINUOUS
10
-0.075356
20
0.065738
11
-0.069729
21
0.070586
0
LINE
8
BLACK
6
CONTINUOUS
10
-0.069729
20
0.070586
11
-0.064812
21
0.076154
0
LINE
8
BLACK
6
CONTINUOUS
10
-0.064812
20
0.076154
11
-0.059043
21
0.079794
0
LINE
8
BLACK
6
CONTINUOUS
10
-0.059043
20
0.079794
11
-0.053877
21
0.084245
0
LINE
8
BLACK
6
CONTINUOUS
10
-0.053877
20
0.084245
11
-0.047114
21
0.08732
0
LINE
8
BLACK
6
CONTINUOUS
10
-0.047114
20
0.08732
11
-0.040833
21
0.091283
0
LINE
8
BLACK
6
CONTINUOUS
10
-0.040833
20
0.091283
11
-0.034279
21
0.093156
0
LINE
8
BLACK
6
CONTINUOUS
10
-0.034279
20
0.093156
11
-0.028067
21
0.095981
0
LINE
8
BLACK
6
CONTINUOUS
10
-0.028067
20
0.095981
11
-0.020712
21
0.097034
0
LINE
8
BLACK
6
CONTINUOUS
10
-0.020712
20
0.097034
11
-0.013572
21
0.099075
0
LINE
8
BLACK
6
CONTINUOUS
10
-0.013572
20
0.099075
11
-0.00675
21
0.099033
0
LINE
8
BLACK
6
CONTINUOUS
10
-0.00675
20
0.099033
11
0
21
0.1
0
LINE
8
BLACK
6
CONTINUOUS
10
0
20
0.1
11
190
21
0.1
0
LINE
8
BLACK
6
CONTINUOUS
10
190
20
0.1
11
190.001
21
0.099993
0
LINE
8
BLACK
6
CONTINUOUS
10
0.1
20
-0.1
11
0.1
21
-139.9
0
LINE
8
BLACK
6
CONTINUOUS
10
0.1
20
-139.9
11
189.9
21
-139.9
0
LINE
8
BLACK
6
CONTINUOUS
10
189.9
20
-139.9
11
189.9
21
-0.1
0
LINE
8
BLACK
6
CONTINUOUS
10
189.9
20
-0.1
11
0.1
21
-0.1
  0
ENDSEC
  0
EOF
