  0
SECTION
  2
HEADER
  9
$ANGBASE
  50
0.0
  9
$ANGDIR
  70
1
  9
$MEASUREMENT
  70
1
  0
ENDSEC
  0
SECTION
  2
TABLES
  0
TABLE
  2
LTYPE
  70
4
  0
LTYPE
  5
40F
  2
CONTINUOUS
  70
0
  3
Solid line
  72
65
  73
0
  40
0.0
  0
LTYPE
  5
410
  2
DASHDOT
 70
0
  3
Dash Dot ____ _ ____ _
 72
65
 73
4
 40
2.0
 49
1.25
 49
-0.25
 49
0.25
 49
-0.25
  0
LTYPE
  5
411
  2
DASHED
 70
0
  3
Dashed __ __ __ __ __
 72
65
 73
2
 40
0.75
 49
0.5
 49
-0.25
  0
LTYPE
  5
43B
  2
DOTTED
 70
0
  3
Dotted .  .  .  .
 72
65
 73
2
 40
0.2
 49
0.0
 49
-0.2
  0
ENDTAB
  0
TABLE
  2
STYLE
  70
4
  0
STYLE
  2
KICAD
  70
0
  40
0
  41
1
  42
1
  50
0
  71
0
  3
isocp.shx
  0
STYLE
  2
KICADB
  70
0
  40
0
  41
1
  42
1
  50
0
  71
0
  3
isocp.shx
  0
STYLE
  2
KICADI
  70
0
  40
0
  41
1
  42
1
  50
15
  71
0
  3
isocp.shx
  0
STYLE
  2
KICADBI
  70
0
  40
0
  41
1
  42
1
  50
15
  71
0
  3
isocp.shx
  0
ENDTAB
  0
TABLE
  2
LAYER
  70
1
  0
LAYER
  2
BLACK
  70
0
  62
7
  6
CONTINUOUS
  0
ENDTAB
  0
ENDSEC
  0
SECTION
  2
ENTITIES
0
LINE
8
BLACK
6
CONTINUOUS
10
190.023
20
0.097352
11
190.049
21
0.087022
0
LINE
8
BLACK
6
CONTINUOUS
10
190.049
20
0.087022
11
190.072
21
0.069697
0
LINE
8
BLACK
6
CONTINUOUS
10
190.072
20
0.069697
11
190.088
21
0.046769
0
LINE
8
BLACK
6
CONTINUOUS
10
190.088
20
0.046769
11
190.098
21
0.020081
0
LINE
8
BLACK
6
CONTINUOUS
10
190.098
20
0.020081
11
190.1
21
-0.008222
0
LINE
8
BLACK
6
CONTINUOUS
10
190.1
20
-0.008222
11
190.093
21
-0.035862
0
LINE
8
BLACK
6
CONTINUOUS
10
190.093
20
-0.035862
11
190.08
21
-0.060621
0
LINE
8
BLACK
6
CONTINUOUS
10
190.08
20
-0.060621
11
190.059
21
-0.080506
0
LINE
8
BLACK
6
CONTINUOUS
10
190.059
20
-0.080506
11
96.1394
21
-69.2847
0
LINE
8
BLACK
6
CONTINUOUS
10
96.1394
20
-69.2847
11
127.031
21
-51.2045
0
LINE
8
BLACK
6
CONTINUOUS
10
127.031
20
-51.2045
11
127.035
21
-51.204
0
LINE
8
BLACK
6
CONTINUOUS
10
127.035
20
-51.204
11
127.038
21
-51.2063
0
LINE
8
BLACK
6
CONTINUOUS
10
127.038
20
-51.2063
11
127.039
21
-51.2101
0
LINE
8
BLACK
6
CONTINUOUS
10
127.039
20
-51.2101
11
127.036
21
-51.2131
0
LINE
8
BLACK
6
CONTINUOUS
10
127.036
20
-51.2131
11
96.0629
21
-69.341
0
LINE
8
BLACK
6
CONTINUOUS
10
96.0629
20
-69.341
11
95.1686
21
-70
0
LINE
8
BLACK
6
CONTINUOUS
10
95.1686
20
-70
11
95.7853
21
-70.4544
0
LINE
8
BLACK
6
CONTINUOUS
10
95.7853
20
-70.4544
11
127.011
21
-88.7545
0
LINE
8
BLACK
6
CONTINUOUS
10
127.011
20
-88.7545
11
127.014
21
-88.7575
0
LINE
8
BLACK
6
CONTINUOUS
10
127.014
20
-88.7575
11
127.013
21
-88.7613
0
LINE
8
BLACK
6
CONTINUOUS
10
127.013
20
-88.7613
11
127.01
21
-88.7636
0
LINE
8
BLACK
6
CONTINUOUS
10
127.01
20
-88.7636
11
127.006
21
-88.7631
0
LINE
8
BLACK
6
CONTINUOUS
10
127.006
20
-88.7631
11
95.8622
21
-70.5111
0
LINE
8
BLACK
6
CONTINUOUS
10
95.8622
20
-70.5111
11
190.059
21
-139.919
0
LINE
8
BLACK
6
CONTINUOUS
10
190.059
20
-139.919
11
190.06
21
-139.92
0
LINE
8
BLACK
6
CONTINUOUS
10
190.06
20
-139.92
11
190.08
21
-139.94
0
LINE
8
BLACK
6
CONTINUOUS
10
190.08
20
-139.94
11
190.094
21
-139.965
0
LINE
8
BLACK
6
CONTINUOUS
10
190.094
20
-139.965
11
190.1
21
-139.993
0
LINE
8
BLACK
6
CONTINUOUS
10
190.1
20
-139.993
11
190.098
21
-140.021
0
LINE
8
BLACK
6
CONTINUOUS
10
190.098
20
-140.021
11
190.088
21
-140.048
0
LINE
8
BLACK
6
CONTINUOUS
10
190.088
20
-140.048
11
190.071
21
-140.071
0
LINE
8
BLACK
6
CONTINUOUS
10
190.071
20
-140.071
11
190.048
21
-140.088
0
LINE
8
BLACK
6
CONTINUOUS
10
190.048
20
-140.088
11
190.022
21
-140.098
0
LINE
8
BLACK
6
CONTINUOUS
10
190.022
20
-140.098
11
189.993
21
-140.1
0
LINE
8
BLACK
6
CONTINUOUS
10
189.993
20
-140.1
11
189.966
21
-140.094
0
LINE
8
BLACK
6
CONTINUOUS
10
189.966
20
-140.094
11
189.941
21
-140.081
0
LINE
8
BLACK
6
CONTINUOUS
10
189.941
20
-140.081
11
95
21
-70.1242
0
LINE
8
BLACK
6
CONTINUOUS
10
95
20
-70.1242
11
0.05932
21
-140.081
0
LINE
8
BLACK
6
CONTINUOUS
10
0.05932
20
-140.081
11
0.058332
21
-140.081
0
LINE
8
BLACK
6
CONTINUOUS
10
0.058332
20
-140.081
11
0.03319
21
-140.094
0
LINE
8
BLACK
6
CONTINUOUS
10
0.03319
20
-140.094
11
0.005381
21
-140.1
0
LINE
8
BLACK
6
CONTINUOUS
10
0.005381
20
-140.1
11
-0.022862
21
-140.097
0
LINE
8
BLACK
6
CONTINUOUS
10
-0.022862
20
-140.097
11
-0.049266
21
-140.087
0
LINE
8
BLACK
6
CONTINUOUS
10
-0.049266
20
-140.087
11
-0.07171
21
-140.07
0
LINE
8
BLACK
6
CONTINUOUS
10
-0.07171
20
-140.07
11
-0.08839
21
-140.047
0
LINE
8
BLACK
6
CONTINUOUS
10
-0.08839
20
-140.047
11
-0.097963
21
-140.02
0
LINE
8
BLACK
6
CONTINUOUS
10
-0.097963
20
-140.02
11
-0.099662
21
-139.992
0
LINE
8
BLACK
6
CONTINUOUS
10
-0.099662
20
-139.992
11
-0.093348
21
-139.964
0
LINE
8
BLACK
6
CONTINUOUS
10
-0.093348
20
-139.964
11
-0.079531
21
-139.939
0
LINE
8
BLACK
6
CONTINUOUS
10
-0.079531
20
-139.939
11
-0.05932
21
-139.919
0
LINE
8
BLACK
6
CONTINUOUS
10
-0.05932
20
-139.919
11
94.4239
21
-70.3003
0
LINE
8
BLACK
6
CONTINUOUS
10
94.4239
20
-70.3003
11
62.9937
21
-88.6955
0
LINE
8
BLACK
6
CONTINUOUS
10
62.9937
20
-88.6955
11
62.9899
21
-88.696
0
LINE
8
BLACK
6
CONTINUOUS
10
62.9899
20
-88.696
11
62.9869
21
-88.6937
0
LINE
8
BLACK
6
CONTINUOUS
10
62.9869
20
-88.6937
11
62.9864
21
-88.6899
0
LINE
8
BLACK
6
CONTINUOUS
10
62.9864
20
-88.6899
11
62.9887
21
-88.6869
0
LINE
8
BLACK
6
CONTINUOUS
10
62.9887
20
-88.6869
11
94.5003
21
-70.244
0
LINE
8
BLACK
6
CONTINUOUS
10
94.5003
20
-70.244
11
94.8314
21
-70
0
LINE
8
BLACK
6
CONTINUOUS
10
94.8314
20
-70
11
94.2147
21
-69.5456
0
LINE
8
BLACK
6
CONTINUOUS
10
94.2147
20
-69.5456
11
62.9887
21
-51.2455
0
LINE
8
BLACK
6
CONTINUOUS
10
62.9887
20
-51.2455
11
62.9864
21
-51.2425
0
LINE
8
BLACK
6
CONTINUOUS
10
62.9864
20
-51.2425
11
62.9869
21
-51.2387
0
LINE
8
BLACK
6
CONTINUOUS
10
62.9869
20
-51.2387
11
62.9899
21
-51.2364
0
LINE
8
BLACK
6
CONTINUOUS
10
62.9899
20
-51.2364
11
62.9937
21
-51.2369
0
LINE
8
BLACK
6
CONTINUOUS
10
62.9937
20
-51.2369
11
94.1378
21
-69.4889
0
LINE
8
BLACK
6
CONTINUOUS
10
94.1378
20
-69.4889
11
-0.05932
21
-0.080506
0
LINE
8
BLACK
6
CONTINUOUS
10
-0.05932
20
-0.080506
11
-0.0603
21
-0.079775
0
LINE
8
BLACK
6
CONTINUOUS
10
-0.0603
20
-0.079775
11
-0.080265
21
-0.059644
0
LINE
8
BLACK
6
CONTINUOUS
10
-0.080265
20
-0.059644
11
-0.093779
21
-0.03472
0
LINE
8
BLACK
6
CONTINUOUS
10
-0.093779
20
-0.03472
11
-0.099755
21
-0.007003
0
LINE
8
BLACK
6
CONTINUOUS
10
-0.099755
20
-0.007003
11
-0.09771
21
0.021276
0
LINE
8
BLACK
6
CONTINUOUS
10
-0.09771
20
0.021276
11
-0.087812
21
0.047845
0
LINE
8
BLACK
6
CONTINUOUS
10
-0.087812
20
0.047845
11
-0.070854
21
0.070568
0
LINE
8
BLACK
6
CONTINUOUS
10
-0.070854
20
0.070568
11
-0.0482
21
0.087617
0
LINE
8
BLACK
6
CONTINUOUS
10
-0.0482
20
0.087617
11
-0.02167
21
0.097624
0
LINE
8
BLACK
6
CONTINUOUS
10
-0.02167
20
0.097624
11
0.0066
21
0.099782
0
LINE
8
BLACK
6
CONTINUOUS
10
0.0066
20
0.099782
11
0.03434
21
0.093919
0
LINE
8
BLACK
6
CONTINUOUS
10
0.03434
20
0.093919
11
0.05932
21
0.080506
0
LINE
8
BLACK
6
CONTINUOUS
10
0.05932
20
0.080506
11
95
21
-69.8758
0
LINE
8
BLACK
6
CONTINUOUS
10
95
20
-69.8758
11
189.941
21
0.080505
0
LINE
8
BLACK
6
CONTINUOUS
10
189.941
20
0.080505
11
189.942
21
0.081225
0
LINE
8
BLACK
6
CONTINUOUS
10
189.942
20
0.081225
11
189.967
21
0.094331
0
LINE
8
BLACK
6
CONTINUOUS
10
189.967
20
0.094331
11
189.995
21
0.099855
0
LINE
8
BLACK
6
CONTINUOUS
10
189.995
20
0.099855
11
190.023
21
0.097352
  0
ENDSEC
  0
EOF
