M48
; DRILL file {KiCad (6.0.11)} date Thu 23 Feb 2023 02:15:46 PM AEDT
; FORMAT={-:-/ absolute / metric / decimal}
; #@! TF.CreationDate,2023-02-23T14:15:46+11:00
; #@! TF.GenerationSoftware,Kicad,Pcbnew,(6.0.11)
; #@! TF.FileFunction,MixedPlating,1,4
FMAT,2
METRIC
; #@! TA.AperFunction,Plated,PTH,ViaDrill
T1C0.200
; #@! TA.AperFunction,Plated,PTH,ViaDrill
T2C0.254
; #@! TA.AperFunction,Plated,PTH,ViaDrill
T3C0.300
; #@! TA.AperFunction,Plated,PTH,ComponentDrill
T4C0.600
; #@! TA.AperFunction,Plated,PTH,ComponentDrill
T5C1.000
; #@! TA.AperFunction,NonPlated,NPTH,ComponentDrill
T6C0.600
%
G90
G05
T1
X62.041Y-54.241
X62.041Y-56.241
X62.041Y-58.241
X62.041Y-60.141
X62.041Y-62.191
X62.041Y-68.241
X62.041Y-70.241
X62.041Y-72.241
X62.041Y-74.241
X62.041Y-76.241
X62.041Y-78.241
X62.041Y-80.241
X62.041Y-82.241
X62.041Y-84.241
X62.041Y-86.241
X63.041Y-52.741
X63.041Y-87.241
X63.441Y-63.791
X63.455Y-65.777
X65.041Y-52.741
X65.041Y-87.241
X67.041Y-52.741
X67.041Y-87.241
X68.291Y-65.141
X68.291Y-67.191
X69.041Y-52.741
X69.041Y-87.241
X71.041Y-52.741
X71.041Y-87.241
X73.041Y-87.241
X75.041Y-87.241
X77.041Y-52.741
X77.041Y-87.241
X79.041Y-52.741
X79.041Y-87.241
X81.041Y-52.741
X81.041Y-87.241
X83.041Y-87.241
X85.041Y-87.241
X87.041Y-52.741
X87.041Y-87.241
X89.041Y-52.741
X89.041Y-87.241
X91.041Y-52.741
X91.041Y-68.841
X91.041Y-87.241
X91.205Y-73.427
X91.221Y-70.641
X91.241Y-72.373
X91.641Y-74.441
X91.691Y-67.066
X91.691Y-67.891
X92.216Y-66.391
X92.441Y-74.441
X92.951Y-69.308
X92.951Y-70.441
X92.961Y-73.038
X93.041Y-72.138
X93.041Y-87.241
X93.141Y-66.291
X93.341Y-73.841
X93.441Y-71.041
X93.581Y-69.783
X93.916Y-73.203
X94.141Y-66.291
X94.291Y-69.991
X94.291Y-71.241
X94.291Y-72.491
X94.491Y-73.841
X94.535Y-75.541
X94.541Y-68.641
X95.041Y-52.741
X95.041Y-69.091
X95.041Y-87.241
X95.041Y-87.241
X95.166Y-73.241
X95.448Y-75.791
X95.541Y-66.391
X95.541Y-69.991
X95.541Y-71.241
X95.541Y-72.491
X95.941Y-76.191
X96.041Y-69.041
X96.091Y-66.891
X96.091Y-73.841
X96.416Y-75.566
X96.641Y-66.291
X96.791Y-69.991
X96.791Y-71.241
X96.791Y-72.491
X96.891Y-76.193
X97.041Y-52.741
X97.041Y-87.241
X97.041Y-87.241
X97.041Y-87.241
X97.191Y-69.041
X97.341Y-66.891
X97.366Y-75.563
X97.841Y-76.191
X97.941Y-69.873
X98.241Y-66.891
X99.041Y-52.741
X99.041Y-87.241
X99.041Y-87.241
X99.041Y-87.241
X99.041Y-87.241
X99.066Y-67.041
X99.841Y-75.091
X99.891Y-70.841
X101.041Y-87.241
X101.041Y-87.241
X101.041Y-87.241
X101.041Y-87.241
X103.041Y-87.241
X103.041Y-87.241
X103.041Y-87.241
X104.641Y-74.031
X104.641Y-75.473
X105.041Y-52.741
X105.041Y-87.241
X105.041Y-87.241
X106.541Y-75.241
X107.041Y-52.741
X107.041Y-71.491
X107.041Y-87.241
X107.541Y-75.241
X109.041Y-52.741
X109.041Y-87.241
X111.041Y-87.241
X113.041Y-87.241
X115.041Y-52.741
X115.041Y-87.241
X116.641Y-57.491
X116.641Y-58.991
X117.041Y-87.241
X117.891Y-58.991
X118.991Y-58.991
X119.041Y-87.241
X120.041Y-52.741
X120.466Y-56.491
X121.041Y-87.241
X122.041Y-52.741
X123.041Y-87.241
X123.971Y-56.491
X124.041Y-52.741
X125.041Y-87.241
X125.341Y-58.991
X126.441Y-58.991
X126.541Y-86.941
X127.541Y-85.941
X128.041Y-54.241
X128.041Y-56.241
X128.041Y-58.241
X128.041Y-60.241
X128.041Y-62.241
X128.041Y-64.241
X128.041Y-66.241
X128.041Y-68.241
X128.041Y-70.241
X128.041Y-72.241
X128.041Y-74.241
X128.041Y-76.241
X128.041Y-78.241
X128.041Y-80.241
X128.041Y-82.241
X128.041Y-84.241
T2
X66.441Y-58.341
X68.991Y-58.341
X71.491Y-58.341
X73.991Y-58.341
X76.591Y-58.341
X79.141Y-58.341
X82.041Y-62.741
X83.241Y-82.891
X83.241Y-84.841
X84.041Y-62.741
X84.241Y-58.341
X86.741Y-58.341
X89.291Y-58.341
X93.791Y-59.291
X94.391Y-58.341
X96.941Y-58.341
X99.441Y-58.341
X104.591Y-58.341
X107.091Y-58.341
X109.641Y-58.341
X119.541Y-54.491
X119.541Y-55.491
X120.541Y-54.491
X120.541Y-55.491
X121.541Y-54.491
X121.541Y-55.491
X122.541Y-54.491
X122.541Y-55.491
X123.541Y-54.491
X123.541Y-55.491
X125.716Y-83.616
T3
X86.391Y-74.791
X86.391Y-76.791
X86.691Y-69.566
X86.766Y-71.191
X86.891Y-65.941
X91.741Y-62.341
X91.891Y-80.023
X93.841Y-62.341
X93.891Y-80.023
X96.091Y-80.023
X96.241Y-62.341
X98.041Y-62.341
X98.291Y-80.023
X100.091Y-62.341
X100.791Y-78.341
X103.241Y-66.041
X115.266Y-65.966
X117.516Y-60.491
X118.516Y-81.791
X122.641Y-84.641
X126.191Y-82.341
X126.216Y-62.891
X126.216Y-65.566
X126.991Y-60.241
T5
X63.841Y-74.341
X63.841Y-77.341
X65.181Y-53.966
X65.181Y-56.506
X67.721Y-53.966
X67.721Y-56.506
X68.841Y-74.341
X68.841Y-77.291
X70.261Y-53.966
X70.261Y-56.506
X71.941Y-66.541
X71.941Y-71.541
X71.941Y-80.141
X71.941Y-85.141
X72.801Y-53.966
X72.801Y-56.506
X74.891Y-66.541
X74.891Y-80.141
X74.941Y-71.541
X74.941Y-85.141
X75.341Y-53.966
X75.341Y-56.506
X77.241Y-74.341
X77.241Y-77.341
X77.881Y-53.966
X77.881Y-56.506
X80.421Y-53.966
X80.421Y-56.506
X82.241Y-74.341
X82.241Y-77.291
X82.961Y-53.966
X82.961Y-56.506
X85.501Y-53.966
X85.501Y-56.506
X87.841Y-82.591
X87.841Y-85.541
X88.041Y-53.966
X88.041Y-56.506
X90.581Y-53.966
X90.581Y-56.506
X92.841Y-82.541
X92.841Y-85.541
X93.121Y-53.966
X93.121Y-56.506
X95.661Y-53.966
X95.661Y-56.506
X98.201Y-53.966
X98.201Y-56.506
X100.001Y-82.591
X100.001Y-85.541
X100.741Y-53.966
X100.741Y-56.506
X103.281Y-53.966
X103.281Y-56.506
X105.001Y-82.541
X105.001Y-85.541
X105.821Y-53.966
X105.821Y-56.506
X108.361Y-53.966
X108.361Y-56.506
X109.991Y-74.391
X109.991Y-77.341
X110.901Y-53.966
X110.901Y-56.506
X113.441Y-53.966
X113.441Y-56.506
X114.991Y-74.341
X114.991Y-77.341
X121.041Y-74.391
X121.041Y-77.341
X126.041Y-74.341
X126.041Y-77.341
T6
X119.276Y-56.991
X125.056Y-56.991
T4
G00X117.846Y-52.901
M15
G01X117.846Y-53.701
M16
G05
G00X117.846Y-56.921
M15
G01X117.846Y-58.021
M16
G05
G00X126.486Y-52.901
M15
G01X126.486Y-53.701
M16
G05
G00X126.486Y-56.921
M15
G01X126.486Y-58.021
M16
G05
T0
M30
