%TF.GenerationSoftware,KiCad,Pcbnew,(6.0.11)*%
%TF.CreationDate,2023-02-15T16:44:03+11:00*%
%TF.ProjectId,stencil_panel,7374656e-6369-46c5-9f70-616e656c2e6b,4.0.0 (Rev A)*%
%TF.SameCoordinates,Original*%
%TF.FileFunction,Paste,Bot*%
%TF.FilePolarity,Positive*%
%FSLAX46Y46*%
G04 Gerber Fmt 4.6, Leading zero omitted, Abs format (unit mm)*
G04 Created by KiCad (PCBNEW (6.0.11)) date 2023-02-15 16:44:03*
%MOMM*%
%LPD*%
G01*
G04 APERTURE LIST*
G04 Aperture macros list*
%AMRoundRect*
0 Rectangle with rounded corners*
0 $1 Rounding radius*
0 $2 $3 $4 $5 $6 $7 $8 $9 X,Y pos of 4 corners*
0 Add a 4 corners polygon primitive as box body*
4,1,4,$2,$3,$4,$5,$6,$7,$8,$9,$2,$3,0*
0 Add four circle primitives for the rounded corners*
1,1,$1+$1,$2,$3*
1,1,$1+$1,$4,$5*
1,1,$1+$1,$6,$7*
1,1,$1+$1,$8,$9*
0 Add four rect primitives between the rounded corners*
20,1,$1+$1,$2,$3,$4,$5,0*
20,1,$1+$1,$4,$5,$6,$7,0*
20,1,$1+$1,$6,$7,$8,$9,0*
20,1,$1+$1,$8,$9,$2,$3,0*%
G04 Aperture macros list end*
%ADD10C,0.200000*%
%ADD11C,0.000000*%
%ADD12C,2.525000*%
%ADD13RoundRect,0.200000X0.200000X0.275000X-0.200000X0.275000X-0.200000X-0.275000X0.200000X-0.275000X0*%
%ADD14RoundRect,0.250000X0.250000X0.475000X-0.250000X0.475000X-0.250000X-0.475000X0.250000X-0.475000X0*%
%ADD15RoundRect,0.250000X0.325000X0.650000X-0.325000X0.650000X-0.325000X-0.650000X0.325000X-0.650000X0*%
%ADD16R,2.000000X1.500000*%
%ADD17R,2.000000X3.800000*%
%ADD18RoundRect,0.250000X0.262500X0.450000X-0.262500X0.450000X-0.262500X-0.450000X0.262500X-0.450000X0*%
%ADD19RoundRect,0.250000X-0.250000X-0.475000X0.250000X-0.475000X0.250000X0.475000X-0.250000X0.475000X0*%
%ADD20RoundRect,0.250000X-0.475000X0.250000X-0.475000X-0.250000X0.475000X-0.250000X0.475000X0.250000X0*%
%ADD21RoundRect,0.250000X0.475000X-0.250000X0.475000X0.250000X-0.475000X0.250000X-0.475000X-0.250000X0*%
%ADD22RoundRect,0.250000X-0.262500X-0.450000X0.262500X-0.450000X0.262500X0.450000X-0.262500X0.450000X0*%
%ADD23RoundRect,0.250000X0.450000X-0.262500X0.450000X0.262500X-0.450000X0.262500X-0.450000X-0.262500X0*%
%ADD24R,0.600000X1.160000*%
%ADD25R,0.300000X1.160000*%
%ADD26RoundRect,0.250000X0.375000X0.625000X-0.375000X0.625000X-0.375000X-0.625000X0.375000X-0.625000X0*%
%ADD27RoundRect,0.150000X0.150000X-0.650000X0.150000X0.650000X-0.150000X0.650000X-0.150000X-0.650000X0*%
%ADD28R,1.500000X1.000000*%
%ADD29R,1.400000X1.200000*%
%ADD30RoundRect,0.249999X0.395001X-0.395001X0.395001X0.395001X-0.395001X0.395001X-0.395001X-0.395001X0*%
%ADD31RoundRect,0.050000X0.050000X-0.387500X0.050000X0.387500X-0.050000X0.387500X-0.050000X-0.387500X0*%
%ADD32RoundRect,0.050000X0.387500X-0.050000X0.387500X0.050000X-0.387500X0.050000X-0.387500X-0.050000X0*%
G04 APERTURE END LIST*
D10*
G36*
X134146447Y-221603553D02*
G01*
X134146447Y-221603553D01*
G75*
G02*
X135000000Y-221957107I353553J-353547D01*
G01*
X135000000Y-228250000D01*
G75*
G02*
X134500000Y-228750000I-500000J0D01*
G01*
X128207107Y-228750000D01*
G75*
G02*
X127853554Y-227896446I-7J500000D01*
G01*
X134146447Y-221603553D01*
G37*
X134146447Y-221603553D02*
X134146447Y-221603553D01*
G75*
G02*
X135000000Y-221957107I353553J-353547D01*
G01*
X135000000Y-228250000D01*
G75*
G02*
X134500000Y-228750000I-500000J0D01*
G01*
X128207107Y-228750000D01*
G75*
G02*
X127853554Y-227896446I-7J500000D01*
G01*
X134146447Y-221603553D01*
G36*
X324146447Y-221603553D02*
G01*
X324146447Y-221603553D01*
G75*
G02*
X325000000Y-221957107I353553J-353547D01*
G01*
X325000000Y-228250000D01*
G75*
G02*
X324500000Y-228750000I-500000J0D01*
G01*
X318207107Y-228750000D01*
G75*
G02*
X317853554Y-227896446I-7J500000D01*
G01*
X324146447Y-221603553D01*
G37*
X324146447Y-221603553D02*
X324146447Y-221603553D01*
G75*
G02*
X325000000Y-221957107I353553J-353547D01*
G01*
X325000000Y-228250000D01*
G75*
G02*
X324500000Y-228750000I-500000J0D01*
G01*
X318207107Y-228750000D01*
G75*
G02*
X317853554Y-227896446I-7J500000D01*
G01*
X324146447Y-221603553D01*
G36*
X134146447Y-81603553D02*
G01*
X134146447Y-81603553D01*
G75*
G02*
X135000000Y-81957107I353553J-353547D01*
G01*
X135000000Y-88250000D01*
G75*
G02*
X134500000Y-88750000I-500000J0D01*
G01*
X128207107Y-88750000D01*
G75*
G02*
X127853554Y-87896446I-7J500000D01*
G01*
X134146447Y-81603553D01*
G37*
X134146447Y-81603553D02*
X134146447Y-81603553D01*
G75*
G02*
X135000000Y-81957107I353553J-353547D01*
G01*
X135000000Y-88250000D01*
G75*
G02*
X134500000Y-88750000I-500000J0D01*
G01*
X128207107Y-88750000D01*
G75*
G02*
X127853554Y-87896446I-7J500000D01*
G01*
X134146447Y-81603553D01*
G36*
X324146447Y-81603553D02*
G01*
X324146447Y-81603553D01*
G75*
G02*
X325000000Y-81957107I353553J-353547D01*
G01*
X325000000Y-88250000D01*
G75*
G02*
X324500000Y-88750000I-500000J0D01*
G01*
X318207107Y-88750000D01*
G75*
G02*
X317853554Y-87896446I-7J500000D01*
G01*
X324146447Y-81603553D01*
G37*
X324146447Y-81603553D02*
X324146447Y-81603553D01*
G75*
G02*
X325000000Y-81957107I353553J-353547D01*
G01*
X325000000Y-88250000D01*
G75*
G02*
X324500000Y-88750000I-500000J0D01*
G01*
X318207107Y-88750000D01*
G75*
G02*
X317853554Y-87896446I-7J500000D01*
G01*
X324146447Y-81603553D01*
D11*
G36*
X193034315Y-140000000D02*
G01*
X193034315Y-140000000D01*
G75*
G02*
X193317157Y-140682843I-15J-400000D01*
G01*
X193282842Y-140717158D01*
G75*
G03*
X193282843Y-141282843I282858J-282842D01*
G01*
X193717158Y-141717158D01*
G75*
G02*
X193717157Y-142282843I-282858J-282842D01*
G01*
X192282842Y-143717158D01*
G75*
G02*
X191717157Y-143717157I-282842J282858D01*
G01*
X191282842Y-143282842D01*
G75*
G03*
X190717157Y-143282843I-282842J-282858D01*
G01*
X190682842Y-143317158D01*
G75*
G02*
X190000000Y-143034315I-282842J282858D01*
G01*
X190000000Y-140400000D01*
G75*
G02*
X190400000Y-140000000I400000J0D01*
G01*
X193034315Y-140000000D01*
G37*
D12*
X211262500Y-165000000D02*
G75*
G03*
X211262500Y-165000000I-1262500J0D01*
G01*
X166262500Y-160000000D02*
G75*
G03*
X166262500Y-160000000I-1262500J0D01*
G01*
X216312500Y-260000000D02*
G75*
G03*
X216312500Y-260000000I-1262500J0D01*
G01*
X21262500Y-25000000D02*
G75*
G03*
X21262500Y-25000000I-1262500J0D01*
G01*
X361262500Y-255000000D02*
G75*
G03*
X361262500Y-255000000I-1262500J0D01*
G01*
X211262500Y-25000000D02*
G75*
G03*
X211262500Y-25000000I-1262500J0D01*
G01*
X216312500Y-120000000D02*
G75*
G03*
X216312500Y-120000000I-1262500J0D01*
G01*
X21262500Y-165000000D02*
G75*
G03*
X21262500Y-165000000I-1262500J0D01*
G01*
D11*
G36*
X13034315Y-10000000D02*
G01*
X13034315Y-10000000D01*
G75*
G02*
X13317157Y-10682843I-15J-400000D01*
G01*
X13282842Y-10717158D01*
G75*
G03*
X13282843Y-11282843I282858J-282842D01*
G01*
X13717158Y-11717158D01*
G75*
G02*
X13717157Y-12282843I-282858J-282842D01*
G01*
X12282842Y-13717158D01*
G75*
G02*
X11717157Y-13717157I-282842J282858D01*
G01*
X11282842Y-13282842D01*
G75*
G03*
X10717157Y-13282843I-282842J-282858D01*
G01*
X10682842Y-13317158D01*
G75*
G02*
X10000000Y-13034315I-282842J282858D01*
G01*
X10000000Y-10400000D01*
G75*
G02*
X10400000Y-10000000I400000J0D01*
G01*
X13034315Y-10000000D01*
G37*
D12*
X356262500Y-20000000D02*
G75*
G03*
X356262500Y-20000000I-1262500J0D01*
G01*
X361262500Y-115000000D02*
G75*
G03*
X361262500Y-115000000I-1262500J0D01*
G01*
X356262500Y-160000000D02*
G75*
G03*
X356262500Y-160000000I-1262500J0D01*
G01*
X171262500Y-115000000D02*
G75*
G03*
X171262500Y-115000000I-1262500J0D01*
G01*
X171262500Y-255000000D02*
G75*
G03*
X171262500Y-255000000I-1262500J0D01*
G01*
X166262500Y-20000000D02*
G75*
G03*
X166262500Y-20000000I-1262500J0D01*
G01*
X26312500Y-260000000D02*
G75*
G03*
X26312500Y-260000000I-1262500J0D01*
G01*
X26312500Y-120000000D02*
G75*
G03*
X26312500Y-120000000I-1262500J0D01*
G01*
D13*
%TO.C,R3*%
X102916206Y-70491206D03*
X101266206Y-70491206D03*
%TD*%
D14*
%TO.C,C28*%
X279598804Y-68980900D03*
X277698804Y-68980900D03*
%TD*%
%TO.C,C35*%
X279598804Y-66718158D03*
X277698804Y-66718158D03*
%TD*%
D15*
%TO.C,C38*%
X115191206Y-207216206D03*
X112241206Y-207216206D03*
%TD*%
D14*
%TO.C,C23*%
X279591206Y-76841206D03*
X277691206Y-76841206D03*
%TD*%
D15*
%TO.C,C21*%
X305191206Y-69516206D03*
X302241206Y-69516206D03*
%TD*%
D16*
%TO.C,U7*%
X117516206Y-211716206D03*
D17*
X123816206Y-209416206D03*
D16*
X117516206Y-209416206D03*
X117516206Y-207116206D03*
%TD*%
D18*
%TO.C,R19*%
X310378706Y-200441206D03*
X308553706Y-200441206D03*
%TD*%
D19*
%TO.C,C45*%
X101351209Y-207173373D03*
X103251209Y-207173373D03*
%TD*%
D20*
%TO.C,C36*%
X285861293Y-77223288D03*
X285861293Y-79123288D03*
%TD*%
%TO.C,C67*%
X288301209Y-217220891D03*
X288301209Y-219120891D03*
%TD*%
D13*
%TO.C,R12*%
X102916206Y-208891206D03*
X101266206Y-208891206D03*
%TD*%
D21*
%TO.C,C47*%
X93841206Y-205291206D03*
X93841206Y-203391206D03*
%TD*%
D20*
%TO.C,C49*%
X98301209Y-217220891D03*
X98301209Y-219120891D03*
%TD*%
D16*
%TO.C,U1*%
X117516206Y-71716206D03*
D17*
X123816206Y-69416206D03*
D16*
X117516206Y-69416206D03*
X117516206Y-67116206D03*
%TD*%
D14*
%TO.C,C42*%
X89591206Y-211081206D03*
X87691206Y-211081206D03*
%TD*%
%TO.C,C24*%
X279591206Y-71081206D03*
X277691206Y-71081206D03*
%TD*%
D21*
%TO.C,C61*%
X297041206Y-214191206D03*
X297041206Y-212291206D03*
%TD*%
D16*
%TO.C,U10*%
X307516206Y-211716206D03*
D17*
X313816206Y-209416206D03*
D16*
X307516206Y-209416206D03*
X307516206Y-207116206D03*
%TD*%
D20*
%TO.C,C68*%
X283881394Y-217223288D03*
X283881394Y-219123288D03*
%TD*%
D22*
%TO.C,R4*%
X313918706Y-60441206D03*
X315743706Y-60441206D03*
%TD*%
D23*
%TO.C,R20*%
X297041206Y-218153706D03*
X297041206Y-216328706D03*
%TD*%
D24*
%TO.C,J7*%
X308966206Y-198051206D03*
X309766206Y-198051206D03*
D25*
X310916206Y-198051206D03*
X311916206Y-198051206D03*
X312416206Y-198051206D03*
X313416206Y-198051206D03*
D24*
X314566206Y-198051206D03*
X315366206Y-198051206D03*
X315366206Y-198051206D03*
X314566206Y-198051206D03*
D25*
X313916206Y-198051206D03*
X312916206Y-198051206D03*
X311416206Y-198051206D03*
X310416206Y-198051206D03*
D24*
X309766206Y-198051206D03*
X308966206Y-198051206D03*
%TD*%
D23*
%TO.C,R10*%
X297041206Y-78153706D03*
X297041206Y-76328706D03*
%TD*%
D13*
%TO.C,R2*%
X102916206Y-68891206D03*
X101266206Y-68891206D03*
%TD*%
%TO.C,R18*%
X292916206Y-210491206D03*
X291266206Y-210491206D03*
%TD*%
D26*
%TO.C,F2*%
X316141206Y-64216206D03*
X313341206Y-64216206D03*
%TD*%
D24*
%TO.C,J2*%
X308966206Y-58051206D03*
X309766206Y-58051206D03*
D25*
X310916206Y-58051206D03*
X311916206Y-58051206D03*
X312416206Y-58051206D03*
X313416206Y-58051206D03*
D24*
X314566206Y-58051206D03*
X315366206Y-58051206D03*
X315366206Y-58051206D03*
X314566206Y-58051206D03*
D25*
X313916206Y-58051206D03*
X312916206Y-58051206D03*
X311416206Y-58051206D03*
X310416206Y-58051206D03*
D24*
X309766206Y-58051206D03*
X308966206Y-58051206D03*
%TD*%
D15*
%TO.C,C57*%
X305191206Y-209516206D03*
X302241206Y-209516206D03*
%TD*%
D21*
%TO.C,C7*%
X107041206Y-74191206D03*
X107041206Y-72291206D03*
%TD*%
D20*
%TO.C,C34*%
X281901495Y-77223288D03*
X281901495Y-79123288D03*
%TD*%
D27*
%TO.C,U5*%
X294606207Y-79873373D03*
X293336207Y-79873373D03*
X292066207Y-79873373D03*
X290796207Y-79873373D03*
X290796207Y-72673373D03*
X292066207Y-72673373D03*
X293336207Y-72673373D03*
X294606207Y-72673373D03*
%TD*%
D20*
%TO.C,C50*%
X93881394Y-217223288D03*
X93881394Y-219123288D03*
%TD*%
D22*
%TO.C,R11*%
X123918706Y-200441206D03*
X125743706Y-200441206D03*
%TD*%
D27*
%TO.C,U3*%
X104606207Y-79873373D03*
X103336207Y-79873373D03*
X102066207Y-79873373D03*
X100796207Y-79873373D03*
X100796207Y-72673373D03*
X102066207Y-72673373D03*
X103336207Y-72673373D03*
X104606207Y-72673373D03*
%TD*%
D20*
%TO.C,C14*%
X93881394Y-77223288D03*
X93881394Y-79123288D03*
%TD*%
%TO.C,C18*%
X95861293Y-77223288D03*
X95861293Y-79123288D03*
%TD*%
D28*
%TO.C,LED1*%
X120916206Y-84666206D03*
X120916206Y-81466206D03*
X125816206Y-81466206D03*
X125816206Y-84666206D03*
%TD*%
D21*
%TO.C,C11*%
X93841206Y-65291206D03*
X93841206Y-63391206D03*
%TD*%
%TO.C,C58*%
X288041206Y-205291206D03*
X288041206Y-203391206D03*
%TD*%
D20*
%TO.C,C54*%
X95861293Y-217223288D03*
X95861293Y-219123288D03*
%TD*%
D21*
%TO.C,C62*%
X290141206Y-205291206D03*
X290141206Y-203391206D03*
%TD*%
%TO.C,C15*%
X91741206Y-65291206D03*
X91741206Y-63391206D03*
%TD*%
D14*
%TO.C,C6*%
X89591206Y-71081206D03*
X87691206Y-71081206D03*
%TD*%
D28*
%TO.C,LED2*%
X310916206Y-84666206D03*
X310916206Y-81466206D03*
X315816206Y-81466206D03*
X315816206Y-84666206D03*
%TD*%
D13*
%TO.C,R7*%
X292916206Y-68891206D03*
X291266206Y-68891206D03*
%TD*%
D29*
%TO.C,Y4*%
X279607383Y-214780647D03*
X277407383Y-214780647D03*
X277407383Y-213080647D03*
X279607383Y-213080647D03*
%TD*%
D28*
%TO.C,LED3*%
X120916206Y-224666206D03*
X120916206Y-221466206D03*
X125816206Y-221466206D03*
X125816206Y-224666206D03*
%TD*%
D22*
%TO.C,R16*%
X313918706Y-200441206D03*
X315743706Y-200441206D03*
%TD*%
D14*
%TO.C,C64*%
X279598804Y-208980900D03*
X277698804Y-208980900D03*
%TD*%
D28*
%TO.C,LED4*%
X310916206Y-224666206D03*
X310916206Y-221466206D03*
X315816206Y-221466206D03*
X315816206Y-224666206D03*
%TD*%
D29*
%TO.C,Y1*%
X89607383Y-74780647D03*
X87407383Y-74780647D03*
X87407383Y-73080647D03*
X89607383Y-73080647D03*
%TD*%
D14*
%TO.C,C5*%
X89591206Y-76841206D03*
X87691206Y-76841206D03*
%TD*%
D21*
%TO.C,C33*%
X281741206Y-65291206D03*
X281741206Y-63391206D03*
%TD*%
D29*
%TO.C,Y3*%
X89607383Y-214780647D03*
X87407383Y-214780647D03*
X87407383Y-213080647D03*
X89607383Y-213080647D03*
%TD*%
D19*
%TO.C,C63*%
X291351209Y-207173373D03*
X293251209Y-207173373D03*
%TD*%
D15*
%TO.C,C20*%
X305191206Y-67216206D03*
X302241206Y-67216206D03*
%TD*%
D20*
%TO.C,C52*%
X91901495Y-217223288D03*
X91901495Y-219123288D03*
%TD*%
D19*
%TO.C,C9*%
X101351209Y-67173373D03*
X103251209Y-67173373D03*
%TD*%
D30*
%TO.C,U6*%
X284741206Y-70441206D03*
X286341206Y-70441206D03*
X286341206Y-72041206D03*
X284741206Y-72041206D03*
D31*
X288141206Y-74678706D03*
X287741206Y-74678706D03*
X287341206Y-74678706D03*
X286941206Y-74678706D03*
X286541206Y-74678706D03*
X286141206Y-74678706D03*
X285741206Y-74678706D03*
X285341206Y-74678706D03*
X284941206Y-74678706D03*
X284541206Y-74678706D03*
X284141206Y-74678706D03*
X283741206Y-74678706D03*
X283341206Y-74678706D03*
X282941206Y-74678706D03*
D32*
X282103706Y-73841206D03*
X282103706Y-73441206D03*
X282103706Y-73041206D03*
X282103706Y-72641206D03*
X282103706Y-72241206D03*
X282103706Y-71841206D03*
X282103706Y-71441206D03*
X282103706Y-71041206D03*
X282103706Y-70641206D03*
X282103706Y-70241206D03*
X282103706Y-69841206D03*
X282103706Y-69441206D03*
X282103706Y-69041206D03*
X282103706Y-68641206D03*
D31*
X282941206Y-67803706D03*
X283341206Y-67803706D03*
X283741206Y-67803706D03*
X284141206Y-67803706D03*
X284541206Y-67803706D03*
X284941206Y-67803706D03*
X285341206Y-67803706D03*
X285741206Y-67803706D03*
X286141206Y-67803706D03*
X286541206Y-67803706D03*
X286941206Y-67803706D03*
X287341206Y-67803706D03*
X287741206Y-67803706D03*
X288141206Y-67803706D03*
D32*
X288978706Y-68641206D03*
X288978706Y-69041206D03*
X288978706Y-69441206D03*
X288978706Y-69841206D03*
X288978706Y-70241206D03*
X288978706Y-70641206D03*
X288978706Y-71041206D03*
X288978706Y-71441206D03*
X288978706Y-71841206D03*
X288978706Y-72241206D03*
X288978706Y-72641206D03*
X288978706Y-73041206D03*
X288978706Y-73441206D03*
X288978706Y-73841206D03*
%TD*%
D21*
%TO.C,C29*%
X283841206Y-65291206D03*
X283841206Y-63391206D03*
%TD*%
D15*
%TO.C,C56*%
X305191206Y-207216206D03*
X302241206Y-207216206D03*
%TD*%
D14*
%TO.C,C46*%
X89598804Y-208980900D03*
X87698804Y-208980900D03*
%TD*%
D23*
%TO.C,R6*%
X107041206Y-78153706D03*
X107041206Y-76328706D03*
%TD*%
D21*
%TO.C,C48*%
X95941206Y-205291206D03*
X95941206Y-203391206D03*
%TD*%
D30*
%TO.C,U9*%
X96341206Y-212041206D03*
X94741206Y-210441206D03*
X94741206Y-212041206D03*
X96341206Y-210441206D03*
D31*
X98141206Y-214678706D03*
X97741206Y-214678706D03*
X97341206Y-214678706D03*
X96941206Y-214678706D03*
X96541206Y-214678706D03*
X96141206Y-214678706D03*
X95741206Y-214678706D03*
X95341206Y-214678706D03*
X94941206Y-214678706D03*
X94541206Y-214678706D03*
X94141206Y-214678706D03*
X93741206Y-214678706D03*
X93341206Y-214678706D03*
X92941206Y-214678706D03*
D32*
X92103706Y-213841206D03*
X92103706Y-213441206D03*
X92103706Y-213041206D03*
X92103706Y-212641206D03*
X92103706Y-212241206D03*
X92103706Y-211841206D03*
X92103706Y-211441206D03*
X92103706Y-211041206D03*
X92103706Y-210641206D03*
X92103706Y-210241206D03*
X92103706Y-209841206D03*
X92103706Y-209441206D03*
X92103706Y-209041206D03*
X92103706Y-208641206D03*
D31*
X92941206Y-207803706D03*
X93341206Y-207803706D03*
X93741206Y-207803706D03*
X94141206Y-207803706D03*
X94541206Y-207803706D03*
X94941206Y-207803706D03*
X95341206Y-207803706D03*
X95741206Y-207803706D03*
X96141206Y-207803706D03*
X96541206Y-207803706D03*
X96941206Y-207803706D03*
X97341206Y-207803706D03*
X97741206Y-207803706D03*
X98141206Y-207803706D03*
D32*
X98978706Y-208641206D03*
X98978706Y-209041206D03*
X98978706Y-209441206D03*
X98978706Y-209841206D03*
X98978706Y-210241206D03*
X98978706Y-210641206D03*
X98978706Y-211041206D03*
X98978706Y-211441206D03*
X98978706Y-211841206D03*
X98978706Y-212241206D03*
X98978706Y-212641206D03*
X98978706Y-213041206D03*
X98978706Y-213441206D03*
X98978706Y-213841206D03*
%TD*%
D14*
%TO.C,C59*%
X279591206Y-216841206D03*
X277691206Y-216841206D03*
%TD*%
D20*
%TO.C,C31*%
X288301209Y-77220891D03*
X288301209Y-79120891D03*
%TD*%
D15*
%TO.C,C3*%
X115191206Y-69516206D03*
X112241206Y-69516206D03*
%TD*%
D21*
%TO.C,C65*%
X283841206Y-205291206D03*
X283841206Y-203391206D03*
%TD*%
D14*
%TO.C,C53*%
X89598804Y-206718158D03*
X87698804Y-206718158D03*
%TD*%
D15*
%TO.C,C2*%
X115191206Y-67216206D03*
X112241206Y-67216206D03*
%TD*%
D21*
%TO.C,C51*%
X91741206Y-205291206D03*
X91741206Y-203391206D03*
%TD*%
%TO.C,C26*%
X290141206Y-65291206D03*
X290141206Y-63391206D03*
%TD*%
D14*
%TO.C,C41*%
X89591206Y-216841206D03*
X87691206Y-216841206D03*
%TD*%
D21*
%TO.C,C69*%
X281741206Y-205291206D03*
X281741206Y-203391206D03*
%TD*%
D27*
%TO.C,U8*%
X104606207Y-219873373D03*
X103336207Y-219873373D03*
X102066207Y-219873373D03*
X100796207Y-219873373D03*
X100796207Y-212673373D03*
X102066207Y-212673373D03*
X103336207Y-212673373D03*
X104606207Y-212673373D03*
%TD*%
D21*
%TO.C,C43*%
X107041206Y-214191206D03*
X107041206Y-212291206D03*
%TD*%
%TO.C,C44*%
X100141206Y-205291206D03*
X100141206Y-203391206D03*
%TD*%
D13*
%TO.C,R17*%
X292916206Y-208891206D03*
X291266206Y-208891206D03*
%TD*%
D18*
%TO.C,R14*%
X120378706Y-200441206D03*
X118553706Y-200441206D03*
%TD*%
D20*
%TO.C,C70*%
X281901495Y-217223288D03*
X281901495Y-219123288D03*
%TD*%
D15*
%TO.C,C39*%
X115191206Y-209516206D03*
X112241206Y-209516206D03*
%TD*%
D18*
%TO.C,R9*%
X310378706Y-60441206D03*
X308553706Y-60441206D03*
%TD*%
%TO.C,R5*%
X120378706Y-60441206D03*
X118553706Y-60441206D03*
%TD*%
D21*
%TO.C,C40*%
X98041206Y-205291206D03*
X98041206Y-203391206D03*
%TD*%
D16*
%TO.C,U2*%
X307516206Y-71716206D03*
X307516206Y-69416206D03*
D17*
X313816206Y-69416206D03*
D16*
X307516206Y-67116206D03*
%TD*%
D14*
%TO.C,C17*%
X89598804Y-66718158D03*
X87698804Y-66718158D03*
%TD*%
D13*
%TO.C,R8*%
X292916206Y-70491206D03*
X291266206Y-70491206D03*
%TD*%
D21*
%TO.C,C19*%
X308531206Y-84641206D03*
X308531206Y-82741206D03*
%TD*%
D13*
%TO.C,R13*%
X102916206Y-210491206D03*
X101266206Y-210491206D03*
%TD*%
D21*
%TO.C,C1*%
X118531206Y-84641206D03*
X118531206Y-82741206D03*
%TD*%
D14*
%TO.C,C71*%
X279598804Y-206718158D03*
X277698804Y-206718158D03*
%TD*%
D21*
%TO.C,C25*%
X297041206Y-74191206D03*
X297041206Y-72291206D03*
%TD*%
D30*
%TO.C,U12*%
X284741206Y-210441206D03*
X286341206Y-210441206D03*
X286341206Y-212041206D03*
X284741206Y-212041206D03*
D31*
X288141206Y-214678706D03*
X287741206Y-214678706D03*
X287341206Y-214678706D03*
X286941206Y-214678706D03*
X286541206Y-214678706D03*
X286141206Y-214678706D03*
X285741206Y-214678706D03*
X285341206Y-214678706D03*
X284941206Y-214678706D03*
X284541206Y-214678706D03*
X284141206Y-214678706D03*
X283741206Y-214678706D03*
X283341206Y-214678706D03*
X282941206Y-214678706D03*
D32*
X282103706Y-213841206D03*
X282103706Y-213441206D03*
X282103706Y-213041206D03*
X282103706Y-212641206D03*
X282103706Y-212241206D03*
X282103706Y-211841206D03*
X282103706Y-211441206D03*
X282103706Y-211041206D03*
X282103706Y-210641206D03*
X282103706Y-210241206D03*
X282103706Y-209841206D03*
X282103706Y-209441206D03*
X282103706Y-209041206D03*
X282103706Y-208641206D03*
D31*
X282941206Y-207803706D03*
X283341206Y-207803706D03*
X283741206Y-207803706D03*
X284141206Y-207803706D03*
X284541206Y-207803706D03*
X284941206Y-207803706D03*
X285341206Y-207803706D03*
X285741206Y-207803706D03*
X286141206Y-207803706D03*
X286541206Y-207803706D03*
X286941206Y-207803706D03*
X287341206Y-207803706D03*
X287741206Y-207803706D03*
X288141206Y-207803706D03*
D32*
X288978706Y-208641206D03*
X288978706Y-209041206D03*
X288978706Y-209441206D03*
X288978706Y-209841206D03*
X288978706Y-210241206D03*
X288978706Y-210641206D03*
X288978706Y-211041206D03*
X288978706Y-211441206D03*
X288978706Y-211841206D03*
X288978706Y-212241206D03*
X288978706Y-212641206D03*
X288978706Y-213041206D03*
X288978706Y-213441206D03*
X288978706Y-213841206D03*
%TD*%
D21*
%TO.C,C30*%
X285941206Y-65291206D03*
X285941206Y-63391206D03*
%TD*%
%TO.C,C22*%
X288041206Y-65291206D03*
X288041206Y-63391206D03*
%TD*%
D14*
%TO.C,C60*%
X279591206Y-211081206D03*
X277691206Y-211081206D03*
%TD*%
%TO.C,C10*%
X89598804Y-68980900D03*
X87698804Y-68980900D03*
%TD*%
D30*
%TO.C,U4*%
X96341206Y-72041206D03*
X94741206Y-70441206D03*
X94741206Y-72041206D03*
X96341206Y-70441206D03*
D31*
X98141206Y-74678706D03*
X97741206Y-74678706D03*
X97341206Y-74678706D03*
X96941206Y-74678706D03*
X96541206Y-74678706D03*
X96141206Y-74678706D03*
X95741206Y-74678706D03*
X95341206Y-74678706D03*
X94941206Y-74678706D03*
X94541206Y-74678706D03*
X94141206Y-74678706D03*
X93741206Y-74678706D03*
X93341206Y-74678706D03*
X92941206Y-74678706D03*
D32*
X92103706Y-73841206D03*
X92103706Y-73441206D03*
X92103706Y-73041206D03*
X92103706Y-72641206D03*
X92103706Y-72241206D03*
X92103706Y-71841206D03*
X92103706Y-71441206D03*
X92103706Y-71041206D03*
X92103706Y-70641206D03*
X92103706Y-70241206D03*
X92103706Y-69841206D03*
X92103706Y-69441206D03*
X92103706Y-69041206D03*
X92103706Y-68641206D03*
D31*
X92941206Y-67803706D03*
X93341206Y-67803706D03*
X93741206Y-67803706D03*
X94141206Y-67803706D03*
X94541206Y-67803706D03*
X94941206Y-67803706D03*
X95341206Y-67803706D03*
X95741206Y-67803706D03*
X96141206Y-67803706D03*
X96541206Y-67803706D03*
X96941206Y-67803706D03*
X97341206Y-67803706D03*
X97741206Y-67803706D03*
X98141206Y-67803706D03*
D32*
X98978706Y-68641206D03*
X98978706Y-69041206D03*
X98978706Y-69441206D03*
X98978706Y-69841206D03*
X98978706Y-70241206D03*
X98978706Y-70641206D03*
X98978706Y-71041206D03*
X98978706Y-71441206D03*
X98978706Y-71841206D03*
X98978706Y-72241206D03*
X98978706Y-72641206D03*
X98978706Y-73041206D03*
X98978706Y-73441206D03*
X98978706Y-73841206D03*
%TD*%
D21*
%TO.C,C37*%
X118531206Y-224641206D03*
X118531206Y-222741206D03*
%TD*%
D24*
%TO.C,J1*%
X118966206Y-58051206D03*
X119766206Y-58051206D03*
D25*
X120916206Y-58051206D03*
X121916206Y-58051206D03*
X122416206Y-58051206D03*
X123416206Y-58051206D03*
D24*
X124566206Y-58051206D03*
X125366206Y-58051206D03*
X125366206Y-58051206D03*
X124566206Y-58051206D03*
D25*
X123916206Y-58051206D03*
X122916206Y-58051206D03*
X121416206Y-58051206D03*
X120416206Y-58051206D03*
D24*
X119766206Y-58051206D03*
X118966206Y-58051206D03*
%TD*%
D20*
%TO.C,C32*%
X283881394Y-77223288D03*
X283881394Y-79123288D03*
%TD*%
D26*
%TO.C,F1*%
X126141206Y-64216206D03*
X123341206Y-64216206D03*
%TD*%
%TO.C,F3*%
X126141206Y-204216206D03*
X123341206Y-204216206D03*
%TD*%
D27*
%TO.C,U11*%
X294606207Y-219873373D03*
X293336207Y-219873373D03*
X292066207Y-219873373D03*
X290796207Y-219873373D03*
X290796207Y-212673373D03*
X292066207Y-212673373D03*
X293336207Y-212673373D03*
X294606207Y-212673373D03*
%TD*%
D22*
%TO.C,R1*%
X123918706Y-60441206D03*
X125743706Y-60441206D03*
%TD*%
D19*
%TO.C,C27*%
X291351209Y-67173373D03*
X293251209Y-67173373D03*
%TD*%
D20*
%TO.C,C72*%
X285861293Y-217223288D03*
X285861293Y-219123288D03*
%TD*%
D29*
%TO.C,Y2*%
X279607383Y-74780647D03*
X277407383Y-74780647D03*
X277407383Y-73080647D03*
X279607383Y-73080647D03*
%TD*%
D21*
%TO.C,C12*%
X95941206Y-65291206D03*
X95941206Y-63391206D03*
%TD*%
D23*
%TO.C,R15*%
X107041206Y-218153706D03*
X107041206Y-216328706D03*
%TD*%
D21*
%TO.C,C66*%
X285941206Y-205291206D03*
X285941206Y-203391206D03*
%TD*%
%TO.C,C55*%
X308531206Y-224641206D03*
X308531206Y-222741206D03*
%TD*%
D20*
%TO.C,C13*%
X98301209Y-77220891D03*
X98301209Y-79120891D03*
%TD*%
%TO.C,C16*%
X91901495Y-77223288D03*
X91901495Y-79123288D03*
%TD*%
D26*
%TO.C,F4*%
X316141206Y-204216206D03*
X313341206Y-204216206D03*
%TD*%
D21*
%TO.C,C4*%
X98041206Y-65291206D03*
X98041206Y-63391206D03*
%TD*%
D24*
%TO.C,J5*%
X118966206Y-198051206D03*
X119766206Y-198051206D03*
D25*
X120916206Y-198051206D03*
X121916206Y-198051206D03*
X122416206Y-198051206D03*
X123416206Y-198051206D03*
D24*
X124566206Y-198051206D03*
X125366206Y-198051206D03*
X125366206Y-198051206D03*
X124566206Y-198051206D03*
D25*
X123916206Y-198051206D03*
X122916206Y-198051206D03*
X121416206Y-198051206D03*
X120416206Y-198051206D03*
D24*
X119766206Y-198051206D03*
X118966206Y-198051206D03*
%TD*%
D21*
%TO.C,C8*%
X100141206Y-65291206D03*
X100141206Y-63391206D03*
%TD*%
M02*
