  0
SECTION
  2
HEADER
  9
$ANGBASE
  50
0.0
  9
$ANGDIR
  70
1
  9
$MEASUREMENT
  70
1
  0
ENDSEC
  0
SECTION
  2
TABLES
  0
TABLE
  2
LTYPE
  70
4
  0
LTYPE
  5
40F
  2
CONTINUOUS
  70
0
  3
Solid line
  72
65
  73
0
  40
0.0
  0
LTYPE
  5
410
  2
DASHDOT
 70
0
  3
Dash Dot ____ _ ____ _
 72
65
 73
4
 40
2.0
 49
1.25
 49
-0.25
 49
0.25
 49
-0.25
  0
LTYPE
  5
411
  2
DASHED
 70
0
  3
Dashed __ __ __ __ __
 72
65
 73
2
 40
0.75
 49
0.5
 49
-0.25
  0
LTYPE
  5
43B
  2
DOTTED
 70
0
  3
Dotted .  .  .  .
 72
65
 73
2
 40
0.2
 49
0.0
 49
-0.2
  0
ENDTAB
  0
TABLE
  2
STYLE
  70
4
  0
STYLE
  2
KICAD
  70
0
  40
0
  41
1
  42
1
  50
0
  71
0
  3
isocp.shx
  0
STYLE
  2
KICADB
  70
0
  40
0
  41
1
  42
1
  50
0
  71
0
  3
isocp.shx
  0
STYLE
  2
KICADI
  70
0
  40
0
  41
1
  42
1
  50
15
  71
0
  3
isocp.shx
  0
STYLE
  2
KICADBI
  70
0
  40
0
  41
1
  42
1
  50
15
  71
0
  3
isocp.shx
  0
ENDTAB
  0
TABLE
  2
LAYER
  70
1
  0
LAYER
  2
BLACK
  70
0
  62
7
  6
CONTINUOUS
  0
ENDTAB
  0
ENDSEC
  0
SECTION
  2
ENTITIES
0
LINE
8
BLACK
6
CONTINUOUS
10
156.282
20
-84.051
11
156.284
21
-84.052
0
LINE
8
BLACK
6
CONTINUOUS
10
156.284
20
-84.052
11
156.285
21
-84.0523
0
LINE
8
BLACK
6
CONTINUOUS
10
156.285
20
-84.0523
11
156.289
21
-84.0558
0
LINE
8
BLACK
6
CONTINUOUS
10
156.289
20
-84.0558
11
156.294
21
-84.0587
0
LINE
8
BLACK
6
CONTINUOUS
10
156.294
20
-84.0587
11
156.295
21
-84.0603
0
LINE
8
BLACK
6
CONTINUOUS
10
156.295
20
-84.0603
11
156.296
21
-84.0615
0
LINE
8
BLACK
6
CONTINUOUS
10
156.296
20
-84.0615
11
156.298
21
-84.0666
0
LINE
8
BLACK
6
CONTINUOUS
10
156.298
20
-84.0666
11
156.3
21
-84.0715
0
LINE
8
BLACK
6
CONTINUOUS
10
156.3
20
-84.0715
11
156.299
21
-84.0733
0
LINE
8
BLACK
6
CONTINUOUS
10
156.299
20
-84.0733
11
156.3
21
-84.075
0
LINE
8
BLACK
6
CONTINUOUS
10
156.3
20
-84.075
11
156.3
21
-89.575
0
LINE
8
BLACK
6
CONTINUOUS
10
156.3
20
-89.575
11
156.299
21
-89.5821
0
LINE
8
BLACK
6
CONTINUOUS
10
156.299
20
-89.5821
11
156.298
21
-89.5836
0
LINE
8
BLACK
6
CONTINUOUS
10
156.298
20
-89.5836
11
156.298
21
-89.5854
0
LINE
8
BLACK
6
CONTINUOUS
10
156.298
20
-89.5854
11
156.294
21
-89.5894
0
LINE
8
BLACK
6
CONTINUOUS
10
156.294
20
-89.5894
11
156.291
21
-89.5939
0
LINE
8
BLACK
6
CONTINUOUS
10
156.291
20
-89.5939
11
156.29
21
-89.5947
0
LINE
8
BLACK
6
CONTINUOUS
10
156.29
20
-89.5947
11
156.289
21
-89.596
0
LINE
8
BLACK
6
CONTINUOUS
10
156.289
20
-89.596
11
156.283
21
-89.5975
0
LINE
8
BLACK
6
CONTINUOUS
10
156.283
20
-89.5975
11
156.279
21
-89.5998
0
LINE
8
BLACK
6
CONTINUOUS
10
156.279
20
-89.5998
11
156.277
21
-89.5995
0
LINE
8
BLACK
6
CONTINUOUS
10
156.277
20
-89.5995
11
156.275
21
-89.6
0
LINE
8
BLACK
6
CONTINUOUS
10
156.275
20
-89.6
11
149.375
21
-89.6
0
LINE
8
BLACK
6
CONTINUOUS
10
149.375
20
-89.6
11
149.368
21
-89.599
0
LINE
8
BLACK
6
CONTINUOUS
10
149.368
20
-89.599
11
149.366
21
-89.598
0
LINE
8
BLACK
6
CONTINUOUS
10
149.366
20
-89.598
11
149.365
21
-89.5977
0
LINE
8
BLACK
6
CONTINUOUS
10
149.365
20
-89.5977
11
149.361
21
-89.5942
0
LINE
8
BLACK
6
CONTINUOUS
10
149.361
20
-89.5942
11
149.356
21
-89.5913
0
LINE
8
BLACK
6
CONTINUOUS
10
149.356
20
-89.5913
11
149.355
21
-89.5897
0
LINE
8
BLACK
6
CONTINUOUS
10
149.355
20
-89.5897
11
149.354
21
-89.5885
0
LINE
8
BLACK
6
CONTINUOUS
10
149.354
20
-89.5885
11
149.352
21
-89.5834
0
LINE
8
BLACK
6
CONTINUOUS
10
149.352
20
-89.5834
11
149.35
21
-89.5785
0
LINE
8
BLACK
6
CONTINUOUS
10
149.35
20
-89.5785
11
149.351
21
-89.5767
0
LINE
8
BLACK
6
CONTINUOUS
10
149.351
20
-89.5767
11
149.35
21
-89.575
0
LINE
8
BLACK
6
CONTINUOUS
10
149.35
20
-89.575
11
149.35
21
-84.075
0
LINE
8
BLACK
6
CONTINUOUS
10
149.35
20
-84.075
11
149.351
21
-84.0679
0
LINE
8
BLACK
6
CONTINUOUS
10
149.351
20
-84.0679
11
149.352
21
-84.0664
0
LINE
8
BLACK
6
CONTINUOUS
10
149.352
20
-84.0664
11
149.352
21
-84.0646
0
LINE
8
BLACK
6
CONTINUOUS
10
149.352
20
-84.0646
11
149.356
21
-84.0606
0
LINE
8
BLACK
6
CONTINUOUS
10
149.356
20
-84.0606
11
149.359
21
-84.0561
0
LINE
8
BLACK
6
CONTINUOUS
10
149.359
20
-84.0561
11
149.36
21
-84.0553
0
LINE
8
BLACK
6
CONTINUOUS
10
149.36
20
-84.0553
11
149.361
21
-84.054
0
LINE
8
BLACK
6
CONTINUOUS
10
149.361
20
-84.054
11
149.367
21
-84.0525
0
LINE
8
BLACK
6
CONTINUOUS
10
149.367
20
-84.0525
11
149.371
21
-84.0502
0
LINE
8
BLACK
6
CONTINUOUS
10
149.371
20
-84.0502
11
149.373
21
-84.0505
0
LINE
8
BLACK
6
CONTINUOUS
10
149.373
20
-84.0505
11
149.375
21
-84.05
0
LINE
8
BLACK
6
CONTINUOUS
10
149.375
20
-84.05
11
156.275
21
-84.05
0
LINE
8
BLACK
6
CONTINUOUS
10
156.275
20
-84.05
11
156.282
21
-84.051
0
LINE
8
BLACK
6
CONTINUOUS
10
149.4
20
-84.1
11
149.4
21
-89.55
0
LINE
8
BLACK
6
CONTINUOUS
10
149.4
20
-89.55
11
156.25
21
-89.55
0
LINE
8
BLACK
6
CONTINUOUS
10
156.25
20
-89.55
11
156.25
21
-84.1
0
LINE
8
BLACK
6
CONTINUOUS
10
156.25
20
-84.1
11
149.4
21
-84.1
0
LINE
8
BLACK
6
CONTINUOUS
10
148.977
20
-85.726
11
148.979
21
-85.727
0
LINE
8
BLACK
6
CONTINUOUS
10
148.979
20
-85.727
11
148.98
21
-85.7273
0
LINE
8
BLACK
6
CONTINUOUS
10
148.98
20
-85.7273
11
148.984
21
-85.7308
0
LINE
8
BLACK
6
CONTINUOUS
10
148.984
20
-85.7308
11
148.989
21
-85.7337
0
LINE
8
BLACK
6
CONTINUOUS
10
148.989
20
-85.7337
11
148.99
21
-85.7353
0
LINE
8
BLACK
6
CONTINUOUS
10
148.99
20
-85.7353
11
148.991
21
-85.7365
0
LINE
8
BLACK
6
CONTINUOUS
10
148.991
20
-85.7365
11
148.993
21
-85.7416
0
LINE
8
BLACK
6
CONTINUOUS
10
148.993
20
-85.7416
11
148.995
21
-85.7465
0
LINE
8
BLACK
6
CONTINUOUS
10
148.995
20
-85.7465
11
148.994
21
-85.7483
0
LINE
8
BLACK
6
CONTINUOUS
10
148.994
20
-85.7483
11
148.995
21
-85.75
0
LINE
8
BLACK
6
CONTINUOUS
10
148.995
20
-85.75
11
148.995
21
-89.15
0
LINE
8
BLACK
6
CONTINUOUS
10
148.995
20
-89.15
11
148.994
21
-89.1571
0
LINE
8
BLACK
6
CONTINUOUS
10
148.994
20
-89.1571
11
148.993
21
-89.1586
0
LINE
8
BLACK
6
CONTINUOUS
10
148.993
20
-89.1586
11
148.993
21
-89.1604
0
LINE
8
BLACK
6
CONTINUOUS
10
148.993
20
-89.1604
11
148.989
21
-89.1644
0
LINE
8
BLACK
6
CONTINUOUS
10
148.989
20
-89.1644
11
148.986
21
-89.1689
0
LINE
8
BLACK
6
CONTINUOUS
10
148.986
20
-89.1689
11
148.985
21
-89.1697
0
LINE
8
BLACK
6
CONTINUOUS
10
148.985
20
-89.1697
11
148.984
21
-89.171
0
LINE
8
BLACK
6
CONTINUOUS
10
148.984
20
-89.171
11
148.978
21
-89.1725
0
LINE
8
BLACK
6
CONTINUOUS
10
148.978
20
-89.1725
11
148.974
21
-89.1748
0
LINE
8
BLACK
6
CONTINUOUS
10
148.974
20
-89.1748
11
148.972
21
-89.1745
0
LINE
8
BLACK
6
CONTINUOUS
10
148.972
20
-89.1745
11
148.97
21
-89.175
0
LINE
8
BLACK
6
CONTINUOUS
10
148.97
20
-89.175
11
147.01
21
-89.175
0
LINE
8
BLACK
6
CONTINUOUS
10
147.01
20
-89.175
11
147.003
21
-89.174
0
LINE
8
BLACK
6
CONTINUOUS
10
147.003
20
-89.174
11
147.001
21
-89.173
0
LINE
8
BLACK
6
CONTINUOUS
10
147.001
20
-89.173
11
147
21
-89.1727
0
LINE
8
BLACK
6
CONTINUOUS
10
147
20
-89.1727
11
146.996
21
-89.1692
0
LINE
8
BLACK
6
CONTINUOUS
10
146.996
20
-89.1692
11
146.991
21
-89.1663
0
LINE
8
BLACK
6
CONTINUOUS
10
146.991
20
-89.1663
11
146.99
21
-89.1647
0
LINE
8
BLACK
6
CONTINUOUS
10
146.99
20
-89.1647
11
146.989
21
-89.1635
0
LINE
8
BLACK
6
CONTINUOUS
10
146.989
20
-89.1635
11
146.987
21
-89.1584
0
LINE
8
BLACK
6
CONTINUOUS
10
146.987
20
-89.1584
11
146.985
21
-89.1535
0
LINE
8
BLACK
6
CONTINUOUS
10
146.985
20
-89.1535
11
146.986
21
-89.1517
0
LINE
8
BLACK
6
CONTINUOUS
10
146.986
20
-89.1517
11
146.985
21
-89.15
0
LINE
8
BLACK
6
CONTINUOUS
10
146.985
20
-89.15
11
146.985
21
-85.75
0
LINE
8
BLACK
6
CONTINUOUS
10
146.985
20
-85.75
11
146.986
21
-85.7429
0
LINE
8
BLACK
6
CONTINUOUS
10
146.986
20
-85.7429
11
146.987
21
-85.7414
0
LINE
8
BLACK
6
CONTINUOUS
10
146.987
20
-85.7414
11
146.987
21
-85.7396
0
LINE
8
BLACK
6
CONTINUOUS
10
146.987
20
-85.7396
11
146.991
21
-85.7356
0
LINE
8
BLACK
6
CONTINUOUS
10
146.991
20
-85.7356
11
146.994
21
-85.7311
0
LINE
8
BLACK
6
CONTINUOUS
10
146.994
20
-85.7311
11
146.995
21
-85.7303
0
LINE
8
BLACK
6
CONTINUOUS
10
146.995
20
-85.7303
11
146.996
21
-85.729
0
LINE
8
BLACK
6
CONTINUOUS
10
146.996
20
-85.729
11
147.002
21
-85.7275
0
LINE
8
BLACK
6
CONTINUOUS
10
147.002
20
-85.7275
11
147.006
21
-85.7252
0
LINE
8
BLACK
6
CONTINUOUS
10
147.006
20
-85.7252
11
147.008
21
-85.7255
0
LINE
8
BLACK
6
CONTINUOUS
10
147.008
20
-85.7255
11
147.01
21
-85.725
0
LINE
8
BLACK
6
CONTINUOUS
10
147.01
20
-85.725
11
148.97
21
-85.725
0
LINE
8
BLACK
6
CONTINUOUS
10
148.97
20
-85.725
11
148.977
21
-85.726
0
LINE
8
BLACK
6
CONTINUOUS
10
147.035
20
-85.775
11
147.035
21
-89.125
0
LINE
8
BLACK
6
CONTINUOUS
10
147.035
20
-89.125
11
148.945
21
-89.125
0
LINE
8
BLACK
6
CONTINUOUS
10
148.945
20
-89.125
11
148.945
21
-85.775
0
LINE
8
BLACK
6
CONTINUOUS
10
148.945
20
-85.775
11
147.035
21
-85.775
0
LINE
8
BLACK
6
CONTINUOUS
10
135.027
20
-75.3582
11
135.029
21
-75.3592
0
LINE
8
BLACK
6
CONTINUOUS
10
135.029
20
-75.3592
11
135.03
21
-75.3594
0
LINE
8
BLACK
6
CONTINUOUS
10
135.03
20
-75.3594
11
135.034
21
-75.3629
0
LINE
8
BLACK
6
CONTINUOUS
10
135.034
20
-75.3629
11
135.039
21
-75.3658
0
LINE
8
BLACK
6
CONTINUOUS
10
135.039
20
-75.3658
11
135.04
21
-75.3675
0
LINE
8
BLACK
6
CONTINUOUS
10
135.04
20
-75.3675
11
135.041
21
-75.3687
0
LINE
8
BLACK
6
CONTINUOUS
10
135.041
20
-75.3687
11
135.043
21
-75.3738
0
LINE
8
BLACK
6
CONTINUOUS
10
135.043
20
-75.3738
11
135.045
21
-75.3786
0
LINE
8
BLACK
6
CONTINUOUS
10
135.045
20
-75.3786
11
135.044
21
-75.3804
0
LINE
8
BLACK
6
CONTINUOUS
10
135.044
20
-75.3804
11
135.045
21
-75.3822
0
LINE
8
BLACK
6
CONTINUOUS
10
135.045
20
-75.3822
11
135.045
21
-84.6822
0
LINE
8
BLACK
6
CONTINUOUS
10
135.045
20
-84.6822
11
135.044
21
-84.6893
0
LINE
8
BLACK
6
CONTINUOUS
10
135.044
20
-84.6893
11
135.043
21
-84.6908
0
LINE
8
BLACK
6
CONTINUOUS
10
135.043
20
-84.6908
11
135.043
21
-84.6926
0
LINE
8
BLACK
6
CONTINUOUS
10
135.043
20
-84.6926
11
135.039
21
-84.6966
0
LINE
8
BLACK
6
CONTINUOUS
10
135.039
20
-84.6966
11
135.036
21
-84.7011
0
LINE
8
BLACK
6
CONTINUOUS
10
135.036
20
-84.7011
11
135.035
21
-84.7018
0
LINE
8
BLACK
6
CONTINUOUS
10
135.035
20
-84.7018
11
135.034
21
-84.7032
0
LINE
8
BLACK
6
CONTINUOUS
10
135.034
20
-84.7032
11
135.028
21
-84.7047
0
LINE
8
BLACK
6
CONTINUOUS
10
135.028
20
-84.7047
11
135.024
21
-84.7069
0
LINE
8
BLACK
6
CONTINUOUS
10
135.024
20
-84.7069
11
135.022
21
-84.7067
0
LINE
8
BLACK
6
CONTINUOUS
10
135.022
20
-84.7067
11
135.02
21
-84.7072
0
LINE
8
BLACK
6
CONTINUOUS
10
135.02
20
-84.7072
11
129.3
21
-84.7072
0
LINE
8
BLACK
6
CONTINUOUS
10
129.3
20
-84.7072
11
129.293
21
-84.7061
0
LINE
8
BLACK
6
CONTINUOUS
10
129.293
20
-84.7061
11
129.291
21
-84.7052
0
LINE
8
BLACK
6
CONTINUOUS
10
129.291
20
-84.7052
11
129.29
21
-84.7049
0
LINE
8
BLACK
6
CONTINUOUS
10
129.29
20
-84.7049
11
129.286
21
-84.7014
0
LINE
8
BLACK
6
CONTINUOUS
10
129.286
20
-84.7014
11
129.281
21
-84.6985
0
LINE
8
BLACK
6
CONTINUOUS
10
129.281
20
-84.6985
11
129.28
21
-84.6969
0
LINE
8
BLACK
6
CONTINUOUS
10
129.28
20
-84.6969
11
129.279
21
-84.6957
0
LINE
8
BLACK
6
CONTINUOUS
10
129.279
20
-84.6957
11
129.277
21
-84.6906
0
LINE
8
BLACK
6
CONTINUOUS
10
129.277
20
-84.6906
11
129.275
21
-84.6857
0
LINE
8
BLACK
6
CONTINUOUS
10
129.275
20
-84.6857
11
129.276
21
-84.6839
0
LINE
8
BLACK
6
CONTINUOUS
10
129.276
20
-84.6839
11
129.275
21
-84.6822
0
LINE
8
BLACK
6
CONTINUOUS
10
129.275
20
-84.6822
11
129.275
21
-75.3822
0
LINE
8
BLACK
6
CONTINUOUS
10
129.275
20
-75.3822
11
129.276
21
-75.3751
0
LINE
8
BLACK
6
CONTINUOUS
10
129.276
20
-75.3751
11
129.277
21
-75.3735
0
LINE
8
BLACK
6
CONTINUOUS
10
129.277
20
-75.3735
11
129.277
21
-75.3718
0
LINE
8
BLACK
6
CONTINUOUS
10
129.277
20
-75.3718
11
129.281
21
-75.3677
0
LINE
8
BLACK
6
CONTINUOUS
10
129.281
20
-75.3677
11
129.284
21
-75.3632
0
LINE
8
BLACK
6
CONTINUOUS
10
129.284
20
-75.3632
11
129.285
21
-75.3625
0
LINE
8
BLACK
6
CONTINUOUS
10
129.285
20
-75.3625
11
129.286
21
-75.3611
0
LINE
8
BLACK
6
CONTINUOUS
10
129.286
20
-75.3611
11
129.292
21
-75.3596
0
LINE
8
BLACK
6
CONTINUOUS
10
129.292
20
-75.3596
11
129.296
21
-75.3574
0
LINE
8
BLACK
6
CONTINUOUS
10
129.296
20
-75.3574
11
129.298
21
-75.3577
0
LINE
8
BLACK
6
CONTINUOUS
10
129.298
20
-75.3577
11
129.3
21
-75.3572
0
LINE
8
BLACK
6
CONTINUOUS
10
129.3
20
-75.3572
11
135.02
21
-75.3572
0
LINE
8
BLACK
6
CONTINUOUS
10
135.02
20
-75.3572
11
135.027
21
-75.3582
0
LINE
8
BLACK
6
CONTINUOUS
10
129.325
20
-75.4072
11
129.325
21
-84.6572
0
LINE
8
BLACK
6
CONTINUOUS
10
129.325
20
-84.6572
11
134.995
21
-84.6572
0
LINE
8
BLACK
6
CONTINUOUS
10
134.995
20
-84.6572
11
134.995
21
-75.4072
0
LINE
8
BLACK
6
CONTINUOUS
10
134.995
20
-75.4072
11
129.325
21
-75.4072
0
LINE
8
BLACK
6
CONTINUOUS
10
122.347
20
-80.2081
11
122.349
21
-80.2091
0
LINE
8
BLACK
6
CONTINUOUS
10
122.349
20
-80.2091
11
122.351
21
-80.2094
0
LINE
8
BLACK
6
CONTINUOUS
10
122.351
20
-80.2094
11
122.351
21
-80.2097
0
LINE
8
BLACK
6
CONTINUOUS
10
122.351
20
-80.2097
11
122.352
21
-80.2095
0
LINE
8
BLACK
6
CONTINUOUS
10
122.352
20
-80.2095
11
122.357
21
-80.2073
0
LINE
8
BLACK
6
CONTINUOUS
10
122.357
20
-80.2073
11
122.358
21
-80.2076
0
LINE
8
BLACK
6
CONTINUOUS
10
122.358
20
-80.2076
11
122.36
21
-80.2071
0
LINE
8
BLACK
6
CONTINUOUS
10
122.36
20
-80.2071
11
124.32
21
-80.2071
0
LINE
8
BLACK
6
CONTINUOUS
10
124.32
20
-80.2071
11
124.327
21
-80.2081
0
LINE
8
BLACK
6
CONTINUOUS
10
124.327
20
-80.2081
11
124.329
21
-80.2091
0
LINE
8
BLACK
6
CONTINUOUS
10
124.329
20
-80.2091
11
124.331
21
-80.2094
0
LINE
8
BLACK
6
CONTINUOUS
10
124.331
20
-80.2094
11
124.331
21
-80.2097
0
LINE
8
BLACK
6
CONTINUOUS
10
124.331
20
-80.2097
11
124.332
21
-80.2095
0
LINE
8
BLACK
6
CONTINUOUS
10
124.332
20
-80.2095
11
124.337
21
-80.2073
0
LINE
8
BLACK
6
CONTINUOUS
10
124.337
20
-80.2073
11
124.338
21
-80.2076
0
LINE
8
BLACK
6
CONTINUOUS
10
124.338
20
-80.2076
11
124.34
21
-80.2071
0
LINE
8
BLACK
6
CONTINUOUS
10
124.34
20
-80.2071
11
126.3
21
-80.2071
0
LINE
8
BLACK
6
CONTINUOUS
10
126.3
20
-80.2071
11
126.307
21
-80.2081
0
LINE
8
BLACK
6
CONTINUOUS
10
126.307
20
-80.2081
11
126.309
21
-80.2091
0
LINE
8
BLACK
6
CONTINUOUS
10
126.309
20
-80.2091
11
126.31
21
-80.2094
0
LINE
8
BLACK
6
CONTINUOUS
10
126.31
20
-80.2094
11
126.315
21
-80.2129
0
LINE
8
BLACK
6
CONTINUOUS
10
126.315
20
-80.2129
11
126.319
21
-80.2157
0
LINE
8
BLACK
6
CONTINUOUS
10
126.319
20
-80.2157
11
126.32
21
-80.2174
0
LINE
8
BLACK
6
CONTINUOUS
10
126.32
20
-80.2174
11
126.321
21
-80.2186
0
LINE
8
BLACK
6
CONTINUOUS
10
126.321
20
-80.2186
11
126.323
21
-80.2237
0
LINE
8
BLACK
6
CONTINUOUS
10
126.323
20
-80.2237
11
126.325
21
-80.2286
0
LINE
8
BLACK
6
CONTINUOUS
10
126.325
20
-80.2286
11
126.325
21
-80.2303
0
LINE
8
BLACK
6
CONTINUOUS
10
126.325
20
-80.2303
11
126.325
21
-80.2321
0
LINE
8
BLACK
6
CONTINUOUS
10
126.325
20
-80.2321
11
126.325
21
-83.6321
0
LINE
8
BLACK
6
CONTINUOUS
10
126.325
20
-83.6321
11
126.324
21
-83.6392
0
LINE
8
BLACK
6
CONTINUOUS
10
126.324
20
-83.6392
11
126.323
21
-83.6407
0
LINE
8
BLACK
6
CONTINUOUS
10
126.323
20
-83.6407
11
126.323
21
-83.6425
0
LINE
8
BLACK
6
CONTINUOUS
10
126.323
20
-83.6425
11
126.319
21
-83.6465
0
LINE
8
BLACK
6
CONTINUOUS
10
126.319
20
-83.6465
11
126.316
21
-83.651
0
LINE
8
BLACK
6
CONTINUOUS
10
126.316
20
-83.651
11
126.315
21
-83.6518
0
LINE
8
BLACK
6
CONTINUOUS
10
126.315
20
-83.6518
11
126.314
21
-83.6531
0
LINE
8
BLACK
6
CONTINUOUS
10
126.314
20
-83.6531
11
126.308
21
-83.6546
0
LINE
8
BLACK
6
CONTINUOUS
10
126.308
20
-83.6546
11
126.304
21
-83.6568
0
LINE
8
BLACK
6
CONTINUOUS
10
126.304
20
-83.6568
11
126.302
21
-83.6566
0
LINE
8
BLACK
6
CONTINUOUS
10
126.302
20
-83.6566
11
126.3
21
-83.6571
0
LINE
8
BLACK
6
CONTINUOUS
10
126.3
20
-83.6571
11
124.34
21
-83.6571
0
LINE
8
BLACK
6
CONTINUOUS
10
124.34
20
-83.6571
11
124.333
21
-83.6561
0
LINE
8
BLACK
6
CONTINUOUS
10
124.333
20
-83.6561
11
124.331
21
-83.6551
0
LINE
8
BLACK
6
CONTINUOUS
10
124.331
20
-83.6551
11
124.33
21
-83.6548
0
LINE
8
BLACK
6
CONTINUOUS
10
124.33
20
-83.6548
11
124.329
21
-83.6544
0
LINE
8
BLACK
6
CONTINUOUS
10
124.329
20
-83.6544
11
124.329
21
-83.6546
0
LINE
8
BLACK
6
CONTINUOUS
10
124.329
20
-83.6546
11
124.324
21
-83.6568
0
LINE
8
BLACK
6
CONTINUOUS
10
124.324
20
-83.6568
11
124.322
21
-83.6566
0
LINE
8
BLACK
6
CONTINUOUS
10
124.322
20
-83.6566
11
124.32
21
-83.6571
0
LINE
8
BLACK
6
CONTINUOUS
10
124.32
20
-83.6571
11
122.36
21
-83.6571
0
LINE
8
BLACK
6
CONTINUOUS
10
122.36
20
-83.6571
11
122.353
21
-83.6561
0
LINE
8
BLACK
6
CONTINUOUS
10
122.353
20
-83.6561
11
122.352
21
-83.6551
0
LINE
8
BLACK
6
CONTINUOUS
10
122.352
20
-83.6551
11
122.35
21
-83.6548
0
LINE
8
BLACK
6
CONTINUOUS
10
122.35
20
-83.6548
11
122.349
21
-83.6544
0
LINE
8
BLACK
6
CONTINUOUS
10
122.349
20
-83.6544
11
122.349
21
-83.6546
0
LINE
8
BLACK
6
CONTINUOUS
10
122.349
20
-83.6546
11
122.344
21
-83.6568
0
LINE
8
BLACK
6
CONTINUOUS
10
122.344
20
-83.6568
11
122.342
21
-83.6566
0
LINE
8
BLACK
6
CONTINUOUS
10
122.342
20
-83.6566
11
122.34
21
-83.6571
0
LINE
8
BLACK
6
CONTINUOUS
10
122.34
20
-83.6571
11
120.38
21
-83.6571
0
LINE
8
BLACK
6
CONTINUOUS
10
120.38
20
-83.6571
11
120.373
21
-83.6561
0
LINE
8
BLACK
6
CONTINUOUS
10
120.373
20
-83.6561
11
120.372
21
-83.6551
0
LINE
8
BLACK
6
CONTINUOUS
10
120.372
20
-83.6551
11
120.37
21
-83.6548
0
LINE
8
BLACK
6
CONTINUOUS
10
120.37
20
-83.6548
11
120.366
21
-83.6513
0
LINE
8
BLACK
6
CONTINUOUS
10
120.366
20
-83.6513
11
120.361
21
-83.6484
0
LINE
8
BLACK
6
CONTINUOUS
10
120.361
20
-83.6484
11
120.361
21
-83.6468
0
LINE
8
BLACK
6
CONTINUOUS
10
120.361
20
-83.6468
11
120.359
21
-83.6456
0
LINE
8
BLACK
6
CONTINUOUS
10
120.359
20
-83.6456
11
120.358
21
-83.6405
0
LINE
8
BLACK
6
CONTINUOUS
10
120.358
20
-83.6405
11
120.356
21
-83.6356
0
LINE
8
BLACK
6
CONTINUOUS
10
120.356
20
-83.6356
11
120.356
21
-83.6338
0
LINE
8
BLACK
6
CONTINUOUS
10
120.356
20
-83.6338
11
120.355
21
-83.6321
0
LINE
8
BLACK
6
CONTINUOUS
10
120.355
20
-83.6321
11
120.355
21
-80.2321
0
LINE
8
BLACK
6
CONTINUOUS
10
120.355
20
-80.2321
11
120.356
21
-80.225
0
LINE
8
BLACK
6
CONTINUOUS
10
120.356
20
-80.225
11
120.357
21
-80.2235
0
LINE
8
BLACK
6
CONTINUOUS
10
120.357
20
-80.2235
11
120.358
21
-80.2217
0
LINE
8
BLACK
6
CONTINUOUS
10
120.358
20
-80.2217
11
120.361
21
-80.2176
0
LINE
8
BLACK
6
CONTINUOUS
10
120.361
20
-80.2176
11
120.364
21
-80.2132
0
LINE
8
BLACK
6
CONTINUOUS
10
120.364
20
-80.2132
11
120.366
21
-80.2124
0
LINE
8
BLACK
6
CONTINUOUS
10
120.366
20
-80.2124
11
120.367
21
-80.211
0
LINE
8
BLACK
6
CONTINUOUS
10
120.367
20
-80.211
11
120.372
21
-80.2095
0
LINE
8
BLACK
6
CONTINUOUS
10
120.372
20
-80.2095
11
120.377
21
-80.2073
0
LINE
8
BLACK
6
CONTINUOUS
10
120.377
20
-80.2073
11
120.379
21
-80.2076
0
LINE
8
BLACK
6
CONTINUOUS
10
120.379
20
-80.2076
11
120.38
21
-80.2071
0
LINE
8
BLACK
6
CONTINUOUS
10
120.38
20
-80.2071
11
122.34
21
-80.2071
0
LINE
8
BLACK
6
CONTINUOUS
10
122.34
20
-80.2071
11
122.347
21
-80.2081
0
LINE
8
BLACK
6
CONTINUOUS
10
124.365
20
-80.2571
11
124.365
21
-83.6071
0
LINE
8
BLACK
6
CONTINUOUS
10
124.365
20
-83.6071
11
126.275
21
-83.6071
0
LINE
8
BLACK
6
CONTINUOUS
10
126.275
20
-83.6071
11
126.275
21
-80.2571
0
LINE
8
BLACK
6
CONTINUOUS
10
126.275
20
-80.2571
11
124.365
21
-80.2571
0
LINE
8
BLACK
6
CONTINUOUS
10
122.385
20
-80.2571
11
122.385
21
-83.6071
0
LINE
8
BLACK
6
CONTINUOUS
10
122.385
20
-83.6071
11
124.295
21
-83.6071
0
LINE
8
BLACK
6
CONTINUOUS
10
124.295
20
-83.6071
11
124.295
21
-80.2571
0
LINE
8
BLACK
6
CONTINUOUS
10
124.295
20
-80.2571
11
122.385
21
-80.2571
0
LINE
8
BLACK
6
CONTINUOUS
10
120.405
20
-80.2571
11
120.405
21
-83.6071
0
LINE
8
BLACK
6
CONTINUOUS
10
120.405
20
-83.6071
11
122.315
21
-83.6071
0
LINE
8
BLACK
6
CONTINUOUS
10
122.315
20
-83.6071
11
122.315
21
-80.2571
0
LINE
8
BLACK
6
CONTINUOUS
10
122.315
20
-80.2571
11
120.405
21
-80.2571
0
LINE
8
BLACK
6
CONTINUOUS
10
128.747
20
-80.2057
11
128.749
21
-80.2067
0
LINE
8
BLACK
6
CONTINUOUS
10
128.749
20
-80.2067
11
128.75
21
-80.207
0
LINE
8
BLACK
6
CONTINUOUS
10
128.75
20
-80.207
11
128.754
21
-80.2105
0
LINE
8
BLACK
6
CONTINUOUS
10
128.754
20
-80.2105
11
128.759
21
-80.2133
0
LINE
8
BLACK
6
CONTINUOUS
10
128.759
20
-80.2133
11
128.76
21
-80.215
0
LINE
8
BLACK
6
CONTINUOUS
10
128.76
20
-80.215
11
128.761
21
-80.2162
0
LINE
8
BLACK
6
CONTINUOUS
10
128.761
20
-80.2162
11
128.763
21
-80.2213
0
LINE
8
BLACK
6
CONTINUOUS
10
128.763
20
-80.2213
11
128.765
21
-80.2262
0
LINE
8
BLACK
6
CONTINUOUS
10
128.765
20
-80.2262
11
128.764
21
-80.228
0
LINE
8
BLACK
6
CONTINUOUS
10
128.764
20
-80.228
11
128.765
21
-80.2297
0
LINE
8
BLACK
6
CONTINUOUS
10
128.765
20
-80.2297
11
128.765
21
-83.6297
0
LINE
8
BLACK
6
CONTINUOUS
10
128.765
20
-83.6297
11
128.764
21
-83.6368
0
LINE
8
BLACK
6
CONTINUOUS
10
128.764
20
-83.6368
11
128.763
21
-83.6383
0
LINE
8
BLACK
6
CONTINUOUS
10
128.763
20
-83.6383
11
128.763
21
-83.6401
0
LINE
8
BLACK
6
CONTINUOUS
10
128.763
20
-83.6401
11
128.759
21
-83.6441
0
LINE
8
BLACK
6
CONTINUOUS
10
128.759
20
-83.6441
11
128.756
21
-83.6486
0
LINE
8
BLACK
6
CONTINUOUS
10
128.756
20
-83.6486
11
128.755
21
-83.6494
0
LINE
8
BLACK
6
CONTINUOUS
10
128.755
20
-83.6494
11
128.754
21
-83.6507
0
LINE
8
BLACK
6
CONTINUOUS
10
128.754
20
-83.6507
11
128.748
21
-83.6522
0
LINE
8
BLACK
6
CONTINUOUS
10
128.748
20
-83.6522
11
128.744
21
-83.6544
0
LINE
8
BLACK
6
CONTINUOUS
10
128.744
20
-83.6544
11
128.742
21
-83.6542
0
LINE
8
BLACK
6
CONTINUOUS
10
128.742
20
-83.6542
11
128.74
21
-83.6547
0
LINE
8
BLACK
6
CONTINUOUS
10
128.74
20
-83.6547
11
126.78
21
-83.6547
0
LINE
8
BLACK
6
CONTINUOUS
10
126.78
20
-83.6547
11
126.773
21
-83.6537
0
LINE
8
BLACK
6
CONTINUOUS
10
126.773
20
-83.6537
11
126.771
21
-83.6527
0
LINE
8
BLACK
6
CONTINUOUS
10
126.771
20
-83.6527
11
126.77
21
-83.6524
0
LINE
8
BLACK
6
CONTINUOUS
10
126.77
20
-83.6524
11
126.766
21
-83.6489
0
LINE
8
BLACK
6
CONTINUOUS
10
126.766
20
-83.6489
11
126.761
21
-83.646
0
LINE
8
BLACK
6
CONTINUOUS
10
126.761
20
-83.646
11
126.76
21
-83.6444
0
LINE
8
BLACK
6
CONTINUOUS
10
126.76
20
-83.6444
11
126.759
21
-83.6432
0
LINE
8
BLACK
6
CONTINUOUS
10
126.759
20
-83.6432
11
126.757
21
-83.6381
0
LINE
8
BLACK
6
CONTINUOUS
10
126.757
20
-83.6381
11
126.755
21
-83.6332
0
LINE
8
BLACK
6
CONTINUOUS
10
126.755
20
-83.6332
11
126.756
21
-83.6314
0
LINE
8
BLACK
6
CONTINUOUS
10
126.756
20
-83.6314
11
126.755
21
-83.6297
0
LINE
8
BLACK
6
CONTINUOUS
10
126.755
20
-83.6297
11
126.755
21
-80.2297
0
LINE
8
BLACK
6
CONTINUOUS
10
126.755
20
-80.2297
11
126.756
21
-80.2226
0
LINE
8
BLACK
6
CONTINUOUS
10
126.756
20
-80.2226
11
126.757
21
-80.2211
0
LINE
8
BLACK
6
CONTINUOUS
10
126.757
20
-80.2211
11
126.757
21
-80.2193
0
LINE
8
BLACK
6
CONTINUOUS
10
126.757
20
-80.2193
11
126.761
21
-80.2152
0
LINE
8
BLACK
6
CONTINUOUS
10
126.761
20
-80.2152
11
126.764
21
-80.2108
0
LINE
8
BLACK
6
CONTINUOUS
10
126.764
20
-80.2108
11
126.765
21
-80.21
0
LINE
8
BLACK
6
CONTINUOUS
10
126.765
20
-80.21
11
126.766
21
-80.2086
0
LINE
8
BLACK
6
CONTINUOUS
10
126.766
20
-80.2086
11
126.772
21
-80.2071
0
LINE
8
BLACK
6
CONTINUOUS
10
126.772
20
-80.2071
11
126.776
21
-80.2049
0
LINE
8
BLACK
6
CONTINUOUS
10
126.776
20
-80.2049
11
126.778
21
-80.2052
0
LINE
8
BLACK
6
CONTINUOUS
10
126.778
20
-80.2052
11
126.78
21
-80.2047
0
LINE
8
BLACK
6
CONTINUOUS
10
126.78
20
-80.2047
11
128.74
21
-80.2047
0
LINE
8
BLACK
6
CONTINUOUS
10
128.74
20
-80.2047
11
128.747
21
-80.2057
0
LINE
8
BLACK
6
CONTINUOUS
10
126.805
20
-80.2547
11
126.805
21
-83.6047
0
LINE
8
BLACK
6
CONTINUOUS
10
126.805
20
-83.6047
11
128.715
21
-83.6047
0
LINE
8
BLACK
6
CONTINUOUS
10
128.715
20
-83.6047
11
128.715
21
-80.2547
0
LINE
8
BLACK
6
CONTINUOUS
10
128.715
20
-80.2547
11
126.805
21
-80.2547
0
LINE
8
BLACK
6
CONTINUOUS
10
137.457
20
-79.296
11
137.459
21
-79.297
0
LINE
8
BLACK
6
CONTINUOUS
10
137.459
20
-79.297
11
137.46
21
-79.2973
0
LINE
8
BLACK
6
CONTINUOUS
10
137.46
20
-79.2973
11
137.464
21
-79.3008
0
LINE
8
BLACK
6
CONTINUOUS
10
137.464
20
-79.3008
11
137.469
21
-79.3037
0
LINE
8
BLACK
6
CONTINUOUS
10
137.469
20
-79.3037
11
137.47
21
-79.3053
0
LINE
8
BLACK
6
CONTINUOUS
10
137.47
20
-79.3053
11
137.471
21
-79.3065
0
LINE
8
BLACK
6
CONTINUOUS
10
137.471
20
-79.3065
11
137.473
21
-79.3116
0
LINE
8
BLACK
6
CONTINUOUS
10
137.473
20
-79.3116
11
137.475
21
-79.3165
0
LINE
8
BLACK
6
CONTINUOUS
10
137.475
20
-79.3165
11
137.474
21
-79.3183
0
LINE
8
BLACK
6
CONTINUOUS
10
137.474
20
-79.3183
11
137.475
21
-79.32
0
LINE
8
BLACK
6
CONTINUOUS
10
137.475
20
-79.32
11
137.475
21
-82.68
0
LINE
8
BLACK
6
CONTINUOUS
10
137.475
20
-82.68
11
137.474
21
-82.6871
0
LINE
8
BLACK
6
CONTINUOUS
10
137.474
20
-82.6871
11
137.473
21
-82.6886
0
LINE
8
BLACK
6
CONTINUOUS
10
137.473
20
-82.6886
11
137.473
21
-82.6904
0
LINE
8
BLACK
6
CONTINUOUS
10
137.473
20
-82.6904
11
137.469
21
-82.6944
0
LINE
8
BLACK
6
CONTINUOUS
10
137.469
20
-82.6944
11
137.466
21
-82.6989
0
LINE
8
BLACK
6
CONTINUOUS
10
137.466
20
-82.6989
11
137.465
21
-82.6997
0
LINE
8
BLACK
6
CONTINUOUS
10
137.465
20
-82.6997
11
137.464
21
-82.701
0
LINE
8
BLACK
6
CONTINUOUS
10
137.464
20
-82.701
11
137.458
21
-82.7025
0
LINE
8
BLACK
6
CONTINUOUS
10
137.458
20
-82.7025
11
137.454
21
-82.7048
0
LINE
8
BLACK
6
CONTINUOUS
10
137.454
20
-82.7048
11
137.452
21
-82.7045
0
LINE
8
BLACK
6
CONTINUOUS
10
137.452
20
-82.7045
11
137.45
21
-82.705
0
LINE
8
BLACK
6
CONTINUOUS
10
137.45
20
-82.705
11
135.55
21
-82.705
0
LINE
8
BLACK
6
CONTINUOUS
10
135.55
20
-82.705
11
135.543
21
-82.704
0
LINE
8
BLACK
6
CONTINUOUS
10
135.543
20
-82.704
11
135.541
21
-82.703
0
LINE
8
BLACK
6
CONTINUOUS
10
135.541
20
-82.703
11
135.54
21
-82.7027
0
LINE
8
BLACK
6
CONTINUOUS
10
135.54
20
-82.7027
11
135.536
21
-82.6992
0
LINE
8
BLACK
6
CONTINUOUS
10
135.536
20
-82.6992
11
135.531
21
-82.6963
0
LINE
8
BLACK
6
CONTINUOUS
10
135.531
20
-82.6963
11
135.53
21
-82.6947
0
LINE
8
BLACK
6
CONTINUOUS
10
135.53
20
-82.6947
11
135.529
21
-82.6935
0
LINE
8
BLACK
6
CONTINUOUS
10
135.529
20
-82.6935
11
135.527
21
-82.6884
0
LINE
8
BLACK
6
CONTINUOUS
10
135.527
20
-82.6884
11
135.525
21
-82.6835
0
LINE
8
BLACK
6
CONTINUOUS
10
135.525
20
-82.6835
11
135.526
21
-82.6817
0
LINE
8
BLACK
6
CONTINUOUS
10
135.526
20
-82.6817
11
135.525
21
-82.68
0
LINE
8
BLACK
6
CONTINUOUS
10
135.525
20
-82.68
11
135.525
21
-79.32
0
LINE
8
BLACK
6
CONTINUOUS
10
135.525
20
-79.32
11
135.526
21
-79.3129
0
LINE
8
BLACK
6
CONTINUOUS
10
135.526
20
-79.3129
11
135.527
21
-79.3114
0
LINE
8
BLACK
6
CONTINUOUS
10
135.527
20
-79.3114
11
135.527
21
-79.3096
0
LINE
8
BLACK
6
CONTINUOUS
10
135.527
20
-79.3096
11
135.531
21
-79.3056
0
LINE
8
BLACK
6
CONTINUOUS
10
135.531
20
-79.3056
11
135.534
21
-79.3011
0
LINE
8
BLACK
6
CONTINUOUS
10
135.534
20
-79.3011
11
135.535
21
-79.3003
0
LINE
8
BLACK
6
CONTINUOUS
10
135.535
20
-79.3003
11
135.536
21
-79.299
0
LINE
8
BLACK
6
CONTINUOUS
10
135.536
20
-79.299
11
135.542
21
-79.2975
0
LINE
8
BLACK
6
CONTINUOUS
10
135.542
20
-79.2975
11
135.546
21
-79.2952
0
LINE
8
BLACK
6
CONTINUOUS
10
135.546
20
-79.2952
11
135.548
21
-79.2955
0
LINE
8
BLACK
6
CONTINUOUS
10
135.548
20
-79.2955
11
135.55
21
-79.295
0
LINE
8
BLACK
6
CONTINUOUS
10
135.55
20
-79.295
11
137.45
21
-79.295
0
LINE
8
BLACK
6
CONTINUOUS
10
137.45
20
-79.295
11
137.457
21
-79.296
0
LINE
8
BLACK
6
CONTINUOUS
10
135.575
20
-79.345
11
135.575
21
-82.655
0
LINE
8
BLACK
6
CONTINUOUS
10
135.575
20
-82.655
11
137.425
21
-82.655
0
LINE
8
BLACK
6
CONTINUOUS
10
137.425
20
-82.655
11
137.425
21
-79.345
0
LINE
8
BLACK
6
CONTINUOUS
10
137.425
20
-79.345
11
135.575
21
-79.345
0
LINE
8
BLACK
6
CONTINUOUS
10
119.807
20
-79.596
11
119.809
21
-79.597
0
LINE
8
BLACK
6
CONTINUOUS
10
119.809
20
-79.597
11
119.81
21
-79.5973
0
LINE
8
BLACK
6
CONTINUOUS
10
119.81
20
-79.5973
11
119.814
21
-79.6008
0
LINE
8
BLACK
6
CONTINUOUS
10
119.814
20
-79.6008
11
119.819
21
-79.6037
0
LINE
8
BLACK
6
CONTINUOUS
10
119.819
20
-79.6037
11
119.82
21
-79.6053
0
LINE
8
BLACK
6
CONTINUOUS
10
119.82
20
-79.6053
11
119.821
21
-79.6065
0
LINE
8
BLACK
6
CONTINUOUS
10
119.821
20
-79.6065
11
119.823
21
-79.6116
0
LINE
8
BLACK
6
CONTINUOUS
10
119.823
20
-79.6116
11
119.825
21
-79.6165
0
LINE
8
BLACK
6
CONTINUOUS
10
119.825
20
-79.6165
11
119.824
21
-79.6183
0
LINE
8
BLACK
6
CONTINUOUS
10
119.824
20
-79.6183
11
119.825
21
-79.62
0
LINE
8
BLACK
6
CONTINUOUS
10
119.825
20
-79.62
11
119.825
21
-81.58
0
LINE
8
BLACK
6
CONTINUOUS
10
119.825
20
-81.58
11
119.824
21
-81.5871
0
LINE
8
BLACK
6
CONTINUOUS
10
119.824
20
-81.5871
11
119.823
21
-81.5886
0
LINE
8
BLACK
6
CONTINUOUS
10
119.823
20
-81.5886
11
119.823
21
-81.5904
0
LINE
8
BLACK
6
CONTINUOUS
10
119.823
20
-81.5904
11
119.819
21
-81.5944
0
LINE
8
BLACK
6
CONTINUOUS
10
119.819
20
-81.5944
11
119.816
21
-81.5989
0
LINE
8
BLACK
6
CONTINUOUS
10
119.816
20
-81.5989
11
119.815
21
-81.5997
0
LINE
8
BLACK
6
CONTINUOUS
10
119.815
20
-81.5997
11
119.814
21
-81.601
0
LINE
8
BLACK
6
CONTINUOUS
10
119.814
20
-81.601
11
119.808
21
-81.6025
0
LINE
8
BLACK
6
CONTINUOUS
10
119.808
20
-81.6025
11
119.804
21
-81.6048
0
LINE
8
BLACK
6
CONTINUOUS
10
119.804
20
-81.6048
11
119.802
21
-81.6045
0
LINE
8
BLACK
6
CONTINUOUS
10
119.802
20
-81.6045
11
119.8
21
-81.605
0
LINE
8
BLACK
6
CONTINUOUS
10
119.8
20
-81.605
11
116.4
21
-81.605
0
LINE
8
BLACK
6
CONTINUOUS
10
116.4
20
-81.605
11
116.393
21
-81.604
0
LINE
8
BLACK
6
CONTINUOUS
10
116.393
20
-81.604
11
116.391
21
-81.603
0
LINE
8
BLACK
6
CONTINUOUS
10
116.391
20
-81.603
11
116.39
21
-81.6027
0
LINE
8
BLACK
6
CONTINUOUS
10
116.39
20
-81.6027
11
116.386
21
-81.5992
0
LINE
8
BLACK
6
CONTINUOUS
10
116.386
20
-81.5992
11
116.381
21
-81.5963
0
LINE
8
BLACK
6
CONTINUOUS
10
116.381
20
-81.5963
11
116.38
21
-81.5947
0
LINE
8
BLACK
6
CONTINUOUS
10
116.38
20
-81.5947
11
116.379
21
-81.5935
0
LINE
8
BLACK
6
CONTINUOUS
10
116.379
20
-81.5935
11
116.377
21
-81.5884
0
LINE
8
BLACK
6
CONTINUOUS
10
116.377
20
-81.5884
11
116.375
21
-81.5835
0
LINE
8
BLACK
6
CONTINUOUS
10
116.375
20
-81.5835
11
116.376
21
-81.5817
0
LINE
8
BLACK
6
CONTINUOUS
10
116.376
20
-81.5817
11
116.375
21
-81.58
0
LINE
8
BLACK
6
CONTINUOUS
10
116.375
20
-81.58
11
116.375
21
-79.62
0
LINE
8
BLACK
6
CONTINUOUS
10
116.375
20
-79.62
11
116.376
21
-79.6129
0
LINE
8
BLACK
6
CONTINUOUS
10
116.376
20
-79.6129
11
116.377
21
-79.6114
0
LINE
8
BLACK
6
CONTINUOUS
10
116.377
20
-79.6114
11
116.377
21
-79.6096
0
LINE
8
BLACK
6
CONTINUOUS
10
116.377
20
-79.6096
11
116.381
21
-79.6056
0
LINE
8
BLACK
6
CONTINUOUS
10
116.381
20
-79.6056
11
116.384
21
-79.6011
0
LINE
8
BLACK
6
CONTINUOUS
10
116.384
20
-79.6011
11
116.385
21
-79.6003
0
LINE
8
BLACK
6
CONTINUOUS
10
116.385
20
-79.6003
11
116.386
21
-79.599
0
LINE
8
BLACK
6
CONTINUOUS
10
116.386
20
-79.599
11
116.392
21
-79.5975
0
LINE
8
BLACK
6
CONTINUOUS
10
116.392
20
-79.5975
11
116.396
21
-79.5952
0
LINE
8
BLACK
6
CONTINUOUS
10
116.396
20
-79.5952
11
116.398
21
-79.5955
0
LINE
8
BLACK
6
CONTINUOUS
10
116.398
20
-79.5955
11
116.4
21
-79.595
0
LINE
8
BLACK
6
CONTINUOUS
10
116.4
20
-79.595
11
119.8
21
-79.595
0
LINE
8
BLACK
6
CONTINUOUS
10
119.8
20
-79.595
11
119.807
21
-79.596
0
LINE
8
BLACK
6
CONTINUOUS
10
116.425
20
-79.645
11
116.425
21
-81.555
0
LINE
8
BLACK
6
CONTINUOUS
10
116.425
20
-81.555
11
119.775
21
-81.555
0
LINE
8
BLACK
6
CONTINUOUS
10
119.775
20
-81.555
11
119.775
21
-79.645
0
LINE
8
BLACK
6
CONTINUOUS
10
119.775
20
-79.645
11
116.425
21
-79.645
0
LINE
8
BLACK
6
CONTINUOUS
10
120.073
20
-75.9655
11
120.075
21
-75.9664
0
LINE
8
BLACK
6
CONTINUOUS
10
120.075
20
-75.9664
11
120.077
21
-75.9667
0
LINE
8
BLACK
6
CONTINUOUS
10
120.077
20
-75.9667
11
120.081
21
-75.9702
0
LINE
8
BLACK
6
CONTINUOUS
10
120.081
20
-75.9702
11
120.085
21
-75.9731
0
LINE
8
BLACK
6
CONTINUOUS
10
120.085
20
-75.9731
11
120.086
21
-75.9748
0
LINE
8
BLACK
6
CONTINUOUS
10
120.086
20
-75.9748
11
120.087
21
-75.9759
0
LINE
8
BLACK
6
CONTINUOUS
10
120.087
20
-75.9759
11
120.089
21
-75.9811
0
LINE
8
BLACK
6
CONTINUOUS
10
120.089
20
-75.9811
11
120.091
21
-75.9859
0
LINE
8
BLACK
6
CONTINUOUS
10
120.091
20
-75.9859
11
120.091
21
-75.9877
0
LINE
8
BLACK
6
CONTINUOUS
10
120.091
20
-75.9877
11
120.091
21
-75.9894
0
LINE
8
BLACK
6
CONTINUOUS
10
120.091
20
-75.9894
11
120.091
21
-79.3894
0
LINE
8
BLACK
6
CONTINUOUS
10
120.091
20
-79.3894
11
120.09
21
-79.3965
0
LINE
8
BLACK
6
CONTINUOUS
10
120.09
20
-79.3965
11
120.089
21
-79.3981
0
LINE
8
BLACK
6
CONTINUOUS
10
120.089
20
-79.3981
11
120.089
21
-79.3998
0
LINE
8
BLACK
6
CONTINUOUS
10
120.089
20
-79.3998
11
120.085
21
-79.4039
0
LINE
8
BLACK
6
CONTINUOUS
10
120.085
20
-79.4039
11
120.083
21
-79.4084
0
LINE
8
BLACK
6
CONTINUOUS
10
120.083
20
-79.4084
11
120.081
21
-79.4091
0
LINE
8
BLACK
6
CONTINUOUS
10
120.081
20
-79.4091
11
120.08
21
-79.4105
0
LINE
8
BLACK
6
CONTINUOUS
10
120.08
20
-79.4105
11
120.075
21
-79.412
0
LINE
8
BLACK
6
CONTINUOUS
10
120.075
20
-79.412
11
120.07
21
-79.4142
0
LINE
8
BLACK
6
CONTINUOUS
10
120.07
20
-79.4142
11
120.068
21
-79.4139
0
LINE
8
BLACK
6
CONTINUOUS
10
120.068
20
-79.4139
11
120.066
21
-79.4144
0
LINE
8
BLACK
6
CONTINUOUS
10
120.066
20
-79.4144
11
115.866
21
-79.4144
0
LINE
8
BLACK
6
CONTINUOUS
10
115.866
20
-79.4144
11
115.859
21
-79.4134
0
LINE
8
BLACK
6
CONTINUOUS
10
115.859
20
-79.4134
11
115.858
21
-79.4124
0
LINE
8
BLACK
6
CONTINUOUS
10
115.858
20
-79.4124
11
115.856
21
-79.4122
0
LINE
8
BLACK
6
CONTINUOUS
10
115.856
20
-79.4122
11
115.852
21
-79.4087
0
LINE
8
BLACK
6
CONTINUOUS
10
115.852
20
-79.4087
11
115.847
21
-79.4058
0
LINE
8
BLACK
6
CONTINUOUS
10
115.847
20
-79.4058
11
115.847
21
-79.4041
0
LINE
8
BLACK
6
CONTINUOUS
10
115.847
20
-79.4041
11
115.845
21
-79.4029
0
LINE
8
BLACK
6
CONTINUOUS
10
115.845
20
-79.4029
11
115.844
21
-79.3978
0
LINE
8
BLACK
6
CONTINUOUS
10
115.844
20
-79.3978
11
115.841
21
-79.393
0
LINE
8
BLACK
6
CONTINUOUS
10
115.841
20
-79.393
11
115.842
21
-79.3912
0
LINE
8
BLACK
6
CONTINUOUS
10
115.842
20
-79.3912
11
115.841
21
-79.3894
0
LINE
8
BLACK
6
CONTINUOUS
10
115.841
20
-79.3894
11
115.841
21
-75.9894
0
LINE
8
BLACK
6
CONTINUOUS
10
115.841
20
-75.9894
11
115.842
21
-75.9823
0
LINE
8
BLACK
6
CONTINUOUS
10
115.842
20
-75.9823
11
115.843
21
-75.9808
0
LINE
8
BLACK
6
CONTINUOUS
10
115.843
20
-75.9808
11
115.843
21
-75.979
0
LINE
8
BLACK
6
CONTINUOUS
10
115.843
20
-75.979
11
115.847
21
-75.975
0
LINE
8
BLACK
6
CONTINUOUS
10
115.847
20
-75.975
11
115.85
21
-75.9705
0
LINE
8
BLACK
6
CONTINUOUS
10
115.85
20
-75.9705
11
115.851
21
-75.9698
0
LINE
8
BLACK
6
CONTINUOUS
10
115.851
20
-75.9698
11
115.853
21
-75.9684
0
LINE
8
BLACK
6
CONTINUOUS
10
115.853
20
-75.9684
11
115.858
21
-75.9669
0
LINE
8
BLACK
6
CONTINUOUS
10
115.858
20
-75.9669
11
115.863
21
-75.9647
0
LINE
8
BLACK
6
CONTINUOUS
10
115.863
20
-75.9647
11
115.864
21
-75.965
0
LINE
8
BLACK
6
CONTINUOUS
10
115.864
20
-75.965
11
115.866
21
-75.9644
0
LINE
8
BLACK
6
CONTINUOUS
10
115.866
20
-75.9644
11
120.066
21
-75.9644
0
LINE
8
BLACK
6
CONTINUOUS
10
120.066
20
-75.9644
11
120.073
21
-75.9655
0
LINE
8
BLACK
6
CONTINUOUS
10
115.891
20
-76.0144
11
115.891
21
-79.3644
0
LINE
8
BLACK
6
CONTINUOUS
10
115.891
20
-79.3644
11
120.041
21
-79.3644
0
LINE
8
BLACK
6
CONTINUOUS
10
120.041
20
-79.3644
11
120.041
21
-76.0144
0
LINE
8
BLACK
6
CONTINUOUS
10
120.041
20
-76.0144
11
115.891
21
-76.0144
0
LINE
8
BLACK
6
CONTINUOUS
10
129.127
20
-70.856
11
129.129
21
-70.857
0
LINE
8
BLACK
6
CONTINUOUS
10
129.129
20
-70.857
11
129.13
21
-70.8573
0
LINE
8
BLACK
6
CONTINUOUS
10
129.13
20
-70.8573
11
129.134
21
-70.8608
0
LINE
8
BLACK
6
CONTINUOUS
10
129.134
20
-70.8608
11
129.139
21
-70.8637
0
LINE
8
BLACK
6
CONTINUOUS
10
129.139
20
-70.8637
11
129.14
21
-70.8653
0
LINE
8
BLACK
6
CONTINUOUS
10
129.14
20
-70.8653
11
129.141
21
-70.8665
0
LINE
8
BLACK
6
CONTINUOUS
10
129.141
20
-70.8665
11
129.143
21
-70.8716
0
LINE
8
BLACK
6
CONTINUOUS
10
129.143
20
-70.8716
11
129.145
21
-70.8765
0
LINE
8
BLACK
6
CONTINUOUS
10
129.145
20
-70.8765
11
129.144
21
-70.8783
0
LINE
8
BLACK
6
CONTINUOUS
10
129.144
20
-70.8783
11
129.145
21
-70.88
0
LINE
8
BLACK
6
CONTINUOUS
10
129.145
20
-70.88
11
129.145
21
-79.12
0
LINE
8
BLACK
6
CONTINUOUS
10
129.145
20
-79.12
11
129.144
21
-79.1271
0
LINE
8
BLACK
6
CONTINUOUS
10
129.144
20
-79.1271
11
129.143
21
-79.1286
0
LINE
8
BLACK
6
CONTINUOUS
10
129.143
20
-79.1286
11
129.143
21
-79.1304
0
LINE
8
BLACK
6
CONTINUOUS
10
129.143
20
-79.1304
11
129.139
21
-79.1344
0
LINE
8
BLACK
6
CONTINUOUS
10
129.139
20
-79.1344
11
129.136
21
-79.1389
0
LINE
8
BLACK
6
CONTINUOUS
10
129.136
20
-79.1389
11
129.135
21
-79.1397
0
LINE
8
BLACK
6
CONTINUOUS
10
129.135
20
-79.1397
11
129.134
21
-79.141
0
LINE
8
BLACK
6
CONTINUOUS
10
129.134
20
-79.141
11
129.128
21
-79.1425
0
LINE
8
BLACK
6
CONTINUOUS
10
129.128
20
-79.1425
11
129.124
21
-79.1448
0
LINE
8
BLACK
6
CONTINUOUS
10
129.124
20
-79.1448
11
129.122
21
-79.1445
0
LINE
8
BLACK
6
CONTINUOUS
10
129.122
20
-79.1445
11
129.12
21
-79.145
0
LINE
8
BLACK
6
CONTINUOUS
10
129.12
20
-79.145
11
120.88
21
-79.145
0
LINE
8
BLACK
6
CONTINUOUS
10
120.88
20
-79.145
11
120.873
21
-79.144
0
LINE
8
BLACK
6
CONTINUOUS
10
120.873
20
-79.144
11
120.871
21
-79.143
0
LINE
8
BLACK
6
CONTINUOUS
10
120.871
20
-79.143
11
120.87
21
-79.1427
0
LINE
8
BLACK
6
CONTINUOUS
10
120.87
20
-79.1427
11
120.866
21
-79.1392
0
LINE
8
BLACK
6
CONTINUOUS
10
120.866
20
-79.1392
11
120.861
21
-79.1363
0
LINE
8
BLACK
6
CONTINUOUS
10
120.861
20
-79.1363
11
120.86
21
-79.1347
0
LINE
8
BLACK
6
CONTINUOUS
10
120.86
20
-79.1347
11
120.859
21
-79.1335
0
LINE
8
BLACK
6
CONTINUOUS
10
120.859
20
-79.1335
11
120.857
21
-79.1284
0
LINE
8
BLACK
6
CONTINUOUS
10
120.857
20
-79.1284
11
120.855
21
-79.1235
0
LINE
8
BLACK
6
CONTINUOUS
10
120.855
20
-79.1235
11
120.856
21
-79.1217
0
LINE
8
BLACK
6
CONTINUOUS
10
120.856
20
-79.1217
11
120.855
21
-79.12
0
LINE
8
BLACK
6
CONTINUOUS
10
120.855
20
-79.12
11
120.855
21
-70.88
0
LINE
8
BLACK
6
CONTINUOUS
10
120.855
20
-70.88
11
120.856
21
-70.8729
0
LINE
8
BLACK
6
CONTINUOUS
10
120.856
20
-70.8729
11
120.857
21
-70.8714
0
LINE
8
BLACK
6
CONTINUOUS
10
120.857
20
-70.8714
11
120.857
21
-70.8696
0
LINE
8
BLACK
6
CONTINUOUS
10
120.857
20
-70.8696
11
120.861
21
-70.8656
0
LINE
8
BLACK
6
CONTINUOUS
10
120.861
20
-70.8656
11
120.864
21
-70.8611
0
LINE
8
BLACK
6
CONTINUOUS
10
120.864
20
-70.8611
11
120.865
21
-70.8603
0
LINE
8
BLACK
6
CONTINUOUS
10
120.865
20
-70.8603
11
120.866
21
-70.859
0
LINE
8
BLACK
6
CONTINUOUS
10
120.866
20
-70.859
11
120.872
21
-70.8575
0
LINE
8
BLACK
6
CONTINUOUS
10
120.872
20
-70.8575
11
120.876
21
-70.8552
0
LINE
8
BLACK
6
CONTINUOUS
10
120.876
20
-70.8552
11
120.878
21
-70.8555
0
LINE
8
BLACK
6
CONTINUOUS
10
120.878
20
-70.8555
11
120.88
21
-70.855
0
LINE
8
BLACK
6
CONTINUOUS
10
120.88
20
-70.855
11
129.12
21
-70.855
0
LINE
8
BLACK
6
CONTINUOUS
10
129.12
20
-70.855
11
129.127
21
-70.856
0
LINE
8
BLACK
6
CONTINUOUS
10
120.905
20
-70.905
11
120.905
21
-79.095
0
LINE
8
BLACK
6
CONTINUOUS
10
120.905
20
-79.095
11
129.095
21
-79.095
0
LINE
8
BLACK
6
CONTINUOUS
10
129.095
20
-79.095
11
129.095
21
-70.905
0
LINE
8
BLACK
6
CONTINUOUS
10
129.095
20
-70.905
11
120.905
21
-70.905
0
LINE
8
BLACK
6
CONTINUOUS
10
137.487
20
-75.276
11
137.489
21
-75.277
0
LINE
8
BLACK
6
CONTINUOUS
10
137.489
20
-75.277
11
137.49
21
-75.2773
0
LINE
8
BLACK
6
CONTINUOUS
10
137.49
20
-75.2773
11
137.494
21
-75.2808
0
LINE
8
BLACK
6
CONTINUOUS
10
137.494
20
-75.2808
11
137.499
21
-75.2837
0
LINE
8
BLACK
6
CONTINUOUS
10
137.499
20
-75.2837
11
137.5
21
-75.2853
0
LINE
8
BLACK
6
CONTINUOUS
10
137.5
20
-75.2853
11
137.501
21
-75.2865
0
LINE
8
BLACK
6
CONTINUOUS
10
137.501
20
-75.2865
11
137.503
21
-75.2916
0
LINE
8
BLACK
6
CONTINUOUS
10
137.503
20
-75.2916
11
137.505
21
-75.2965
0
LINE
8
BLACK
6
CONTINUOUS
10
137.505
20
-75.2965
11
137.504
21
-75.2983
0
LINE
8
BLACK
6
CONTINUOUS
10
137.504
20
-75.2983
11
137.505
21
-75.3
0
LINE
8
BLACK
6
CONTINUOUS
10
137.505
20
-75.3
11
137.505
21
-78.7
0
LINE
8
BLACK
6
CONTINUOUS
10
137.505
20
-78.7
11
137.504
21
-78.7071
0
LINE
8
BLACK
6
CONTINUOUS
10
137.504
20
-78.7071
11
137.503
21
-78.7086
0
LINE
8
BLACK
6
CONTINUOUS
10
137.503
20
-78.7086
11
137.503
21
-78.7104
0
LINE
8
BLACK
6
CONTINUOUS
10
137.503
20
-78.7104
11
137.499
21
-78.7144
0
LINE
8
BLACK
6
CONTINUOUS
10
137.499
20
-78.7144
11
137.496
21
-78.7189
0
LINE
8
BLACK
6
CONTINUOUS
10
137.496
20
-78.7189
11
137.495
21
-78.7197
0
LINE
8
BLACK
6
CONTINUOUS
10
137.495
20
-78.7197
11
137.494
21
-78.721
0
LINE
8
BLACK
6
CONTINUOUS
10
137.494
20
-78.721
11
137.488
21
-78.7225
0
LINE
8
BLACK
6
CONTINUOUS
10
137.488
20
-78.7225
11
137.484
21
-78.7248
0
LINE
8
BLACK
6
CONTINUOUS
10
137.484
20
-78.7248
11
137.482
21
-78.7245
0
LINE
8
BLACK
6
CONTINUOUS
10
137.482
20
-78.7245
11
137.48
21
-78.725
0
LINE
8
BLACK
6
CONTINUOUS
10
137.48
20
-78.725
11
135.52
21
-78.725
0
LINE
8
BLACK
6
CONTINUOUS
10
135.52
20
-78.725
11
135.513
21
-78.724
0
LINE
8
BLACK
6
CONTINUOUS
10
135.513
20
-78.724
11
135.511
21
-78.723
0
LINE
8
BLACK
6
CONTINUOUS
10
135.511
20
-78.723
11
135.51
21
-78.7227
0
LINE
8
BLACK
6
CONTINUOUS
10
135.51
20
-78.7227
11
135.506
21
-78.7192
0
LINE
8
BLACK
6
CONTINUOUS
10
135.506
20
-78.7192
11
135.501
21
-78.7163
0
LINE
8
BLACK
6
CONTINUOUS
10
135.501
20
-78.7163
11
135.5
21
-78.7147
0
LINE
8
BLACK
6
CONTINUOUS
10
135.5
20
-78.7147
11
135.499
21
-78.7135
0
LINE
8
BLACK
6
CONTINUOUS
10
135.499
20
-78.7135
11
135.497
21
-78.7084
0
LINE
8
BLACK
6
CONTINUOUS
10
135.497
20
-78.7084
11
135.495
21
-78.7035
0
LINE
8
BLACK
6
CONTINUOUS
10
135.495
20
-78.7035
11
135.496
21
-78.7017
0
LINE
8
BLACK
6
CONTINUOUS
10
135.496
20
-78.7017
11
135.495
21
-78.7
0
LINE
8
BLACK
6
CONTINUOUS
10
135.495
20
-78.7
11
135.495
21
-75.3
0
LINE
8
BLACK
6
CONTINUOUS
10
135.495
20
-75.3
11
135.496
21
-75.2929
0
LINE
8
BLACK
6
CONTINUOUS
10
135.496
20
-75.2929
11
135.497
21
-75.2914
0
LINE
8
BLACK
6
CONTINUOUS
10
135.497
20
-75.2914
11
135.497
21
-75.2896
0
LINE
8
BLACK
6
CONTINUOUS
10
135.497
20
-75.2896
11
135.501
21
-75.2856
0
LINE
8
BLACK
6
CONTINUOUS
10
135.501
20
-75.2856
11
135.504
21
-75.2811
0
LINE
8
BLACK
6
CONTINUOUS
10
135.504
20
-75.2811
11
135.505
21
-75.2803
0
LINE
8
BLACK
6
CONTINUOUS
10
135.505
20
-75.2803
11
135.506
21
-75.279
0
LINE
8
BLACK
6
CONTINUOUS
10
135.506
20
-75.279
11
135.512
21
-75.2775
0
LINE
8
BLACK
6
CONTINUOUS
10
135.512
20
-75.2775
11
135.516
21
-75.2752
0
LINE
8
BLACK
6
CONTINUOUS
10
135.516
20
-75.2752
11
135.518
21
-75.2755
0
LINE
8
BLACK
6
CONTINUOUS
10
135.518
20
-75.2755
11
135.52
21
-75.275
0
LINE
8
BLACK
6
CONTINUOUS
10
135.52
20
-75.275
11
137.48
21
-75.275
0
LINE
8
BLACK
6
CONTINUOUS
10
137.48
20
-75.275
11
137.487
21
-75.276
0
LINE
8
BLACK
6
CONTINUOUS
10
135.545
20
-75.325
11
135.545
21
-78.675
0
LINE
8
BLACK
6
CONTINUOUS
10
135.545
20
-78.675
11
137.455
21
-78.675
0
LINE
8
BLACK
6
CONTINUOUS
10
137.455
20
-78.675
11
137.455
21
-75.325
0
LINE
8
BLACK
6
CONTINUOUS
10
137.455
20
-75.325
11
135.545
21
-75.325
0
LINE
8
BLACK
6
CONTINUOUS
10
154.532
20
-69.551
11
154.534
21
-69.552
0
LINE
8
BLACK
6
CONTINUOUS
10
154.534
20
-69.552
11
154.535
21
-69.5523
0
LINE
8
BLACK
6
CONTINUOUS
10
154.535
20
-69.5523
11
154.539
21
-69.5558
0
LINE
8
BLACK
6
CONTINUOUS
10
154.539
20
-69.5558
11
154.544
21
-69.5587
0
LINE
8
BLACK
6
CONTINUOUS
10
154.544
20
-69.5587
11
154.545
21
-69.5603
0
LINE
8
BLACK
6
CONTINUOUS
10
154.545
20
-69.5603
11
154.546
21
-69.5615
0
LINE
8
BLACK
6
CONTINUOUS
10
154.546
20
-69.5615
11
154.548
21
-69.5666
0
LINE
8
BLACK
6
CONTINUOUS
10
154.548
20
-69.5666
11
154.55
21
-69.5715
0
LINE
8
BLACK
6
CONTINUOUS
10
154.55
20
-69.5715
11
154.549
21
-69.5733
0
LINE
8
BLACK
6
CONTINUOUS
10
154.549
20
-69.5733
11
154.55
21
-69.575
0
LINE
8
BLACK
6
CONTINUOUS
10
154.55
20
-69.575
11
154.55
21
-76.775
0
LINE
8
BLACK
6
CONTINUOUS
10
154.55
20
-76.775
11
154.549
21
-76.7821
0
LINE
8
BLACK
6
CONTINUOUS
10
154.549
20
-76.7821
11
154.548
21
-76.7836
0
LINE
8
BLACK
6
CONTINUOUS
10
154.548
20
-76.7836
11
154.548
21
-76.7854
0
LINE
8
BLACK
6
CONTINUOUS
10
154.548
20
-76.7854
11
154.544
21
-76.7894
0
LINE
8
BLACK
6
CONTINUOUS
10
154.544
20
-76.7894
11
154.541
21
-76.7939
0
LINE
8
BLACK
6
CONTINUOUS
10
154.541
20
-76.7939
11
154.54
21
-76.7947
0
LINE
8
BLACK
6
CONTINUOUS
10
154.54
20
-76.7947
11
154.539
21
-76.796
0
LINE
8
BLACK
6
CONTINUOUS
10
154.539
20
-76.796
11
154.533
21
-76.7975
0
LINE
8
BLACK
6
CONTINUOUS
10
154.533
20
-76.7975
11
154.529
21
-76.7998
0
LINE
8
BLACK
6
CONTINUOUS
10
154.529
20
-76.7998
11
154.527
21
-76.7995
0
LINE
8
BLACK
6
CONTINUOUS
10
154.527
20
-76.7995
11
154.525
21
-76.8
0
LINE
8
BLACK
6
CONTINUOUS
10
154.525
20
-76.8
11
145.725
21
-76.8
0
LINE
8
BLACK
6
CONTINUOUS
10
145.725
20
-76.8
11
145.718
21
-76.799
0
LINE
8
BLACK
6
CONTINUOUS
10
145.718
20
-76.799
11
145.716
21
-76.798
0
LINE
8
BLACK
6
CONTINUOUS
10
145.716
20
-76.798
11
145.715
21
-76.7977
0
LINE
8
BLACK
6
CONTINUOUS
10
145.715
20
-76.7977
11
145.711
21
-76.7942
0
LINE
8
BLACK
6
CONTINUOUS
10
145.711
20
-76.7942
11
145.706
21
-76.7913
0
LINE
8
BLACK
6
CONTINUOUS
10
145.706
20
-76.7913
11
145.705
21
-76.7897
0
LINE
8
BLACK
6
CONTINUOUS
10
145.705
20
-76.7897
11
145.704
21
-76.7885
0
LINE
8
BLACK
6
CONTINUOUS
10
145.704
20
-76.7885
11
145.702
21
-76.7834
0
LINE
8
BLACK
6
CONTINUOUS
10
145.702
20
-76.7834
11
145.7
21
-76.7785
0
LINE
8
BLACK
6
CONTINUOUS
10
145.7
20
-76.7785
11
145.701
21
-76.7767
0
LINE
8
BLACK
6
CONTINUOUS
10
145.701
20
-76.7767
11
145.7
21
-76.775
0
LINE
8
BLACK
6
CONTINUOUS
10
145.7
20
-76.775
11
145.7
21
-69.575
0
LINE
8
BLACK
6
CONTINUOUS
10
145.7
20
-69.575
11
145.701
21
-69.5679
0
LINE
8
BLACK
6
CONTINUOUS
10
145.701
20
-69.5679
11
145.702
21
-69.5664
0
LINE
8
BLACK
6
CONTINUOUS
10
145.702
20
-69.5664
11
145.702
21
-69.5646
0
LINE
8
BLACK
6
CONTINUOUS
10
145.702
20
-69.5646
11
145.706
21
-69.5606
0
LINE
8
BLACK
6
CONTINUOUS
10
145.706
20
-69.5606
11
145.709
21
-69.5561
0
LINE
8
BLACK
6
CONTINUOUS
10
145.709
20
-69.5561
11
145.71
21
-69.5553
0
LINE
8
BLACK
6
CONTINUOUS
10
145.71
20
-69.5553
11
145.711
21
-69.554
0
LINE
8
BLACK
6
CONTINUOUS
10
145.711
20
-69.554
11
145.717
21
-69.5525
0
LINE
8
BLACK
6
CONTINUOUS
10
145.717
20
-69.5525
11
145.721
21
-69.5502
0
LINE
8
BLACK
6
CONTINUOUS
10
145.721
20
-69.5502
11
145.723
21
-69.5505
0
LINE
8
BLACK
6
CONTINUOUS
10
145.723
20
-69.5505
11
145.725
21
-69.55
0
LINE
8
BLACK
6
CONTINUOUS
10
145.725
20
-69.55
11
154.525
21
-69.55
0
LINE
8
BLACK
6
CONTINUOUS
10
154.525
20
-69.55
11
154.532
21
-69.551
0
LINE
8
BLACK
6
CONTINUOUS
10
145.75
20
-69.6
11
145.75
21
-76.75
0
LINE
8
BLACK
6
CONTINUOUS
10
145.75
20
-76.75
11
154.5
21
-76.75
0
LINE
8
BLACK
6
CONTINUOUS
10
154.5
20
-76.75
11
154.5
21
-69.6
0
LINE
8
BLACK
6
CONTINUOUS
10
154.5
20
-69.6
11
145.75
21
-69.6
0
LINE
8
BLACK
6
CONTINUOUS
10
119.807
20
-73.836
11
119.809
21
-73.837
0
LINE
8
BLACK
6
CONTINUOUS
10
119.809
20
-73.837
11
119.81
21
-73.8373
0
LINE
8
BLACK
6
CONTINUOUS
10
119.81
20
-73.8373
11
119.814
21
-73.8408
0
LINE
8
BLACK
6
CONTINUOUS
10
119.814
20
-73.8408
11
119.819
21
-73.8437
0
LINE
8
BLACK
6
CONTINUOUS
10
119.819
20
-73.8437
11
119.82
21
-73.8453
0
LINE
8
BLACK
6
CONTINUOUS
10
119.82
20
-73.8453
11
119.821
21
-73.8465
0
LINE
8
BLACK
6
CONTINUOUS
10
119.821
20
-73.8465
11
119.823
21
-73.8516
0
LINE
8
BLACK
6
CONTINUOUS
10
119.823
20
-73.8516
11
119.825
21
-73.8565
0
LINE
8
BLACK
6
CONTINUOUS
10
119.825
20
-73.8565
11
119.824
21
-73.8583
0
LINE
8
BLACK
6
CONTINUOUS
10
119.824
20
-73.8583
11
119.825
21
-73.86
0
LINE
8
BLACK
6
CONTINUOUS
10
119.825
20
-73.86
11
119.825
21
-75.82
0
LINE
8
BLACK
6
CONTINUOUS
10
119.825
20
-75.82
11
119.824
21
-75.8271
0
LINE
8
BLACK
6
CONTINUOUS
10
119.824
20
-75.8271
11
119.823
21
-75.8286
0
LINE
8
BLACK
6
CONTINUOUS
10
119.823
20
-75.8286
11
119.823
21
-75.8304
0
LINE
8
BLACK
6
CONTINUOUS
10
119.823
20
-75.8304
11
119.819
21
-75.8344
0
LINE
8
BLACK
6
CONTINUOUS
10
119.819
20
-75.8344
11
119.816
21
-75.8389
0
LINE
8
BLACK
6
CONTINUOUS
10
119.816
20
-75.8389
11
119.815
21
-75.8397
0
LINE
8
BLACK
6
CONTINUOUS
10
119.815
20
-75.8397
11
119.814
21
-75.841
0
LINE
8
BLACK
6
CONTINUOUS
10
119.814
20
-75.841
11
119.808
21
-75.8425
0
LINE
8
BLACK
6
CONTINUOUS
10
119.808
20
-75.8425
11
119.804
21
-75.8448
0
LINE
8
BLACK
6
CONTINUOUS
10
119.804
20
-75.8448
11
119.802
21
-75.8445
0
LINE
8
BLACK
6
CONTINUOUS
10
119.802
20
-75.8445
11
119.8
21
-75.845
0
LINE
8
BLACK
6
CONTINUOUS
10
119.8
20
-75.845
11
116.4
21
-75.845
0
LINE
8
BLACK
6
CONTINUOUS
10
116.4
20
-75.845
11
116.393
21
-75.844
0
LINE
8
BLACK
6
CONTINUOUS
10
116.393
20
-75.844
11
116.391
21
-75.843
0
LINE
8
BLACK
6
CONTINUOUS
10
116.391
20
-75.843
11
116.39
21
-75.8427
0
LINE
8
BLACK
6
CONTINUOUS
10
116.39
20
-75.8427
11
116.386
21
-75.8392
0
LINE
8
BLACK
6
CONTINUOUS
10
116.386
20
-75.8392
11
116.381
21
-75.8363
0
LINE
8
BLACK
6
CONTINUOUS
10
116.381
20
-75.8363
11
116.38
21
-75.8347
0
LINE
8
BLACK
6
CONTINUOUS
10
116.38
20
-75.8347
11
116.379
21
-75.8335
0
LINE
8
BLACK
6
CONTINUOUS
10
116.379
20
-75.8335
11
116.377
21
-75.8284
0
LINE
8
BLACK
6
CONTINUOUS
10
116.377
20
-75.8284
11
116.375
21
-75.8235
0
LINE
8
BLACK
6
CONTINUOUS
10
116.375
20
-75.8235
11
116.376
21
-75.8217
0
LINE
8
BLACK
6
CONTINUOUS
10
116.376
20
-75.8217
11
116.375
21
-75.82
0
LINE
8
BLACK
6
CONTINUOUS
10
116.375
20
-75.82
11
116.375
21
-73.86
0
LINE
8
BLACK
6
CONTINUOUS
10
116.375
20
-73.86
11
116.376
21
-73.8529
0
LINE
8
BLACK
6
CONTINUOUS
10
116.376
20
-73.8529
11
116.377
21
-73.8514
0
LINE
8
BLACK
6
CONTINUOUS
10
116.377
20
-73.8514
11
116.377
21
-73.8496
0
LINE
8
BLACK
6
CONTINUOUS
10
116.377
20
-73.8496
11
116.381
21
-73.8456
0
LINE
8
BLACK
6
CONTINUOUS
10
116.381
20
-73.8456
11
116.384
21
-73.8411
0
LINE
8
BLACK
6
CONTINUOUS
10
116.384
20
-73.8411
11
116.385
21
-73.8403
0
LINE
8
BLACK
6
CONTINUOUS
10
116.385
20
-73.8403
11
116.386
21
-73.839
0
LINE
8
BLACK
6
CONTINUOUS
10
116.386
20
-73.839
11
116.392
21
-73.8375
0
LINE
8
BLACK
6
CONTINUOUS
10
116.392
20
-73.8375
11
116.396
21
-73.8352
0
LINE
8
BLACK
6
CONTINUOUS
10
116.396
20
-73.8352
11
116.398
21
-73.8355
0
LINE
8
BLACK
6
CONTINUOUS
10
116.398
20
-73.8355
11
116.4
21
-73.835
0
LINE
8
BLACK
6
CONTINUOUS
10
116.4
20
-73.835
11
119.8
21
-73.835
0
LINE
8
BLACK
6
CONTINUOUS
10
119.8
20
-73.835
11
119.807
21
-73.836
0
LINE
8
BLACK
6
CONTINUOUS
10
116.425
20
-73.885
11
116.425
21
-75.795
0
LINE
8
BLACK
6
CONTINUOUS
10
116.425
20
-75.795
11
119.775
21
-75.795
0
LINE
8
BLACK
6
CONTINUOUS
10
119.775
20
-75.795
11
119.775
21
-73.885
0
LINE
8
BLACK
6
CONTINUOUS
10
119.775
20
-73.885
11
116.425
21
-73.885
0
LINE
8
BLACK
6
CONTINUOUS
10
133.037
20
-73.496
11
133.039
21
-73.497
0
LINE
8
BLACK
6
CONTINUOUS
10
133.039
20
-73.497
11
133.04
21
-73.4973
0
LINE
8
BLACK
6
CONTINUOUS
10
133.04
20
-73.4973
11
133.044
21
-73.5008
0
LINE
8
BLACK
6
CONTINUOUS
10
133.044
20
-73.5008
11
133.049
21
-73.5037
0
LINE
8
BLACK
6
CONTINUOUS
10
133.049
20
-73.5037
11
133.05
21
-73.5053
0
LINE
8
BLACK
6
CONTINUOUS
10
133.05
20
-73.5053
11
133.051
21
-73.5065
0
LINE
8
BLACK
6
CONTINUOUS
10
133.051
20
-73.5065
11
133.053
21
-73.5116
0
LINE
8
BLACK
6
CONTINUOUS
10
133.053
20
-73.5116
11
133.055
21
-73.5165
0
LINE
8
BLACK
6
CONTINUOUS
10
133.055
20
-73.5165
11
133.054
21
-73.5183
0
LINE
8
BLACK
6
CONTINUOUS
10
133.054
20
-73.5183
11
133.055
21
-73.52
0
LINE
8
BLACK
6
CONTINUOUS
10
133.055
20
-73.52
11
133.055
21
-74.98
0
LINE
8
BLACK
6
CONTINUOUS
10
133.055
20
-74.98
11
133.054
21
-74.9871
0
LINE
8
BLACK
6
CONTINUOUS
10
133.054
20
-74.9871
11
133.053
21
-74.9886
0
LINE
8
BLACK
6
CONTINUOUS
10
133.053
20
-74.9886
11
133.053
21
-74.9904
0
LINE
8
BLACK
6
CONTINUOUS
10
133.053
20
-74.9904
11
133.049
21
-74.9944
0
LINE
8
BLACK
6
CONTINUOUS
10
133.049
20
-74.9944
11
133.046
21
-74.9989
0
LINE
8
BLACK
6
CONTINUOUS
10
133.046
20
-74.9989
11
133.045
21
-74.9997
0
LINE
8
BLACK
6
CONTINUOUS
10
133.045
20
-74.9997
11
133.044
21
-75.001
0
LINE
8
BLACK
6
CONTINUOUS
10
133.044
20
-75.001
11
133.038
21
-75.0025
0
LINE
8
BLACK
6
CONTINUOUS
10
133.038
20
-75.0025
11
133.034
21
-75.0048
0
LINE
8
BLACK
6
CONTINUOUS
10
133.034
20
-75.0048
11
133.032
21
-75.0045
0
LINE
8
BLACK
6
CONTINUOUS
10
133.032
20
-75.0045
11
133.03
21
-75.005
0
LINE
8
BLACK
6
CONTINUOUS
10
133.03
20
-75.005
11
130.07
21
-75.005
0
LINE
8
BLACK
6
CONTINUOUS
10
130.07
20
-75.005
11
130.063
21
-75.004
0
LINE
8
BLACK
6
CONTINUOUS
10
130.063
20
-75.004
11
130.061
21
-75.003
0
LINE
8
BLACK
6
CONTINUOUS
10
130.061
20
-75.003
11
130.06
21
-75.0027
0
LINE
8
BLACK
6
CONTINUOUS
10
130.06
20
-75.0027
11
130.056
21
-74.9992
0
LINE
8
BLACK
6
CONTINUOUS
10
130.056
20
-74.9992
11
130.051
21
-74.9963
0
LINE
8
BLACK
6
CONTINUOUS
10
130.051
20
-74.9963
11
130.05
21
-74.9947
0
LINE
8
BLACK
6
CONTINUOUS
10
130.05
20
-74.9947
11
130.049
21
-74.9935
0
LINE
8
BLACK
6
CONTINUOUS
10
130.049
20
-74.9935
11
130.047
21
-74.9884
0
LINE
8
BLACK
6
CONTINUOUS
10
130.047
20
-74.9884
11
130.045
21
-74.9835
0
LINE
8
BLACK
6
CONTINUOUS
10
130.045
20
-74.9835
11
130.046
21
-74.9817
0
LINE
8
BLACK
6
CONTINUOUS
10
130.046
20
-74.9817
11
130.045
21
-74.98
0
LINE
8
BLACK
6
CONTINUOUS
10
130.045
20
-74.98
11
130.045
21
-73.52
0
LINE
8
BLACK
6
CONTINUOUS
10
130.045
20
-73.52
11
130.046
21
-73.5129
0
LINE
8
BLACK
6
CONTINUOUS
10
130.046
20
-73.5129
11
130.047
21
-73.5114
0
LINE
8
BLACK
6
CONTINUOUS
10
130.047
20
-73.5114
11
130.047
21
-73.5096
0
LINE
8
BLACK
6
CONTINUOUS
10
130.047
20
-73.5096
11
130.051
21
-73.5056
0
LINE
8
BLACK
6
CONTINUOUS
10
130.051
20
-73.5056
11
130.054
21
-73.5011
0
LINE
8
BLACK
6
CONTINUOUS
10
130.054
20
-73.5011
11
130.055
21
-73.5003
0
LINE
8
BLACK
6
CONTINUOUS
10
130.055
20
-73.5003
11
130.056
21
-73.499
0
LINE
8
BLACK
6
CONTINUOUS
10
130.056
20
-73.499
11
130.062
21
-73.4975
0
LINE
8
BLACK
6
CONTINUOUS
10
130.062
20
-73.4975
11
130.066
21
-73.4952
0
LINE
8
BLACK
6
CONTINUOUS
10
130.066
20
-73.4952
11
130.068
21
-73.4955
0
LINE
8
BLACK
6
CONTINUOUS
10
130.068
20
-73.4955
11
130.07
21
-73.495
0
LINE
8
BLACK
6
CONTINUOUS
10
130.07
20
-73.495
11
133.03
21
-73.495
0
LINE
8
BLACK
6
CONTINUOUS
10
133.03
20
-73.495
11
133.037
21
-73.496
0
LINE
8
BLACK
6
CONTINUOUS
10
130.095
20
-73.545
11
130.095
21
-74.955
0
LINE
8
BLACK
6
CONTINUOUS
10
130.095
20
-74.955
11
133.005
21
-74.955
0
LINE
8
BLACK
6
CONTINUOUS
10
133.005
20
-74.955
11
133.005
21
-73.545
0
LINE
8
BLACK
6
CONTINUOUS
10
133.005
20
-73.545
11
130.095
21
-73.545
0
LINE
8
BLACK
6
CONTINUOUS
10
145.499
20
-74.4321
11
145.498
21
-74.4336
0
LINE
8
BLACK
6
CONTINUOUS
10
145.498
20
-74.4336
11
145.498
21
-74.4354
0
LINE
8
BLACK
6
CONTINUOUS
10
145.498
20
-74.4354
11
145.494
21
-74.4394
0
LINE
8
BLACK
6
CONTINUOUS
10
145.494
20
-74.4394
11
145.491
21
-74.4439
0
LINE
8
BLACK
6
CONTINUOUS
10
145.491
20
-74.4439
11
145.49
21
-74.4447
0
LINE
8
BLACK
6
CONTINUOUS
10
145.49
20
-74.4447
11
145.489
21
-74.446
0
LINE
8
BLACK
6
CONTINUOUS
10
145.489
20
-74.446
11
145.483
21
-74.4475
0
LINE
8
BLACK
6
CONTINUOUS
10
145.483
20
-74.4475
11
145.479
21
-74.4498
0
LINE
8
BLACK
6
CONTINUOUS
10
145.479
20
-74.4498
11
145.477
21
-74.4495
0
LINE
8
BLACK
6
CONTINUOUS
10
145.477
20
-74.4495
11
145.475
21
-74.45
0
LINE
8
BLACK
6
CONTINUOUS
10
145.475
20
-74.45
11
140.875
21
-74.45
0
LINE
8
BLACK
6
CONTINUOUS
10
140.875
20
-74.45
11
140.868
21
-74.449
0
LINE
8
BLACK
6
CONTINUOUS
10
140.868
20
-74.449
11
140.866
21
-74.448
0
LINE
8
BLACK
6
CONTINUOUS
10
140.866
20
-74.448
11
140.865
21
-74.4477
0
LINE
8
BLACK
6
CONTINUOUS
10
140.865
20
-74.4477
11
140.861
21
-74.4442
0
LINE
8
BLACK
6
CONTINUOUS
10
140.861
20
-74.4442
11
140.856
21
-74.4413
0
LINE
8
BLACK
6
CONTINUOUS
10
140.856
20
-74.4413
11
140.855
21
-74.4397
0
LINE
8
BLACK
6
CONTINUOUS
10
140.855
20
-74.4397
11
140.854
21
-74.4385
0
LINE
8
BLACK
6
CONTINUOUS
10
140.854
20
-74.4385
11
140.852
21
-74.4334
0
LINE
8
BLACK
6
CONTINUOUS
10
140.852
20
-74.4334
11
140.85
21
-74.4285
0
LINE
8
BLACK
6
CONTINUOUS
10
140.85
20
-74.4285
11
140.851
21
-74.4267
0
LINE
8
BLACK
6
CONTINUOUS
10
140.851
20
-74.4267
11
140.85
21
-74.425
0
LINE
8
BLACK
6
CONTINUOUS
10
140.85
20
-74.425
11
140.85
21
-69.825
0
LINE
8
BLACK
6
CONTINUOUS
10
140.85
20
-69.825
11
140.851
21
-69.8179
0
LINE
8
BLACK
6
CONTINUOUS
10
140.851
20
-69.8179
11
140.852
21
-69.8164
0
LINE
8
BLACK
6
CONTINUOUS
10
140.852
20
-69.8164
11
140.852
21
-69.8146
0
LINE
8
BLACK
6
CONTINUOUS
10
140.852
20
-69.8146
11
140.856
21
-69.8106
0
LINE
8
BLACK
6
CONTINUOUS
10
140.856
20
-69.8106
11
140.859
21
-69.8061
0
LINE
8
BLACK
6
CONTINUOUS
10
140.859
20
-69.8061
11
140.86
21
-69.8053
0
LINE
8
BLACK
6
CONTINUOUS
10
140.86
20
-69.8053
11
140.861
21
-69.804
0
LINE
8
BLACK
6
CONTINUOUS
10
140.861
20
-69.804
11
140.867
21
-69.8025
0
LINE
8
BLACK
6
CONTINUOUS
10
140.867
20
-69.8025
11
140.871
21
-69.8002
0
LINE
8
BLACK
6
CONTINUOUS
10
140.871
20
-69.8002
11
140.873
21
-69.8005
0
LINE
8
BLACK
6
CONTINUOUS
10
140.873
20
-69.8005
11
140.875
21
-69.8
0
LINE
8
BLACK
6
CONTINUOUS
10
140.875
20
-69.8
11
145.475
21
-69.8
0
LINE
8
BLACK
6
CONTINUOUS
10
145.475
20
-69.8
11
145.482
21
-69.801
0
LINE
8
BLACK
6
CONTINUOUS
10
145.482
20
-69.801
11
145.484
21
-69.802
0
LINE
8
BLACK
6
CONTINUOUS
10
145.484
20
-69.802
11
145.485
21
-69.8023
0
LINE
8
BLACK
6
CONTINUOUS
10
145.485
20
-69.8023
11
145.489
21
-69.8058
0
LINE
8
BLACK
6
CONTINUOUS
10
145.489
20
-69.8058
11
145.494
21
-69.8087
0
LINE
8
BLACK
6
CONTINUOUS
10
145.494
20
-69.8087
11
145.495
21
-69.8103
0
LINE
8
BLACK
6
CONTINUOUS
10
145.495
20
-69.8103
11
145.496
21
-69.8115
0
LINE
8
BLACK
6
CONTINUOUS
10
145.496
20
-69.8115
11
145.498
21
-69.8166
0
LINE
8
BLACK
6
CONTINUOUS
10
145.498
20
-69.8166
11
145.5
21
-69.8215
0
LINE
8
BLACK
6
CONTINUOUS
10
145.5
20
-69.8215
11
145.499
21
-69.8233
0
LINE
8
BLACK
6
CONTINUOUS
10
145.499
20
-69.8233
11
145.5
21
-69.825
0
LINE
8
BLACK
6
CONTINUOUS
10
145.5
20
-69.825
11
145.5
21
-74.425
0
LINE
8
BLACK
6
CONTINUOUS
10
145.5
20
-74.425
11
145.499
21
-74.4321
0
LINE
8
BLACK
6
CONTINUOUS
10
140.9
20
-72.15
11
140.9
21
-74.4
0
LINE
8
BLACK
6
CONTINUOUS
10
140.9
20
-74.4
11
145.45
21
-74.4
0
LINE
8
BLACK
6
CONTINUOUS
10
145.45
20
-74.4
11
145.45
21
-72.15
0
LINE
8
BLACK
6
CONTINUOUS
10
145.45
20
-72.15
11
140.9
21
-72.15
0
LINE
8
BLACK
6
CONTINUOUS
10
140.9
20
-69.85
11
140.9
21
-72.1
0
LINE
8
BLACK
6
CONTINUOUS
10
140.9
20
-72.1
11
145.45
21
-72.1
0
LINE
8
BLACK
6
CONTINUOUS
10
145.45
20
-72.1
11
145.45
21
-69.85
0
LINE
8
BLACK
6
CONTINUOUS
10
145.45
20
-69.85
11
140.9
21
-69.85
0
LINE
8
BLACK
6
CONTINUOUS
10
119.815
20
-71.7357
11
119.816
21
-71.7367
0
LINE
8
BLACK
6
CONTINUOUS
10
119.816
20
-71.7367
11
119.818
21
-71.737
0
LINE
8
BLACK
6
CONTINUOUS
10
119.818
20
-71.737
11
119.822
21
-71.7405
0
LINE
8
BLACK
6
CONTINUOUS
10
119.822
20
-71.7405
11
119.827
21
-71.7434
0
LINE
8
BLACK
6
CONTINUOUS
10
119.827
20
-71.7434
11
119.827
21
-71.745
0
LINE
8
BLACK
6
CONTINUOUS
10
119.827
20
-71.745
11
119.829
21
-71.7462
0
LINE
8
BLACK
6
CONTINUOUS
10
119.829
20
-71.7462
11
119.83
21
-71.7513
0
LINE
8
BLACK
6
CONTINUOUS
10
119.83
20
-71.7513
11
119.832
21
-71.7562
0
LINE
8
BLACK
6
CONTINUOUS
10
119.832
20
-71.7562
11
119.832
21
-71.758
0
LINE
8
BLACK
6
CONTINUOUS
10
119.832
20
-71.758
11
119.833
21
-71.7597
0
LINE
8
BLACK
6
CONTINUOUS
10
119.833
20
-71.7597
11
119.833
21
-73.7197
0
LINE
8
BLACK
6
CONTINUOUS
10
119.833
20
-73.7197
11
119.832
21
-73.7268
0
LINE
8
BLACK
6
CONTINUOUS
10
119.832
20
-73.7268
11
119.831
21
-73.7283
0
LINE
8
BLACK
6
CONTINUOUS
10
119.831
20
-73.7283
11
119.83
21
-73.7301
0
LINE
8
BLACK
6
CONTINUOUS
10
119.83
20
-73.7301
11
119.827
21
-73.7341
0
LINE
8
BLACK
6
CONTINUOUS
10
119.827
20
-73.7341
11
119.824
21
-73.7386
0
LINE
8
BLACK
6
CONTINUOUS
10
119.824
20
-73.7386
11
119.822
21
-73.7394
0
LINE
8
BLACK
6
CONTINUOUS
10
119.822
20
-73.7394
11
119.821
21
-73.7407
0
LINE
8
BLACK
6
CONTINUOUS
10
119.821
20
-73.7407
11
119.816
21
-73.7422
0
LINE
8
BLACK
6
CONTINUOUS
10
119.816
20
-73.7422
11
119.811
21
-73.7444
0
LINE
8
BLACK
6
CONTINUOUS
10
119.811
20
-73.7444
11
119.809
21
-73.7442
0
LINE
8
BLACK
6
CONTINUOUS
10
119.809
20
-73.7442
11
119.808
21
-73.7447
0
LINE
8
BLACK
6
CONTINUOUS
10
119.808
20
-73.7447
11
116.408
21
-73.7447
0
LINE
8
BLACK
6
CONTINUOUS
10
116.408
20
-73.7447
11
116.4
21
-73.7437
0
LINE
8
BLACK
6
CONTINUOUS
10
116.4
20
-73.7437
11
116.399
21
-73.7427
0
LINE
8
BLACK
6
CONTINUOUS
10
116.399
20
-73.7427
11
116.397
21
-73.7424
0
LINE
8
BLACK
6
CONTINUOUS
10
116.397
20
-73.7424
11
116.393
21
-73.7389
0
LINE
8
BLACK
6
CONTINUOUS
10
116.393
20
-73.7389
11
116.389
21
-73.736
0
LINE
8
BLACK
6
CONTINUOUS
10
116.389
20
-73.736
11
116.388
21
-73.7344
0
LINE
8
BLACK
6
CONTINUOUS
10
116.388
20
-73.7344
11
116.387
21
-73.7332
0
LINE
8
BLACK
6
CONTINUOUS
10
116.387
20
-73.7332
11
116.385
21
-73.7281
0
LINE
8
BLACK
6
CONTINUOUS
10
116.385
20
-73.7281
11
116.383
21
-73.7232
0
LINE
8
BLACK
6
CONTINUOUS
10
116.383
20
-73.7232
11
116.383
21
-73.7214
0
LINE
8
BLACK
6
CONTINUOUS
10
116.383
20
-73.7214
11
116.383
21
-73.7197
0
LINE
8
BLACK
6
CONTINUOUS
10
116.383
20
-73.7197
11
116.383
21
-71.7597
0
LINE
8
BLACK
6
CONTINUOUS
10
116.383
20
-71.7597
11
116.384
21
-71.7526
0
LINE
8
BLACK
6
CONTINUOUS
10
116.384
20
-71.7526
11
116.385
21
-71.7511
0
LINE
8
BLACK
6
CONTINUOUS
10
116.385
20
-71.7511
11
116.385
21
-71.7493
0
LINE
8
BLACK
6
CONTINUOUS
10
116.385
20
-71.7493
11
116.388
21
-71.7453
0
LINE
8
BLACK
6
CONTINUOUS
10
116.388
20
-71.7453
11
116.391
21
-71.7408
0
LINE
8
BLACK
6
CONTINUOUS
10
116.391
20
-71.7408
11
116.393
21
-71.74
0
LINE
8
BLACK
6
CONTINUOUS
10
116.393
20
-71.74
11
116.394
21
-71.7387
0
LINE
8
BLACK
6
CONTINUOUS
10
116.394
20
-71.7387
11
116.399
21
-71.7372
0
LINE
8
BLACK
6
CONTINUOUS
10
116.399
20
-71.7372
11
116.404
21
-71.7349
0
LINE
8
BLACK
6
CONTINUOUS
10
116.404
20
-71.7349
11
116.406
21
-71.7352
0
LINE
8
BLACK
6
CONTINUOUS
10
116.406
20
-71.7352
11
116.408
21
-71.7347
0
LINE
8
BLACK
6
CONTINUOUS
10
116.408
20
-71.7347
11
119.808
21
-71.7347
0
LINE
8
BLACK
6
CONTINUOUS
10
119.808
20
-71.7347
11
119.815
21
-71.7357
0
LINE
8
BLACK
6
CONTINUOUS
10
116.433
20
-71.7847
11
116.433
21
-73.6947
0
LINE
8
BLACK
6
CONTINUOUS
10
116.433
20
-73.6947
11
119.783
21
-73.6947
0
LINE
8
BLACK
6
CONTINUOUS
10
119.783
20
-73.6947
11
119.783
21
-71.7847
0
LINE
8
BLACK
6
CONTINUOUS
10
119.783
20
-71.7847
11
116.433
21
-71.7847
0
LINE
8
BLACK
6
CONTINUOUS
10
133.467
20
-69.9282
11
133.469
21
-69.9292
0
LINE
8
BLACK
6
CONTINUOUS
10
133.469
20
-69.9292
11
133.47
21
-69.9294
0
LINE
8
BLACK
6
CONTINUOUS
10
133.47
20
-69.9294
11
133.474
21
-69.9329
0
LINE
8
BLACK
6
CONTINUOUS
10
133.474
20
-69.9329
11
133.479
21
-69.9358
0
LINE
8
BLACK
6
CONTINUOUS
10
133.479
20
-69.9358
11
133.48
21
-69.9375
0
LINE
8
BLACK
6
CONTINUOUS
10
133.48
20
-69.9375
11
133.481
21
-69.9387
0
LINE
8
BLACK
6
CONTINUOUS
10
133.481
20
-69.9387
11
133.483
21
-69.9438
0
LINE
8
BLACK
6
CONTINUOUS
10
133.483
20
-69.9438
11
133.485
21
-69.9486
0
LINE
8
BLACK
6
CONTINUOUS
10
133.485
20
-69.9486
11
133.484
21
-69.9504
0
LINE
8
BLACK
6
CONTINUOUS
10
133.484
20
-69.9504
11
133.485
21
-69.9522
0
LINE
8
BLACK
6
CONTINUOUS
10
133.485
20
-69.9522
11
133.485
21
-71.9122
0
LINE
8
BLACK
6
CONTINUOUS
10
133.485
20
-71.9122
11
133.484
21
-71.9193
0
LINE
8
BLACK
6
CONTINUOUS
10
133.484
20
-71.9193
11
133.483
21
-71.9208
0
LINE
8
BLACK
6
CONTINUOUS
10
133.483
20
-71.9208
11
133.483
21
-71.9226
0
LINE
8
BLACK
6
CONTINUOUS
10
133.483
20
-71.9226
11
133.479
21
-71.9266
0
LINE
8
BLACK
6
CONTINUOUS
10
133.479
20
-71.9266
11
133.476
21
-71.9311
0
LINE
8
BLACK
6
CONTINUOUS
10
133.476
20
-71.9311
11
133.475
21
-71.9318
0
LINE
8
BLACK
6
CONTINUOUS
10
133.475
20
-71.9318
11
133.474
21
-71.9332
0
LINE
8
BLACK
6
CONTINUOUS
10
133.474
20
-71.9332
11
133.468
21
-71.9347
0
LINE
8
BLACK
6
CONTINUOUS
10
133.468
20
-71.9347
11
133.464
21
-71.9369
0
LINE
8
BLACK
6
CONTINUOUS
10
133.464
20
-71.9369
11
133.462
21
-71.9367
0
LINE
8
BLACK
6
CONTINUOUS
10
133.462
20
-71.9367
11
133.46
21
-71.9372
0
LINE
8
BLACK
6
CONTINUOUS
10
133.46
20
-71.9372
11
133.055
21
-71.9372
0
LINE
8
BLACK
6
CONTINUOUS
10
133.055
20
-71.9372
11
133.055
21
-73.38
0
LINE
8
BLACK
6
CONTINUOUS
10
133.055
20
-73.38
11
133.054
21
-73.3871
0
LINE
8
BLACK
6
CONTINUOUS
10
133.054
20
-73.3871
11
133.053
21
-73.3886
0
LINE
8
BLACK
6
CONTINUOUS
10
133.053
20
-73.3886
11
133.053
21
-73.3904
0
LINE
8
BLACK
6
CONTINUOUS
10
133.053
20
-73.3904
11
133.049
21
-73.3944
0
LINE
8
BLACK
6
CONTINUOUS
10
133.049
20
-73.3944
11
133.046
21
-73.3989
0
LINE
8
BLACK
6
CONTINUOUS
10
133.046
20
-73.3989
11
133.045
21
-73.3997
0
LINE
8
BLACK
6
CONTINUOUS
10
133.045
20
-73.3997
11
133.044
21
-73.401
0
LINE
8
BLACK
6
CONTINUOUS
10
133.044
20
-73.401
11
133.038
21
-73.4025
0
LINE
8
BLACK
6
CONTINUOUS
10
133.038
20
-73.4025
11
133.034
21
-73.4048
0
LINE
8
BLACK
6
CONTINUOUS
10
133.034
20
-73.4048
11
133.032
21
-73.4045
0
LINE
8
BLACK
6
CONTINUOUS
10
133.032
20
-73.4045
11
133.03
21
-73.405
0
LINE
8
BLACK
6
CONTINUOUS
10
133.03
20
-73.405
11
130.07
21
-73.405
0
LINE
8
BLACK
6
CONTINUOUS
10
130.07
20
-73.405
11
130.063
21
-73.404
0
LINE
8
BLACK
6
CONTINUOUS
10
130.063
20
-73.404
11
130.061
21
-73.403
0
LINE
8
BLACK
6
CONTINUOUS
10
130.061
20
-73.403
11
130.06
21
-73.4027
0
LINE
8
BLACK
6
CONTINUOUS
10
130.06
20
-73.4027
11
130.056
21
-73.3992
0
LINE
8
BLACK
6
CONTINUOUS
10
130.056
20
-73.3992
11
130.051
21
-73.3963
0
LINE
8
BLACK
6
CONTINUOUS
10
130.051
20
-73.3963
11
130.05
21
-73.3947
0
LINE
8
BLACK
6
CONTINUOUS
10
130.05
20
-73.3947
11
130.049
21
-73.3935
0
LINE
8
BLACK
6
CONTINUOUS
10
130.049
20
-73.3935
11
130.047
21
-73.3884
0
LINE
8
BLACK
6
CONTINUOUS
10
130.047
20
-73.3884
11
130.045
21
-73.3835
0
LINE
8
BLACK
6
CONTINUOUS
10
130.045
20
-73.3835
11
130.046
21
-73.3817
0
LINE
8
BLACK
6
CONTINUOUS
10
130.046
20
-73.3817
11
130.045
21
-73.38
0
LINE
8
BLACK
6
CONTINUOUS
10
130.045
20
-73.38
11
130.045
21
-71.931
0
LINE
8
BLACK
6
CONTINUOUS
10
130.045
20
-71.931
11
130.041
21
-71.9285
0
LINE
8
BLACK
6
CONTINUOUS
10
130.041
20
-71.9285
11
130.04
21
-71.9269
0
LINE
8
BLACK
6
CONTINUOUS
10
130.04
20
-71.9269
11
130.039
21
-71.9257
0
LINE
8
BLACK
6
CONTINUOUS
10
130.039
20
-71.9257
11
130.037
21
-71.9206
0
LINE
8
BLACK
6
CONTINUOUS
10
130.037
20
-71.9206
11
130.035
21
-71.9157
0
LINE
8
BLACK
6
CONTINUOUS
10
130.035
20
-71.9157
11
130.036
21
-71.9139
0
LINE
8
BLACK
6
CONTINUOUS
10
130.036
20
-71.9139
11
130.035
21
-71.9122
0
LINE
8
BLACK
6
CONTINUOUS
10
130.035
20
-71.9122
11
130.035
21
-69.9522
0
LINE
8
BLACK
6
CONTINUOUS
10
130.035
20
-69.9522
11
130.036
21
-69.9451
0
LINE
8
BLACK
6
CONTINUOUS
10
130.036
20
-69.9451
11
130.037
21
-69.9436
0
LINE
8
BLACK
6
CONTINUOUS
10
130.037
20
-69.9436
11
130.037
21
-69.9418
0
LINE
8
BLACK
6
CONTINUOUS
10
130.037
20
-69.9418
11
130.041
21
-69.9377
0
LINE
8
BLACK
6
CONTINUOUS
10
130.041
20
-69.9377
11
130.044
21
-69.9332
0
LINE
8
BLACK
6
CONTINUOUS
10
130.044
20
-69.9332
11
130.045
21
-69.9325
0
LINE
8
BLACK
6
CONTINUOUS
10
130.045
20
-69.9325
11
130.046
21
-69.9311
0
LINE
8
BLACK
6
CONTINUOUS
10
130.046
20
-69.9311
11
130.052
21
-69.9296
0
LINE
8
BLACK
6
CONTINUOUS
10
130.052
20
-69.9296
11
130.056
21
-69.9274
0
LINE
8
BLACK
6
CONTINUOUS
10
130.056
20
-69.9274
11
130.058
21
-69.9277
0
LINE
8
BLACK
6
CONTINUOUS
10
130.058
20
-69.9277
11
130.06
21
-69.9272
0
LINE
8
BLACK
6
CONTINUOUS
10
130.06
20
-69.9272
11
133.46
21
-69.9272
0
LINE
8
BLACK
6
CONTINUOUS
10
133.46
20
-69.9272
11
133.467
21
-69.9282
0
LINE
8
BLACK
6
CONTINUOUS
10
130.095
20
-71.945
11
130.095
21
-73.355
0
LINE
8
BLACK
6
CONTINUOUS
10
130.095
20
-73.355
11
133.005
21
-73.355
0
LINE
8
BLACK
6
CONTINUOUS
10
133.005
20
-73.355
11
133.005
21
-71.945
0
LINE
8
BLACK
6
CONTINUOUS
10
133.005
20
-71.945
11
130.095
21
-71.945
0
LINE
8
BLACK
6
CONTINUOUS
10
130.085
20
-69.9772
11
130.085
21
-71.8872
0
LINE
8
BLACK
6
CONTINUOUS
10
130.085
20
-71.8872
11
133.435
21
-71.8872
0
LINE
8
BLACK
6
CONTINUOUS
10
133.435
20
-71.8872
11
133.435
21
-69.9772
0
LINE
8
BLACK
6
CONTINUOUS
10
133.435
20
-69.9772
11
130.085
21
-69.9772
0
LINE
8
BLACK
6
CONTINUOUS
10
119.815
20
-69.473
11
119.816
21
-69.474
0
LINE
8
BLACK
6
CONTINUOUS
10
119.816
20
-69.474
11
119.818
21
-69.4742
0
LINE
8
BLACK
6
CONTINUOUS
10
119.818
20
-69.4742
11
119.822
21
-69.4777
0
LINE
8
BLACK
6
CONTINUOUS
10
119.822
20
-69.4777
11
119.827
21
-69.4806
0
LINE
8
BLACK
6
CONTINUOUS
10
119.827
20
-69.4806
11
119.827
21
-69.4823
0
LINE
8
BLACK
6
CONTINUOUS
10
119.827
20
-69.4823
11
119.829
21
-69.4834
0
LINE
8
BLACK
6
CONTINUOUS
10
119.829
20
-69.4834
11
119.83
21
-69.4886
0
LINE
8
BLACK
6
CONTINUOUS
10
119.83
20
-69.4886
11
119.832
21
-69.4934
0
LINE
8
BLACK
6
CONTINUOUS
10
119.832
20
-69.4934
11
119.832
21
-69.4952
0
LINE
8
BLACK
6
CONTINUOUS
10
119.832
20
-69.4952
11
119.833
21
-69.497
0
LINE
8
BLACK
6
CONTINUOUS
10
119.833
20
-69.497
11
119.833
21
-71.457
0
LINE
8
BLACK
6
CONTINUOUS
10
119.833
20
-71.457
11
119.832
21
-71.4641
0
LINE
8
BLACK
6
CONTINUOUS
10
119.832
20
-71.4641
11
119.831
21
-71.4656
0
LINE
8
BLACK
6
CONTINUOUS
10
119.831
20
-71.4656
11
119.83
21
-71.4674
0
LINE
8
BLACK
6
CONTINUOUS
10
119.83
20
-71.4674
11
119.827
21
-71.4714
0
LINE
8
BLACK
6
CONTINUOUS
10
119.827
20
-71.4714
11
119.824
21
-71.4759
0
LINE
8
BLACK
6
CONTINUOUS
10
119.824
20
-71.4759
11
119.822
21
-71.4766
0
LINE
8
BLACK
6
CONTINUOUS
10
119.822
20
-71.4766
11
119.821
21
-71.478
0
LINE
8
BLACK
6
CONTINUOUS
10
119.821
20
-71.478
11
119.816
21
-71.4795
0
LINE
8
BLACK
6
CONTINUOUS
10
119.816
20
-71.4795
11
119.811
21
-71.4817
0
LINE
8
BLACK
6
CONTINUOUS
10
119.811
20
-71.4817
11
119.809
21
-71.4814
0
LINE
8
BLACK
6
CONTINUOUS
10
119.809
20
-71.4814
11
119.808
21
-71.482
0
LINE
8
BLACK
6
CONTINUOUS
10
119.808
20
-71.482
11
116.408
21
-71.482
0
LINE
8
BLACK
6
CONTINUOUS
10
116.408
20
-71.482
11
116.4
21
-71.4809
0
LINE
8
BLACK
6
CONTINUOUS
10
116.4
20
-71.4809
11
116.399
21
-71.4799
0
LINE
8
BLACK
6
CONTINUOUS
10
116.399
20
-71.4799
11
116.397
21
-71.4797
0
LINE
8
BLACK
6
CONTINUOUS
10
116.397
20
-71.4797
11
116.393
21
-71.4762
0
LINE
8
BLACK
6
CONTINUOUS
10
116.393
20
-71.4762
11
116.389
21
-71.4733
0
LINE
8
BLACK
6
CONTINUOUS
10
116.389
20
-71.4733
11
116.388
21
-71.4716
0
LINE
8
BLACK
6
CONTINUOUS
10
116.388
20
-71.4716
11
116.387
21
-71.4705
0
LINE
8
BLACK
6
CONTINUOUS
10
116.387
20
-71.4705
11
116.385
21
-71.4653
0
LINE
8
BLACK
6
CONTINUOUS
10
116.385
20
-71.4653
11
116.383
21
-71.4605
0
LINE
8
BLACK
6
CONTINUOUS
10
116.383
20
-71.4605
11
116.383
21
-71.4587
0
LINE
8
BLACK
6
CONTINUOUS
10
116.383
20
-71.4587
11
116.383
21
-71.457
0
LINE
8
BLACK
6
CONTINUOUS
10
116.383
20
-71.457
11
116.383
21
-69.497
0
LINE
8
BLACK
6
CONTINUOUS
10
116.383
20
-69.497
11
116.384
21
-69.4899
0
LINE
8
BLACK
6
CONTINUOUS
10
116.384
20
-69.4899
11
116.385
21
-69.4883
0
LINE
8
BLACK
6
CONTINUOUS
10
116.385
20
-69.4883
11
116.385
21
-69.4865
0
LINE
8
BLACK
6
CONTINUOUS
10
116.385
20
-69.4865
11
116.388
21
-69.4825
0
LINE
8
BLACK
6
CONTINUOUS
10
116.388
20
-69.4825
11
116.391
21
-69.478
0
LINE
8
BLACK
6
CONTINUOUS
10
116.391
20
-69.478
11
116.393
21
-69.4773
0
LINE
8
BLACK
6
CONTINUOUS
10
116.393
20
-69.4773
11
116.394
21
-69.4759
0
LINE
8
BLACK
6
CONTINUOUS
10
116.394
20
-69.4759
11
116.399
21
-69.4744
0
LINE
8
BLACK
6
CONTINUOUS
10
116.399
20
-69.4744
11
116.404
21
-69.4722
0
LINE
8
BLACK
6
CONTINUOUS
10
116.404
20
-69.4722
11
116.406
21
-69.4725
0
LINE
8
BLACK
6
CONTINUOUS
10
116.406
20
-69.4725
11
116.408
21
-69.472
0
LINE
8
BLACK
6
CONTINUOUS
10
116.408
20
-69.472
11
119.808
21
-69.472
0
LINE
8
BLACK
6
CONTINUOUS
10
119.808
20
-69.472
11
119.815
21
-69.473
0
LINE
8
BLACK
6
CONTINUOUS
10
116.433
20
-69.522
11
116.433
21
-71.432
0
LINE
8
BLACK
6
CONTINUOUS
10
116.433
20
-71.432
11
119.783
21
-71.432
0
LINE
8
BLACK
6
CONTINUOUS
10
119.783
20
-71.432
11
119.783
21
-69.522
0
LINE
8
BLACK
6
CONTINUOUS
10
119.783
20
-69.522
11
116.433
21
-69.522
0
LINE
8
BLACK
6
CONTINUOUS
10
122.187
20
-66.376
11
122.189
21
-66.377
0
LINE
8
BLACK
6
CONTINUOUS
10
122.189
20
-66.377
11
122.19
21
-66.3773
0
LINE
8
BLACK
6
CONTINUOUS
10
122.19
20
-66.3773
11
122.194
21
-66.3808
0
LINE
8
BLACK
6
CONTINUOUS
10
122.194
20
-66.3808
11
122.199
21
-66.3837
0
LINE
8
BLACK
6
CONTINUOUS
10
122.199
20
-66.3837
11
122.2
21
-66.3853
0
LINE
8
BLACK
6
CONTINUOUS
10
122.2
20
-66.3853
11
122.201
21
-66.3865
0
LINE
8
BLACK
6
CONTINUOUS
10
122.201
20
-66.3865
11
122.203
21
-66.3916
0
LINE
8
BLACK
6
CONTINUOUS
10
122.203
20
-66.3916
11
122.205
21
-66.3965
0
LINE
8
BLACK
6
CONTINUOUS
10
122.205
20
-66.3965
11
122.204
21
-66.3983
0
LINE
8
BLACK
6
CONTINUOUS
10
122.204
20
-66.3983
11
122.205
21
-66.4
0
LINE
8
BLACK
6
CONTINUOUS
10
122.205
20
-66.4
11
122.205
21
-69.8
0
LINE
8
BLACK
6
CONTINUOUS
10
122.205
20
-69.8
11
122.204
21
-69.8071
0
LINE
8
BLACK
6
CONTINUOUS
10
122.204
20
-69.8071
11
122.203
21
-69.8086
0
LINE
8
BLACK
6
CONTINUOUS
10
122.203
20
-69.8086
11
122.203
21
-69.8104
0
LINE
8
BLACK
6
CONTINUOUS
10
122.203
20
-69.8104
11
122.199
21
-69.8144
0
LINE
8
BLACK
6
CONTINUOUS
10
122.199
20
-69.8144
11
122.196
21
-69.8189
0
LINE
8
BLACK
6
CONTINUOUS
10
122.196
20
-69.8189
11
122.195
21
-69.8197
0
LINE
8
BLACK
6
CONTINUOUS
10
122.195
20
-69.8197
11
122.194
21
-69.821
0
LINE
8
BLACK
6
CONTINUOUS
10
122.194
20
-69.821
11
122.188
21
-69.8225
0
LINE
8
BLACK
6
CONTINUOUS
10
122.188
20
-69.8225
11
122.184
21
-69.8248
0
LINE
8
BLACK
6
CONTINUOUS
10
122.184
20
-69.8248
11
122.182
21
-69.8245
0
LINE
8
BLACK
6
CONTINUOUS
10
122.182
20
-69.8245
11
122.18
21
-69.825
0
LINE
8
BLACK
6
CONTINUOUS
10
122.18
20
-69.825
11
120.22
21
-69.825
0
LINE
8
BLACK
6
CONTINUOUS
10
120.22
20
-69.825
11
120.213
21
-69.824
0
LINE
8
BLACK
6
CONTINUOUS
10
120.213
20
-69.824
11
120.211
21
-69.823
0
LINE
8
BLACK
6
CONTINUOUS
10
120.211
20
-69.823
11
120.21
21
-69.8227
0
LINE
8
BLACK
6
CONTINUOUS
10
120.21
20
-69.8227
11
120.206
21
-69.8192
0
LINE
8
BLACK
6
CONTINUOUS
10
120.206
20
-69.8192
11
120.201
21
-69.8163
0
LINE
8
BLACK
6
CONTINUOUS
10
120.201
20
-69.8163
11
120.2
21
-69.8147
0
LINE
8
BLACK
6
CONTINUOUS
10
120.2
20
-69.8147
11
120.199
21
-69.8135
0
LINE
8
BLACK
6
CONTINUOUS
10
120.199
20
-69.8135
11
120.197
21
-69.8084
0
LINE
8
BLACK
6
CONTINUOUS
10
120.197
20
-69.8084
11
120.195
21
-69.8035
0
LINE
8
BLACK
6
CONTINUOUS
10
120.195
20
-69.8035
11
120.196
21
-69.8017
0
LINE
8
BLACK
6
CONTINUOUS
10
120.196
20
-69.8017
11
120.195
21
-69.8
0
LINE
8
BLACK
6
CONTINUOUS
10
120.195
20
-69.8
11
120.195
21
-66.4
0
LINE
8
BLACK
6
CONTINUOUS
10
120.195
20
-66.4
11
120.196
21
-66.3929
0
LINE
8
BLACK
6
CONTINUOUS
10
120.196
20
-66.3929
11
120.197
21
-66.3914
0
LINE
8
BLACK
6
CONTINUOUS
10
120.197
20
-66.3914
11
120.197
21
-66.3896
0
LINE
8
BLACK
6
CONTINUOUS
10
120.197
20
-66.3896
11
120.201
21
-66.3856
0
LINE
8
BLACK
6
CONTINUOUS
10
120.201
20
-66.3856
11
120.204
21
-66.3811
0
LINE
8
BLACK
6
CONTINUOUS
10
120.204
20
-66.3811
11
120.205
21
-66.3803
0
LINE
8
BLACK
6
CONTINUOUS
10
120.205
20
-66.3803
11
120.206
21
-66.379
0
LINE
8
BLACK
6
CONTINUOUS
10
120.206
20
-66.379
11
120.212
21
-66.3775
0
LINE
8
BLACK
6
CONTINUOUS
10
120.212
20
-66.3775
11
120.216
21
-66.3752
0
LINE
8
BLACK
6
CONTINUOUS
10
120.216
20
-66.3752
11
120.218
21
-66.3755
0
LINE
8
BLACK
6
CONTINUOUS
10
120.218
20
-66.3755
11
120.22
21
-66.375
0
LINE
8
BLACK
6
CONTINUOUS
10
120.22
20
-66.375
11
122.18
21
-66.375
0
LINE
8
BLACK
6
CONTINUOUS
10
122.18
20
-66.375
11
122.187
21
-66.376
0
LINE
8
BLACK
6
CONTINUOUS
10
120.245
20
-66.425
11
120.245
21
-69.775
0
LINE
8
BLACK
6
CONTINUOUS
10
120.245
20
-69.775
11
122.155
21
-69.775
0
LINE
8
BLACK
6
CONTINUOUS
10
122.155
20
-69.775
11
122.155
21
-66.425
0
LINE
8
BLACK
6
CONTINUOUS
10
122.155
20
-66.425
11
120.245
21
-66.425
0
LINE
8
BLACK
6
CONTINUOUS
10
130.587
20
-66.376
11
130.589
21
-66.377
0
LINE
8
BLACK
6
CONTINUOUS
10
130.589
20
-66.377
11
130.59
21
-66.3773
0
LINE
8
BLACK
6
CONTINUOUS
10
130.59
20
-66.3773
11
130.594
21
-66.3808
0
LINE
8
BLACK
6
CONTINUOUS
10
130.594
20
-66.3808
11
130.599
21
-66.3837
0
LINE
8
BLACK
6
CONTINUOUS
10
130.599
20
-66.3837
11
130.6
21
-66.3853
0
LINE
8
BLACK
6
CONTINUOUS
10
130.6
20
-66.3853
11
130.601
21
-66.3865
0
LINE
8
BLACK
6
CONTINUOUS
10
130.601
20
-66.3865
11
130.603
21
-66.3916
0
LINE
8
BLACK
6
CONTINUOUS
10
130.603
20
-66.3916
11
130.605
21
-66.3965
0
LINE
8
BLACK
6
CONTINUOUS
10
130.605
20
-66.3965
11
130.604
21
-66.3983
0
LINE
8
BLACK
6
CONTINUOUS
10
130.604
20
-66.3983
11
130.605
21
-66.4
0
LINE
8
BLACK
6
CONTINUOUS
10
130.605
20
-66.4
11
130.605
21
-69.8
0
LINE
8
BLACK
6
CONTINUOUS
10
130.605
20
-69.8
11
130.604
21
-69.8071
0
LINE
8
BLACK
6
CONTINUOUS
10
130.604
20
-69.8071
11
130.603
21
-69.8086
0
LINE
8
BLACK
6
CONTINUOUS
10
130.603
20
-69.8086
11
130.603
21
-69.8104
0
LINE
8
BLACK
6
CONTINUOUS
10
130.603
20
-69.8104
11
130.599
21
-69.8144
0
LINE
8
BLACK
6
CONTINUOUS
10
130.599
20
-69.8144
11
130.596
21
-69.8189
0
LINE
8
BLACK
6
CONTINUOUS
10
130.596
20
-69.8189
11
130.595
21
-69.8197
0
LINE
8
BLACK
6
CONTINUOUS
10
130.595
20
-69.8197
11
130.594
21
-69.821
0
LINE
8
BLACK
6
CONTINUOUS
10
130.594
20
-69.821
11
130.588
21
-69.8225
0
LINE
8
BLACK
6
CONTINUOUS
10
130.588
20
-69.8225
11
130.584
21
-69.8248
0
LINE
8
BLACK
6
CONTINUOUS
10
130.584
20
-69.8248
11
130.582
21
-69.8245
0
LINE
8
BLACK
6
CONTINUOUS
10
130.582
20
-69.8245
11
130.58
21
-69.825
0
LINE
8
BLACK
6
CONTINUOUS
10
130.58
20
-69.825
11
128.62
21
-69.825
0
LINE
8
BLACK
6
CONTINUOUS
10
128.62
20
-69.825
11
128.613
21
-69.824
0
LINE
8
BLACK
6
CONTINUOUS
10
128.613
20
-69.824
11
128.611
21
-69.823
0
LINE
8
BLACK
6
CONTINUOUS
10
128.611
20
-69.823
11
128.61
21
-69.8227
0
LINE
8
BLACK
6
CONTINUOUS
10
128.61
20
-69.8227
11
128.606
21
-69.8192
0
LINE
8
BLACK
6
CONTINUOUS
10
128.606
20
-69.8192
11
128.601
21
-69.8163
0
LINE
8
BLACK
6
CONTINUOUS
10
128.601
20
-69.8163
11
128.6
21
-69.8147
0
LINE
8
BLACK
6
CONTINUOUS
10
128.6
20
-69.8147
11
128.599
21
-69.8135
0
LINE
8
BLACK
6
CONTINUOUS
10
128.599
20
-69.8135
11
128.597
21
-69.8084
0
LINE
8
BLACK
6
CONTINUOUS
10
128.597
20
-69.8084
11
128.595
21
-69.8035
0
LINE
8
BLACK
6
CONTINUOUS
10
128.595
20
-69.8035
11
128.596
21
-69.8017
0
LINE
8
BLACK
6
CONTINUOUS
10
128.596
20
-69.8017
11
128.595
21
-69.8
0
LINE
8
BLACK
6
CONTINUOUS
10
128.595
20
-69.8
11
128.595
21
-66.4
0
LINE
8
BLACK
6
CONTINUOUS
10
128.595
20
-66.4
11
128.596
21
-66.3929
0
LINE
8
BLACK
6
CONTINUOUS
10
128.596
20
-66.3929
11
128.597
21
-66.3914
0
LINE
8
BLACK
6
CONTINUOUS
10
128.597
20
-66.3914
11
128.597
21
-66.3896
0
LINE
8
BLACK
6
CONTINUOUS
10
128.597
20
-66.3896
11
128.601
21
-66.3856
0
LINE
8
BLACK
6
CONTINUOUS
10
128.601
20
-66.3856
11
128.604
21
-66.3811
0
LINE
8
BLACK
6
CONTINUOUS
10
128.604
20
-66.3811
11
128.605
21
-66.3803
0
LINE
8
BLACK
6
CONTINUOUS
10
128.605
20
-66.3803
11
128.606
21
-66.379
0
LINE
8
BLACK
6
CONTINUOUS
10
128.606
20
-66.379
11
128.612
21
-66.3775
0
LINE
8
BLACK
6
CONTINUOUS
10
128.612
20
-66.3775
11
128.616
21
-66.3752
0
LINE
8
BLACK
6
CONTINUOUS
10
128.616
20
-66.3752
11
128.618
21
-66.3755
0
LINE
8
BLACK
6
CONTINUOUS
10
128.618
20
-66.3755
11
128.62
21
-66.375
0
LINE
8
BLACK
6
CONTINUOUS
10
128.62
20
-66.375
11
130.58
21
-66.375
0
LINE
8
BLACK
6
CONTINUOUS
10
130.58
20
-66.375
11
130.587
21
-66.376
0
LINE
8
BLACK
6
CONTINUOUS
10
128.645
20
-66.425
11
128.645
21
-69.775
0
LINE
8
BLACK
6
CONTINUOUS
10
128.645
20
-69.775
11
130.555
21
-69.775
0
LINE
8
BLACK
6
CONTINUOUS
10
130.555
20
-69.775
11
130.555
21
-66.425
0
LINE
8
BLACK
6
CONTINUOUS
10
130.555
20
-66.425
11
128.645
21
-66.425
0
LINE
8
BLACK
6
CONTINUOUS
10
128.487
20
-66.376
11
128.489
21
-66.377
0
LINE
8
BLACK
6
CONTINUOUS
10
128.489
20
-66.377
11
128.49
21
-66.3773
0
LINE
8
BLACK
6
CONTINUOUS
10
128.49
20
-66.3773
11
128.494
21
-66.3808
0
LINE
8
BLACK
6
CONTINUOUS
10
128.494
20
-66.3808
11
128.499
21
-66.3837
0
LINE
8
BLACK
6
CONTINUOUS
10
128.499
20
-66.3837
11
128.5
21
-66.3853
0
LINE
8
BLACK
6
CONTINUOUS
10
128.5
20
-66.3853
11
128.501
21
-66.3865
0
LINE
8
BLACK
6
CONTINUOUS
10
128.501
20
-66.3865
11
128.503
21
-66.3916
0
LINE
8
BLACK
6
CONTINUOUS
10
128.503
20
-66.3916
11
128.505
21
-66.3965
0
LINE
8
BLACK
6
CONTINUOUS
10
128.505
20
-66.3965
11
128.504
21
-66.3983
0
LINE
8
BLACK
6
CONTINUOUS
10
128.504
20
-66.3983
11
128.505
21
-66.4
0
LINE
8
BLACK
6
CONTINUOUS
10
128.505
20
-66.4
11
128.505
21
-69.8
0
LINE
8
BLACK
6
CONTINUOUS
10
128.505
20
-69.8
11
128.504
21
-69.8071
0
LINE
8
BLACK
6
CONTINUOUS
10
128.504
20
-69.8071
11
128.503
21
-69.8086
0
LINE
8
BLACK
6
CONTINUOUS
10
128.503
20
-69.8086
11
128.503
21
-69.8104
0
LINE
8
BLACK
6
CONTINUOUS
10
128.503
20
-69.8104
11
128.499
21
-69.8144
0
LINE
8
BLACK
6
CONTINUOUS
10
128.499
20
-69.8144
11
128.496
21
-69.8189
0
LINE
8
BLACK
6
CONTINUOUS
10
128.496
20
-69.8189
11
128.495
21
-69.8197
0
LINE
8
BLACK
6
CONTINUOUS
10
128.495
20
-69.8197
11
128.494
21
-69.821
0
LINE
8
BLACK
6
CONTINUOUS
10
128.494
20
-69.821
11
128.488
21
-69.8225
0
LINE
8
BLACK
6
CONTINUOUS
10
128.488
20
-69.8225
11
128.484
21
-69.8248
0
LINE
8
BLACK
6
CONTINUOUS
10
128.484
20
-69.8248
11
128.482
21
-69.8245
0
LINE
8
BLACK
6
CONTINUOUS
10
128.482
20
-69.8245
11
128.48
21
-69.825
0
LINE
8
BLACK
6
CONTINUOUS
10
128.48
20
-69.825
11
126.52
21
-69.825
0
LINE
8
BLACK
6
CONTINUOUS
10
126.52
20
-69.825
11
126.513
21
-69.824
0
LINE
8
BLACK
6
CONTINUOUS
10
126.513
20
-69.824
11
126.511
21
-69.823
0
LINE
8
BLACK
6
CONTINUOUS
10
126.511
20
-69.823
11
126.51
21
-69.8227
0
LINE
8
BLACK
6
CONTINUOUS
10
126.51
20
-69.8227
11
126.506
21
-69.8192
0
LINE
8
BLACK
6
CONTINUOUS
10
126.506
20
-69.8192
11
126.501
21
-69.8163
0
LINE
8
BLACK
6
CONTINUOUS
10
126.501
20
-69.8163
11
126.5
21
-69.8147
0
LINE
8
BLACK
6
CONTINUOUS
10
126.5
20
-69.8147
11
126.499
21
-69.8135
0
LINE
8
BLACK
6
CONTINUOUS
10
126.499
20
-69.8135
11
126.497
21
-69.8084
0
LINE
8
BLACK
6
CONTINUOUS
10
126.497
20
-69.8084
11
126.495
21
-69.8035
0
LINE
8
BLACK
6
CONTINUOUS
10
126.495
20
-69.8035
11
126.496
21
-69.8017
0
LINE
8
BLACK
6
CONTINUOUS
10
126.496
20
-69.8017
11
126.495
21
-69.8
0
LINE
8
BLACK
6
CONTINUOUS
10
126.495
20
-69.8
11
126.495
21
-66.4
0
LINE
8
BLACK
6
CONTINUOUS
10
126.495
20
-66.4
11
126.496
21
-66.3929
0
LINE
8
BLACK
6
CONTINUOUS
10
126.496
20
-66.3929
11
126.497
21
-66.3914
0
LINE
8
BLACK
6
CONTINUOUS
10
126.497
20
-66.3914
11
126.497
21
-66.3896
0
LINE
8
BLACK
6
CONTINUOUS
10
126.497
20
-66.3896
11
126.501
21
-66.3856
0
LINE
8
BLACK
6
CONTINUOUS
10
126.501
20
-66.3856
11
126.504
21
-66.3811
0
LINE
8
BLACK
6
CONTINUOUS
10
126.504
20
-66.3811
11
126.505
21
-66.3803
0
LINE
8
BLACK
6
CONTINUOUS
10
126.505
20
-66.3803
11
126.506
21
-66.379
0
LINE
8
BLACK
6
CONTINUOUS
10
126.506
20
-66.379
11
126.512
21
-66.3775
0
LINE
8
BLACK
6
CONTINUOUS
10
126.512
20
-66.3775
11
126.516
21
-66.3752
0
LINE
8
BLACK
6
CONTINUOUS
10
126.516
20
-66.3752
11
126.518
21
-66.3755
0
LINE
8
BLACK
6
CONTINUOUS
10
126.518
20
-66.3755
11
126.52
21
-66.375
0
LINE
8
BLACK
6
CONTINUOUS
10
126.52
20
-66.375
11
128.48
21
-66.375
0
LINE
8
BLACK
6
CONTINUOUS
10
128.48
20
-66.375
11
128.487
21
-66.376
0
LINE
8
BLACK
6
CONTINUOUS
10
126.545
20
-66.425
11
126.545
21
-69.775
0
LINE
8
BLACK
6
CONTINUOUS
10
126.545
20
-69.775
11
128.455
21
-69.775
0
LINE
8
BLACK
6
CONTINUOUS
10
128.455
20
-69.775
11
128.455
21
-66.425
0
LINE
8
BLACK
6
CONTINUOUS
10
128.455
20
-66.425
11
126.545
21
-66.425
0
LINE
8
BLACK
6
CONTINUOUS
10
124.287
20
-66.376
11
124.289
21
-66.377
0
LINE
8
BLACK
6
CONTINUOUS
10
124.289
20
-66.377
11
124.29
21
-66.3773
0
LINE
8
BLACK
6
CONTINUOUS
10
124.29
20
-66.3773
11
124.294
21
-66.3808
0
LINE
8
BLACK
6
CONTINUOUS
10
124.294
20
-66.3808
11
124.299
21
-66.3837
0
LINE
8
BLACK
6
CONTINUOUS
10
124.299
20
-66.3837
11
124.3
21
-66.3853
0
LINE
8
BLACK
6
CONTINUOUS
10
124.3
20
-66.3853
11
124.301
21
-66.3865
0
LINE
8
BLACK
6
CONTINUOUS
10
124.301
20
-66.3865
11
124.303
21
-66.3916
0
LINE
8
BLACK
6
CONTINUOUS
10
124.303
20
-66.3916
11
124.305
21
-66.3965
0
LINE
8
BLACK
6
CONTINUOUS
10
124.305
20
-66.3965
11
124.304
21
-66.3983
0
LINE
8
BLACK
6
CONTINUOUS
10
124.304
20
-66.3983
11
124.305
21
-66.4
0
LINE
8
BLACK
6
CONTINUOUS
10
124.305
20
-66.4
11
124.305
21
-69.8
0
LINE
8
BLACK
6
CONTINUOUS
10
124.305
20
-69.8
11
124.304
21
-69.8071
0
LINE
8
BLACK
6
CONTINUOUS
10
124.304
20
-69.8071
11
124.303
21
-69.8086
0
LINE
8
BLACK
6
CONTINUOUS
10
124.303
20
-69.8086
11
124.303
21
-69.8104
0
LINE
8
BLACK
6
CONTINUOUS
10
124.303
20
-69.8104
11
124.299
21
-69.8144
0
LINE
8
BLACK
6
CONTINUOUS
10
124.299
20
-69.8144
11
124.296
21
-69.8189
0
LINE
8
BLACK
6
CONTINUOUS
10
124.296
20
-69.8189
11
124.295
21
-69.8197
0
LINE
8
BLACK
6
CONTINUOUS
10
124.295
20
-69.8197
11
124.294
21
-69.821
0
LINE
8
BLACK
6
CONTINUOUS
10
124.294
20
-69.821
11
124.288
21
-69.8225
0
LINE
8
BLACK
6
CONTINUOUS
10
124.288
20
-69.8225
11
124.284
21
-69.8248
0
LINE
8
BLACK
6
CONTINUOUS
10
124.284
20
-69.8248
11
124.282
21
-69.8245
0
LINE
8
BLACK
6
CONTINUOUS
10
124.282
20
-69.8245
11
124.28
21
-69.825
0
LINE
8
BLACK
6
CONTINUOUS
10
124.28
20
-69.825
11
122.32
21
-69.825
0
LINE
8
BLACK
6
CONTINUOUS
10
122.32
20
-69.825
11
122.313
21
-69.824
0
LINE
8
BLACK
6
CONTINUOUS
10
122.313
20
-69.824
11
122.311
21
-69.823
0
LINE
8
BLACK
6
CONTINUOUS
10
122.311
20
-69.823
11
122.31
21
-69.8227
0
LINE
8
BLACK
6
CONTINUOUS
10
122.31
20
-69.8227
11
122.306
21
-69.8192
0
LINE
8
BLACK
6
CONTINUOUS
10
122.306
20
-69.8192
11
122.301
21
-69.8163
0
LINE
8
BLACK
6
CONTINUOUS
10
122.301
20
-69.8163
11
122.3
21
-69.8147
0
LINE
8
BLACK
6
CONTINUOUS
10
122.3
20
-69.8147
11
122.299
21
-69.8135
0
LINE
8
BLACK
6
CONTINUOUS
10
122.299
20
-69.8135
11
122.297
21
-69.8084
0
LINE
8
BLACK
6
CONTINUOUS
10
122.297
20
-69.8084
11
122.295
21
-69.8035
0
LINE
8
BLACK
6
CONTINUOUS
10
122.295
20
-69.8035
11
122.296
21
-69.8017
0
LINE
8
BLACK
6
CONTINUOUS
10
122.296
20
-69.8017
11
122.295
21
-69.8
0
LINE
8
BLACK
6
CONTINUOUS
10
122.295
20
-69.8
11
122.295
21
-66.4
0
LINE
8
BLACK
6
CONTINUOUS
10
122.295
20
-66.4
11
122.296
21
-66.3929
0
LINE
8
BLACK
6
CONTINUOUS
10
122.296
20
-66.3929
11
122.297
21
-66.3914
0
LINE
8
BLACK
6
CONTINUOUS
10
122.297
20
-66.3914
11
122.297
21
-66.3896
0
LINE
8
BLACK
6
CONTINUOUS
10
122.297
20
-66.3896
11
122.301
21
-66.3856
0
LINE
8
BLACK
6
CONTINUOUS
10
122.301
20
-66.3856
11
122.304
21
-66.3811
0
LINE
8
BLACK
6
CONTINUOUS
10
122.304
20
-66.3811
11
122.305
21
-66.3803
0
LINE
8
BLACK
6
CONTINUOUS
10
122.305
20
-66.3803
11
122.306
21
-66.379
0
LINE
8
BLACK
6
CONTINUOUS
10
122.306
20
-66.379
11
122.312
21
-66.3775
0
LINE
8
BLACK
6
CONTINUOUS
10
122.312
20
-66.3775
11
122.316
21
-66.3752
0
LINE
8
BLACK
6
CONTINUOUS
10
122.316
20
-66.3752
11
122.318
21
-66.3755
0
LINE
8
BLACK
6
CONTINUOUS
10
122.318
20
-66.3755
11
122.32
21
-66.375
0
LINE
8
BLACK
6
CONTINUOUS
10
122.32
20
-66.375
11
124.28
21
-66.375
0
LINE
8
BLACK
6
CONTINUOUS
10
124.28
20
-66.375
11
124.287
21
-66.376
0
LINE
8
BLACK
6
CONTINUOUS
10
122.345
20
-66.425
11
122.345
21
-69.775
0
LINE
8
BLACK
6
CONTINUOUS
10
122.345
20
-69.775
11
124.255
21
-69.775
0
LINE
8
BLACK
6
CONTINUOUS
10
124.255
20
-69.775
11
124.255
21
-66.425
0
LINE
8
BLACK
6
CONTINUOUS
10
124.255
20
-66.425
11
122.345
21
-66.425
0
LINE
8
BLACK
6
CONTINUOUS
10
126.387
20
-66.376
11
126.389
21
-66.377
0
LINE
8
BLACK
6
CONTINUOUS
10
126.389
20
-66.377
11
126.39
21
-66.3773
0
LINE
8
BLACK
6
CONTINUOUS
10
126.39
20
-66.3773
11
126.394
21
-66.3808
0
LINE
8
BLACK
6
CONTINUOUS
10
126.394
20
-66.3808
11
126.399
21
-66.3837
0
LINE
8
BLACK
6
CONTINUOUS
10
126.399
20
-66.3837
11
126.4
21
-66.3853
0
LINE
8
BLACK
6
CONTINUOUS
10
126.4
20
-66.3853
11
126.401
21
-66.3865
0
LINE
8
BLACK
6
CONTINUOUS
10
126.401
20
-66.3865
11
126.403
21
-66.3916
0
LINE
8
BLACK
6
CONTINUOUS
10
126.403
20
-66.3916
11
126.405
21
-66.3965
0
LINE
8
BLACK
6
CONTINUOUS
10
126.405
20
-66.3965
11
126.404
21
-66.3983
0
LINE
8
BLACK
6
CONTINUOUS
10
126.404
20
-66.3983
11
126.405
21
-66.4
0
LINE
8
BLACK
6
CONTINUOUS
10
126.405
20
-66.4
11
126.405
21
-69.8
0
LINE
8
BLACK
6
CONTINUOUS
10
126.405
20
-69.8
11
126.404
21
-69.8071
0
LINE
8
BLACK
6
CONTINUOUS
10
126.404
20
-69.8071
11
126.403
21
-69.8086
0
LINE
8
BLACK
6
CONTINUOUS
10
126.403
20
-69.8086
11
126.403
21
-69.8104
0
LINE
8
BLACK
6
CONTINUOUS
10
126.403
20
-69.8104
11
126.399
21
-69.8144
0
LINE
8
BLACK
6
CONTINUOUS
10
126.399
20
-69.8144
11
126.396
21
-69.8189
0
LINE
8
BLACK
6
CONTINUOUS
10
126.396
20
-69.8189
11
126.395
21
-69.8197
0
LINE
8
BLACK
6
CONTINUOUS
10
126.395
20
-69.8197
11
126.394
21
-69.821
0
LINE
8
BLACK
6
CONTINUOUS
10
126.394
20
-69.821
11
126.388
21
-69.8225
0
LINE
8
BLACK
6
CONTINUOUS
10
126.388
20
-69.8225
11
126.384
21
-69.8248
0
LINE
8
BLACK
6
CONTINUOUS
10
126.384
20
-69.8248
11
126.382
21
-69.8245
0
LINE
8
BLACK
6
CONTINUOUS
10
126.382
20
-69.8245
11
126.38
21
-69.825
0
LINE
8
BLACK
6
CONTINUOUS
10
126.38
20
-69.825
11
124.42
21
-69.825
0
LINE
8
BLACK
6
CONTINUOUS
10
124.42
20
-69.825
11
124.413
21
-69.824
0
LINE
8
BLACK
6
CONTINUOUS
10
124.413
20
-69.824
11
124.411
21
-69.823
0
LINE
8
BLACK
6
CONTINUOUS
10
124.411
20
-69.823
11
124.41
21
-69.8227
0
LINE
8
BLACK
6
CONTINUOUS
10
124.41
20
-69.8227
11
124.406
21
-69.8192
0
LINE
8
BLACK
6
CONTINUOUS
10
124.406
20
-69.8192
11
124.401
21
-69.8163
0
LINE
8
BLACK
6
CONTINUOUS
10
124.401
20
-69.8163
11
124.4
21
-69.8147
0
LINE
8
BLACK
6
CONTINUOUS
10
124.4
20
-69.8147
11
124.399
21
-69.8135
0
LINE
8
BLACK
6
CONTINUOUS
10
124.399
20
-69.8135
11
124.397
21
-69.8084
0
LINE
8
BLACK
6
CONTINUOUS
10
124.397
20
-69.8084
11
124.395
21
-69.8035
0
LINE
8
BLACK
6
CONTINUOUS
10
124.395
20
-69.8035
11
124.396
21
-69.8017
0
LINE
8
BLACK
6
CONTINUOUS
10
124.396
20
-69.8017
11
124.395
21
-69.8
0
LINE
8
BLACK
6
CONTINUOUS
10
124.395
20
-69.8
11
124.395
21
-66.4
0
LINE
8
BLACK
6
CONTINUOUS
10
124.395
20
-66.4
11
124.396
21
-66.3929
0
LINE
8
BLACK
6
CONTINUOUS
10
124.396
20
-66.3929
11
124.397
21
-66.3914
0
LINE
8
BLACK
6
CONTINUOUS
10
124.397
20
-66.3914
11
124.397
21
-66.3896
0
LINE
8
BLACK
6
CONTINUOUS
10
124.397
20
-66.3896
11
124.401
21
-66.3856
0
LINE
8
BLACK
6
CONTINUOUS
10
124.401
20
-66.3856
11
124.404
21
-66.3811
0
LINE
8
BLACK
6
CONTINUOUS
10
124.404
20
-66.3811
11
124.405
21
-66.3803
0
LINE
8
BLACK
6
CONTINUOUS
10
124.405
20
-66.3803
11
124.406
21
-66.379
0
LINE
8
BLACK
6
CONTINUOUS
10
124.406
20
-66.379
11
124.412
21
-66.3775
0
LINE
8
BLACK
6
CONTINUOUS
10
124.412
20
-66.3775
11
124.416
21
-66.3752
0
LINE
8
BLACK
6
CONTINUOUS
10
124.416
20
-66.3752
11
124.418
21
-66.3755
0
LINE
8
BLACK
6
CONTINUOUS
10
124.418
20
-66.3755
11
124.42
21
-66.375
0
LINE
8
BLACK
6
CONTINUOUS
10
124.42
20
-66.375
11
126.38
21
-66.375
0
LINE
8
BLACK
6
CONTINUOUS
10
126.38
20
-66.375
11
126.387
21
-66.376
0
LINE
8
BLACK
6
CONTINUOUS
10
124.445
20
-66.425
11
124.445
21
-69.775
0
LINE
8
BLACK
6
CONTINUOUS
10
124.445
20
-69.775
11
126.355
21
-69.775
0
LINE
8
BLACK
6
CONTINUOUS
10
126.355
20
-69.775
11
126.355
21
-66.425
0
LINE
8
BLACK
6
CONTINUOUS
10
126.355
20
-66.425
11
124.445
21
-66.425
0
LINE
8
BLACK
6
CONTINUOUS
10
156.487
20
-66.831
11
156.489
21
-66.832
0
LINE
8
BLACK
6
CONTINUOUS
10
156.489
20
-66.832
11
156.49
21
-66.8323
0
LINE
8
BLACK
6
CONTINUOUS
10
156.49
20
-66.8323
11
156.494
21
-66.8358
0
LINE
8
BLACK
6
CONTINUOUS
10
156.494
20
-66.8358
11
156.499
21
-66.8387
0
LINE
8
BLACK
6
CONTINUOUS
10
156.499
20
-66.8387
11
156.5
21
-66.8403
0
LINE
8
BLACK
6
CONTINUOUS
10
156.5
20
-66.8403
11
156.501
21
-66.8415
0
LINE
8
BLACK
6
CONTINUOUS
10
156.501
20
-66.8415
11
156.503
21
-66.8466
0
LINE
8
BLACK
6
CONTINUOUS
10
156.503
20
-66.8466
11
156.505
21
-66.8515
0
LINE
8
BLACK
6
CONTINUOUS
10
156.505
20
-66.8515
11
156.504
21
-66.8533
0
LINE
8
BLACK
6
CONTINUOUS
10
156.504
20
-66.8533
11
156.505
21
-66.855
0
LINE
8
BLACK
6
CONTINUOUS
10
156.505
20
-66.855
11
156.505
21
-69.095
0
LINE
8
BLACK
6
CONTINUOUS
10
156.505
20
-69.095
11
156.504
21
-69.1021
0
LINE
8
BLACK
6
CONTINUOUS
10
156.504
20
-69.1021
11
156.503
21
-69.1036
0
LINE
8
BLACK
6
CONTINUOUS
10
156.503
20
-69.1036
11
156.503
21
-69.1054
0
LINE
8
BLACK
6
CONTINUOUS
10
156.503
20
-69.1054
11
156.499
21
-69.1094
0
LINE
8
BLACK
6
CONTINUOUS
10
156.499
20
-69.1094
11
156.496
21
-69.1139
0
LINE
8
BLACK
6
CONTINUOUS
10
156.496
20
-69.1139
11
156.495
21
-69.1147
0
LINE
8
BLACK
6
CONTINUOUS
10
156.495
20
-69.1147
11
156.494
21
-69.116
0
LINE
8
BLACK
6
CONTINUOUS
10
156.494
20
-69.116
11
156.488
21
-69.1175
0
LINE
8
BLACK
6
CONTINUOUS
10
156.488
20
-69.1175
11
156.484
21
-69.1198
0
LINE
8
BLACK
6
CONTINUOUS
10
156.484
20
-69.1198
11
156.482
21
-69.1195
0
LINE
8
BLACK
6
CONTINUOUS
10
156.482
20
-69.1195
11
156.48
21
-69.12
0
LINE
8
BLACK
6
CONTINUOUS
10
156.48
20
-69.12
11
151.92
21
-69.12
0
LINE
8
BLACK
6
CONTINUOUS
10
151.92
20
-69.12
11
151.913
21
-69.119
0
LINE
8
BLACK
6
CONTINUOUS
10
151.913
20
-69.119
11
151.911
21
-69.118
0
LINE
8
BLACK
6
CONTINUOUS
10
151.911
20
-69.118
11
151.91
21
-69.1177
0
LINE
8
BLACK
6
CONTINUOUS
10
151.91
20
-69.1177
11
151.906
21
-69.1142
0
LINE
8
BLACK
6
CONTINUOUS
10
151.906
20
-69.1142
11
151.901
21
-69.1113
0
LINE
8
BLACK
6
CONTINUOUS
10
151.901
20
-69.1113
11
151.9
21
-69.1097
0
LINE
8
BLACK
6
CONTINUOUS
10
151.9
20
-69.1097
11
151.899
21
-69.1085
0
LINE
8
BLACK
6
CONTINUOUS
10
151.899
20
-69.1085
11
151.897
21
-69.1034
0
LINE
8
BLACK
6
CONTINUOUS
10
151.897
20
-69.1034
11
151.895
21
-69.0985
0
LINE
8
BLACK
6
CONTINUOUS
10
151.895
20
-69.0985
11
151.896
21
-69.0967
0
LINE
8
BLACK
6
CONTINUOUS
10
151.896
20
-69.0967
11
151.895
21
-69.095
0
LINE
8
BLACK
6
CONTINUOUS
10
151.895
20
-69.095
11
151.895
21
-66.855
0
LINE
8
BLACK
6
CONTINUOUS
10
151.895
20
-66.855
11
151.896
21
-66.8479
0
LINE
8
BLACK
6
CONTINUOUS
10
151.896
20
-66.8479
11
151.897
21
-66.8464
0
LINE
8
BLACK
6
CONTINUOUS
10
151.897
20
-66.8464
11
151.897
21
-66.8446
0
LINE
8
BLACK
6
CONTINUOUS
10
151.897
20
-66.8446
11
151.901
21
-66.8406
0
LINE
8
BLACK
6
CONTINUOUS
10
151.901
20
-66.8406
11
151.904
21
-66.8361
0
LINE
8
BLACK
6
CONTINUOUS
10
151.904
20
-66.8361
11
151.905
21
-66.8353
0
LINE
8
BLACK
6
CONTINUOUS
10
151.905
20
-66.8353
11
151.906
21
-66.834
0
LINE
8
BLACK
6
CONTINUOUS
10
151.906
20
-66.834
11
151.912
21
-66.8325
0
LINE
8
BLACK
6
CONTINUOUS
10
151.912
20
-66.8325
11
151.916
21
-66.8302
0
LINE
8
BLACK
6
CONTINUOUS
10
151.916
20
-66.8302
11
151.918
21
-66.8305
0
LINE
8
BLACK
6
CONTINUOUS
10
151.918
20
-66.8305
11
151.92
21
-66.83
0
LINE
8
BLACK
6
CONTINUOUS
10
151.92
20
-66.83
11
156.48
21
-66.83
0
LINE
8
BLACK
6
CONTINUOUS
10
156.48
20
-66.83
11
156.487
21
-66.831
0
LINE
8
BLACK
6
CONTINUOUS
10
151.945
20
-66.88
11
151.945
21
-69.07
0
LINE
8
BLACK
6
CONTINUOUS
10
151.945
20
-69.07
11
156.455
21
-69.07
0
LINE
8
BLACK
6
CONTINUOUS
10
156.455
20
-69.07
11
156.455
21
-66.88
0
LINE
8
BLACK
6
CONTINUOUS
10
156.455
20
-66.88
11
151.945
21
-66.88
0
LINE
8
BLACK
6
CONTINUOUS
10
155.977
20
-63.226
11
155.979
21
-63.227
0
LINE
8
BLACK
6
CONTINUOUS
10
155.979
20
-63.227
11
155.98
21
-63.2273
0
LINE
8
BLACK
6
CONTINUOUS
10
155.98
20
-63.2273
11
155.984
21
-63.2308
0
LINE
8
BLACK
6
CONTINUOUS
10
155.984
20
-63.2308
11
155.989
21
-63.2337
0
LINE
8
BLACK
6
CONTINUOUS
10
155.989
20
-63.2337
11
155.99
21
-63.2353
0
LINE
8
BLACK
6
CONTINUOUS
10
155.99
20
-63.2353
11
155.991
21
-63.2365
0
LINE
8
BLACK
6
CONTINUOUS
10
155.991
20
-63.2365
11
155.993
21
-63.2416
0
LINE
8
BLACK
6
CONTINUOUS
10
155.993
20
-63.2416
11
155.995
21
-63.2465
0
LINE
8
BLACK
6
CONTINUOUS
10
155.995
20
-63.2465
11
155.994
21
-63.2483
0
LINE
8
BLACK
6
CONTINUOUS
10
155.994
20
-63.2483
11
155.995
21
-63.25
0
LINE
8
BLACK
6
CONTINUOUS
10
155.995
20
-63.25
11
155.995
21
-65.15
0
LINE
8
BLACK
6
CONTINUOUS
10
155.995
20
-65.15
11
155.994
21
-65.1571
0
LINE
8
BLACK
6
CONTINUOUS
10
155.994
20
-65.1571
11
155.993
21
-65.1586
0
LINE
8
BLACK
6
CONTINUOUS
10
155.993
20
-65.1586
11
155.993
21
-65.1604
0
LINE
8
BLACK
6
CONTINUOUS
10
155.993
20
-65.1604
11
155.989
21
-65.1644
0
LINE
8
BLACK
6
CONTINUOUS
10
155.989
20
-65.1644
11
155.986
21
-65.1689
0
LINE
8
BLACK
6
CONTINUOUS
10
155.986
20
-65.1689
11
155.985
21
-65.1697
0
LINE
8
BLACK
6
CONTINUOUS
10
155.985
20
-65.1697
11
155.984
21
-65.171
0
LINE
8
BLACK
6
CONTINUOUS
10
155.984
20
-65.171
11
155.978
21
-65.1725
0
LINE
8
BLACK
6
CONTINUOUS
10
155.978
20
-65.1725
11
155.974
21
-65.1748
0
LINE
8
BLACK
6
CONTINUOUS
10
155.974
20
-65.1748
11
155.972
21
-65.1745
0
LINE
8
BLACK
6
CONTINUOUS
10
155.972
20
-65.1745
11
155.97
21
-65.175
0
LINE
8
BLACK
6
CONTINUOUS
10
155.97
20
-65.175
11
152.61
21
-65.175
0
LINE
8
BLACK
6
CONTINUOUS
10
152.61
20
-65.175
11
152.603
21
-65.174
0
LINE
8
BLACK
6
CONTINUOUS
10
152.603
20
-65.174
11
152.601
21
-65.173
0
LINE
8
BLACK
6
CONTINUOUS
10
152.601
20
-65.173
11
152.6
21
-65.1727
0
LINE
8
BLACK
6
CONTINUOUS
10
152.6
20
-65.1727
11
152.596
21
-65.1692
0
LINE
8
BLACK
6
CONTINUOUS
10
152.596
20
-65.1692
11
152.591
21
-65.1663
0
LINE
8
BLACK
6
CONTINUOUS
10
152.591
20
-65.1663
11
152.59
21
-65.1647
0
LINE
8
BLACK
6
CONTINUOUS
10
152.59
20
-65.1647
11
152.589
21
-65.1635
0
LINE
8
BLACK
6
CONTINUOUS
10
152.589
20
-65.1635
11
152.587
21
-65.1584
0
LINE
8
BLACK
6
CONTINUOUS
10
152.587
20
-65.1584
11
152.585
21
-65.1535
0
LINE
8
BLACK
6
CONTINUOUS
10
152.585
20
-65.1535
11
152.586
21
-65.1517
0
LINE
8
BLACK
6
CONTINUOUS
10
152.586
20
-65.1517
11
152.585
21
-65.15
0
LINE
8
BLACK
6
CONTINUOUS
10
152.585
20
-65.15
11
152.585
21
-63.25
0
LINE
8
BLACK
6
CONTINUOUS
10
152.585
20
-63.25
11
152.586
21
-63.2429
0
LINE
8
BLACK
6
CONTINUOUS
10
152.586
20
-63.2429
11
152.587
21
-63.2414
0
LINE
8
BLACK
6
CONTINUOUS
10
152.587
20
-63.2414
11
152.587
21
-63.2396
0
LINE
8
BLACK
6
CONTINUOUS
10
152.587
20
-63.2396
11
152.591
21
-63.2356
0
LINE
8
BLACK
6
CONTINUOUS
10
152.591
20
-63.2356
11
152.594
21
-63.2311
0
LINE
8
BLACK
6
CONTINUOUS
10
152.594
20
-63.2311
11
152.595
21
-63.2303
0
LINE
8
BLACK
6
CONTINUOUS
10
152.595
20
-63.2303
11
152.596
21
-63.229
0
LINE
8
BLACK
6
CONTINUOUS
10
152.596
20
-63.229
11
152.602
21
-63.2275
0
LINE
8
BLACK
6
CONTINUOUS
10
152.602
20
-63.2275
11
152.606
21
-63.2252
0
LINE
8
BLACK
6
CONTINUOUS
10
152.606
20
-63.2252
11
152.608
21
-63.2255
0
LINE
8
BLACK
6
CONTINUOUS
10
152.608
20
-63.2255
11
152.61
21
-63.225
0
LINE
8
BLACK
6
CONTINUOUS
10
152.61
20
-63.225
11
155.97
21
-63.225
0
LINE
8
BLACK
6
CONTINUOUS
10
155.97
20
-63.225
11
155.977
21
-63.226
0
LINE
8
BLACK
6
CONTINUOUS
10
152.635
20
-63.275
11
152.635
21
-65.125
0
LINE
8
BLACK
6
CONTINUOUS
10
152.635
20
-65.125
11
155.945
21
-65.125
0
LINE
8
BLACK
6
CONTINUOUS
10
155.945
20
-65.125
11
155.945
21
-63.275
0
LINE
8
BLACK
6
CONTINUOUS
10
155.945
20
-63.275
11
152.635
21
-63.275
0
LINE
8
BLACK
6
CONTINUOUS
10
150.612
20
-63.226
11
150.614
21
-63.227
0
LINE
8
BLACK
6
CONTINUOUS
10
150.614
20
-63.227
11
150.615
21
-63.2273
0
LINE
8
BLACK
6
CONTINUOUS
10
150.615
20
-63.2273
11
150.619
21
-63.2308
0
LINE
8
BLACK
6
CONTINUOUS
10
150.619
20
-63.2308
11
150.624
21
-63.2337
0
LINE
8
BLACK
6
CONTINUOUS
10
150.624
20
-63.2337
11
150.625
21
-63.2353
0
LINE
8
BLACK
6
CONTINUOUS
10
150.625
20
-63.2353
11
150.626
21
-63.2365
0
LINE
8
BLACK
6
CONTINUOUS
10
150.626
20
-63.2365
11
150.628
21
-63.2416
0
LINE
8
BLACK
6
CONTINUOUS
10
150.628
20
-63.2416
11
150.63
21
-63.2465
0
LINE
8
BLACK
6
CONTINUOUS
10
150.63
20
-63.2465
11
150.629
21
-63.2483
0
LINE
8
BLACK
6
CONTINUOUS
10
150.629
20
-63.2483
11
150.63
21
-63.25
0
LINE
8
BLACK
6
CONTINUOUS
10
150.63
20
-63.25
11
150.63
21
-65.15
0
LINE
8
BLACK
6
CONTINUOUS
10
150.63
20
-65.15
11
150.629
21
-65.1571
0
LINE
8
BLACK
6
CONTINUOUS
10
150.629
20
-65.1571
11
150.628
21
-65.1586
0
LINE
8
BLACK
6
CONTINUOUS
10
150.628
20
-65.1586
11
150.628
21
-65.1604
0
LINE
8
BLACK
6
CONTINUOUS
10
150.628
20
-65.1604
11
150.624
21
-65.1644
0
LINE
8
BLACK
6
CONTINUOUS
10
150.624
20
-65.1644
11
150.621
21
-65.1689
0
LINE
8
BLACK
6
CONTINUOUS
10
150.621
20
-65.1689
11
150.62
21
-65.1697
0
LINE
8
BLACK
6
CONTINUOUS
10
150.62
20
-65.1697
11
150.619
21
-65.171
0
LINE
8
BLACK
6
CONTINUOUS
10
150.619
20
-65.171
11
150.613
21
-65.1725
0
LINE
8
BLACK
6
CONTINUOUS
10
150.613
20
-65.1725
11
150.609
21
-65.1748
0
LINE
8
BLACK
6
CONTINUOUS
10
150.609
20
-65.1748
11
150.607
21
-65.1745
0
LINE
8
BLACK
6
CONTINUOUS
10
150.607
20
-65.1745
11
150.605
21
-65.175
0
LINE
8
BLACK
6
CONTINUOUS
10
150.605
20
-65.175
11
147.245
21
-65.175
0
LINE
8
BLACK
6
CONTINUOUS
10
147.245
20
-65.175
11
147.238
21
-65.174
0
LINE
8
BLACK
6
CONTINUOUS
10
147.238
20
-65.174
11
147.236
21
-65.173
0
LINE
8
BLACK
6
CONTINUOUS
10
147.236
20
-65.173
11
147.235
21
-65.1727
0
LINE
8
BLACK
6
CONTINUOUS
10
147.235
20
-65.1727
11
147.231
21
-65.1692
0
LINE
8
BLACK
6
CONTINUOUS
10
147.231
20
-65.1692
11
147.226
21
-65.1663
0
LINE
8
BLACK
6
CONTINUOUS
10
147.226
20
-65.1663
11
147.225
21
-65.1647
0
LINE
8
BLACK
6
CONTINUOUS
10
147.225
20
-65.1647
11
147.224
21
-65.1635
0
LINE
8
BLACK
6
CONTINUOUS
10
147.224
20
-65.1635
11
147.222
21
-65.1584
0
LINE
8
BLACK
6
CONTINUOUS
10
147.222
20
-65.1584
11
147.22
21
-65.1535
0
LINE
8
BLACK
6
CONTINUOUS
10
147.22
20
-65.1535
11
147.221
21
-65.1517
0
LINE
8
BLACK
6
CONTINUOUS
10
147.221
20
-65.1517
11
147.22
21
-65.15
0
LINE
8
BLACK
6
CONTINUOUS
10
147.22
20
-65.15
11
147.22
21
-63.25
0
LINE
8
BLACK
6
CONTINUOUS
10
147.22
20
-63.25
11
147.221
21
-63.2429
0
LINE
8
BLACK
6
CONTINUOUS
10
147.221
20
-63.2429
11
147.222
21
-63.2414
0
LINE
8
BLACK
6
CONTINUOUS
10
147.222
20
-63.2414
11
147.222
21
-63.2396
0
LINE
8
BLACK
6
CONTINUOUS
10
147.222
20
-63.2396
11
147.226
21
-63.2356
0
LINE
8
BLACK
6
CONTINUOUS
10
147.226
20
-63.2356
11
147.229
21
-63.2311
0
LINE
8
BLACK
6
CONTINUOUS
10
147.229
20
-63.2311
11
147.23
21
-63.2303
0
LINE
8
BLACK
6
CONTINUOUS
10
147.23
20
-63.2303
11
147.231
21
-63.229
0
LINE
8
BLACK
6
CONTINUOUS
10
147.231
20
-63.229
11
147.237
21
-63.2275
0
LINE
8
BLACK
6
CONTINUOUS
10
147.237
20
-63.2275
11
147.241
21
-63.2252
0
LINE
8
BLACK
6
CONTINUOUS
10
147.241
20
-63.2252
11
147.243
21
-63.2255
0
LINE
8
BLACK
6
CONTINUOUS
10
147.243
20
-63.2255
11
147.245
21
-63.225
0
LINE
8
BLACK
6
CONTINUOUS
10
147.245
20
-63.225
11
150.605
21
-63.225
0
LINE
8
BLACK
6
CONTINUOUS
10
150.605
20
-63.225
11
150.612
21
-63.226
0
LINE
8
BLACK
6
CONTINUOUS
10
147.27
20
-63.275
11
147.27
21
-65.125
0
LINE
8
BLACK
6
CONTINUOUS
10
147.27
20
-65.125
11
150.58
21
-65.125
0
LINE
8
BLACK
6
CONTINUOUS
10
150.58
20
-65.125
11
150.58
21
-63.275
0
LINE
8
BLACK
6
CONTINUOUS
10
150.58
20
-63.275
11
147.27
21
-63.275
0
LINE
8
BLACK
6
CONTINUOUS
10
156.902
20
-53.936
11
156.904
21
-53.937
0
LINE
8
BLACK
6
CONTINUOUS
10
156.904
20
-53.937
11
156.905
21
-53.9373
0
LINE
8
BLACK
6
CONTINUOUS
10
156.905
20
-53.9373
11
156.909
21
-53.9408
0
LINE
8
BLACK
6
CONTINUOUS
10
156.909
20
-53.9408
11
156.914
21
-53.9437
0
LINE
8
BLACK
6
CONTINUOUS
10
156.914
20
-53.9437
11
156.915
21
-53.9453
0
LINE
8
BLACK
6
CONTINUOUS
10
156.915
20
-53.9453
11
156.916
21
-53.9465
0
LINE
8
BLACK
6
CONTINUOUS
10
156.916
20
-53.9465
11
156.918
21
-53.9516
0
LINE
8
BLACK
6
CONTINUOUS
10
156.918
20
-53.9516
11
156.92
21
-53.9565
0
LINE
8
BLACK
6
CONTINUOUS
10
156.92
20
-53.9565
11
156.919
21
-53.9583
0
LINE
8
BLACK
6
CONTINUOUS
10
156.919
20
-53.9583
11
156.92
21
-53.96
0
LINE
8
BLACK
6
CONTINUOUS
10
156.92
20
-53.96
11
156.92
21
-62.89
0
LINE
8
BLACK
6
CONTINUOUS
10
156.92
20
-62.89
11
156.919
21
-62.8971
0
LINE
8
BLACK
6
CONTINUOUS
10
156.919
20
-62.8971
11
156.918
21
-62.8986
0
LINE
8
BLACK
6
CONTINUOUS
10
156.918
20
-62.8986
11
156.918
21
-62.9004
0
LINE
8
BLACK
6
CONTINUOUS
10
156.918
20
-62.9004
11
156.914
21
-62.9044
0
LINE
8
BLACK
6
CONTINUOUS
10
156.914
20
-62.9044
11
156.911
21
-62.9089
0
LINE
8
BLACK
6
CONTINUOUS
10
156.911
20
-62.9089
11
156.91
21
-62.9097
0
LINE
8
BLACK
6
CONTINUOUS
10
156.91
20
-62.9097
11
156.909
21
-62.911
0
LINE
8
BLACK
6
CONTINUOUS
10
156.909
20
-62.911
11
156.903
21
-62.9125
0
LINE
8
BLACK
6
CONTINUOUS
10
156.903
20
-62.9125
11
156.899
21
-62.9148
0
LINE
8
BLACK
6
CONTINUOUS
10
156.899
20
-62.9148
11
156.897
21
-62.9145
0
LINE
8
BLACK
6
CONTINUOUS
10
156.897
20
-62.9145
11
156.895
21
-62.915
0
LINE
8
BLACK
6
CONTINUOUS
10
156.895
20
-62.915
11
146.355
21
-62.915
0
LINE
8
BLACK
6
CONTINUOUS
10
146.355
20
-62.915
11
146.348
21
-62.914
0
LINE
8
BLACK
6
CONTINUOUS
10
146.348
20
-62.914
11
146.346
21
-62.913
0
LINE
8
BLACK
6
CONTINUOUS
10
146.346
20
-62.913
11
146.345
21
-62.9127
0
LINE
8
BLACK
6
CONTINUOUS
10
146.345
20
-62.9127
11
146.341
21
-62.9092
0
LINE
8
BLACK
6
CONTINUOUS
10
146.341
20
-62.9092
11
146.336
21
-62.9063
0
LINE
8
BLACK
6
CONTINUOUS
10
146.336
20
-62.9063
11
146.335
21
-62.9047
0
LINE
8
BLACK
6
CONTINUOUS
10
146.335
20
-62.9047
11
146.334
21
-62.9035
0
LINE
8
BLACK
6
CONTINUOUS
10
146.334
20
-62.9035
11
146.332
21
-62.8984
0
LINE
8
BLACK
6
CONTINUOUS
10
146.332
20
-62.8984
11
146.33
21
-62.8935
0
LINE
8
BLACK
6
CONTINUOUS
10
146.33
20
-62.8935
11
146.331
21
-62.8917
0
LINE
8
BLACK
6
CONTINUOUS
10
146.331
20
-62.8917
11
146.33
21
-62.89
0
LINE
8
BLACK
6
CONTINUOUS
10
146.33
20
-62.89
11
146.33
21
-53.96
0
LINE
8
BLACK
6
CONTINUOUS
10
146.33
20
-53.96
11
146.331
21
-53.9529
0
LINE
8
BLACK
6
CONTINUOUS
10
146.331
20
-53.9529
11
146.332
21
-53.9514
0
LINE
8
BLACK
6
CONTINUOUS
10
146.332
20
-53.9514
11
146.332
21
-53.9496
0
LINE
8
BLACK
6
CONTINUOUS
10
146.332
20
-53.9496
11
146.336
21
-53.9456
0
LINE
8
BLACK
6
CONTINUOUS
10
146.336
20
-53.9456
11
146.339
21
-53.9411
0
LINE
8
BLACK
6
CONTINUOUS
10
146.339
20
-53.9411
11
146.34
21
-53.9403
0
LINE
8
BLACK
6
CONTINUOUS
10
146.34
20
-53.9403
11
146.341
21
-53.939
0
LINE
8
BLACK
6
CONTINUOUS
10
146.341
20
-53.939
11
146.347
21
-53.9375
0
LINE
8
BLACK
6
CONTINUOUS
10
146.347
20
-53.9375
11
146.351
21
-53.9352
0
LINE
8
BLACK
6
CONTINUOUS
10
146.351
20
-53.9352
11
146.353
21
-53.9355
0
LINE
8
BLACK
6
CONTINUOUS
10
146.353
20
-53.9355
11
146.355
21
-53.935
0
LINE
8
BLACK
6
CONTINUOUS
10
146.355
20
-53.935
11
156.895
21
-53.935
0
LINE
8
BLACK
6
CONTINUOUS
10
156.895
20
-53.935
11
156.902
21
-53.936
0
LINE
8
BLACK
6
CONTINUOUS
10
146.38
20
-53.985
11
146.38
21
-62.865
0
LINE
8
BLACK
6
CONTINUOUS
10
146.38
20
-62.865
11
156.87
21
-62.865
0
LINE
8
BLACK
6
CONTINUOUS
10
156.87
20
-62.865
11
156.87
21
-53.985
0
LINE
8
BLACK
6
CONTINUOUS
10
156.87
20
-53.985
11
146.38
21
-53.985
  0
ENDSEC
  0
EOF
