  0
SECTION
  2
HEADER
  9
$ANGBASE
  50
0.0
  9
$ANGDIR
  70
1
  9
$MEASUREMENT
  70
1
  0
ENDSEC
  0
SECTION
  2
TABLES
  0
TABLE
  2
LTYPE
  70
4
  0
LTYPE
  5
40F
  2
CONTINUOUS
  70
0
  3
Solid line
  72
65
  73
0
  40
0.0
  0
LTYPE
  5
410
  2
DASHDOT
 70
0
  3
Dash Dot ____ _ ____ _
 72
65
 73
4
 40
2.0
 49
1.25
 49
-0.25
 49
0.25
 49
-0.25
  0
LTYPE
  5
411
  2
DASHED
 70
0
  3
Dashed __ __ __ __ __
 72
65
 73
2
 40
0.75
 49
0.5
 49
-0.25
  0
LTYPE
  5
43B
  2
DOTTED
 70
0
  3
Dotted .  .  .  .
 72
65
 73
2
 40
0.2
 49
0.0
 49
-0.2
  0
ENDTAB
  0
TABLE
  2
STYLE
  70
4
  0
STYLE
  2
KICAD
  70
0
  40
0
  41
1
  42
1
  50
0
  71
0
  3
isocp.shx
  0
STYLE
  2
KICADB
  70
0
  40
0
  41
1
  42
1
  50
0
  71
0
  3
isocp.shx
  0
STYLE
  2
KICADI
  70
0
  40
0
  41
1
  42
1
  50
15
  71
0
  3
isocp.shx
  0
STYLE
  2
KICADBI
  70
0
  40
0
  41
1
  42
1
  50
15
  71
0
  3
isocp.shx
  0
ENDTAB
  0
TABLE
  2
LAYER
  70
1
  0
LAYER
  2
BLACK
  70
0
  62
7
  6
CONTINUOUS
  0
ENDTAB
  0
ENDSEC
  0
SECTION
  2
ENTITIES
0
LINE
8
BLACK
6
CONTINUOUS
10
156.625
20
-54.9662
11
156.758
21
-54.977
0
LINE
8
BLACK
6
CONTINUOUS
10
156.758
20
-54.977
11
156.89
21
-54.9949
0
LINE
8
BLACK
6
CONTINUOUS
10
156.89
20
-54.9949
11
157.02
21
-55.02
0
LINE
8
BLACK
6
CONTINUOUS
10
157.02
20
-55.02
11
157.149
21
-55.0521
0
LINE
8
BLACK
6
CONTINUOUS
10
157.149
20
-55.0521
11
157.276
21
-55.0911
0
LINE
8
BLACK
6
CONTINUOUS
10
157.276
20
-55.0911
11
157.401
21
-55.1369
0
LINE
8
BLACK
6
CONTINUOUS
10
157.401
20
-55.1369
11
157.523
21
-55.1895
0
LINE
8
BLACK
6
CONTINUOUS
10
157.523
20
-55.1895
11
157.643
21
-55.2486
0
LINE
8
BLACK
6
CONTINUOUS
10
157.643
20
-55.2486
11
157.758
21
-55.314
0
LINE
8
BLACK
6
CONTINUOUS
10
157.758
20
-55.314
11
157.87
21
-55.3856
0
LINE
8
BLACK
6
CONTINUOUS
10
157.87
20
-55.3856
11
157.978
21
-55.4632
0
LINE
8
BLACK
6
CONTINUOUS
10
157.978
20
-55.4632
11
158.082
21
-55.5465
0
LINE
8
BLACK
6
CONTINUOUS
10
158.082
20
-55.5465
11
158.181
21
-55.6353
0
LINE
8
BLACK
6
CONTINUOUS
10
158.181
20
-55.6353
11
158.275
21
-55.7293
0
LINE
8
BLACK
6
CONTINUOUS
10
158.275
20
-55.7293
11
158.364
21
-55.8282
0
LINE
8
BLACK
6
CONTINUOUS
10
158.364
20
-55.8282
11
158.447
21
-55.9319
0
LINE
8
BLACK
6
CONTINUOUS
10
158.447
20
-55.9319
11
158.525
21
-56.0399
0
LINE
8
BLACK
6
CONTINUOUS
10
158.525
20
-56.0399
11
158.596
21
-56.1519
0
LINE
8
BLACK
6
CONTINUOUS
10
158.596
20
-56.1519
11
158.662
21
-56.2676
0
LINE
8
BLACK
6
CONTINUOUS
10
158.662
20
-56.2676
11
158.721
21
-56.3868
0
LINE
8
BLACK
6
CONTINUOUS
10
158.721
20
-56.3868
11
158.773
21
-56.5089
0
LINE
8
BLACK
6
CONTINUOUS
10
158.773
20
-56.5089
11
158.819
21
-56.6337
0
LINE
8
BLACK
6
CONTINUOUS
10
158.819
20
-56.6337
11
158.858
21
-56.7608
0
LINE
8
BLACK
6
CONTINUOUS
10
158.858
20
-56.7608
11
158.89
21
-56.8898
0
LINE
8
BLACK
6
CONTINUOUS
10
158.89
20
-56.8898
11
158.915
21
-57.0204
0
LINE
8
BLACK
6
CONTINUOUS
10
158.915
20
-57.0204
11
158.933
21
-57.1522
0
LINE
8
BLACK
6
CONTINUOUS
10
158.933
20
-57.1522
11
158.944
21
-57.2847
0
LINE
8
BLACK
6
CONTINUOUS
10
158.944
20
-57.2847
11
158.948
21
-57.4176
0
LINE
8
BLACK
6
CONTINUOUS
10
158.948
20
-57.4176
11
158.948
21
-57.4176
0
LINE
8
BLACK
6
CONTINUOUS
10
158.948
20
-57.4176
11
158.948
21
-57.4176
0
LINE
8
BLACK
6
CONTINUOUS
10
158.948
20
-57.4176
11
158.948
21
-57.4176
0
LINE
8
BLACK
6
CONTINUOUS
10
158.948
20
-57.4176
11
158.923
21
-90.0676
0
LINE
8
BLACK
6
CONTINUOUS
10
158.923
20
-90.0676
11
158.922
21
-90.07
0
LINE
8
BLACK
6
CONTINUOUS
10
158.922
20
-90.07
11
158.921
21
-90.0711
0
LINE
8
BLACK
6
CONTINUOUS
10
158.921
20
-90.0711
11
158.921
21
-90.0711
0
LINE
8
BLACK
6
CONTINUOUS
10
158.921
20
-90.0711
11
158.921
21
-90.0711
0
LINE
8
BLACK
6
CONTINUOUS
10
158.921
20
-90.0711
11
158.921
21
-90.0711
0
LINE
8
BLACK
6
CONTINUOUS
10
158.921
20
-90.0711
11
156.471
21
-92.5211
0
LINE
8
BLACK
6
CONTINUOUS
10
156.471
20
-92.5211
11
156.471
21
-92.5211
0
LINE
8
BLACK
6
CONTINUOUS
10
156.471
20
-92.5211
11
156.471
21
-92.5211
0
LINE
8
BLACK
6
CONTINUOUS
10
156.471
20
-92.5211
11
156.469
21
-92.5218
0
LINE
8
BLACK
6
CONTINUOUS
10
156.469
20
-92.5218
11
156.468
21
-92.5226
0
LINE
8
BLACK
6
CONTINUOUS
10
156.468
20
-92.5226
11
156.468
21
-92.5226
0
LINE
8
BLACK
6
CONTINUOUS
10
156.468
20
-92.5226
11
156.468
21
-92.5226
0
LINE
8
BLACK
6
CONTINUOUS
10
156.468
20
-92.5226
11
92.45
21
-92.455
0
LINE
8
BLACK
6
CONTINUOUS
10
92.45
20
-92.455
11
92.3171
21
-92.4514
0
LINE
8
BLACK
6
CONTINUOUS
10
92.3171
20
-92.4514
11
92.1846
21
-92.4406
0
LINE
8
BLACK
6
CONTINUOUS
10
92.1846
20
-92.4406
11
92.0528
21
-92.4227
0
LINE
8
BLACK
6
CONTINUOUS
10
92.0528
20
-92.4227
11
91.9222
21
-92.3976
0
LINE
8
BLACK
6
CONTINUOUS
10
91.9222
20
-92.3976
11
91.7932
21
-92.3655
0
LINE
8
BLACK
6
CONTINUOUS
10
91.7932
20
-92.3655
11
91.6661
21
-92.3265
0
LINE
8
BLACK
6
CONTINUOUS
10
91.6661
20
-92.3265
11
91.5413
21
-92.2806
0
LINE
8
BLACK
6
CONTINUOUS
10
91.5413
20
-92.2806
11
91.4192
21
-92.2281
0
LINE
8
BLACK
6
CONTINUOUS
10
91.4192
20
-92.2281
11
91.3001
21
-92.169
0
LINE
8
BLACK
6
CONTINUOUS
10
91.3001
20
-92.169
11
91.1843
21
-92.1036
0
LINE
8
BLACK
6
CONTINUOUS
10
91.1843
20
-92.1036
11
91.0723
21
-92.032
0
LINE
8
BLACK
6
CONTINUOUS
10
91.0723
20
-92.032
11
90.9643
21
-91.9544
0
LINE
8
BLACK
6
CONTINUOUS
10
90.9643
20
-91.9544
11
90.8607
21
-91.8711
0
LINE
8
BLACK
6
CONTINUOUS
10
90.8607
20
-91.8711
11
90.7617
21
-91.7823
0
LINE
8
BLACK
6
CONTINUOUS
10
90.7617
20
-91.7823
11
90.6677
21
-91.6883
0
LINE
8
BLACK
6
CONTINUOUS
10
90.6677
20
-91.6883
11
90.5789
21
-91.5893
0
LINE
8
BLACK
6
CONTINUOUS
10
90.5789
20
-91.5893
11
90.4956
21
-91.4857
0
LINE
8
BLACK
6
CONTINUOUS
10
90.4956
20
-91.4857
11
90.418
21
-91.3777
0
LINE
8
BLACK
6
CONTINUOUS
10
90.418
20
-91.3777
11
90.3464
21
-91.2657
0
LINE
8
BLACK
6
CONTINUOUS
10
90.3464
20
-91.2657
11
90.281
21
-91.1499
0
LINE
8
BLACK
6
CONTINUOUS
10
90.281
20
-91.1499
11
90.2219
21
-91.0308
0
LINE
8
BLACK
6
CONTINUOUS
10
90.2219
20
-91.0308
11
90.1694
21
-90.9087
0
LINE
8
BLACK
6
CONTINUOUS
10
90.1694
20
-90.9087
11
90.1235
21
-90.7839
0
LINE
8
BLACK
6
CONTINUOUS
10
90.1235
20
-90.7839
11
90.0845
21
-90.6568
0
LINE
8
BLACK
6
CONTINUOUS
10
90.0845
20
-90.6568
11
90.0524
21
-90.5278
0
LINE
8
BLACK
6
CONTINUOUS
10
90.0524
20
-90.5278
11
90.0273
21
-90.3972
0
LINE
8
BLACK
6
CONTINUOUS
10
90.0273
20
-90.3972
11
90.0094
21
-90.2654
0
LINE
8
BLACK
6
CONTINUOUS
10
90.0094
20
-90.2654
11
89.9986
21
-90.1329
0
LINE
8
BLACK
6
CONTINUOUS
10
89.9986
20
-90.1329
11
89.995
21
-90
0
LINE
8
BLACK
6
CONTINUOUS
10
89.995
20
-90
11
89.995
21
-70.8
0
LINE
8
BLACK
6
CONTINUOUS
10
89.995
20
-70.8
11
89.995
21
-70.8
0
LINE
8
BLACK
6
CONTINUOUS
10
89.995
20
-70.8
11
89.9965
21
-70.7965
0
LINE
8
BLACK
6
CONTINUOUS
10
89.9965
20
-70.7965
11
91.495
21
-69.2979
0
LINE
8
BLACK
6
CONTINUOUS
10
91.495
20
-69.2979
11
91.495
21
-67.3021
0
LINE
8
BLACK
6
CONTINUOUS
10
91.495
20
-67.3021
11
89.9965
21
-65.8035
0
LINE
8
BLACK
6
CONTINUOUS
10
89.9965
20
-65.8035
11
89.995
21
-65.8
0
LINE
8
BLACK
6
CONTINUOUS
10
89.995
20
-65.8
11
89.995
21
-65.8
0
LINE
8
BLACK
6
CONTINUOUS
10
89.995
20
-65.8
11
89.995
21
-57.45
0
LINE
8
BLACK
6
CONTINUOUS
10
89.995
20
-57.45
11
89.9986
21
-57.3171
0
LINE
8
BLACK
6
CONTINUOUS
10
89.9986
20
-57.3171
11
90.0094
21
-57.1846
0
LINE
8
BLACK
6
CONTINUOUS
10
90.0094
20
-57.1846
11
90.0273
21
-57.0528
0
LINE
8
BLACK
6
CONTINUOUS
10
90.0273
20
-57.0528
11
90.0524
21
-56.9222
0
LINE
8
BLACK
6
CONTINUOUS
10
90.0524
20
-56.9222
11
90.0845
21
-56.7932
0
LINE
8
BLACK
6
CONTINUOUS
10
90.0845
20
-56.7932
11
90.1235
21
-56.6661
0
LINE
8
BLACK
6
CONTINUOUS
10
90.1235
20
-56.6661
11
90.1694
21
-56.5413
0
LINE
8
BLACK
6
CONTINUOUS
10
90.1694
20
-56.5413
11
90.2219
21
-56.4192
0
LINE
8
BLACK
6
CONTINUOUS
10
90.2219
20
-56.4192
11
90.281
21
-56.3001
0
LINE
8
BLACK
6
CONTINUOUS
10
90.281
20
-56.3001
11
90.3464
21
-56.1843
0
LINE
8
BLACK
6
CONTINUOUS
10
90.3464
20
-56.1843
11
90.418
21
-56.0723
0
LINE
8
BLACK
6
CONTINUOUS
10
90.418
20
-56.0723
11
90.4956
21
-55.9643
0
LINE
8
BLACK
6
CONTINUOUS
10
90.4956
20
-55.9643
11
90.5789
21
-55.8607
0
LINE
8
BLACK
6
CONTINUOUS
10
90.5789
20
-55.8607
11
90.6677
21
-55.7617
0
LINE
8
BLACK
6
CONTINUOUS
10
90.6677
20
-55.7617
11
90.7617
21
-55.6677
0
LINE
8
BLACK
6
CONTINUOUS
10
90.7617
20
-55.6677
11
90.8607
21
-55.5789
0
LINE
8
BLACK
6
CONTINUOUS
10
90.8607
20
-55.5789
11
90.9643
21
-55.4956
0
LINE
8
BLACK
6
CONTINUOUS
10
90.9643
20
-55.4956
11
91.0723
21
-55.418
0
LINE
8
BLACK
6
CONTINUOUS
10
91.0723
20
-55.418
11
91.1843
21
-55.3464
0
LINE
8
BLACK
6
CONTINUOUS
10
91.1843
20
-55.3464
11
91.3001
21
-55.281
0
LINE
8
BLACK
6
CONTINUOUS
10
91.3001
20
-55.281
11
91.4192
21
-55.2219
0
LINE
8
BLACK
6
CONTINUOUS
10
91.4192
20
-55.2219
11
91.5413
21
-55.1694
0
LINE
8
BLACK
6
CONTINUOUS
10
91.5413
20
-55.1694
11
91.6661
21
-55.1235
0
LINE
8
BLACK
6
CONTINUOUS
10
91.6661
20
-55.1235
11
91.7932
21
-55.0845
0
LINE
8
BLACK
6
CONTINUOUS
10
91.7932
20
-55.0845
11
91.9222
21
-55.0524
0
LINE
8
BLACK
6
CONTINUOUS
10
91.9222
20
-55.0524
11
92.0528
21
-55.0273
0
LINE
8
BLACK
6
CONTINUOUS
10
92.0528
20
-55.0273
11
92.1846
21
-55.0094
0
LINE
8
BLACK
6
CONTINUOUS
10
92.1846
20
-55.0094
11
92.3171
21
-54.9986
0
LINE
8
BLACK
6
CONTINUOUS
10
92.3171
20
-54.9986
11
92.45
21
-54.995
0
LINE
8
BLACK
6
CONTINUOUS
10
92.45
20
-54.995
11
92.45
21
-54.995
0
LINE
8
BLACK
6
CONTINUOUS
10
92.45
20
-54.995
11
156.493
21
-54.9626
0
LINE
8
BLACK
6
CONTINUOUS
10
156.493
20
-54.9626
11
156.493
21
-54.9626
0
LINE
8
BLACK
6
CONTINUOUS
10
156.493
20
-54.9626
11
156.493
21
-54.9626
0
LINE
8
BLACK
6
CONTINUOUS
10
156.493
20
-54.9626
11
156.625
21
-54.9662
0
LINE
8
BLACK
6
CONTINUOUS
10
156.494
20
-54.9719
11
156.493
21
-54.9726
0
LINE
8
BLACK
6
CONTINUOUS
10
156.493
20
-54.9726
11
92.45
21
-55.005
0
LINE
8
BLACK
6
CONTINUOUS
10
92.45
20
-55.005
11
92.45
21
-55.005
0
LINE
8
BLACK
6
CONTINUOUS
10
92.45
20
-55.005
11
92.45
21
-55.005
0
LINE
8
BLACK
6
CONTINUOUS
10
92.45
20
-55.005
11
92.4478
21
-55.0041
0
LINE
8
BLACK
6
CONTINUOUS
10
92.4478
20
-55.0041
11
92.3129
21
-55.0079
0
LINE
8
BLACK
6
CONTINUOUS
10
92.3129
20
-55.0079
11
92.1761
21
-55.0194
0
LINE
8
BLACK
6
CONTINUOUS
10
92.1761
20
-55.0194
11
92.0403
21
-55.0386
0
LINE
8
BLACK
6
CONTINUOUS
10
92.0403
20
-55.0386
11
91.9057
21
-55.0654
0
LINE
8
BLACK
6
CONTINUOUS
10
91.9057
20
-55.0654
11
91.7729
21
-55.0996
0
LINE
8
BLACK
6
CONTINUOUS
10
91.7729
20
-55.0996
11
91.6422
21
-55.1413
0
LINE
8
BLACK
6
CONTINUOUS
10
91.6422
20
-55.1413
11
91.514
21
-55.1902
0
LINE
8
BLACK
6
CONTINUOUS
10
91.514
20
-55.1902
11
91.3887
21
-55.2463
0
LINE
8
BLACK
6
CONTINUOUS
10
91.3887
20
-55.2463
11
91.2668
21
-55.3092
0
LINE
8
BLACK
6
CONTINUOUS
10
91.2668
20
-55.3092
11
91.1487
21
-55.3789
0
LINE
8
BLACK
6
CONTINUOUS
10
91.1487
20
-55.3789
11
91.0346
21
-55.4552
0
LINE
8
BLACK
6
CONTINUOUS
10
91.0346
20
-55.4552
11
90.925
21
-55.5377
0
LINE
8
BLACK
6
CONTINUOUS
10
90.925
20
-55.5377
11
90.8201
21
-55.6262
0
LINE
8
BLACK
6
CONTINUOUS
10
90.8201
20
-55.6262
11
90.7204
21
-55.7204
0
LINE
8
BLACK
6
CONTINUOUS
10
90.7204
20
-55.7204
11
90.6262
21
-55.8201
0
LINE
8
BLACK
6
CONTINUOUS
10
90.6262
20
-55.8201
11
90.5377
21
-55.925
0
LINE
8
BLACK
6
CONTINUOUS
10
90.5377
20
-55.925
11
90.4552
21
-56.0346
0
LINE
8
BLACK
6
CONTINUOUS
10
90.4552
20
-56.0346
11
90.3789
21
-56.1487
0
LINE
8
BLACK
6
CONTINUOUS
10
90.3789
20
-56.1487
11
90.3092
21
-56.2668
0
LINE
8
BLACK
6
CONTINUOUS
10
90.3092
20
-56.2668
11
90.2463
21
-56.3887
0
LINE
8
BLACK
6
CONTINUOUS
10
90.2463
20
-56.3887
11
90.1902
21
-56.514
0
LINE
8
BLACK
6
CONTINUOUS
10
90.1902
20
-56.514
11
90.1413
21
-56.6422
0
LINE
8
BLACK
6
CONTINUOUS
10
90.1413
20
-56.6422
11
90.0996
21
-56.7729
0
LINE
8
BLACK
6
CONTINUOUS
10
90.0996
20
-56.7729
11
90.0654
21
-56.9057
0
LINE
8
BLACK
6
CONTINUOUS
10
90.0654
20
-56.9057
11
90.0386
21
-57.0403
0
LINE
8
BLACK
6
CONTINUOUS
10
90.0386
20
-57.0403
11
90.0194
21
-57.1761
0
LINE
8
BLACK
6
CONTINUOUS
10
90.0194
20
-57.1761
11
90.0079
21
-57.3129
0
LINE
8
BLACK
6
CONTINUOUS
10
90.0079
20
-57.3129
11
90.0041
21
-57.4478
0
LINE
8
BLACK
6
CONTINUOUS
10
90.0041
20
-57.4478
11
90.005
21
-57.45
0
LINE
8
BLACK
6
CONTINUOUS
10
90.005
20
-57.45
11
90.005
21
-65.7979
0
LINE
8
BLACK
6
CONTINUOUS
10
90.005
20
-65.7979
11
91.5035
21
-67.2965
0
LINE
8
BLACK
6
CONTINUOUS
10
91.5035
20
-67.2965
11
91.5035
21
-67.2965
0
LINE
8
BLACK
6
CONTINUOUS
10
91.5035
20
-67.2965
11
91.505
21
-67.3
0
LINE
8
BLACK
6
CONTINUOUS
10
91.505
20
-67.3
11
91.505
21
-69.3
0
LINE
8
BLACK
6
CONTINUOUS
10
91.505
20
-69.3
11
91.5035
21
-69.3035
0
LINE
8
BLACK
6
CONTINUOUS
10
91.5035
20
-69.3035
11
91.5035
21
-69.3035
0
LINE
8
BLACK
6
CONTINUOUS
10
91.5035
20
-69.3035
11
90.005
21
-70.8021
0
LINE
8
BLACK
6
CONTINUOUS
10
90.005
20
-70.8021
11
90.005
21
-90
0
LINE
8
BLACK
6
CONTINUOUS
10
90.005
20
-90
11
90.0041
21
-90.0022
0
LINE
8
BLACK
6
CONTINUOUS
10
90.0041
20
-90.0022
11
90.0079
21
-90.1371
0
LINE
8
BLACK
6
CONTINUOUS
10
90.0079
20
-90.1371
11
90.0194
21
-90.2739
0
LINE
8
BLACK
6
CONTINUOUS
10
90.0194
20
-90.2739
11
90.0386
21
-90.4097
0
LINE
8
BLACK
6
CONTINUOUS
10
90.0386
20
-90.4097
11
90.0654
21
-90.5443
0
LINE
8
BLACK
6
CONTINUOUS
10
90.0654
20
-90.5443
11
90.0996
21
-90.6771
0
LINE
8
BLACK
6
CONTINUOUS
10
90.0996
20
-90.6771
11
90.1413
21
-90.8079
0
LINE
8
BLACK
6
CONTINUOUS
10
90.1413
20
-90.8079
11
90.1902
21
-90.936
0
LINE
8
BLACK
6
CONTINUOUS
10
90.1902
20
-90.936
11
90.2463
21
-91.0613
0
LINE
8
BLACK
6
CONTINUOUS
10
90.2463
20
-91.0613
11
90.3092
21
-91.1832
0
LINE
8
BLACK
6
CONTINUOUS
10
90.3092
20
-91.1832
11
90.3789
21
-91.3013
0
LINE
8
BLACK
6
CONTINUOUS
10
90.3789
20
-91.3013
11
90.4552
21
-91.4154
0
LINE
8
BLACK
6
CONTINUOUS
10
90.4552
20
-91.4154
11
90.5377
21
-91.525
0
LINE
8
BLACK
6
CONTINUOUS
10
90.5377
20
-91.525
11
90.6262
21
-91.6299
0
LINE
8
BLACK
6
CONTINUOUS
10
90.6262
20
-91.6299
11
90.7204
21
-91.7296
0
LINE
8
BLACK
6
CONTINUOUS
10
90.7204
20
-91.7296
11
90.8201
21
-91.8238
0
LINE
8
BLACK
6
CONTINUOUS
10
90.8201
20
-91.8238
11
90.925
21
-91.9123
0
LINE
8
BLACK
6
CONTINUOUS
10
90.925
20
-91.9123
11
91.0346
21
-91.9948
0
LINE
8
BLACK
6
CONTINUOUS
10
91.0346
20
-91.9948
11
91.1487
21
-92.0711
0
LINE
8
BLACK
6
CONTINUOUS
10
91.1487
20
-92.0711
11
91.2668
21
-92.1408
0
LINE
8
BLACK
6
CONTINUOUS
10
91.2668
20
-92.1408
11
91.3887
21
-92.2037
0
LINE
8
BLACK
6
CONTINUOUS
10
91.3887
20
-92.2037
11
91.514
21
-92.2598
0
LINE
8
BLACK
6
CONTINUOUS
10
91.514
20
-92.2598
11
91.6422
21
-92.3087
0
LINE
8
BLACK
6
CONTINUOUS
10
91.6422
20
-92.3087
11
91.7729
21
-92.3504
0
LINE
8
BLACK
6
CONTINUOUS
10
91.7729
20
-92.3504
11
91.9057
21
-92.3846
0
LINE
8
BLACK
6
CONTINUOUS
10
91.9057
20
-92.3846
11
92.0403
21
-92.4114
0
LINE
8
BLACK
6
CONTINUOUS
10
92.0403
20
-92.4114
11
92.1761
21
-92.4306
0
LINE
8
BLACK
6
CONTINUOUS
10
92.1761
20
-92.4306
11
92.3129
21
-92.4421
0
LINE
8
BLACK
6
CONTINUOUS
10
92.3129
20
-92.4421
11
92.4478
21
-92.4459
0
LINE
8
BLACK
6
CONTINUOUS
10
92.4478
20
-92.4459
11
92.4484
21
-92.4457
0
LINE
8
BLACK
6
CONTINUOUS
10
92.4484
20
-92.4457
11
92.45
21
-92.445
0
LINE
8
BLACK
6
CONTINUOUS
10
92.45
20
-92.445
11
92.45
21
-92.445
0
LINE
8
BLACK
6
CONTINUOUS
10
92.45
20
-92.445
11
92.45
21
-92.445
0
LINE
8
BLACK
6
CONTINUOUS
10
92.45
20
-92.445
11
156.466
21
-92.5126
0
LINE
8
BLACK
6
CONTINUOUS
10
156.466
20
-92.5126
11
158.913
21
-90.0655
0
LINE
8
BLACK
6
CONTINUOUS
10
158.913
20
-90.0655
11
158.938
21
-57.4176
0
LINE
8
BLACK
6
CONTINUOUS
10
158.938
20
-57.4176
11
158.938
21
-57.4161
0
LINE
8
BLACK
6
CONTINUOUS
10
158.938
20
-57.4161
11
158.939
21
-57.4154
0
LINE
8
BLACK
6
CONTINUOUS
10
158.939
20
-57.4154
11
158.935
21
-57.2804
0
LINE
8
BLACK
6
CONTINUOUS
10
158.935
20
-57.2804
11
158.923
21
-57.1437
0
LINE
8
BLACK
6
CONTINUOUS
10
158.923
20
-57.1437
11
158.904
21
-57.0079
0
LINE
8
BLACK
6
CONTINUOUS
10
158.904
20
-57.0079
11
158.877
21
-56.8733
0
LINE
8
BLACK
6
CONTINUOUS
10
158.877
20
-56.8733
11
158.843
21
-56.7405
0
LINE
8
BLACK
6
CONTINUOUS
10
158.843
20
-56.7405
11
158.801
21
-56.6097
0
LINE
8
BLACK
6
CONTINUOUS
10
158.801
20
-56.6097
11
158.752
21
-56.4816
0
LINE
8
BLACK
6
CONTINUOUS
10
158.752
20
-56.4816
11
158.696
21
-56.3563
0
LINE
8
BLACK
6
CONTINUOUS
10
158.696
20
-56.3563
11
158.633
21
-56.2344
0
LINE
8
BLACK
6
CONTINUOUS
10
158.633
20
-56.2344
11
158.564
21
-56.1163
0
LINE
8
BLACK
6
CONTINUOUS
10
158.564
20
-56.1163
11
158.487
21
-56.0022
0
LINE
8
BLACK
6
CONTINUOUS
10
158.487
20
-56.0022
11
158.405
21
-55.8926
0
LINE
8
BLACK
6
CONTINUOUS
10
158.405
20
-55.8926
11
158.316
21
-55.7877
0
LINE
8
BLACK
6
CONTINUOUS
10
158.316
20
-55.7877
11
158.222
21
-55.688
0
LINE
8
BLACK
6
CONTINUOUS
10
158.222
20
-55.688
11
158.122
21
-55.5938
0
LINE
8
BLACK
6
CONTINUOUS
10
158.122
20
-55.5938
11
158.018
21
-55.5053
0
LINE
8
BLACK
6
CONTINUOUS
10
158.018
20
-55.5053
11
157.908
21
-55.4228
0
LINE
8
BLACK
6
CONTINUOUS
10
157.908
20
-55.4228
11
157.794
21
-55.3465
0
LINE
8
BLACK
6
CONTINUOUS
10
157.794
20
-55.3465
11
157.676
21
-55.2768
0
LINE
8
BLACK
6
CONTINUOUS
10
157.676
20
-55.2768
11
157.554
21
-55.2138
0
LINE
8
BLACK
6
CONTINUOUS
10
157.554
20
-55.2138
11
157.429
21
-55.1578
0
LINE
8
BLACK
6
CONTINUOUS
10
157.429
20
-55.1578
11
157.3
21
-55.1089
0
LINE
8
BLACK
6
CONTINUOUS
10
157.3
20
-55.1089
11
157.17
21
-55.0672
0
LINE
8
BLACK
6
CONTINUOUS
10
157.17
20
-55.0672
11
157.037
21
-55.0329
0
LINE
8
BLACK
6
CONTINUOUS
10
157.037
20
-55.0329
11
156.902
21
-55.0062
0
LINE
8
BLACK
6
CONTINUOUS
10
156.902
20
-55.0062
11
156.766
21
-54.987
0
LINE
8
BLACK
6
CONTINUOUS
10
156.766
20
-54.987
11
156.63
21
-54.9755
0
LINE
8
BLACK
6
CONTINUOUS
10
156.63
20
-54.9755
11
156.495
21
-54.9717
0
LINE
8
BLACK
6
CONTINUOUS
10
156.495
20
-54.9717
11
156.494
21
-54.9719
  0
ENDSEC
  0
EOF
