<?xml version="1.0" standalone="no"?>
 <!DOCTYPE svg PUBLIC "-//W3C//DTD SVG 1.1//EN" 
 "http://www.w3.org/Graphics/SVG/1.1/DTD/svg11.dtd"> 
<svg
  xmlns:svg="http://www.w3.org/2000/svg"
  xmlns="http://www.w3.org/2000/svg"
  xmlns:xlink="http://www.w3.org/1999/xlink"
  version="1.1"
  width="25.001220cm" height="15.001240cm" viewBox="0 0 250012200 150012400">
<title>SVG Picture created as PicoGamePad_V3_0_0_A-User_Drawings.svg date 2023/02/23 14:16:25 </title>
  <desc>Picture generated by PCBNEW </desc>
<g style="fill:#000000; fill-opacity:1.000000;stroke:#000000; stroke-opacity:1.000000;
stroke-linecap:round; stroke-linejoin:round;"
 transform="translate(0 0) scale(1 1)">
</g>
<g style="fill:#000000; fill-opacity:0.0; 
stroke:#000000; stroke-width:0.000000; stroke-opacity:1; 
stroke-linecap:round; stroke-linejoin:round;">
</g>
<g style="fill:#000000; fill-opacity:0.0; 
stroke:#000000; stroke-width:200000.000000; stroke-opacity:1; 
stroke-linecap:round; stroke-linejoin:round;">
<path d="M119550000 65750000
L115700000 69600000
" />
<path d="M129550000 62050000
L133800000 66300000
" />
</g>
<g style="fill:#000000; fill-opacity:0.0; 
stroke:#000000; stroke-width:150000.000000; stroke-opacity:1; 
stroke-linecap:round; stroke-linejoin:round;">
<text x="151625000.000000" y="56370000.000000"
textLength="7528333.000000" font-size="1333333.000000" lengthAdjust="spacingAndGlyphs"
text-anchor="middle" opacity="0">PCB Edge</text>
<g class="stroked-text"><desc>PCB Edge</desc>
<path d="M148196428 56322380
L148196428 55322380
L148577380 55322380
L148672619 55370000
L148720238 55417619
L148767857 55512857
L148767857 55655714
L148720238 55750952
L148672619 55798571
L148577380 55846190
L148196428 55846190
" />
<path d="M149767857 56227142
L149720238 56274761
L149577380 56322380
L149482142 56322380
L149339285 56274761
L149244047 56179523
L149196428 56084285
L149148809 55893809
L149148809 55750952
L149196428 55560476
L149244047 55465238
L149339285 55370000
L149482142 55322380
L149577380 55322380
L149720238 55370000
L149767857 55417619
" />
<path d="M150529761 55798571
L150672619 55846190
L150720238 55893809
L150767857 55989047
L150767857 56131904
L150720238 56227142
L150672619 56274761
L150577380 56322380
L150196428 56322380
L150196428 55322380
L150529761 55322380
L150625000 55370000
L150672619 55417619
L150720238 55512857
L150720238 55608095
L150672619 55703333
L150625000 55750952
L150529761 55798571
L150196428 55798571
" />
<path d="M151958333 55798571
L152291666 55798571
" />
<path d="M152434523 56322380
L151958333 56322380
L151958333 55322380
L152434523 55322380
" />
<path d="M153291666 56322380
L153291666 55322380
" />
<path d="M153291666 56274761
L153196428 56322380
L153005952 56322380
L152910714 56274761
L152863095 56227142
L152815476 56131904
L152815476 55846190
L152863095 55750952
L152910714 55703333
L153005952 55655714
L153196428 55655714
L153291666 55703333
" />
<path d="M154196428 55655714
L154196428 56465238
L154148809 56560476
L154101190 56608095
L154005952 56655714
L153863095 56655714
L153767857 56608095
" />
<path d="M154196428 56274761
L154101190 56322380
L153910714 56322380
L153815476 56274761
L153767857 56227142
L153720238 56131904
L153720238 55846190
L153767857 55750952
L153815476 55703333
L153910714 55655714
L154101190 55655714
L154196428 55703333
" />
<path d="M155053571 56274761
L154958333 56322380
L154767857 56322380
L154672619 56274761
L154625000 56179523
L154625000 55798571
L154672619 55703333
L154767857 55655714
L154958333 55655714
L155053571 55703333
L155101190 55798571
L155101190 55893809
L154625000 55989047
" />
</g></g>
<g style="fill:#000000; fill-opacity:0.0; 
stroke:#000000; stroke-width:100000.000000; stroke-opacity:1; 
stroke-linecap:round; stroke-linejoin:round;">
<path d="M147155000 54960000
L156095000 54960000
" />
<g >
</g>
<g >
</g>
<g >
</g>
<g >
</g>
<g >
</g>
<g >
</g>
<g >
</g>
<g >
</g>
<g >
</g>
<g >
</g>
<g >
</g>
<g >
</g>
<g >
</g>
<g >
</g>
<g >
</g>
<g >
</g>
<g >
</g>
<g >
</g>
<g >
</g>
<g >
</g>
<g >
</g>
<g >
</g>
<g >
</g>
<g >
</g>
<g >
</g>
<g >
</g>
<g >
</g>
<g >
</g>
<g >
</g>
<g >
</g>
<g >
</g>
<g >
</g>
<g >
</g>
<g >
</g>
<g >
</g>
<g >
</g>
<g >
</g>
<g >
</g>
<g >
</g>
<g >
</g>
<g >
</g>
<g >
</g>
<g >
</g>
<g >
</g>
<g >
</g>
<g >
</g>
<g >
</g>
<g >
</g>
<g >
</g>
<g >
</g>
<g >
</g>
<g >
</g>
<g >
</g>
<g >
</g>
<g >
</g>
<g >
</g>
<g >
</g>
<g >
</g>
</g> 
</svg>
