  0
SECTION
  2
HEADER
  9
$ANGBASE
  50
0.0
  9
$ANGDIR
  70
1
  9
$MEASUREMENT
  70
1
  0
ENDSEC
  0
SECTION
  2
TABLES
  0
TABLE
  2
LTYPE
  70
4
  0
LTYPE
  5
40F
  2
CONTINUOUS
  70
0
  3
Solid line
  72
65
  73
0
  40
0.0
  0
LTYPE
  5
410
  2
DASHDOT
 70
0
  3
Dash Dot ____ _ ____ _
 72
65
 73
4
 40
2.0
 49
1.25
 49
-0.25
 49
0.25
 49
-0.25
  0
LTYPE
  5
411
  2
DASHED
 70
0
  3
Dashed __ __ __ __ __
 72
65
 73
2
 40
0.75
 49
0.5
 49
-0.25
  0
LTYPE
  5
43B
  2
DOTTED
 70
0
  3
Dotted .  .  .  .
 72
65
 73
2
 40
0.2
 49
0.0
 49
-0.2
  0
ENDTAB
  0
TABLE
  2
STYLE
  70
4
  0
STYLE
  2
KICAD
  70
0
  40
0
  41
1
  42
1
  50
0
  71
0
  3
isocp.shx
  0
STYLE
  2
KICADB
  70
0
  40
0
  41
1
  42
1
  50
0
  71
0
  3
isocp.shx
  0
STYLE
  2
KICADI
  70
0
  40
0
  41
1
  42
1
  50
15
  71
0
  3
isocp.shx
  0
STYLE
  2
KICADBI
  70
0
  40
0
  41
1
  42
1
  50
15
  71
0
  3
isocp.shx
  0
ENDTAB
  0
TABLE
  2
LAYER
  70
1
  0
LAYER
  2
BLACK
  70
0
  62
7
  6
CONTINUOUS
  0
ENDTAB
  0
ENDSEC
  0
SECTION
  2
ENTITIES
0
LINE
8
BLACK
6
CONTINUOUS
10
123.104
20
-85.4904
11
123.106
21
-85.4903
0
LINE
8
BLACK
6
CONTINUOUS
10
123.106
20
-85.4903
11
123.107
21
-85.4907
0
LINE
8
BLACK
6
CONTINUOUS
10
123.107
20
-85.4907
11
123.112
21
-85.4911
0
LINE
8
BLACK
6
CONTINUOUS
10
123.112
20
-85.4911
11
123.119
21
-85.4941
0
LINE
8
BLACK
6
CONTINUOUS
10
123.119
20
-85.4941
11
123.127
21
-85.4964
0
LINE
8
BLACK
6
CONTINUOUS
10
123.127
20
-85.4964
11
123.129
21
-85.4982
0
LINE
8
BLACK
6
CONTINUOUS
10
123.129
20
-85.4982
11
123.132
21
-85.4993
0
LINE
8
BLACK
6
CONTINUOUS
10
123.132
20
-85.4993
11
123.138
21
-85.5048
0
LINE
8
BLACK
6
CONTINUOUS
10
123.138
20
-85.5048
11
123.144
21
-85.5097
0
LINE
8
BLACK
6
CONTINUOUS
10
123.144
20
-85.5097
11
123.146
21
-85.5122
0
LINE
8
BLACK
6
CONTINUOUS
10
123.146
20
-85.5122
11
123.148
21
-85.5142
0
LINE
8
BLACK
6
CONTINUOUS
10
123.148
20
-85.5142
11
123.152
21
-85.5215
0
LINE
8
BLACK
6
CONTINUOUS
10
123.152
20
-85.5215
11
123.156
21
-85.5284
0
LINE
8
BLACK
6
CONTINUOUS
10
123.156
20
-85.5284
11
123.157
21
-85.5313
0
LINE
8
BLACK
6
CONTINUOUS
10
123.157
20
-85.5313
11
123.158
21
-85.534
0
LINE
8
BLACK
6
CONTINUOUS
10
123.158
20
-85.534
11
123.159
21
-85.542
0
LINE
8
BLACK
6
CONTINUOUS
10
123.159
20
-85.542
11
123.16
21
-85.55
0
LINE
8
BLACK
6
CONTINUOUS
10
123.16
20
-85.55
11
123.16
21
-90.05
0
LINE
8
BLACK
6
CONTINUOUS
10
123.16
20
-90.05
11
123.16
21
-90.0543
0
LINE
8
BLACK
6
CONTINUOUS
10
123.16
20
-90.0543
11
123.16
21
-90.0559
0
LINE
8
BLACK
6
CONTINUOUS
10
123.16
20
-90.0559
11
123.159
21
-90.0574
0
LINE
8
BLACK
6
CONTINUOUS
10
123.159
20
-90.0574
11
123.159
21
-90.0617
0
LINE
8
BLACK
6
CONTINUOUS
10
123.159
20
-90.0617
11
123.156
21
-90.0692
0
LINE
8
BLACK
6
CONTINUOUS
10
123.156
20
-90.0692
11
123.154
21
-90.077
0
LINE
8
BLACK
6
CONTINUOUS
10
123.154
20
-90.077
11
123.152
21
-90.0793
0
LINE
8
BLACK
6
CONTINUOUS
10
123.152
20
-90.0793
11
123.151
21
-90.0821
0
LINE
8
BLACK
6
CONTINUOUS
10
123.151
20
-90.0821
11
123.145
21
-90.088
0
LINE
8
BLACK
6
CONTINUOUS
10
123.145
20
-90.088
11
123.14
21
-90.0944
0
LINE
8
BLACK
6
CONTINUOUS
10
123.14
20
-90.0944
11
123.138
21
-90.096
0
LINE
8
BLACK
6
CONTINUOUS
10
123.138
20
-90.096
11
123.136
21
-90.0982
0
LINE
8
BLACK
6
CONTINUOUS
10
123.136
20
-90.0982
11
123.128
21
-90.1017
0
LINE
8
BLACK
6
CONTINUOUS
10
123.128
20
-90.1017
11
123.122
21
-90.106
0
LINE
8
BLACK
6
CONTINUOUS
10
123.122
20
-90.106
11
123.119
21
-90.1065
0
LINE
8
BLACK
6
CONTINUOUS
10
123.119
20
-90.1065
11
123.116
21
-90.1078
0
LINE
8
BLACK
6
CONTINUOUS
10
123.116
20
-90.1078
11
123.108
21
-90.1085
0
LINE
8
BLACK
6
CONTINUOUS
10
123.108
20
-90.1085
11
123.1
21
-90.11
0
LINE
8
BLACK
6
CONTINUOUS
10
123.1
20
-90.11
11
116.5
21
-90.11
0
LINE
8
BLACK
6
CONTINUOUS
10
116.5
20
-90.11
11
116.496
21
-90.1096
0
LINE
8
BLACK
6
CONTINUOUS
10
116.496
20
-90.1096
11
116.494
21
-90.1097
0
LINE
8
BLACK
6
CONTINUOUS
10
116.494
20
-90.1097
11
116.493
21
-90.1093
0
LINE
8
BLACK
6
CONTINUOUS
10
116.493
20
-90.1093
11
116.488
21
-90.1089
0
LINE
8
BLACK
6
CONTINUOUS
10
116.488
20
-90.1089
11
116.481
21
-90.1059
0
LINE
8
BLACK
6
CONTINUOUS
10
116.481
20
-90.1059
11
116.473
21
-90.1036
0
LINE
8
BLACK
6
CONTINUOUS
10
116.473
20
-90.1036
11
116.471
21
-90.1018
0
LINE
8
BLACK
6
CONTINUOUS
10
116.471
20
-90.1018
11
116.468
21
-90.1007
0
LINE
8
BLACK
6
CONTINUOUS
10
116.468
20
-90.1007
11
116.462
21
-90.0952
0
LINE
8
BLACK
6
CONTINUOUS
10
116.462
20
-90.0952
11
116.456
21
-90.0903
0
LINE
8
BLACK
6
CONTINUOUS
10
116.456
20
-90.0903
11
116.454
21
-90.0878
0
LINE
8
BLACK
6
CONTINUOUS
10
116.454
20
-90.0878
11
116.452
21
-90.0858
0
LINE
8
BLACK
6
CONTINUOUS
10
116.452
20
-90.0858
11
116.448
21
-90.0785
0
LINE
8
BLACK
6
CONTINUOUS
10
116.448
20
-90.0785
11
116.444
21
-90.0716
0
LINE
8
BLACK
6
CONTINUOUS
10
116.444
20
-90.0716
11
116.443
21
-90.0687
0
LINE
8
BLACK
6
CONTINUOUS
10
116.443
20
-90.0687
11
116.442
21
-90.066
0
LINE
8
BLACK
6
CONTINUOUS
10
116.442
20
-90.066
11
116.441
21
-90.058
0
LINE
8
BLACK
6
CONTINUOUS
10
116.441
20
-90.058
11
116.44
21
-90.05
0
LINE
8
BLACK
6
CONTINUOUS
10
116.44
20
-90.05
11
116.44
21
-85.55
0
LINE
8
BLACK
6
CONTINUOUS
10
116.44
20
-85.55
11
116.44
21
-85.5457
0
LINE
8
BLACK
6
CONTINUOUS
10
116.44
20
-85.5457
11
116.44
21
-85.5441
0
LINE
8
BLACK
6
CONTINUOUS
10
116.44
20
-85.5441
11
116.441
21
-85.5426
0
LINE
8
BLACK
6
CONTINUOUS
10
116.441
20
-85.5426
11
116.441
21
-85.5383
0
LINE
8
BLACK
6
CONTINUOUS
10
116.441
20
-85.5383
11
116.444
21
-85.5308
0
LINE
8
BLACK
6
CONTINUOUS
10
116.444
20
-85.5308
11
116.446
21
-85.523
0
LINE
8
BLACK
6
CONTINUOUS
10
116.446
20
-85.523
11
116.448
21
-85.5207
0
LINE
8
BLACK
6
CONTINUOUS
10
116.448
20
-85.5207
11
116.449
21
-85.5179
0
LINE
8
BLACK
6
CONTINUOUS
10
116.449
20
-85.5179
11
116.455
21
-85.512
0
LINE
8
BLACK
6
CONTINUOUS
10
116.455
20
-85.512
11
116.46
21
-85.5056
0
LINE
8
BLACK
6
CONTINUOUS
10
116.46
20
-85.5056
11
116.462
21
-85.504
0
LINE
8
BLACK
6
CONTINUOUS
10
116.462
20
-85.504
11
116.464
21
-85.5018
0
LINE
8
BLACK
6
CONTINUOUS
10
116.464
20
-85.5018
11
116.472
21
-85.4983
0
LINE
8
BLACK
6
CONTINUOUS
10
116.472
20
-85.4983
11
116.478
21
-85.494
0
LINE
8
BLACK
6
CONTINUOUS
10
116.478
20
-85.494
11
116.481
21
-85.4935
0
LINE
8
BLACK
6
CONTINUOUS
10
116.481
20
-85.4935
11
116.484
21
-85.4922
0
LINE
8
BLACK
6
CONTINUOUS
10
116.484
20
-85.4922
11
116.492
21
-85.4915
0
LINE
8
BLACK
6
CONTINUOUS
10
116.492
20
-85.4915
11
116.5
21
-85.49
0
LINE
8
BLACK
6
CONTINUOUS
10
116.5
20
-85.49
11
123.1
21
-85.49
0
LINE
8
BLACK
6
CONTINUOUS
10
123.1
20
-85.49
11
123.104
21
-85.4904
0
LINE
8
BLACK
6
CONTINUOUS
10
116.56
20
-85.61
11
116.56
21
-89.99
0
LINE
8
BLACK
6
CONTINUOUS
10
116.56
20
-89.99
11
123.04
21
-89.99
0
LINE
8
BLACK
6
CONTINUOUS
10
123.04
20
-89.99
11
123.04
21
-85.61
0
LINE
8
BLACK
6
CONTINUOUS
10
123.04
20
-85.61
11
116.56
21
-85.61
0
LINE
8
BLACK
6
CONTINUOUS
10
135.264
20
-85.4904
11
135.266
21
-85.4903
0
LINE
8
BLACK
6
CONTINUOUS
10
135.266
20
-85.4903
11
135.267
21
-85.4907
0
LINE
8
BLACK
6
CONTINUOUS
10
135.267
20
-85.4907
11
135.272
21
-85.4911
0
LINE
8
BLACK
6
CONTINUOUS
10
135.272
20
-85.4911
11
135.279
21
-85.4941
0
LINE
8
BLACK
6
CONTINUOUS
10
135.279
20
-85.4941
11
135.287
21
-85.4964
0
LINE
8
BLACK
6
CONTINUOUS
10
135.287
20
-85.4964
11
135.289
21
-85.4982
0
LINE
8
BLACK
6
CONTINUOUS
10
135.289
20
-85.4982
11
135.292
21
-85.4993
0
LINE
8
BLACK
6
CONTINUOUS
10
135.292
20
-85.4993
11
135.298
21
-85.5048
0
LINE
8
BLACK
6
CONTINUOUS
10
135.298
20
-85.5048
11
135.304
21
-85.5097
0
LINE
8
BLACK
6
CONTINUOUS
10
135.304
20
-85.5097
11
135.306
21
-85.5122
0
LINE
8
BLACK
6
CONTINUOUS
10
135.306
20
-85.5122
11
135.308
21
-85.5142
0
LINE
8
BLACK
6
CONTINUOUS
10
135.308
20
-85.5142
11
135.312
21
-85.5215
0
LINE
8
BLACK
6
CONTINUOUS
10
135.312
20
-85.5215
11
135.316
21
-85.5284
0
LINE
8
BLACK
6
CONTINUOUS
10
135.316
20
-85.5284
11
135.317
21
-85.5313
0
LINE
8
BLACK
6
CONTINUOUS
10
135.317
20
-85.5313
11
135.318
21
-85.534
0
LINE
8
BLACK
6
CONTINUOUS
10
135.318
20
-85.534
11
135.319
21
-85.542
0
LINE
8
BLACK
6
CONTINUOUS
10
135.319
20
-85.542
11
135.32
21
-85.55
0
LINE
8
BLACK
6
CONTINUOUS
10
135.32
20
-85.55
11
135.32
21
-90.05
0
LINE
8
BLACK
6
CONTINUOUS
10
135.32
20
-90.05
11
135.32
21
-90.0543
0
LINE
8
BLACK
6
CONTINUOUS
10
135.32
20
-90.0543
11
135.32
21
-90.0559
0
LINE
8
BLACK
6
CONTINUOUS
10
135.32
20
-90.0559
11
135.319
21
-90.0574
0
LINE
8
BLACK
6
CONTINUOUS
10
135.319
20
-90.0574
11
135.319
21
-90.0617
0
LINE
8
BLACK
6
CONTINUOUS
10
135.319
20
-90.0617
11
135.316
21
-90.0692
0
LINE
8
BLACK
6
CONTINUOUS
10
135.316
20
-90.0692
11
135.314
21
-90.077
0
LINE
8
BLACK
6
CONTINUOUS
10
135.314
20
-90.077
11
135.312
21
-90.0793
0
LINE
8
BLACK
6
CONTINUOUS
10
135.312
20
-90.0793
11
135.311
21
-90.0821
0
LINE
8
BLACK
6
CONTINUOUS
10
135.311
20
-90.0821
11
135.305
21
-90.088
0
LINE
8
BLACK
6
CONTINUOUS
10
135.305
20
-90.088
11
135.3
21
-90.0944
0
LINE
8
BLACK
6
CONTINUOUS
10
135.3
20
-90.0944
11
135.298
21
-90.096
0
LINE
8
BLACK
6
CONTINUOUS
10
135.298
20
-90.096
11
135.296
21
-90.0982
0
LINE
8
BLACK
6
CONTINUOUS
10
135.296
20
-90.0982
11
135.288
21
-90.1017
0
LINE
8
BLACK
6
CONTINUOUS
10
135.288
20
-90.1017
11
135.282
21
-90.106
0
LINE
8
BLACK
6
CONTINUOUS
10
135.282
20
-90.106
11
135.279
21
-90.1065
0
LINE
8
BLACK
6
CONTINUOUS
10
135.279
20
-90.1065
11
135.276
21
-90.1078
0
LINE
8
BLACK
6
CONTINUOUS
10
135.276
20
-90.1078
11
135.268
21
-90.1085
0
LINE
8
BLACK
6
CONTINUOUS
10
135.268
20
-90.1085
11
135.26
21
-90.11
0
LINE
8
BLACK
6
CONTINUOUS
10
135.26
20
-90.11
11
128.66
21
-90.11
0
LINE
8
BLACK
6
CONTINUOUS
10
128.66
20
-90.11
11
128.656
21
-90.1096
0
LINE
8
BLACK
6
CONTINUOUS
10
128.656
20
-90.1096
11
128.654
21
-90.1097
0
LINE
8
BLACK
6
CONTINUOUS
10
128.654
20
-90.1097
11
128.653
21
-90.1093
0
LINE
8
BLACK
6
CONTINUOUS
10
128.653
20
-90.1093
11
128.648
21
-90.1089
0
LINE
8
BLACK
6
CONTINUOUS
10
128.648
20
-90.1089
11
128.641
21
-90.1059
0
LINE
8
BLACK
6
CONTINUOUS
10
128.641
20
-90.1059
11
128.633
21
-90.1036
0
LINE
8
BLACK
6
CONTINUOUS
10
128.633
20
-90.1036
11
128.631
21
-90.1018
0
LINE
8
BLACK
6
CONTINUOUS
10
128.631
20
-90.1018
11
128.628
21
-90.1007
0
LINE
8
BLACK
6
CONTINUOUS
10
128.628
20
-90.1007
11
128.622
21
-90.0952
0
LINE
8
BLACK
6
CONTINUOUS
10
128.622
20
-90.0952
11
128.616
21
-90.0903
0
LINE
8
BLACK
6
CONTINUOUS
10
128.616
20
-90.0903
11
128.614
21
-90.0878
0
LINE
8
BLACK
6
CONTINUOUS
10
128.614
20
-90.0878
11
128.612
21
-90.0858
0
LINE
8
BLACK
6
CONTINUOUS
10
128.612
20
-90.0858
11
128.608
21
-90.0785
0
LINE
8
BLACK
6
CONTINUOUS
10
128.608
20
-90.0785
11
128.604
21
-90.0716
0
LINE
8
BLACK
6
CONTINUOUS
10
128.604
20
-90.0716
11
128.603
21
-90.0687
0
LINE
8
BLACK
6
CONTINUOUS
10
128.603
20
-90.0687
11
128.602
21
-90.066
0
LINE
8
BLACK
6
CONTINUOUS
10
128.602
20
-90.066
11
128.601
21
-90.058
0
LINE
8
BLACK
6
CONTINUOUS
10
128.601
20
-90.058
11
128.6
21
-90.05
0
LINE
8
BLACK
6
CONTINUOUS
10
128.6
20
-90.05
11
128.6
21
-85.55
0
LINE
8
BLACK
6
CONTINUOUS
10
128.6
20
-85.55
11
128.6
21
-85.5457
0
LINE
8
BLACK
6
CONTINUOUS
10
128.6
20
-85.5457
11
128.6
21
-85.5441
0
LINE
8
BLACK
6
CONTINUOUS
10
128.6
20
-85.5441
11
128.601
21
-85.5426
0
LINE
8
BLACK
6
CONTINUOUS
10
128.601
20
-85.5426
11
128.601
21
-85.5383
0
LINE
8
BLACK
6
CONTINUOUS
10
128.601
20
-85.5383
11
128.604
21
-85.5308
0
LINE
8
BLACK
6
CONTINUOUS
10
128.604
20
-85.5308
11
128.606
21
-85.523
0
LINE
8
BLACK
6
CONTINUOUS
10
128.606
20
-85.523
11
128.608
21
-85.5207
0
LINE
8
BLACK
6
CONTINUOUS
10
128.608
20
-85.5207
11
128.609
21
-85.5179
0
LINE
8
BLACK
6
CONTINUOUS
10
128.609
20
-85.5179
11
128.615
21
-85.512
0
LINE
8
BLACK
6
CONTINUOUS
10
128.615
20
-85.512
11
128.62
21
-85.5056
0
LINE
8
BLACK
6
CONTINUOUS
10
128.62
20
-85.5056
11
128.622
21
-85.504
0
LINE
8
BLACK
6
CONTINUOUS
10
128.622
20
-85.504
11
128.624
21
-85.5018
0
LINE
8
BLACK
6
CONTINUOUS
10
128.624
20
-85.5018
11
128.632
21
-85.4983
0
LINE
8
BLACK
6
CONTINUOUS
10
128.632
20
-85.4983
11
128.638
21
-85.494
0
LINE
8
BLACK
6
CONTINUOUS
10
128.638
20
-85.494
11
128.641
21
-85.4935
0
LINE
8
BLACK
6
CONTINUOUS
10
128.641
20
-85.4935
11
128.644
21
-85.4922
0
LINE
8
BLACK
6
CONTINUOUS
10
128.644
20
-85.4922
11
128.652
21
-85.4915
0
LINE
8
BLACK
6
CONTINUOUS
10
128.652
20
-85.4915
11
128.66
21
-85.49
0
LINE
8
BLACK
6
CONTINUOUS
10
128.66
20
-85.49
11
135.26
21
-85.49
0
LINE
8
BLACK
6
CONTINUOUS
10
135.26
20
-85.49
11
135.264
21
-85.4904
0
LINE
8
BLACK
6
CONTINUOUS
10
128.72
20
-85.61
11
128.72
21
-89.99
0
LINE
8
BLACK
6
CONTINUOUS
10
128.72
20
-89.99
11
135.2
21
-89.99
0
LINE
8
BLACK
6
CONTINUOUS
10
135.2
20
-89.99
11
135.2
21
-85.61
0
LINE
8
BLACK
6
CONTINUOUS
10
135.2
20
-85.61
11
128.72
21
-85.61
0
LINE
8
BLACK
6
CONTINUOUS
10
105.154
20
-83.0404
11
105.156
21
-83.0403
0
LINE
8
BLACK
6
CONTINUOUS
10
105.156
20
-83.0403
11
105.157
21
-83.0407
0
LINE
8
BLACK
6
CONTINUOUS
10
105.157
20
-83.0407
11
105.162
21
-83.0411
0
LINE
8
BLACK
6
CONTINUOUS
10
105.162
20
-83.0411
11
105.169
21
-83.0441
0
LINE
8
BLACK
6
CONTINUOUS
10
105.169
20
-83.0441
11
105.177
21
-83.0464
0
LINE
8
BLACK
6
CONTINUOUS
10
105.177
20
-83.0464
11
105.179
21
-83.0482
0
LINE
8
BLACK
6
CONTINUOUS
10
105.179
20
-83.0482
11
105.182
21
-83.0493
0
LINE
8
BLACK
6
CONTINUOUS
10
105.182
20
-83.0493
11
105.188
21
-83.0548
0
LINE
8
BLACK
6
CONTINUOUS
10
105.188
20
-83.0548
11
105.194
21
-83.0597
0
LINE
8
BLACK
6
CONTINUOUS
10
105.194
20
-83.0597
11
105.196
21
-83.0622
0
LINE
8
BLACK
6
CONTINUOUS
10
105.196
20
-83.0622
11
105.198
21
-83.0642
0
LINE
8
BLACK
6
CONTINUOUS
10
105.198
20
-83.0642
11
105.202
21
-83.0715
0
LINE
8
BLACK
6
CONTINUOUS
10
105.202
20
-83.0715
11
105.206
21
-83.0784
0
LINE
8
BLACK
6
CONTINUOUS
10
105.206
20
-83.0784
11
105.207
21
-83.0813
0
LINE
8
BLACK
6
CONTINUOUS
10
105.207
20
-83.0813
11
105.208
21
-83.084
0
LINE
8
BLACK
6
CONTINUOUS
10
105.208
20
-83.084
11
105.209
21
-83.092
0
LINE
8
BLACK
6
CONTINUOUS
10
105.209
20
-83.092
11
105.21
21
-83.1
0
LINE
8
BLACK
6
CONTINUOUS
10
105.21
20
-83.1
11
105.21
21
-89.7
0
LINE
8
BLACK
6
CONTINUOUS
10
105.21
20
-89.7
11
105.21
21
-89.7043
0
LINE
8
BLACK
6
CONTINUOUS
10
105.21
20
-89.7043
11
105.21
21
-89.7059
0
LINE
8
BLACK
6
CONTINUOUS
10
105.21
20
-89.7059
11
105.209
21
-89.7074
0
LINE
8
BLACK
6
CONTINUOUS
10
105.209
20
-89.7074
11
105.209
21
-89.7117
0
LINE
8
BLACK
6
CONTINUOUS
10
105.209
20
-89.7117
11
105.206
21
-89.7192
0
LINE
8
BLACK
6
CONTINUOUS
10
105.206
20
-89.7192
11
105.204
21
-89.727
0
LINE
8
BLACK
6
CONTINUOUS
10
105.204
20
-89.727
11
105.202
21
-89.7293
0
LINE
8
BLACK
6
CONTINUOUS
10
105.202
20
-89.7293
11
105.201
21
-89.7321
0
LINE
8
BLACK
6
CONTINUOUS
10
105.201
20
-89.7321
11
105.195
21
-89.738
0
LINE
8
BLACK
6
CONTINUOUS
10
105.195
20
-89.738
11
105.19
21
-89.7444
0
LINE
8
BLACK
6
CONTINUOUS
10
105.19
20
-89.7444
11
105.188
21
-89.746
0
LINE
8
BLACK
6
CONTINUOUS
10
105.188
20
-89.746
11
105.186
21
-89.7482
0
LINE
8
BLACK
6
CONTINUOUS
10
105.186
20
-89.7482
11
105.178
21
-89.7517
0
LINE
8
BLACK
6
CONTINUOUS
10
105.178
20
-89.7517
11
105.172
21
-89.756
0
LINE
8
BLACK
6
CONTINUOUS
10
105.172
20
-89.756
11
105.169
21
-89.7565
0
LINE
8
BLACK
6
CONTINUOUS
10
105.169
20
-89.7565
11
105.166
21
-89.7578
0
LINE
8
BLACK
6
CONTINUOUS
10
105.166
20
-89.7578
11
105.158
21
-89.7585
0
LINE
8
BLACK
6
CONTINUOUS
10
105.158
20
-89.7585
11
105.15
21
-89.76
0
LINE
8
BLACK
6
CONTINUOUS
10
105.15
20
-89.76
11
100.65
21
-89.76
0
LINE
8
BLACK
6
CONTINUOUS
10
100.65
20
-89.76
11
100.646
21
-89.7596
0
LINE
8
BLACK
6
CONTINUOUS
10
100.646
20
-89.7596
11
100.644
21
-89.7597
0
LINE
8
BLACK
6
CONTINUOUS
10
100.644
20
-89.7597
11
100.643
21
-89.7593
0
LINE
8
BLACK
6
CONTINUOUS
10
100.643
20
-89.7593
11
100.638
21
-89.7589
0
LINE
8
BLACK
6
CONTINUOUS
10
100.638
20
-89.7589
11
100.631
21
-89.7559
0
LINE
8
BLACK
6
CONTINUOUS
10
100.631
20
-89.7559
11
100.623
21
-89.7536
0
LINE
8
BLACK
6
CONTINUOUS
10
100.623
20
-89.7536
11
100.621
21
-89.7518
0
LINE
8
BLACK
6
CONTINUOUS
10
100.621
20
-89.7518
11
100.618
21
-89.7507
0
LINE
8
BLACK
6
CONTINUOUS
10
100.618
20
-89.7507
11
100.612
21
-89.7452
0
LINE
8
BLACK
6
CONTINUOUS
10
100.612
20
-89.7452
11
100.606
21
-89.7403
0
LINE
8
BLACK
6
CONTINUOUS
10
100.606
20
-89.7403
11
100.604
21
-89.7378
0
LINE
8
BLACK
6
CONTINUOUS
10
100.604
20
-89.7378
11
100.602
21
-89.7358
0
LINE
8
BLACK
6
CONTINUOUS
10
100.602
20
-89.7358
11
100.598
21
-89.7285
0
LINE
8
BLACK
6
CONTINUOUS
10
100.598
20
-89.7285
11
100.594
21
-89.7216
0
LINE
8
BLACK
6
CONTINUOUS
10
100.594
20
-89.7216
11
100.593
21
-89.7187
0
LINE
8
BLACK
6
CONTINUOUS
10
100.593
20
-89.7187
11
100.592
21
-89.716
0
LINE
8
BLACK
6
CONTINUOUS
10
100.592
20
-89.716
11
100.591
21
-89.708
0
LINE
8
BLACK
6
CONTINUOUS
10
100.591
20
-89.708
11
100.59
21
-89.7
0
LINE
8
BLACK
6
CONTINUOUS
10
100.59
20
-89.7
11
100.59
21
-83.1
0
LINE
8
BLACK
6
CONTINUOUS
10
100.59
20
-83.1
11
100.59
21
-83.0957
0
LINE
8
BLACK
6
CONTINUOUS
10
100.59
20
-83.0957
11
100.59
21
-83.0941
0
LINE
8
BLACK
6
CONTINUOUS
10
100.59
20
-83.0941
11
100.591
21
-83.0926
0
LINE
8
BLACK
6
CONTINUOUS
10
100.591
20
-83.0926
11
100.591
21
-83.0883
0
LINE
8
BLACK
6
CONTINUOUS
10
100.591
20
-83.0883
11
100.594
21
-83.0808
0
LINE
8
BLACK
6
CONTINUOUS
10
100.594
20
-83.0808
11
100.596
21
-83.073
0
LINE
8
BLACK
6
CONTINUOUS
10
100.596
20
-83.073
11
100.598
21
-83.0707
0
LINE
8
BLACK
6
CONTINUOUS
10
100.598
20
-83.0707
11
100.599
21
-83.0679
0
LINE
8
BLACK
6
CONTINUOUS
10
100.599
20
-83.0679
11
100.605
21
-83.062
0
LINE
8
BLACK
6
CONTINUOUS
10
100.605
20
-83.062
11
100.61
21
-83.0556
0
LINE
8
BLACK
6
CONTINUOUS
10
100.61
20
-83.0556
11
100.612
21
-83.054
0
LINE
8
BLACK
6
CONTINUOUS
10
100.612
20
-83.054
11
100.614
21
-83.0518
0
LINE
8
BLACK
6
CONTINUOUS
10
100.614
20
-83.0518
11
100.622
21
-83.0483
0
LINE
8
BLACK
6
CONTINUOUS
10
100.622
20
-83.0483
11
100.628
21
-83.044
0
LINE
8
BLACK
6
CONTINUOUS
10
100.628
20
-83.044
11
100.631
21
-83.0435
0
LINE
8
BLACK
6
CONTINUOUS
10
100.631
20
-83.0435
11
100.634
21
-83.0422
0
LINE
8
BLACK
6
CONTINUOUS
10
100.634
20
-83.0422
11
100.642
21
-83.0415
0
LINE
8
BLACK
6
CONTINUOUS
10
100.642
20
-83.0415
11
100.65
21
-83.04
0
LINE
8
BLACK
6
CONTINUOUS
10
100.65
20
-83.04
11
105.15
21
-83.04
0
LINE
8
BLACK
6
CONTINUOUS
10
105.15
20
-83.04
11
105.154
21
-83.0404
0
LINE
8
BLACK
6
CONTINUOUS
10
100.71
20
-83.16
11
100.71
21
-89.64
0
LINE
8
BLACK
6
CONTINUOUS
10
100.71
20
-89.64
11
105.09
21
-89.64
0
LINE
8
BLACK
6
CONTINUOUS
10
105.09
20
-89.64
11
105.09
21
-83.16
0
LINE
8
BLACK
6
CONTINUOUS
10
105.09
20
-83.16
11
100.71
21
-83.16
0
LINE
8
BLACK
6
CONTINUOUS
10
99.1043
20
-77.2904
11
99.1059
21
-77.2903
0
LINE
8
BLACK
6
CONTINUOUS
10
99.1059
20
-77.2903
11
99.1074
21
-77.2907
0
LINE
8
BLACK
6
CONTINUOUS
10
99.1074
20
-77.2907
11
99.1117
21
-77.2911
0
LINE
8
BLACK
6
CONTINUOUS
10
99.1117
20
-77.2911
11
99.1192
21
-77.2941
0
LINE
8
BLACK
6
CONTINUOUS
10
99.1192
20
-77.2941
11
99.127
21
-77.2964
0
LINE
8
BLACK
6
CONTINUOUS
10
99.127
20
-77.2964
11
99.1293
21
-77.2982
0
LINE
8
BLACK
6
CONTINUOUS
10
99.1293
20
-77.2982
11
99.1321
21
-77.2993
0
LINE
8
BLACK
6
CONTINUOUS
10
99.1321
20
-77.2993
11
99.138
21
-77.3048
0
LINE
8
BLACK
6
CONTINUOUS
10
99.138
20
-77.3048
11
99.1444
21
-77.3097
0
LINE
8
BLACK
6
CONTINUOUS
10
99.1444
20
-77.3097
11
99.146
21
-77.3122
0
LINE
8
BLACK
6
CONTINUOUS
10
99.146
20
-77.3122
11
99.1482
21
-77.3142
0
LINE
8
BLACK
6
CONTINUOUS
10
99.1482
20
-77.3142
11
99.1517
21
-77.3215
0
LINE
8
BLACK
6
CONTINUOUS
10
99.1517
20
-77.3215
11
99.156
21
-77.3284
0
LINE
8
BLACK
6
CONTINUOUS
10
99.156
20
-77.3284
11
99.1565
21
-77.3313
0
LINE
8
BLACK
6
CONTINUOUS
10
99.1565
20
-77.3313
11
99.1578
21
-77.334
0
LINE
8
BLACK
6
CONTINUOUS
10
99.1578
20
-77.334
11
99.1585
21
-77.342
0
LINE
8
BLACK
6
CONTINUOUS
10
99.1585
20
-77.342
11
99.16
21
-77.35
0
LINE
8
BLACK
6
CONTINUOUS
10
99.16
20
-77.35
11
99.16
21
-81.85
0
LINE
8
BLACK
6
CONTINUOUS
10
99.16
20
-81.85
11
99.1596
21
-81.8543
0
LINE
8
BLACK
6
CONTINUOUS
10
99.1596
20
-81.8543
11
99.1597
21
-81.8559
0
LINE
8
BLACK
6
CONTINUOUS
10
99.1597
20
-81.8559
11
99.1593
21
-81.8574
0
LINE
8
BLACK
6
CONTINUOUS
10
99.1593
20
-81.8574
11
99.1589
21
-81.8617
0
LINE
8
BLACK
6
CONTINUOUS
10
99.1589
20
-81.8617
11
99.1559
21
-81.8692
0
LINE
8
BLACK
6
CONTINUOUS
10
99.1559
20
-81.8692
11
99.1536
21
-81.877
0
LINE
8
BLACK
6
CONTINUOUS
10
99.1536
20
-81.877
11
99.1518
21
-81.8793
0
LINE
8
BLACK
6
CONTINUOUS
10
99.1518
20
-81.8793
11
99.1507
21
-81.8821
0
LINE
8
BLACK
6
CONTINUOUS
10
99.1507
20
-81.8821
11
99.1452
21
-81.888
0
LINE
8
BLACK
6
CONTINUOUS
10
99.1452
20
-81.888
11
99.1403
21
-81.8944
0
LINE
8
BLACK
6
CONTINUOUS
10
99.1403
20
-81.8944
11
99.1378
21
-81.896
0
LINE
8
BLACK
6
CONTINUOUS
10
99.1378
20
-81.896
11
99.1358
21
-81.8982
0
LINE
8
BLACK
6
CONTINUOUS
10
99.1358
20
-81.8982
11
99.1285
21
-81.9017
0
LINE
8
BLACK
6
CONTINUOUS
10
99.1285
20
-81.9017
11
99.1216
21
-81.906
0
LINE
8
BLACK
6
CONTINUOUS
10
99.1216
20
-81.906
11
99.1187
21
-81.9065
0
LINE
8
BLACK
6
CONTINUOUS
10
99.1187
20
-81.9065
11
99.116
21
-81.9078
0
LINE
8
BLACK
6
CONTINUOUS
10
99.116
20
-81.9078
11
99.108
21
-81.9085
0
LINE
8
BLACK
6
CONTINUOUS
10
99.108
20
-81.9085
11
99.1
21
-81.91
0
LINE
8
BLACK
6
CONTINUOUS
10
99.1
20
-81.91
11
92.5
21
-81.91
0
LINE
8
BLACK
6
CONTINUOUS
10
92.5
20
-81.91
11
92.4957
21
-81.9096
0
LINE
8
BLACK
6
CONTINUOUS
10
92.4957
20
-81.9096
11
92.4941
21
-81.9097
0
LINE
8
BLACK
6
CONTINUOUS
10
92.4941
20
-81.9097
11
92.4926
21
-81.9093
0
LINE
8
BLACK
6
CONTINUOUS
10
92.4926
20
-81.9093
11
92.4883
21
-81.9089
0
LINE
8
BLACK
6
CONTINUOUS
10
92.4883
20
-81.9089
11
92.4808
21
-81.9059
0
LINE
8
BLACK
6
CONTINUOUS
10
92.4808
20
-81.9059
11
92.473
21
-81.9036
0
LINE
8
BLACK
6
CONTINUOUS
10
92.473
20
-81.9036
11
92.4707
21
-81.9018
0
LINE
8
BLACK
6
CONTINUOUS
10
92.4707
20
-81.9018
11
92.4679
21
-81.9007
0
LINE
8
BLACK
6
CONTINUOUS
10
92.4679
20
-81.9007
11
92.462
21
-81.8952
0
LINE
8
BLACK
6
CONTINUOUS
10
92.462
20
-81.8952
11
92.4556
21
-81.8903
0
LINE
8
BLACK
6
CONTINUOUS
10
92.4556
20
-81.8903
11
92.454
21
-81.8878
0
LINE
8
BLACK
6
CONTINUOUS
10
92.454
20
-81.8878
11
92.4518
21
-81.8858
0
LINE
8
BLACK
6
CONTINUOUS
10
92.4518
20
-81.8858
11
92.4483
21
-81.8785
0
LINE
8
BLACK
6
CONTINUOUS
10
92.4483
20
-81.8785
11
92.444
21
-81.8716
0
LINE
8
BLACK
6
CONTINUOUS
10
92.444
20
-81.8716
11
92.4435
21
-81.8687
0
LINE
8
BLACK
6
CONTINUOUS
10
92.4435
20
-81.8687
11
92.4422
21
-81.866
0
LINE
8
BLACK
6
CONTINUOUS
10
92.4422
20
-81.866
11
92.4415
21
-81.858
0
LINE
8
BLACK
6
CONTINUOUS
10
92.4415
20
-81.858
11
92.44
21
-81.85
0
LINE
8
BLACK
6
CONTINUOUS
10
92.44
20
-81.85
11
92.44
21
-77.35
0
LINE
8
BLACK
6
CONTINUOUS
10
92.44
20
-77.35
11
92.4404
21
-77.3457
0
LINE
8
BLACK
6
CONTINUOUS
10
92.4404
20
-77.3457
11
92.4403
21
-77.3441
0
LINE
8
BLACK
6
CONTINUOUS
10
92.4403
20
-77.3441
11
92.4407
21
-77.3426
0
LINE
8
BLACK
6
CONTINUOUS
10
92.4407
20
-77.3426
11
92.4411
21
-77.3383
0
LINE
8
BLACK
6
CONTINUOUS
10
92.4411
20
-77.3383
11
92.4441
21
-77.3308
0
LINE
8
BLACK
6
CONTINUOUS
10
92.4441
20
-77.3308
11
92.4464
21
-77.323
0
LINE
8
BLACK
6
CONTINUOUS
10
92.4464
20
-77.323
11
92.4482
21
-77.3207
0
LINE
8
BLACK
6
CONTINUOUS
10
92.4482
20
-77.3207
11
92.4493
21
-77.3179
0
LINE
8
BLACK
6
CONTINUOUS
10
92.4493
20
-77.3179
11
92.4548
21
-77.312
0
LINE
8
BLACK
6
CONTINUOUS
10
92.4548
20
-77.312
11
92.4597
21
-77.3056
0
LINE
8
BLACK
6
CONTINUOUS
10
92.4597
20
-77.3056
11
92.4622
21
-77.304
0
LINE
8
BLACK
6
CONTINUOUS
10
92.4622
20
-77.304
11
92.4642
21
-77.3018
0
LINE
8
BLACK
6
CONTINUOUS
10
92.4642
20
-77.3018
11
92.4715
21
-77.2983
0
LINE
8
BLACK
6
CONTINUOUS
10
92.4715
20
-77.2983
11
92.4784
21
-77.294
0
LINE
8
BLACK
6
CONTINUOUS
10
92.4784
20
-77.294
11
92.4813
21
-77.2935
0
LINE
8
BLACK
6
CONTINUOUS
10
92.4813
20
-77.2935
11
92.484
21
-77.2922
0
LINE
8
BLACK
6
CONTINUOUS
10
92.484
20
-77.2922
11
92.492
21
-77.2915
0
LINE
8
BLACK
6
CONTINUOUS
10
92.492
20
-77.2915
11
92.5
21
-77.29
0
LINE
8
BLACK
6
CONTINUOUS
10
92.5
20
-77.29
11
99.1
21
-77.29
0
LINE
8
BLACK
6
CONTINUOUS
10
99.1
20
-77.29
11
99.1043
21
-77.2904
0
LINE
8
BLACK
6
CONTINUOUS
10
92.56
20
-77.41
11
92.56
21
-81.79
0
LINE
8
BLACK
6
CONTINUOUS
10
92.56
20
-81.79
11
99.04
21
-81.79
0
LINE
8
BLACK
6
CONTINUOUS
10
99.04
20
-81.79
11
99.04
21
-77.41
0
LINE
8
BLACK
6
CONTINUOUS
10
99.04
20
-77.41
11
92.56
21
-77.41
0
LINE
8
BLACK
6
CONTINUOUS
10
156.304
20
-77.2904
11
156.306
21
-77.2903
0
LINE
8
BLACK
6
CONTINUOUS
10
156.306
20
-77.2903
11
156.307
21
-77.2907
0
LINE
8
BLACK
6
CONTINUOUS
10
156.307
20
-77.2907
11
156.312
21
-77.2911
0
LINE
8
BLACK
6
CONTINUOUS
10
156.312
20
-77.2911
11
156.319
21
-77.2941
0
LINE
8
BLACK
6
CONTINUOUS
10
156.319
20
-77.2941
11
156.327
21
-77.2964
0
LINE
8
BLACK
6
CONTINUOUS
10
156.327
20
-77.2964
11
156.329
21
-77.2982
0
LINE
8
BLACK
6
CONTINUOUS
10
156.329
20
-77.2982
11
156.332
21
-77.2993
0
LINE
8
BLACK
6
CONTINUOUS
10
156.332
20
-77.2993
11
156.338
21
-77.3048
0
LINE
8
BLACK
6
CONTINUOUS
10
156.338
20
-77.3048
11
156.344
21
-77.3097
0
LINE
8
BLACK
6
CONTINUOUS
10
156.344
20
-77.3097
11
156.346
21
-77.3122
0
LINE
8
BLACK
6
CONTINUOUS
10
156.346
20
-77.3122
11
156.348
21
-77.3142
0
LINE
8
BLACK
6
CONTINUOUS
10
156.348
20
-77.3142
11
156.352
21
-77.3215
0
LINE
8
BLACK
6
CONTINUOUS
10
156.352
20
-77.3215
11
156.356
21
-77.3284
0
LINE
8
BLACK
6
CONTINUOUS
10
156.356
20
-77.3284
11
156.357
21
-77.3313
0
LINE
8
BLACK
6
CONTINUOUS
10
156.357
20
-77.3313
11
156.358
21
-77.334
0
LINE
8
BLACK
6
CONTINUOUS
10
156.358
20
-77.334
11
156.359
21
-77.342
0
LINE
8
BLACK
6
CONTINUOUS
10
156.359
20
-77.342
11
156.36
21
-77.35
0
LINE
8
BLACK
6
CONTINUOUS
10
156.36
20
-77.35
11
156.36
21
-81.85
0
LINE
8
BLACK
6
CONTINUOUS
10
156.36
20
-81.85
11
156.36
21
-81.8543
0
LINE
8
BLACK
6
CONTINUOUS
10
156.36
20
-81.8543
11
156.36
21
-81.8559
0
LINE
8
BLACK
6
CONTINUOUS
10
156.36
20
-81.8559
11
156.359
21
-81.8574
0
LINE
8
BLACK
6
CONTINUOUS
10
156.359
20
-81.8574
11
156.359
21
-81.8617
0
LINE
8
BLACK
6
CONTINUOUS
10
156.359
20
-81.8617
11
156.356
21
-81.8692
0
LINE
8
BLACK
6
CONTINUOUS
10
156.356
20
-81.8692
11
156.354
21
-81.877
0
LINE
8
BLACK
6
CONTINUOUS
10
156.354
20
-81.877
11
156.352
21
-81.8793
0
LINE
8
BLACK
6
CONTINUOUS
10
156.352
20
-81.8793
11
156.351
21
-81.8821
0
LINE
8
BLACK
6
CONTINUOUS
10
156.351
20
-81.8821
11
156.345
21
-81.888
0
LINE
8
BLACK
6
CONTINUOUS
10
156.345
20
-81.888
11
156.34
21
-81.8944
0
LINE
8
BLACK
6
CONTINUOUS
10
156.34
20
-81.8944
11
156.338
21
-81.896
0
LINE
8
BLACK
6
CONTINUOUS
10
156.338
20
-81.896
11
156.336
21
-81.8982
0
LINE
8
BLACK
6
CONTINUOUS
10
156.336
20
-81.8982
11
156.328
21
-81.9017
0
LINE
8
BLACK
6
CONTINUOUS
10
156.328
20
-81.9017
11
156.322
21
-81.906
0
LINE
8
BLACK
6
CONTINUOUS
10
156.322
20
-81.906
11
156.319
21
-81.9065
0
LINE
8
BLACK
6
CONTINUOUS
10
156.319
20
-81.9065
11
156.316
21
-81.9078
0
LINE
8
BLACK
6
CONTINUOUS
10
156.316
20
-81.9078
11
156.308
21
-81.9085
0
LINE
8
BLACK
6
CONTINUOUS
10
156.308
20
-81.9085
11
156.3
21
-81.91
0
LINE
8
BLACK
6
CONTINUOUS
10
156.3
20
-81.91
11
149.7
21
-81.91
0
LINE
8
BLACK
6
CONTINUOUS
10
149.7
20
-81.91
11
149.696
21
-81.9096
0
LINE
8
BLACK
6
CONTINUOUS
10
149.696
20
-81.9096
11
149.694
21
-81.9097
0
LINE
8
BLACK
6
CONTINUOUS
10
149.694
20
-81.9097
11
149.693
21
-81.9093
0
LINE
8
BLACK
6
CONTINUOUS
10
149.693
20
-81.9093
11
149.688
21
-81.9089
0
LINE
8
BLACK
6
CONTINUOUS
10
149.688
20
-81.9089
11
149.681
21
-81.9059
0
LINE
8
BLACK
6
CONTINUOUS
10
149.681
20
-81.9059
11
149.673
21
-81.9036
0
LINE
8
BLACK
6
CONTINUOUS
10
149.673
20
-81.9036
11
149.671
21
-81.9018
0
LINE
8
BLACK
6
CONTINUOUS
10
149.671
20
-81.9018
11
149.668
21
-81.9007
0
LINE
8
BLACK
6
CONTINUOUS
10
149.668
20
-81.9007
11
149.662
21
-81.8952
0
LINE
8
BLACK
6
CONTINUOUS
10
149.662
20
-81.8952
11
149.656
21
-81.8903
0
LINE
8
BLACK
6
CONTINUOUS
10
149.656
20
-81.8903
11
149.654
21
-81.8878
0
LINE
8
BLACK
6
CONTINUOUS
10
149.654
20
-81.8878
11
149.652
21
-81.8858
0
LINE
8
BLACK
6
CONTINUOUS
10
149.652
20
-81.8858
11
149.648
21
-81.8785
0
LINE
8
BLACK
6
CONTINUOUS
10
149.648
20
-81.8785
11
149.644
21
-81.8716
0
LINE
8
BLACK
6
CONTINUOUS
10
149.644
20
-81.8716
11
149.643
21
-81.8687
0
LINE
8
BLACK
6
CONTINUOUS
10
149.643
20
-81.8687
11
149.642
21
-81.866
0
LINE
8
BLACK
6
CONTINUOUS
10
149.642
20
-81.866
11
149.641
21
-81.858
0
LINE
8
BLACK
6
CONTINUOUS
10
149.641
20
-81.858
11
149.64
21
-81.85
0
LINE
8
BLACK
6
CONTINUOUS
10
149.64
20
-81.85
11
149.64
21
-77.35
0
LINE
8
BLACK
6
CONTINUOUS
10
149.64
20
-77.35
11
149.64
21
-77.3457
0
LINE
8
BLACK
6
CONTINUOUS
10
149.64
20
-77.3457
11
149.64
21
-77.3441
0
LINE
8
BLACK
6
CONTINUOUS
10
149.64
20
-77.3441
11
149.641
21
-77.3426
0
LINE
8
BLACK
6
CONTINUOUS
10
149.641
20
-77.3426
11
149.641
21
-77.3383
0
LINE
8
BLACK
6
CONTINUOUS
10
149.641
20
-77.3383
11
149.644
21
-77.3308
0
LINE
8
BLACK
6
CONTINUOUS
10
149.644
20
-77.3308
11
149.646
21
-77.323
0
LINE
8
BLACK
6
CONTINUOUS
10
149.646
20
-77.323
11
149.648
21
-77.3207
0
LINE
8
BLACK
6
CONTINUOUS
10
149.648
20
-77.3207
11
149.649
21
-77.3179
0
LINE
8
BLACK
6
CONTINUOUS
10
149.649
20
-77.3179
11
149.655
21
-77.312
0
LINE
8
BLACK
6
CONTINUOUS
10
149.655
20
-77.312
11
149.66
21
-77.3056
0
LINE
8
BLACK
6
CONTINUOUS
10
149.66
20
-77.3056
11
149.662
21
-77.304
0
LINE
8
BLACK
6
CONTINUOUS
10
149.662
20
-77.304
11
149.664
21
-77.3018
0
LINE
8
BLACK
6
CONTINUOUS
10
149.664
20
-77.3018
11
149.672
21
-77.2983
0
LINE
8
BLACK
6
CONTINUOUS
10
149.672
20
-77.2983
11
149.678
21
-77.294
0
LINE
8
BLACK
6
CONTINUOUS
10
149.678
20
-77.294
11
149.681
21
-77.2935
0
LINE
8
BLACK
6
CONTINUOUS
10
149.681
20
-77.2935
11
149.684
21
-77.2922
0
LINE
8
BLACK
6
CONTINUOUS
10
149.684
20
-77.2922
11
149.692
21
-77.2915
0
LINE
8
BLACK
6
CONTINUOUS
10
149.692
20
-77.2915
11
149.7
21
-77.29
0
LINE
8
BLACK
6
CONTINUOUS
10
149.7
20
-77.29
11
156.3
21
-77.29
0
LINE
8
BLACK
6
CONTINUOUS
10
156.3
20
-77.29
11
156.304
21
-77.2904
0
LINE
8
BLACK
6
CONTINUOUS
10
149.76
20
-77.41
11
149.76
21
-81.79
0
LINE
8
BLACK
6
CONTINUOUS
10
149.76
20
-81.79
11
156.24
21
-81.79
0
LINE
8
BLACK
6
CONTINUOUS
10
156.24
20
-81.79
11
156.24
21
-77.41
0
LINE
8
BLACK
6
CONTINUOUS
10
156.24
20
-77.41
11
149.76
21
-77.41
0
LINE
8
BLACK
6
CONTINUOUS
10
145.254
20
-77.2904
11
145.256
21
-77.2903
0
LINE
8
BLACK
6
CONTINUOUS
10
145.256
20
-77.2903
11
145.257
21
-77.2907
0
LINE
8
BLACK
6
CONTINUOUS
10
145.257
20
-77.2907
11
145.262
21
-77.2911
0
LINE
8
BLACK
6
CONTINUOUS
10
145.262
20
-77.2911
11
145.269
21
-77.2941
0
LINE
8
BLACK
6
CONTINUOUS
10
145.269
20
-77.2941
11
145.277
21
-77.2964
0
LINE
8
BLACK
6
CONTINUOUS
10
145.277
20
-77.2964
11
145.279
21
-77.2982
0
LINE
8
BLACK
6
CONTINUOUS
10
145.279
20
-77.2982
11
145.282
21
-77.2993
0
LINE
8
BLACK
6
CONTINUOUS
10
145.282
20
-77.2993
11
145.288
21
-77.3048
0
LINE
8
BLACK
6
CONTINUOUS
10
145.288
20
-77.3048
11
145.294
21
-77.3097
0
LINE
8
BLACK
6
CONTINUOUS
10
145.294
20
-77.3097
11
145.296
21
-77.3122
0
LINE
8
BLACK
6
CONTINUOUS
10
145.296
20
-77.3122
11
145.298
21
-77.3142
0
LINE
8
BLACK
6
CONTINUOUS
10
145.298
20
-77.3142
11
145.302
21
-77.3215
0
LINE
8
BLACK
6
CONTINUOUS
10
145.302
20
-77.3215
11
145.306
21
-77.3284
0
LINE
8
BLACK
6
CONTINUOUS
10
145.306
20
-77.3284
11
145.307
21
-77.3313
0
LINE
8
BLACK
6
CONTINUOUS
10
145.307
20
-77.3313
11
145.308
21
-77.334
0
LINE
8
BLACK
6
CONTINUOUS
10
145.308
20
-77.334
11
145.309
21
-77.342
0
LINE
8
BLACK
6
CONTINUOUS
10
145.309
20
-77.342
11
145.31
21
-77.35
0
LINE
8
BLACK
6
CONTINUOUS
10
145.31
20
-77.35
11
145.31
21
-81.85
0
LINE
8
BLACK
6
CONTINUOUS
10
145.31
20
-81.85
11
145.31
21
-81.8543
0
LINE
8
BLACK
6
CONTINUOUS
10
145.31
20
-81.8543
11
145.31
21
-81.8559
0
LINE
8
BLACK
6
CONTINUOUS
10
145.31
20
-81.8559
11
145.309
21
-81.8574
0
LINE
8
BLACK
6
CONTINUOUS
10
145.309
20
-81.8574
11
145.309
21
-81.8617
0
LINE
8
BLACK
6
CONTINUOUS
10
145.309
20
-81.8617
11
145.306
21
-81.8692
0
LINE
8
BLACK
6
CONTINUOUS
10
145.306
20
-81.8692
11
145.304
21
-81.877
0
LINE
8
BLACK
6
CONTINUOUS
10
145.304
20
-81.877
11
145.302
21
-81.8793
0
LINE
8
BLACK
6
CONTINUOUS
10
145.302
20
-81.8793
11
145.301
21
-81.8821
0
LINE
8
BLACK
6
CONTINUOUS
10
145.301
20
-81.8821
11
145.295
21
-81.888
0
LINE
8
BLACK
6
CONTINUOUS
10
145.295
20
-81.888
11
145.29
21
-81.8944
0
LINE
8
BLACK
6
CONTINUOUS
10
145.29
20
-81.8944
11
145.288
21
-81.896
0
LINE
8
BLACK
6
CONTINUOUS
10
145.288
20
-81.896
11
145.286
21
-81.8982
0
LINE
8
BLACK
6
CONTINUOUS
10
145.286
20
-81.8982
11
145.278
21
-81.9017
0
LINE
8
BLACK
6
CONTINUOUS
10
145.278
20
-81.9017
11
145.272
21
-81.906
0
LINE
8
BLACK
6
CONTINUOUS
10
145.272
20
-81.906
11
145.269
21
-81.9065
0
LINE
8
BLACK
6
CONTINUOUS
10
145.269
20
-81.9065
11
145.266
21
-81.9078
0
LINE
8
BLACK
6
CONTINUOUS
10
145.266
20
-81.9078
11
145.258
21
-81.9085
0
LINE
8
BLACK
6
CONTINUOUS
10
145.258
20
-81.9085
11
145.25
21
-81.91
0
LINE
8
BLACK
6
CONTINUOUS
10
145.25
20
-81.91
11
138.65
21
-81.91
0
LINE
8
BLACK
6
CONTINUOUS
10
138.65
20
-81.91
11
138.646
21
-81.9096
0
LINE
8
BLACK
6
CONTINUOUS
10
138.646
20
-81.9096
11
138.644
21
-81.9097
0
LINE
8
BLACK
6
CONTINUOUS
10
138.644
20
-81.9097
11
138.643
21
-81.9093
0
LINE
8
BLACK
6
CONTINUOUS
10
138.643
20
-81.9093
11
138.638
21
-81.9089
0
LINE
8
BLACK
6
CONTINUOUS
10
138.638
20
-81.9089
11
138.631
21
-81.9059
0
LINE
8
BLACK
6
CONTINUOUS
10
138.631
20
-81.9059
11
138.623
21
-81.9036
0
LINE
8
BLACK
6
CONTINUOUS
10
138.623
20
-81.9036
11
138.621
21
-81.9018
0
LINE
8
BLACK
6
CONTINUOUS
10
138.621
20
-81.9018
11
138.618
21
-81.9007
0
LINE
8
BLACK
6
CONTINUOUS
10
138.618
20
-81.9007
11
138.612
21
-81.8952
0
LINE
8
BLACK
6
CONTINUOUS
10
138.612
20
-81.8952
11
138.606
21
-81.8903
0
LINE
8
BLACK
6
CONTINUOUS
10
138.606
20
-81.8903
11
138.604
21
-81.8878
0
LINE
8
BLACK
6
CONTINUOUS
10
138.604
20
-81.8878
11
138.602
21
-81.8858
0
LINE
8
BLACK
6
CONTINUOUS
10
138.602
20
-81.8858
11
138.598
21
-81.8785
0
LINE
8
BLACK
6
CONTINUOUS
10
138.598
20
-81.8785
11
138.594
21
-81.8716
0
LINE
8
BLACK
6
CONTINUOUS
10
138.594
20
-81.8716
11
138.593
21
-81.8687
0
LINE
8
BLACK
6
CONTINUOUS
10
138.593
20
-81.8687
11
138.592
21
-81.866
0
LINE
8
BLACK
6
CONTINUOUS
10
138.592
20
-81.866
11
138.591
21
-81.858
0
LINE
8
BLACK
6
CONTINUOUS
10
138.591
20
-81.858
11
138.59
21
-81.85
0
LINE
8
BLACK
6
CONTINUOUS
10
138.59
20
-81.85
11
138.59
21
-77.35
0
LINE
8
BLACK
6
CONTINUOUS
10
138.59
20
-77.35
11
138.59
21
-77.3457
0
LINE
8
BLACK
6
CONTINUOUS
10
138.59
20
-77.3457
11
138.59
21
-77.3441
0
LINE
8
BLACK
6
CONTINUOUS
10
138.59
20
-77.3441
11
138.591
21
-77.3426
0
LINE
8
BLACK
6
CONTINUOUS
10
138.591
20
-77.3426
11
138.591
21
-77.3383
0
LINE
8
BLACK
6
CONTINUOUS
10
138.591
20
-77.3383
11
138.594
21
-77.3308
0
LINE
8
BLACK
6
CONTINUOUS
10
138.594
20
-77.3308
11
138.596
21
-77.323
0
LINE
8
BLACK
6
CONTINUOUS
10
138.596
20
-77.323
11
138.598
21
-77.3207
0
LINE
8
BLACK
6
CONTINUOUS
10
138.598
20
-77.3207
11
138.599
21
-77.3179
0
LINE
8
BLACK
6
CONTINUOUS
10
138.599
20
-77.3179
11
138.605
21
-77.312
0
LINE
8
BLACK
6
CONTINUOUS
10
138.605
20
-77.312
11
138.61
21
-77.3056
0
LINE
8
BLACK
6
CONTINUOUS
10
138.61
20
-77.3056
11
138.612
21
-77.304
0
LINE
8
BLACK
6
CONTINUOUS
10
138.612
20
-77.304
11
138.614
21
-77.3018
0
LINE
8
BLACK
6
CONTINUOUS
10
138.614
20
-77.3018
11
138.622
21
-77.2983
0
LINE
8
BLACK
6
CONTINUOUS
10
138.622
20
-77.2983
11
138.628
21
-77.294
0
LINE
8
BLACK
6
CONTINUOUS
10
138.628
20
-77.294
11
138.631
21
-77.2935
0
LINE
8
BLACK
6
CONTINUOUS
10
138.631
20
-77.2935
11
138.634
21
-77.2922
0
LINE
8
BLACK
6
CONTINUOUS
10
138.634
20
-77.2922
11
138.642
21
-77.2915
0
LINE
8
BLACK
6
CONTINUOUS
10
138.642
20
-77.2915
11
138.65
21
-77.29
0
LINE
8
BLACK
6
CONTINUOUS
10
138.65
20
-77.29
11
145.25
21
-77.29
0
LINE
8
BLACK
6
CONTINUOUS
10
145.25
20
-77.29
11
145.254
21
-77.2904
0
LINE
8
BLACK
6
CONTINUOUS
10
138.71
20
-77.41
11
138.71
21
-81.79
0
LINE
8
BLACK
6
CONTINUOUS
10
138.71
20
-81.79
11
145.19
21
-81.79
0
LINE
8
BLACK
6
CONTINUOUS
10
145.19
20
-81.79
11
145.19
21
-77.41
0
LINE
8
BLACK
6
CONTINUOUS
10
145.19
20
-77.41
11
138.71
21
-77.41
0
LINE
8
BLACK
6
CONTINUOUS
10
112.504
20
-77.2904
11
112.506
21
-77.2903
0
LINE
8
BLACK
6
CONTINUOUS
10
112.506
20
-77.2903
11
112.507
21
-77.2907
0
LINE
8
BLACK
6
CONTINUOUS
10
112.507
20
-77.2907
11
112.512
21
-77.2911
0
LINE
8
BLACK
6
CONTINUOUS
10
112.512
20
-77.2911
11
112.519
21
-77.2941
0
LINE
8
BLACK
6
CONTINUOUS
10
112.519
20
-77.2941
11
112.527
21
-77.2964
0
LINE
8
BLACK
6
CONTINUOUS
10
112.527
20
-77.2964
11
112.529
21
-77.2982
0
LINE
8
BLACK
6
CONTINUOUS
10
112.529
20
-77.2982
11
112.532
21
-77.2993
0
LINE
8
BLACK
6
CONTINUOUS
10
112.532
20
-77.2993
11
112.538
21
-77.3048
0
LINE
8
BLACK
6
CONTINUOUS
10
112.538
20
-77.3048
11
112.544
21
-77.3097
0
LINE
8
BLACK
6
CONTINUOUS
10
112.544
20
-77.3097
11
112.546
21
-77.3122
0
LINE
8
BLACK
6
CONTINUOUS
10
112.546
20
-77.3122
11
112.548
21
-77.3142
0
LINE
8
BLACK
6
CONTINUOUS
10
112.548
20
-77.3142
11
112.552
21
-77.3215
0
LINE
8
BLACK
6
CONTINUOUS
10
112.552
20
-77.3215
11
112.556
21
-77.3284
0
LINE
8
BLACK
6
CONTINUOUS
10
112.556
20
-77.3284
11
112.557
21
-77.3313
0
LINE
8
BLACK
6
CONTINUOUS
10
112.557
20
-77.3313
11
112.558
21
-77.334
0
LINE
8
BLACK
6
CONTINUOUS
10
112.558
20
-77.334
11
112.559
21
-77.342
0
LINE
8
BLACK
6
CONTINUOUS
10
112.559
20
-77.342
11
112.56
21
-77.35
0
LINE
8
BLACK
6
CONTINUOUS
10
112.56
20
-77.35
11
112.56
21
-81.85
0
LINE
8
BLACK
6
CONTINUOUS
10
112.56
20
-81.85
11
112.56
21
-81.8543
0
LINE
8
BLACK
6
CONTINUOUS
10
112.56
20
-81.8543
11
112.56
21
-81.8559
0
LINE
8
BLACK
6
CONTINUOUS
10
112.56
20
-81.8559
11
112.559
21
-81.8574
0
LINE
8
BLACK
6
CONTINUOUS
10
112.559
20
-81.8574
11
112.559
21
-81.8617
0
LINE
8
BLACK
6
CONTINUOUS
10
112.559
20
-81.8617
11
112.556
21
-81.8692
0
LINE
8
BLACK
6
CONTINUOUS
10
112.556
20
-81.8692
11
112.554
21
-81.877
0
LINE
8
BLACK
6
CONTINUOUS
10
112.554
20
-81.877
11
112.552
21
-81.8793
0
LINE
8
BLACK
6
CONTINUOUS
10
112.552
20
-81.8793
11
112.551
21
-81.8821
0
LINE
8
BLACK
6
CONTINUOUS
10
112.551
20
-81.8821
11
112.545
21
-81.888
0
LINE
8
BLACK
6
CONTINUOUS
10
112.545
20
-81.888
11
112.54
21
-81.8944
0
LINE
8
BLACK
6
CONTINUOUS
10
112.54
20
-81.8944
11
112.538
21
-81.896
0
LINE
8
BLACK
6
CONTINUOUS
10
112.538
20
-81.896
11
112.536
21
-81.8982
0
LINE
8
BLACK
6
CONTINUOUS
10
112.536
20
-81.8982
11
112.528
21
-81.9017
0
LINE
8
BLACK
6
CONTINUOUS
10
112.528
20
-81.9017
11
112.522
21
-81.906
0
LINE
8
BLACK
6
CONTINUOUS
10
112.522
20
-81.906
11
112.519
21
-81.9065
0
LINE
8
BLACK
6
CONTINUOUS
10
112.519
20
-81.9065
11
112.516
21
-81.9078
0
LINE
8
BLACK
6
CONTINUOUS
10
112.516
20
-81.9078
11
112.508
21
-81.9085
0
LINE
8
BLACK
6
CONTINUOUS
10
112.508
20
-81.9085
11
112.5
21
-81.91
0
LINE
8
BLACK
6
CONTINUOUS
10
112.5
20
-81.91
11
105.9
21
-81.91
0
LINE
8
BLACK
6
CONTINUOUS
10
105.9
20
-81.91
11
105.896
21
-81.9096
0
LINE
8
BLACK
6
CONTINUOUS
10
105.896
20
-81.9096
11
105.894
21
-81.9097
0
LINE
8
BLACK
6
CONTINUOUS
10
105.894
20
-81.9097
11
105.893
21
-81.9093
0
LINE
8
BLACK
6
CONTINUOUS
10
105.893
20
-81.9093
11
105.888
21
-81.9089
0
LINE
8
BLACK
6
CONTINUOUS
10
105.888
20
-81.9089
11
105.881
21
-81.9059
0
LINE
8
BLACK
6
CONTINUOUS
10
105.881
20
-81.9059
11
105.873
21
-81.9036
0
LINE
8
BLACK
6
CONTINUOUS
10
105.873
20
-81.9036
11
105.871
21
-81.9018
0
LINE
8
BLACK
6
CONTINUOUS
10
105.871
20
-81.9018
11
105.868
21
-81.9007
0
LINE
8
BLACK
6
CONTINUOUS
10
105.868
20
-81.9007
11
105.862
21
-81.8952
0
LINE
8
BLACK
6
CONTINUOUS
10
105.862
20
-81.8952
11
105.856
21
-81.8903
0
LINE
8
BLACK
6
CONTINUOUS
10
105.856
20
-81.8903
11
105.854
21
-81.8878
0
LINE
8
BLACK
6
CONTINUOUS
10
105.854
20
-81.8878
11
105.852
21
-81.8858
0
LINE
8
BLACK
6
CONTINUOUS
10
105.852
20
-81.8858
11
105.848
21
-81.8785
0
LINE
8
BLACK
6
CONTINUOUS
10
105.848
20
-81.8785
11
105.844
21
-81.8716
0
LINE
8
BLACK
6
CONTINUOUS
10
105.844
20
-81.8716
11
105.843
21
-81.8687
0
LINE
8
BLACK
6
CONTINUOUS
10
105.843
20
-81.8687
11
105.842
21
-81.866
0
LINE
8
BLACK
6
CONTINUOUS
10
105.842
20
-81.866
11
105.841
21
-81.858
0
LINE
8
BLACK
6
CONTINUOUS
10
105.841
20
-81.858
11
105.84
21
-81.85
0
LINE
8
BLACK
6
CONTINUOUS
10
105.84
20
-81.85
11
105.84
21
-77.35
0
LINE
8
BLACK
6
CONTINUOUS
10
105.84
20
-77.35
11
105.84
21
-77.3457
0
LINE
8
BLACK
6
CONTINUOUS
10
105.84
20
-77.3457
11
105.84
21
-77.3441
0
LINE
8
BLACK
6
CONTINUOUS
10
105.84
20
-77.3441
11
105.841
21
-77.3426
0
LINE
8
BLACK
6
CONTINUOUS
10
105.841
20
-77.3426
11
105.841
21
-77.3383
0
LINE
8
BLACK
6
CONTINUOUS
10
105.841
20
-77.3383
11
105.844
21
-77.3308
0
LINE
8
BLACK
6
CONTINUOUS
10
105.844
20
-77.3308
11
105.846
21
-77.323
0
LINE
8
BLACK
6
CONTINUOUS
10
105.846
20
-77.323
11
105.848
21
-77.3207
0
LINE
8
BLACK
6
CONTINUOUS
10
105.848
20
-77.3207
11
105.849
21
-77.3179
0
LINE
8
BLACK
6
CONTINUOUS
10
105.849
20
-77.3179
11
105.855
21
-77.312
0
LINE
8
BLACK
6
CONTINUOUS
10
105.855
20
-77.312
11
105.86
21
-77.3056
0
LINE
8
BLACK
6
CONTINUOUS
10
105.86
20
-77.3056
11
105.862
21
-77.304
0
LINE
8
BLACK
6
CONTINUOUS
10
105.862
20
-77.304
11
105.864
21
-77.3018
0
LINE
8
BLACK
6
CONTINUOUS
10
105.864
20
-77.3018
11
105.872
21
-77.2983
0
LINE
8
BLACK
6
CONTINUOUS
10
105.872
20
-77.2983
11
105.878
21
-77.294
0
LINE
8
BLACK
6
CONTINUOUS
10
105.878
20
-77.294
11
105.881
21
-77.2935
0
LINE
8
BLACK
6
CONTINUOUS
10
105.881
20
-77.2935
11
105.884
21
-77.2922
0
LINE
8
BLACK
6
CONTINUOUS
10
105.884
20
-77.2922
11
105.892
21
-77.2915
0
LINE
8
BLACK
6
CONTINUOUS
10
105.892
20
-77.2915
11
105.9
21
-77.29
0
LINE
8
BLACK
6
CONTINUOUS
10
105.9
20
-77.29
11
112.5
21
-77.29
0
LINE
8
BLACK
6
CONTINUOUS
10
112.5
20
-77.29
11
112.504
21
-77.2904
0
LINE
8
BLACK
6
CONTINUOUS
10
105.96
20
-77.41
11
105.96
21
-81.79
0
LINE
8
BLACK
6
CONTINUOUS
10
105.96
20
-81.79
11
112.44
21
-81.79
0
LINE
8
BLACK
6
CONTINUOUS
10
112.44
20
-81.79
11
112.44
21
-77.41
0
LINE
8
BLACK
6
CONTINUOUS
10
112.44
20
-77.41
11
105.96
21
-77.41
0
LINE
8
BLACK
6
CONTINUOUS
10
105.154
20
-69.4404
11
105.156
21
-69.4403
0
LINE
8
BLACK
6
CONTINUOUS
10
105.156
20
-69.4403
11
105.157
21
-69.4407
0
LINE
8
BLACK
6
CONTINUOUS
10
105.157
20
-69.4407
11
105.162
21
-69.4411
0
LINE
8
BLACK
6
CONTINUOUS
10
105.162
20
-69.4411
11
105.169
21
-69.4441
0
LINE
8
BLACK
6
CONTINUOUS
10
105.169
20
-69.4441
11
105.177
21
-69.4464
0
LINE
8
BLACK
6
CONTINUOUS
10
105.177
20
-69.4464
11
105.179
21
-69.4482
0
LINE
8
BLACK
6
CONTINUOUS
10
105.179
20
-69.4482
11
105.182
21
-69.4493
0
LINE
8
BLACK
6
CONTINUOUS
10
105.182
20
-69.4493
11
105.188
21
-69.4548
0
LINE
8
BLACK
6
CONTINUOUS
10
105.188
20
-69.4548
11
105.194
21
-69.4597
0
LINE
8
BLACK
6
CONTINUOUS
10
105.194
20
-69.4597
11
105.196
21
-69.4622
0
LINE
8
BLACK
6
CONTINUOUS
10
105.196
20
-69.4622
11
105.198
21
-69.4642
0
LINE
8
BLACK
6
CONTINUOUS
10
105.198
20
-69.4642
11
105.202
21
-69.4715
0
LINE
8
BLACK
6
CONTINUOUS
10
105.202
20
-69.4715
11
105.206
21
-69.4784
0
LINE
8
BLACK
6
CONTINUOUS
10
105.206
20
-69.4784
11
105.207
21
-69.4813
0
LINE
8
BLACK
6
CONTINUOUS
10
105.207
20
-69.4813
11
105.208
21
-69.484
0
LINE
8
BLACK
6
CONTINUOUS
10
105.208
20
-69.484
11
105.209
21
-69.492
0
LINE
8
BLACK
6
CONTINUOUS
10
105.209
20
-69.492
11
105.21
21
-69.5
0
LINE
8
BLACK
6
CONTINUOUS
10
105.21
20
-69.5
11
105.21
21
-76.1
0
LINE
8
BLACK
6
CONTINUOUS
10
105.21
20
-76.1
11
105.21
21
-76.1043
0
LINE
8
BLACK
6
CONTINUOUS
10
105.21
20
-76.1043
11
105.21
21
-76.1059
0
LINE
8
BLACK
6
CONTINUOUS
10
105.21
20
-76.1059
11
105.209
21
-76.1074
0
LINE
8
BLACK
6
CONTINUOUS
10
105.209
20
-76.1074
11
105.209
21
-76.1117
0
LINE
8
BLACK
6
CONTINUOUS
10
105.209
20
-76.1117
11
105.206
21
-76.1192
0
LINE
8
BLACK
6
CONTINUOUS
10
105.206
20
-76.1192
11
105.204
21
-76.127
0
LINE
8
BLACK
6
CONTINUOUS
10
105.204
20
-76.127
11
105.202
21
-76.1293
0
LINE
8
BLACK
6
CONTINUOUS
10
105.202
20
-76.1293
11
105.201
21
-76.1321
0
LINE
8
BLACK
6
CONTINUOUS
10
105.201
20
-76.1321
11
105.195
21
-76.138
0
LINE
8
BLACK
6
CONTINUOUS
10
105.195
20
-76.138
11
105.19
21
-76.1444
0
LINE
8
BLACK
6
CONTINUOUS
10
105.19
20
-76.1444
11
105.188
21
-76.146
0
LINE
8
BLACK
6
CONTINUOUS
10
105.188
20
-76.146
11
105.186
21
-76.1482
0
LINE
8
BLACK
6
CONTINUOUS
10
105.186
20
-76.1482
11
105.178
21
-76.1517
0
LINE
8
BLACK
6
CONTINUOUS
10
105.178
20
-76.1517
11
105.172
21
-76.156
0
LINE
8
BLACK
6
CONTINUOUS
10
105.172
20
-76.156
11
105.169
21
-76.1565
0
LINE
8
BLACK
6
CONTINUOUS
10
105.169
20
-76.1565
11
105.166
21
-76.1578
0
LINE
8
BLACK
6
CONTINUOUS
10
105.166
20
-76.1578
11
105.158
21
-76.1585
0
LINE
8
BLACK
6
CONTINUOUS
10
105.158
20
-76.1585
11
105.15
21
-76.16
0
LINE
8
BLACK
6
CONTINUOUS
10
105.15
20
-76.16
11
100.65
21
-76.16
0
LINE
8
BLACK
6
CONTINUOUS
10
100.65
20
-76.16
11
100.646
21
-76.1596
0
LINE
8
BLACK
6
CONTINUOUS
10
100.646
20
-76.1596
11
100.644
21
-76.1597
0
LINE
8
BLACK
6
CONTINUOUS
10
100.644
20
-76.1597
11
100.643
21
-76.1593
0
LINE
8
BLACK
6
CONTINUOUS
10
100.643
20
-76.1593
11
100.638
21
-76.1589
0
LINE
8
BLACK
6
CONTINUOUS
10
100.638
20
-76.1589
11
100.631
21
-76.1559
0
LINE
8
BLACK
6
CONTINUOUS
10
100.631
20
-76.1559
11
100.623
21
-76.1536
0
LINE
8
BLACK
6
CONTINUOUS
10
100.623
20
-76.1536
11
100.621
21
-76.1518
0
LINE
8
BLACK
6
CONTINUOUS
10
100.621
20
-76.1518
11
100.618
21
-76.1507
0
LINE
8
BLACK
6
CONTINUOUS
10
100.618
20
-76.1507
11
100.612
21
-76.1452
0
LINE
8
BLACK
6
CONTINUOUS
10
100.612
20
-76.1452
11
100.606
21
-76.1403
0
LINE
8
BLACK
6
CONTINUOUS
10
100.606
20
-76.1403
11
100.604
21
-76.1378
0
LINE
8
BLACK
6
CONTINUOUS
10
100.604
20
-76.1378
11
100.602
21
-76.1358
0
LINE
8
BLACK
6
CONTINUOUS
10
100.602
20
-76.1358
11
100.598
21
-76.1285
0
LINE
8
BLACK
6
CONTINUOUS
10
100.598
20
-76.1285
11
100.594
21
-76.1216
0
LINE
8
BLACK
6
CONTINUOUS
10
100.594
20
-76.1216
11
100.593
21
-76.1187
0
LINE
8
BLACK
6
CONTINUOUS
10
100.593
20
-76.1187
11
100.592
21
-76.116
0
LINE
8
BLACK
6
CONTINUOUS
10
100.592
20
-76.116
11
100.591
21
-76.108
0
LINE
8
BLACK
6
CONTINUOUS
10
100.591
20
-76.108
11
100.59
21
-76.1
0
LINE
8
BLACK
6
CONTINUOUS
10
100.59
20
-76.1
11
100.59
21
-69.5
0
LINE
8
BLACK
6
CONTINUOUS
10
100.59
20
-69.5
11
100.59
21
-69.4957
0
LINE
8
BLACK
6
CONTINUOUS
10
100.59
20
-69.4957
11
100.59
21
-69.4941
0
LINE
8
BLACK
6
CONTINUOUS
10
100.59
20
-69.4941
11
100.591
21
-69.4926
0
LINE
8
BLACK
6
CONTINUOUS
10
100.591
20
-69.4926
11
100.591
21
-69.4883
0
LINE
8
BLACK
6
CONTINUOUS
10
100.591
20
-69.4883
11
100.594
21
-69.4808
0
LINE
8
BLACK
6
CONTINUOUS
10
100.594
20
-69.4808
11
100.596
21
-69.473
0
LINE
8
BLACK
6
CONTINUOUS
10
100.596
20
-69.473
11
100.598
21
-69.4707
0
LINE
8
BLACK
6
CONTINUOUS
10
100.598
20
-69.4707
11
100.599
21
-69.4679
0
LINE
8
BLACK
6
CONTINUOUS
10
100.599
20
-69.4679
11
100.605
21
-69.462
0
LINE
8
BLACK
6
CONTINUOUS
10
100.605
20
-69.462
11
100.61
21
-69.4556
0
LINE
8
BLACK
6
CONTINUOUS
10
100.61
20
-69.4556
11
100.612
21
-69.454
0
LINE
8
BLACK
6
CONTINUOUS
10
100.612
20
-69.454
11
100.614
21
-69.4518
0
LINE
8
BLACK
6
CONTINUOUS
10
100.614
20
-69.4518
11
100.622
21
-69.4483
0
LINE
8
BLACK
6
CONTINUOUS
10
100.622
20
-69.4483
11
100.628
21
-69.444
0
LINE
8
BLACK
6
CONTINUOUS
10
100.628
20
-69.444
11
100.631
21
-69.4435
0
LINE
8
BLACK
6
CONTINUOUS
10
100.631
20
-69.4435
11
100.634
21
-69.4422
0
LINE
8
BLACK
6
CONTINUOUS
10
100.634
20
-69.4422
11
100.642
21
-69.4415
0
LINE
8
BLACK
6
CONTINUOUS
10
100.642
20
-69.4415
11
100.65
21
-69.44
0
LINE
8
BLACK
6
CONTINUOUS
10
100.65
20
-69.44
11
105.15
21
-69.44
0
LINE
8
BLACK
6
CONTINUOUS
10
105.15
20
-69.44
11
105.154
21
-69.4404
0
LINE
8
BLACK
6
CONTINUOUS
10
100.71
20
-69.56
11
100.71
21
-76.04
0
LINE
8
BLACK
6
CONTINUOUS
10
100.71
20
-76.04
11
105.09
21
-76.04
0
LINE
8
BLACK
6
CONTINUOUS
10
105.09
20
-76.04
11
105.09
21
-69.56
0
LINE
8
BLACK
6
CONTINUOUS
10
105.09
20
-69.56
11
100.71
21
-69.56
0
LINE
8
BLACK
6
CONTINUOUS
10
144.707
20
-55.901
11
144.709
21
-55.902
0
LINE
8
BLACK
6
CONTINUOUS
10
144.709
20
-55.902
11
144.71
21
-55.9023
0
LINE
8
BLACK
6
CONTINUOUS
10
144.71
20
-55.9023
11
144.714
21
-55.9058
0
LINE
8
BLACK
6
CONTINUOUS
10
144.714
20
-55.9058
11
144.719
21
-55.9087
0
LINE
8
BLACK
6
CONTINUOUS
10
144.719
20
-55.9087
11
144.72
21
-55.9103
0
LINE
8
BLACK
6
CONTINUOUS
10
144.72
20
-55.9103
11
144.721
21
-55.9115
0
LINE
8
BLACK
6
CONTINUOUS
10
144.721
20
-55.9115
11
144.723
21
-55.9166
0
LINE
8
BLACK
6
CONTINUOUS
10
144.723
20
-55.9166
11
144.725
21
-55.9215
0
LINE
8
BLACK
6
CONTINUOUS
10
144.725
20
-55.9215
11
144.724
21
-55.9233
0
LINE
8
BLACK
6
CONTINUOUS
10
144.724
20
-55.9233
11
144.725
21
-55.925
0
LINE
8
BLACK
6
CONTINUOUS
10
144.725
20
-55.925
11
144.725
21
-62.075
0
LINE
8
BLACK
6
CONTINUOUS
10
144.725
20
-62.075
11
144.724
21
-62.0821
0
LINE
8
BLACK
6
CONTINUOUS
10
144.724
20
-62.0821
11
144.723
21
-62.0836
0
LINE
8
BLACK
6
CONTINUOUS
10
144.723
20
-62.0836
11
144.723
21
-62.0854
0
LINE
8
BLACK
6
CONTINUOUS
10
144.723
20
-62.0854
11
144.719
21
-62.0894
0
LINE
8
BLACK
6
CONTINUOUS
10
144.719
20
-62.0894
11
144.716
21
-62.0939
0
LINE
8
BLACK
6
CONTINUOUS
10
144.716
20
-62.0939
11
144.715
21
-62.0947
0
LINE
8
BLACK
6
CONTINUOUS
10
144.715
20
-62.0947
11
144.714
21
-62.096
0
LINE
8
BLACK
6
CONTINUOUS
10
144.714
20
-62.096
11
144.708
21
-62.0975
0
LINE
8
BLACK
6
CONTINUOUS
10
144.708
20
-62.0975
11
144.704
21
-62.0998
0
LINE
8
BLACK
6
CONTINUOUS
10
144.704
20
-62.0998
11
144.702
21
-62.0995
0
LINE
8
BLACK
6
CONTINUOUS
10
144.702
20
-62.0995
11
144.7
21
-62.1
0
LINE
8
BLACK
6
CONTINUOUS
10
144.7
20
-62.1
11
92.85
21
-62.1
0
LINE
8
BLACK
6
CONTINUOUS
10
92.85
20
-62.1
11
92.8429
21
-62.099
0
LINE
8
BLACK
6
CONTINUOUS
10
92.8429
20
-62.099
11
92.8414
21
-62.098
0
LINE
8
BLACK
6
CONTINUOUS
10
92.8414
20
-62.098
11
92.8396
21
-62.0977
0
LINE
8
BLACK
6
CONTINUOUS
10
92.8396
20
-62.0977
11
92.8356
21
-62.0942
0
LINE
8
BLACK
6
CONTINUOUS
10
92.8356
20
-62.0942
11
92.8311
21
-62.0913
0
LINE
8
BLACK
6
CONTINUOUS
10
92.8311
20
-62.0913
11
92.8303
21
-62.0897
0
LINE
8
BLACK
6
CONTINUOUS
10
92.8303
20
-62.0897
11
92.829
21
-62.0885
0
LINE
8
BLACK
6
CONTINUOUS
10
92.829
20
-62.0885
11
92.8275
21
-62.0834
0
LINE
8
BLACK
6
CONTINUOUS
10
92.8275
20
-62.0834
11
92.8252
21
-62.0785
0
LINE
8
BLACK
6
CONTINUOUS
10
92.8252
20
-62.0785
11
92.8255
21
-62.0767
0
LINE
8
BLACK
6
CONTINUOUS
10
92.8255
20
-62.0767
11
92.825
21
-62.075
0
LINE
8
BLACK
6
CONTINUOUS
10
92.825
20
-62.075
11
92.825
21
-55.925
0
LINE
8
BLACK
6
CONTINUOUS
10
92.825
20
-55.925
11
92.826
21
-55.9179
0
LINE
8
BLACK
6
CONTINUOUS
10
92.826
20
-55.9179
11
92.827
21
-55.9164
0
LINE
8
BLACK
6
CONTINUOUS
10
92.827
20
-55.9164
11
92.8273
21
-55.9146
0
LINE
8
BLACK
6
CONTINUOUS
10
92.8273
20
-55.9146
11
92.8308
21
-55.9106
0
LINE
8
BLACK
6
CONTINUOUS
10
92.8308
20
-55.9106
11
92.8337
21
-55.9061
0
LINE
8
BLACK
6
CONTINUOUS
10
92.8337
20
-55.9061
11
92.8353
21
-55.9053
0
LINE
8
BLACK
6
CONTINUOUS
10
92.8353
20
-55.9053
11
92.8365
21
-55.904
0
LINE
8
BLACK
6
CONTINUOUS
10
92.8365
20
-55.904
11
92.8416
21
-55.9025
0
LINE
8
BLACK
6
CONTINUOUS
10
92.8416
20
-55.9025
11
92.8465
21
-55.9002
0
LINE
8
BLACK
6
CONTINUOUS
10
92.8465
20
-55.9002
11
92.8483
21
-55.9005
0
LINE
8
BLACK
6
CONTINUOUS
10
92.8483
20
-55.9005
11
92.85
21
-55.9
0
LINE
8
BLACK
6
CONTINUOUS
10
92.85
20
-55.9
11
144.7
21
-55.9
0
LINE
8
BLACK
6
CONTINUOUS
10
144.7
20
-55.9
11
144.707
21
-55.901
0
LINE
8
BLACK
6
CONTINUOUS
10
92.875
20
-55.95
11
92.875
21
-62.05
0
LINE
8
BLACK
6
CONTINUOUS
10
92.875
20
-62.05
11
144.675
21
-62.05
0
LINE
8
BLACK
6
CONTINUOUS
10
144.675
20
-62.05
11
144.675
21
-55.95
0
LINE
8
BLACK
6
CONTINUOUS
10
144.675
20
-55.95
11
92.875
21
-55.95
0
LINE
8
BLACK
6
CONTINUOUS
10
138.241
20
-89.3005
11
138.26
21
-89.2024
0
LINE
8
BLACK
6
CONTINUOUS
10
138.26
20
-89.2024
11
138.287
21
-89.106
0
LINE
8
BLACK
6
CONTINUOUS
10
138.287
20
-89.106
11
138.322
21
-89.0121
0
LINE
8
BLACK
6
CONTINUOUS
10
138.322
20
-89.0121
11
138.364
21
-88.9212
0
LINE
8
BLACK
6
CONTINUOUS
10
138.364
20
-88.9212
11
138.413
21
-88.8338
0
LINE
8
BLACK
6
CONTINUOUS
10
138.413
20
-88.8338
11
138.469
21
-88.7506
0
LINE
8
BLACK
6
CONTINUOUS
10
138.469
20
-88.7506
11
138.53
21
-88.672
0
LINE
8
BLACK
6
CONTINUOUS
10
138.53
20
-88.672
11
138.598
21
-88.5984
0
LINE
8
BLACK
6
CONTINUOUS
10
138.598
20
-88.5984
11
138.672
21
-88.5305
0
LINE
8
BLACK
6
CONTINUOUS
10
138.672
20
-88.5305
11
138.751
21
-88.4685
0
LINE
8
BLACK
6
CONTINUOUS
10
138.751
20
-88.4685
11
138.834
21
-88.4129
0
LINE
8
BLACK
6
CONTINUOUS
10
138.834
20
-88.4129
11
138.921
21
-88.364
0
LINE
8
BLACK
6
CONTINUOUS
10
138.921
20
-88.364
11
139.012
21
-88.3221
0
LINE
8
BLACK
6
CONTINUOUS
10
139.012
20
-88.3221
11
139.106
21
-88.2874
0
LINE
8
BLACK
6
CONTINUOUS
10
139.106
20
-88.2874
11
139.202
21
-88.2602
0
LINE
8
BLACK
6
CONTINUOUS
10
139.202
20
-88.2602
11
139.301
21
-88.2407
0
LINE
8
BLACK
6
CONTINUOUS
10
139.301
20
-88.2407
11
139.4
21
-88.2289
0
LINE
8
BLACK
6
CONTINUOUS
10
139.4
20
-88.2289
11
139.5
21
-88.225
0
LINE
8
BLACK
6
CONTINUOUS
10
139.5
20
-88.225
11
139.6
21
-88.2289
0
LINE
8
BLACK
6
CONTINUOUS
10
139.6
20
-88.2289
11
139.699
21
-88.2407
0
LINE
8
BLACK
6
CONTINUOUS
10
139.699
20
-88.2407
11
139.798
21
-88.2602
0
LINE
8
BLACK
6
CONTINUOUS
10
139.798
20
-88.2602
11
139.894
21
-88.2874
0
LINE
8
BLACK
6
CONTINUOUS
10
139.894
20
-88.2874
11
139.988
21
-88.3221
0
LINE
8
BLACK
6
CONTINUOUS
10
139.988
20
-88.3221
11
140.079
21
-88.364
0
LINE
8
BLACK
6
CONTINUOUS
10
140.079
20
-88.364
11
140.166
21
-88.4129
0
LINE
8
BLACK
6
CONTINUOUS
10
140.166
20
-88.4129
11
140.249
21
-88.4685
0
LINE
8
BLACK
6
CONTINUOUS
10
140.249
20
-88.4685
11
140.328
21
-88.5305
0
LINE
8
BLACK
6
CONTINUOUS
10
140.328
20
-88.5305
11
140.402
21
-88.5984
0
LINE
8
BLACK
6
CONTINUOUS
10
140.402
20
-88.5984
11
140.47
21
-88.672
0
LINE
8
BLACK
6
CONTINUOUS
10
140.47
20
-88.672
11
140.531
21
-88.7506
0
LINE
8
BLACK
6
CONTINUOUS
10
140.531
20
-88.7506
11
140.587
21
-88.8338
0
LINE
8
BLACK
6
CONTINUOUS
10
140.587
20
-88.8338
11
140.636
21
-88.9212
0
LINE
8
BLACK
6
CONTINUOUS
10
140.636
20
-88.9212
11
140.678
21
-89.0121
0
LINE
8
BLACK
6
CONTINUOUS
10
140.678
20
-89.0121
11
140.713
21
-89.106
0
LINE
8
BLACK
6
CONTINUOUS
10
140.713
20
-89.106
11
140.74
21
-89.2024
0
LINE
8
BLACK
6
CONTINUOUS
10
140.74
20
-89.2024
11
140.759
21
-89.3005
0
LINE
8
BLACK
6
CONTINUOUS
10
140.759
20
-89.3005
11
140.771
21
-89.4
0
LINE
8
BLACK
6
CONTINUOUS
10
140.771
20
-89.4
11
140.775
21
-89.5
0
LINE
8
BLACK
6
CONTINUOUS
10
140.775
20
-89.5
11
140.771
21
-89.6
0
LINE
8
BLACK
6
CONTINUOUS
10
140.771
20
-89.6
11
140.759
21
-89.6995
0
LINE
8
BLACK
6
CONTINUOUS
10
140.759
20
-89.6995
11
140.74
21
-89.7976
0
LINE
8
BLACK
6
CONTINUOUS
10
140.74
20
-89.7976
11
140.713
21
-89.894
0
LINE
8
BLACK
6
CONTINUOUS
10
140.713
20
-89.894
11
140.678
21
-89.9879
0
LINE
8
BLACK
6
CONTINUOUS
10
140.678
20
-89.9879
11
140.636
21
-90.0788
0
LINE
8
BLACK
6
CONTINUOUS
10
140.636
20
-90.0788
11
140.587
21
-90.1662
0
LINE
8
BLACK
6
CONTINUOUS
10
140.587
20
-90.1662
11
140.531
21
-90.2494
0
LINE
8
BLACK
6
CONTINUOUS
10
140.531
20
-90.2494
11
140.47
21
-90.328
0
LINE
8
BLACK
6
CONTINUOUS
10
140.47
20
-90.328
11
140.402
21
-90.4016
0
LINE
8
BLACK
6
CONTINUOUS
10
140.402
20
-90.4016
11
140.328
21
-90.4695
0
LINE
8
BLACK
6
CONTINUOUS
10
140.328
20
-90.4695
11
140.249
21
-90.5315
0
LINE
8
BLACK
6
CONTINUOUS
10
140.249
20
-90.5315
11
140.166
21
-90.5871
0
LINE
8
BLACK
6
CONTINUOUS
10
140.166
20
-90.5871
11
140.079
21
-90.636
0
LINE
8
BLACK
6
CONTINUOUS
10
140.079
20
-90.636
11
139.988
21
-90.6779
0
LINE
8
BLACK
6
CONTINUOUS
10
139.988
20
-90.6779
11
139.894
21
-90.7126
0
LINE
8
BLACK
6
CONTINUOUS
10
139.894
20
-90.7126
11
139.798
21
-90.7398
0
LINE
8
BLACK
6
CONTINUOUS
10
139.798
20
-90.7398
11
139.699
21
-90.7593
0
LINE
8
BLACK
6
CONTINUOUS
10
139.699
20
-90.7593
11
139.6
21
-90.7711
0
LINE
8
BLACK
6
CONTINUOUS
10
139.6
20
-90.7711
11
139.5
21
-90.775
0
LINE
8
BLACK
6
CONTINUOUS
10
139.5
20
-90.775
11
139.4
21
-90.7711
0
LINE
8
BLACK
6
CONTINUOUS
10
139.4
20
-90.7711
11
139.301
21
-90.7593
0
LINE
8
BLACK
6
CONTINUOUS
10
139.301
20
-90.7593
11
139.202
21
-90.7398
0
LINE
8
BLACK
6
CONTINUOUS
10
139.202
20
-90.7398
11
139.106
21
-90.7126
0
LINE
8
BLACK
6
CONTINUOUS
10
139.106
20
-90.7126
11
139.012
21
-90.6779
0
LINE
8
BLACK
6
CONTINUOUS
10
139.012
20
-90.6779
11
138.921
21
-90.636
0
LINE
8
BLACK
6
CONTINUOUS
10
138.921
20
-90.636
11
138.834
21
-90.5871
0
LINE
8
BLACK
6
CONTINUOUS
10
138.834
20
-90.5871
11
138.751
21
-90.5315
0
LINE
8
BLACK
6
CONTINUOUS
10
138.751
20
-90.5315
11
138.672
21
-90.4695
0
LINE
8
BLACK
6
CONTINUOUS
10
138.672
20
-90.4695
11
138.598
21
-90.4016
0
LINE
8
BLACK
6
CONTINUOUS
10
138.598
20
-90.4016
11
138.53
21
-90.328
0
LINE
8
BLACK
6
CONTINUOUS
10
138.53
20
-90.328
11
138.469
21
-90.2494
0
LINE
8
BLACK
6
CONTINUOUS
10
138.469
20
-90.2494
11
138.413
21
-90.1662
0
LINE
8
BLACK
6
CONTINUOUS
10
138.413
20
-90.1662
11
138.364
21
-90.0788
0
LINE
8
BLACK
6
CONTINUOUS
10
138.364
20
-90.0788
11
138.322
21
-89.9879
0
LINE
8
BLACK
6
CONTINUOUS
10
138.322
20
-89.9879
11
138.287
21
-89.894
0
LINE
8
BLACK
6
CONTINUOUS
10
138.287
20
-89.894
11
138.26
21
-89.7976
0
LINE
8
BLACK
6
CONTINUOUS
10
138.26
20
-89.7976
11
138.241
21
-89.6995
0
LINE
8
BLACK
6
CONTINUOUS
10
138.241
20
-89.6995
11
138.229
21
-89.6
0
LINE
8
BLACK
6
CONTINUOUS
10
138.229
20
-89.6
11
138.225
21
-89.5
0
LINE
8
BLACK
6
CONTINUOUS
10
138.225
20
-89.5
11
138.226
21
-89.4872
0
LINE
8
BLACK
6
CONTINUOUS
10
138.226
20
-89.4872
11
138.229
21
-89.4
0
LINE
8
BLACK
6
CONTINUOUS
10
138.229
20
-89.4
11
138.241
21
-89.3005
0
LINE
8
BLACK
6
CONTINUOUS
10
138.288
20
-89.6833
11
138.306
21
-89.78
0
LINE
8
BLACK
6
CONTINUOUS
10
138.306
20
-89.78
11
138.333
21
-89.8748
0
LINE
8
BLACK
6
CONTINUOUS
10
138.333
20
-89.8748
11
138.367
21
-89.9672
0
LINE
8
BLACK
6
CONTINUOUS
10
138.367
20
-89.9672
11
138.408
21
-90.0566
0
LINE
8
BLACK
6
CONTINUOUS
10
138.408
20
-90.0566
11
138.456
21
-90.1424
0
LINE
8
BLACK
6
CONTINUOUS
10
138.456
20
-90.1424
11
138.511
21
-90.2241
0
LINE
8
BLACK
6
CONTINUOUS
10
138.511
20
-90.2241
11
138.572
21
-90.3011
0
LINE
8
BLACK
6
CONTINUOUS
10
138.572
20
-90.3011
11
138.639
21
-90.3729
0
LINE
8
BLACK
6
CONTINUOUS
10
138.639
20
-90.3729
11
138.712
21
-90.4392
0
LINE
8
BLACK
6
CONTINUOUS
10
138.712
20
-90.4392
11
138.79
21
-90.4993
0
LINE
8
BLACK
6
CONTINUOUS
10
138.79
20
-90.4993
11
138.872
21
-90.5531
0
LINE
8
BLACK
6
CONTINUOUS
10
138.872
20
-90.5531
11
138.959
21
-90.6
0
LINE
8
BLACK
6
CONTINUOUS
10
138.959
20
-90.6
11
139.049
21
-90.6399
0
LINE
8
BLACK
6
CONTINUOUS
10
139.049
20
-90.6399
11
139.142
21
-90.6724
0
LINE
8
BLACK
6
CONTINUOUS
10
139.142
20
-90.6724
11
139.237
21
-90.6974
0
LINE
8
BLACK
6
CONTINUOUS
10
139.237
20
-90.6974
11
139.334
21
-90.7147
0
LINE
8
BLACK
6
CONTINUOUS
10
139.334
20
-90.7147
11
139.432
21
-90.7241
0
LINE
8
BLACK
6
CONTINUOUS
10
139.432
20
-90.7241
11
139.53
21
-90.7256
0
LINE
8
BLACK
6
CONTINUOUS
10
139.53
20
-90.7256
11
139.628
21
-90.7193
0
LINE
8
BLACK
6
CONTINUOUS
10
139.628
20
-90.7193
11
139.726
21
-90.7051
0
LINE
8
BLACK
6
CONTINUOUS
10
139.726
20
-90.7051
11
139.821
21
-90.6831
0
LINE
8
BLACK
6
CONTINUOUS
10
139.821
20
-90.6831
11
139.915
21
-90.6535
0
LINE
8
BLACK
6
CONTINUOUS
10
139.915
20
-90.6535
11
140.006
21
-90.6165
0
LINE
8
BLACK
6
CONTINUOUS
10
140.006
20
-90.6165
11
140.094
21
-90.5723
0
LINE
8
BLACK
6
CONTINUOUS
10
140.094
20
-90.5723
11
140.178
21
-90.5212
0
LINE
8
BLACK
6
CONTINUOUS
10
140.178
20
-90.5212
11
140.258
21
-90.4635
0
LINE
8
BLACK
6
CONTINUOUS
10
140.258
20
-90.4635
11
140.333
21
-90.3995
0
LINE
8
BLACK
6
CONTINUOUS
10
140.333
20
-90.3995
11
140.402
21
-90.3298
0
LINE
8
BLACK
6
CONTINUOUS
10
140.402
20
-90.3298
11
140.466
21
-90.2548
0
LINE
8
BLACK
6
CONTINUOUS
10
140.466
20
-90.2548
11
140.524
21
-90.1749
0
LINE
8
BLACK
6
CONTINUOUS
10
140.524
20
-90.1749
11
140.574
21
-90.0906
0
LINE
8
BLACK
6
CONTINUOUS
10
140.574
20
-90.0906
11
140.618
21
-90.0026
0
LINE
8
BLACK
6
CONTINUOUS
10
140.618
20
-90.0026
11
140.655
21
-89.9113
0
LINE
8
BLACK
6
CONTINUOUS
10
140.655
20
-89.9113
11
140.684
21
-89.8173
0
LINE
8
BLACK
6
CONTINUOUS
10
140.684
20
-89.8173
11
140.706
21
-89.7213
0
LINE
8
BLACK
6
CONTINUOUS
10
140.706
20
-89.7213
11
140.72
21
-89.6239
0
LINE
8
BLACK
6
CONTINUOUS
10
140.72
20
-89.6239
11
140.726
21
-89.5257
0
LINE
8
BLACK
6
CONTINUOUS
10
140.726
20
-89.5257
11
140.726
21
-89.5
0
LINE
8
BLACK
6
CONTINUOUS
10
140.726
20
-89.5
11
140.722
21
-89.4017
0
LINE
8
BLACK
6
CONTINUOUS
10
140.722
20
-89.4017
11
140.71
21
-89.304
0
LINE
8
BLACK
6
CONTINUOUS
10
140.71
20
-89.304
11
140.691
21
-89.2076
0
LINE
8
BLACK
6
CONTINUOUS
10
140.691
20
-89.2076
11
140.663
21
-89.113
0
LINE
8
BLACK
6
CONTINUOUS
10
140.663
20
-89.113
11
140.629
21
-89.021
0
LINE
8
BLACK
6
CONTINUOUS
10
140.629
20
-89.021
11
140.586
21
-88.932
0
LINE
8
BLACK
6
CONTINUOUS
10
140.586
20
-88.932
11
140.537
21
-88.8467
0
LINE
8
BLACK
6
CONTINUOUS
10
140.537
20
-88.8467
11
140.482
21
-88.7656
0
LINE
8
BLACK
6
CONTINUOUS
10
140.482
20
-88.7656
11
140.42
21
-88.6892
0
LINE
8
BLACK
6
CONTINUOUS
10
140.42
20
-88.6892
11
140.352
21
-88.6181
0
LINE
8
BLACK
6
CONTINUOUS
10
140.352
20
-88.6181
11
140.278
21
-88.5526
0
LINE
8
BLACK
6
CONTINUOUS
10
140.278
20
-88.5526
11
140.2
21
-88.4933
0
LINE
8
BLACK
6
CONTINUOUS
10
140.2
20
-88.4933
11
140.117
21
-88.4404
0
LINE
8
BLACK
6
CONTINUOUS
10
140.117
20
-88.4404
11
140.03
21
-88.3944
0
LINE
8
BLACK
6
CONTINUOUS
10
140.03
20
-88.3944
11
139.939
21
-88.3554
0
LINE
8
BLACK
6
CONTINUOUS
10
139.939
20
-88.3554
11
139.846
21
-88.3239
0
LINE
8
BLACK
6
CONTINUOUS
10
139.846
20
-88.3239
11
139.751
21
-88.2999
0
LINE
8
BLACK
6
CONTINUOUS
10
139.751
20
-88.2999
11
139.654
21
-88.2837
0
LINE
8
BLACK
6
CONTINUOUS
10
139.654
20
-88.2837
11
139.556
21
-88.2753
0
LINE
8
BLACK
6
CONTINUOUS
10
139.556
20
-88.2753
11
139.457
21
-88.2748
0
LINE
8
BLACK
6
CONTINUOUS
10
139.457
20
-88.2748
11
139.359
21
-88.2821
0
LINE
8
BLACK
6
CONTINUOUS
10
139.359
20
-88.2821
11
139.262
21
-88.2974
0
LINE
8
BLACK
6
CONTINUOUS
10
139.262
20
-88.2974
11
139.166
21
-88.3203
0
LINE
8
BLACK
6
CONTINUOUS
10
139.166
20
-88.3203
11
139.073
21
-88.3509
0
LINE
8
BLACK
6
CONTINUOUS
10
139.073
20
-88.3509
11
138.982
21
-88.3889
0
LINE
8
BLACK
6
CONTINUOUS
10
138.982
20
-88.3889
11
138.894
21
-88.434
0
LINE
8
BLACK
6
CONTINUOUS
10
138.894
20
-88.434
11
138.811
21
-88.486
0
LINE
8
BLACK
6
CONTINUOUS
10
138.811
20
-88.486
11
138.732
21
-88.5445
0
LINE
8
BLACK
6
CONTINUOUS
10
138.732
20
-88.5445
11
138.658
21
-88.6092
0
LINE
8
BLACK
6
CONTINUOUS
10
138.658
20
-88.6092
11
138.589
21
-88.6796
0
LINE
8
BLACK
6
CONTINUOUS
10
138.589
20
-88.6796
11
138.526
21
-88.7554
0
LINE
8
BLACK
6
CONTINUOUS
10
138.526
20
-88.7554
11
138.469
21
-88.8359
0
LINE
8
BLACK
6
CONTINUOUS
10
138.469
20
-88.8359
11
138.42
21
-88.9207
0
LINE
8
BLACK
6
CONTINUOUS
10
138.42
20
-88.9207
11
138.377
21
-89.0092
0
LINE
8
BLACK
6
CONTINUOUS
10
138.377
20
-89.0092
11
138.341
21
-89.1009
0
LINE
8
BLACK
6
CONTINUOUS
10
138.341
20
-89.1009
11
138.313
21
-89.1951
0
LINE
8
BLACK
6
CONTINUOUS
10
138.313
20
-89.1951
11
138.292
21
-89.2913
0
LINE
8
BLACK
6
CONTINUOUS
10
138.292
20
-89.2913
11
138.279
21
-89.3889
0
LINE
8
BLACK
6
CONTINUOUS
10
138.279
20
-89.3889
11
138.274
21
-89.4872
0
LINE
8
BLACK
6
CONTINUOUS
10
138.274
20
-89.4872
11
138.277
21
-89.5855
0
LINE
8
BLACK
6
CONTINUOUS
10
138.277
20
-89.5855
11
138.288
21
-89.6833
0
LINE
8
BLACK
6
CONTINUOUS
10
102.541
20
-80.0505
11
102.56
21
-79.9524
0
LINE
8
BLACK
6
CONTINUOUS
10
102.56
20
-79.9524
11
102.587
21
-79.856
0
LINE
8
BLACK
6
CONTINUOUS
10
102.587
20
-79.856
11
102.622
21
-79.7621
0
LINE
8
BLACK
6
CONTINUOUS
10
102.622
20
-79.7621
11
102.664
21
-79.6712
0
LINE
8
BLACK
6
CONTINUOUS
10
102.664
20
-79.6712
11
102.713
21
-79.5838
0
LINE
8
BLACK
6
CONTINUOUS
10
102.713
20
-79.5838
11
102.769
21
-79.5006
0
LINE
8
BLACK
6
CONTINUOUS
10
102.769
20
-79.5006
11
102.83
21
-79.422
0
LINE
8
BLACK
6
CONTINUOUS
10
102.83
20
-79.422
11
102.898
21
-79.3484
0
LINE
8
BLACK
6
CONTINUOUS
10
102.898
20
-79.3484
11
102.972
21
-79.2805
0
LINE
8
BLACK
6
CONTINUOUS
10
102.972
20
-79.2805
11
103.051
21
-79.2185
0
LINE
8
BLACK
6
CONTINUOUS
10
103.051
20
-79.2185
11
103.134
21
-79.1629
0
LINE
8
BLACK
6
CONTINUOUS
10
103.134
20
-79.1629
11
103.221
21
-79.114
0
LINE
8
BLACK
6
CONTINUOUS
10
103.221
20
-79.114
11
103.312
21
-79.0721
0
LINE
8
BLACK
6
CONTINUOUS
10
103.312
20
-79.0721
11
103.406
21
-79.0374
0
LINE
8
BLACK
6
CONTINUOUS
10
103.406
20
-79.0374
11
103.502
21
-79.0102
0
LINE
8
BLACK
6
CONTINUOUS
10
103.502
20
-79.0102
11
103.601
21
-78.9907
0
LINE
8
BLACK
6
CONTINUOUS
10
103.601
20
-78.9907
11
103.7
21
-78.9789
0
LINE
8
BLACK
6
CONTINUOUS
10
103.7
20
-78.9789
11
103.8
21
-78.975
0
LINE
8
BLACK
6
CONTINUOUS
10
103.8
20
-78.975
11
103.9
21
-78.9789
0
LINE
8
BLACK
6
CONTINUOUS
10
103.9
20
-78.9789
11
103.999
21
-78.9907
0
LINE
8
BLACK
6
CONTINUOUS
10
103.999
20
-78.9907
11
104.098
21
-79.0102
0
LINE
8
BLACK
6
CONTINUOUS
10
104.098
20
-79.0102
11
104.194
21
-79.0374
0
LINE
8
BLACK
6
CONTINUOUS
10
104.194
20
-79.0374
11
104.288
21
-79.0721
0
LINE
8
BLACK
6
CONTINUOUS
10
104.288
20
-79.0721
11
104.379
21
-79.114
0
LINE
8
BLACK
6
CONTINUOUS
10
104.379
20
-79.114
11
104.466
21
-79.1629
0
LINE
8
BLACK
6
CONTINUOUS
10
104.466
20
-79.1629
11
104.549
21
-79.2185
0
LINE
8
BLACK
6
CONTINUOUS
10
104.549
20
-79.2185
11
104.628
21
-79.2805
0
LINE
8
BLACK
6
CONTINUOUS
10
104.628
20
-79.2805
11
104.702
21
-79.3484
0
LINE
8
BLACK
6
CONTINUOUS
10
104.702
20
-79.3484
11
104.77
21
-79.422
0
LINE
8
BLACK
6
CONTINUOUS
10
104.77
20
-79.422
11
104.831
21
-79.5006
0
LINE
8
BLACK
6
CONTINUOUS
10
104.831
20
-79.5006
11
104.887
21
-79.5838
0
LINE
8
BLACK
6
CONTINUOUS
10
104.887
20
-79.5838
11
104.936
21
-79.6712
0
LINE
8
BLACK
6
CONTINUOUS
10
104.936
20
-79.6712
11
104.978
21
-79.7621
0
LINE
8
BLACK
6
CONTINUOUS
10
104.978
20
-79.7621
11
105.013
21
-79.856
0
LINE
8
BLACK
6
CONTINUOUS
10
105.013
20
-79.856
11
105.04
21
-79.9524
0
LINE
8
BLACK
6
CONTINUOUS
10
105.04
20
-79.9524
11
105.059
21
-80.0505
0
LINE
8
BLACK
6
CONTINUOUS
10
105.059
20
-80.0505
11
105.071
21
-80.15
0
LINE
8
BLACK
6
CONTINUOUS
10
105.071
20
-80.15
11
105.075
21
-80.25
0
LINE
8
BLACK
6
CONTINUOUS
10
105.075
20
-80.25
11
105.071
21
-80.35
0
LINE
8
BLACK
6
CONTINUOUS
10
105.071
20
-80.35
11
105.059
21
-80.4495
0
LINE
8
BLACK
6
CONTINUOUS
10
105.059
20
-80.4495
11
105.04
21
-80.5476
0
LINE
8
BLACK
6
CONTINUOUS
10
105.04
20
-80.5476
11
105.013
21
-80.644
0
LINE
8
BLACK
6
CONTINUOUS
10
105.013
20
-80.644
11
104.978
21
-80.7379
0
LINE
8
BLACK
6
CONTINUOUS
10
104.978
20
-80.7379
11
104.936
21
-80.8288
0
LINE
8
BLACK
6
CONTINUOUS
10
104.936
20
-80.8288
11
104.887
21
-80.9162
0
LINE
8
BLACK
6
CONTINUOUS
10
104.887
20
-80.9162
11
104.831
21
-80.9994
0
LINE
8
BLACK
6
CONTINUOUS
10
104.831
20
-80.9994
11
104.77
21
-81.078
0
LINE
8
BLACK
6
CONTINUOUS
10
104.77
20
-81.078
11
104.702
21
-81.1516
0
LINE
8
BLACK
6
CONTINUOUS
10
104.702
20
-81.1516
11
104.628
21
-81.2195
0
LINE
8
BLACK
6
CONTINUOUS
10
104.628
20
-81.2195
11
104.549
21
-81.2815
0
LINE
8
BLACK
6
CONTINUOUS
10
104.549
20
-81.2815
11
104.466
21
-81.3371
0
LINE
8
BLACK
6
CONTINUOUS
10
104.466
20
-81.3371
11
104.379
21
-81.386
0
LINE
8
BLACK
6
CONTINUOUS
10
104.379
20
-81.386
11
104.288
21
-81.4279
0
LINE
8
BLACK
6
CONTINUOUS
10
104.288
20
-81.4279
11
104.194
21
-81.4626
0
LINE
8
BLACK
6
CONTINUOUS
10
104.194
20
-81.4626
11
104.098
21
-81.4898
0
LINE
8
BLACK
6
CONTINUOUS
10
104.098
20
-81.4898
11
103.999
21
-81.5093
0
LINE
8
BLACK
6
CONTINUOUS
10
103.999
20
-81.5093
11
103.9
21
-81.5211
0
LINE
8
BLACK
6
CONTINUOUS
10
103.9
20
-81.5211
11
103.8
21
-81.525
0
LINE
8
BLACK
6
CONTINUOUS
10
103.8
20
-81.525
11
103.7
21
-81.5211
0
LINE
8
BLACK
6
CONTINUOUS
10
103.7
20
-81.5211
11
103.601
21
-81.5093
0
LINE
8
BLACK
6
CONTINUOUS
10
103.601
20
-81.5093
11
103.502
21
-81.4898
0
LINE
8
BLACK
6
CONTINUOUS
10
103.502
20
-81.4898
11
103.406
21
-81.4626
0
LINE
8
BLACK
6
CONTINUOUS
10
103.406
20
-81.4626
11
103.312
21
-81.4279
0
LINE
8
BLACK
6
CONTINUOUS
10
103.312
20
-81.4279
11
103.221
21
-81.386
0
LINE
8
BLACK
6
CONTINUOUS
10
103.221
20
-81.386
11
103.134
21
-81.3371
0
LINE
8
BLACK
6
CONTINUOUS
10
103.134
20
-81.3371
11
103.051
21
-81.2815
0
LINE
8
BLACK
6
CONTINUOUS
10
103.051
20
-81.2815
11
102.972
21
-81.2195
0
LINE
8
BLACK
6
CONTINUOUS
10
102.972
20
-81.2195
11
102.898
21
-81.1516
0
LINE
8
BLACK
6
CONTINUOUS
10
102.898
20
-81.1516
11
102.83
21
-81.078
0
LINE
8
BLACK
6
CONTINUOUS
10
102.83
20
-81.078
11
102.769
21
-80.9994
0
LINE
8
BLACK
6
CONTINUOUS
10
102.769
20
-80.9994
11
102.713
21
-80.9162
0
LINE
8
BLACK
6
CONTINUOUS
10
102.713
20
-80.9162
11
102.664
21
-80.8288
0
LINE
8
BLACK
6
CONTINUOUS
10
102.664
20
-80.8288
11
102.622
21
-80.7379
0
LINE
8
BLACK
6
CONTINUOUS
10
102.622
20
-80.7379
11
102.587
21
-80.644
0
LINE
8
BLACK
6
CONTINUOUS
10
102.587
20
-80.644
11
102.56
21
-80.5476
0
LINE
8
BLACK
6
CONTINUOUS
10
102.56
20
-80.5476
11
102.541
21
-80.4495
0
LINE
8
BLACK
6
CONTINUOUS
10
102.541
20
-80.4495
11
102.529
21
-80.35
0
LINE
8
BLACK
6
CONTINUOUS
10
102.529
20
-80.35
11
102.525
21
-80.25
0
LINE
8
BLACK
6
CONTINUOUS
10
102.525
20
-80.25
11
102.526
21
-80.2372
0
LINE
8
BLACK
6
CONTINUOUS
10
102.526
20
-80.2372
11
102.529
21
-80.15
0
LINE
8
BLACK
6
CONTINUOUS
10
102.529
20
-80.15
11
102.541
21
-80.0505
0
LINE
8
BLACK
6
CONTINUOUS
10
102.588
20
-80.4333
11
102.606
21
-80.53
0
LINE
8
BLACK
6
CONTINUOUS
10
102.606
20
-80.53
11
102.633
21
-80.6248
0
LINE
8
BLACK
6
CONTINUOUS
10
102.633
20
-80.6248
11
102.667
21
-80.7172
0
LINE
8
BLACK
6
CONTINUOUS
10
102.667
20
-80.7172
11
102.708
21
-80.8066
0
LINE
8
BLACK
6
CONTINUOUS
10
102.708
20
-80.8066
11
102.756
21
-80.8924
0
LINE
8
BLACK
6
CONTINUOUS
10
102.756
20
-80.8924
11
102.811
21
-80.9741
0
LINE
8
BLACK
6
CONTINUOUS
10
102.811
20
-80.9741
11
102.872
21
-81.0511
0
LINE
8
BLACK
6
CONTINUOUS
10
102.872
20
-81.0511
11
102.939
21
-81.1229
0
LINE
8
BLACK
6
CONTINUOUS
10
102.939
20
-81.1229
11
103.012
21
-81.1892
0
LINE
8
BLACK
6
CONTINUOUS
10
103.012
20
-81.1892
11
103.09
21
-81.2493
0
LINE
8
BLACK
6
CONTINUOUS
10
103.09
20
-81.2493
11
103.172
21
-81.3031
0
LINE
8
BLACK
6
CONTINUOUS
10
103.172
20
-81.3031
11
103.259
21
-81.35
0
LINE
8
BLACK
6
CONTINUOUS
10
103.259
20
-81.35
11
103.349
21
-81.3899
0
LINE
8
BLACK
6
CONTINUOUS
10
103.349
20
-81.3899
11
103.442
21
-81.4224
0
LINE
8
BLACK
6
CONTINUOUS
10
103.442
20
-81.4224
11
103.537
21
-81.4474
0
LINE
8
BLACK
6
CONTINUOUS
10
103.537
20
-81.4474
11
103.634
21
-81.4647
0
LINE
8
BLACK
6
CONTINUOUS
10
103.634
20
-81.4647
11
103.732
21
-81.4741
0
LINE
8
BLACK
6
CONTINUOUS
10
103.732
20
-81.4741
11
103.83
21
-81.4756
0
LINE
8
BLACK
6
CONTINUOUS
10
103.83
20
-81.4756
11
103.928
21
-81.4693
0
LINE
8
BLACK
6
CONTINUOUS
10
103.928
20
-81.4693
11
104.026
21
-81.4551
0
LINE
8
BLACK
6
CONTINUOUS
10
104.026
20
-81.4551
11
104.121
21
-81.4331
0
LINE
8
BLACK
6
CONTINUOUS
10
104.121
20
-81.4331
11
104.215
21
-81.4035
0
LINE
8
BLACK
6
CONTINUOUS
10
104.215
20
-81.4035
11
104.306
21
-81.3665
0
LINE
8
BLACK
6
CONTINUOUS
10
104.306
20
-81.3665
11
104.394
21
-81.3223
0
LINE
8
BLACK
6
CONTINUOUS
10
104.394
20
-81.3223
11
104.478
21
-81.2712
0
LINE
8
BLACK
6
CONTINUOUS
10
104.478
20
-81.2712
11
104.558
21
-81.2135
0
LINE
8
BLACK
6
CONTINUOUS
10
104.558
20
-81.2135
11
104.633
21
-81.1495
0
LINE
8
BLACK
6
CONTINUOUS
10
104.633
20
-81.1495
11
104.702
21
-81.0798
0
LINE
8
BLACK
6
CONTINUOUS
10
104.702
20
-81.0798
11
104.766
21
-81.0048
0
LINE
8
BLACK
6
CONTINUOUS
10
104.766
20
-81.0048
11
104.824
21
-80.9249
0
LINE
8
BLACK
6
CONTINUOUS
10
104.824
20
-80.9249
11
104.874
21
-80.8406
0
LINE
8
BLACK
6
CONTINUOUS
10
104.874
20
-80.8406
11
104.918
21
-80.7526
0
LINE
8
BLACK
6
CONTINUOUS
10
104.918
20
-80.7526
11
104.955
21
-80.6613
0
LINE
8
BLACK
6
CONTINUOUS
10
104.955
20
-80.6613
11
104.984
21
-80.5673
0
LINE
8
BLACK
6
CONTINUOUS
10
104.984
20
-80.5673
11
105.006
21
-80.4713
0
LINE
8
BLACK
6
CONTINUOUS
10
105.006
20
-80.4713
11
105.02
21
-80.3739
0
LINE
8
BLACK
6
CONTINUOUS
10
105.02
20
-80.3739
11
105.026
21
-80.2757
0
LINE
8
BLACK
6
CONTINUOUS
10
105.026
20
-80.2757
11
105.026
21
-80.25
0
LINE
8
BLACK
6
CONTINUOUS
10
105.026
20
-80.25
11
105.022
21
-80.1517
0
LINE
8
BLACK
6
CONTINUOUS
10
105.022
20
-80.1517
11
105.01
21
-80.054
0
LINE
8
BLACK
6
CONTINUOUS
10
105.01
20
-80.054
11
104.991
21
-79.9576
0
LINE
8
BLACK
6
CONTINUOUS
10
104.991
20
-79.9576
11
104.963
21
-79.863
0
LINE
8
BLACK
6
CONTINUOUS
10
104.963
20
-79.863
11
104.929
21
-79.771
0
LINE
8
BLACK
6
CONTINUOUS
10
104.929
20
-79.771
11
104.886
21
-79.682
0
LINE
8
BLACK
6
CONTINUOUS
10
104.886
20
-79.682
11
104.837
21
-79.5967
0
LINE
8
BLACK
6
CONTINUOUS
10
104.837
20
-79.5967
11
104.782
21
-79.5156
0
LINE
8
BLACK
6
CONTINUOUS
10
104.782
20
-79.5156
11
104.72
21
-79.4392
0
LINE
8
BLACK
6
CONTINUOUS
10
104.72
20
-79.4392
11
104.652
21
-79.3681
0
LINE
8
BLACK
6
CONTINUOUS
10
104.652
20
-79.3681
11
104.578
21
-79.3026
0
LINE
8
BLACK
6
CONTINUOUS
10
104.578
20
-79.3026
11
104.5
21
-79.2433
0
LINE
8
BLACK
6
CONTINUOUS
10
104.5
20
-79.2433
11
104.417
21
-79.1904
0
LINE
8
BLACK
6
CONTINUOUS
10
104.417
20
-79.1904
11
104.33
21
-79.1444
0
LINE
8
BLACK
6
CONTINUOUS
10
104.33
20
-79.1444
11
104.239
21
-79.1054
0
LINE
8
BLACK
6
CONTINUOUS
10
104.239
20
-79.1054
11
104.146
21
-79.0739
0
LINE
8
BLACK
6
CONTINUOUS
10
104.146
20
-79.0739
11
104.051
21
-79.0499
0
LINE
8
BLACK
6
CONTINUOUS
10
104.051
20
-79.0499
11
103.954
21
-79.0337
0
LINE
8
BLACK
6
CONTINUOUS
10
103.954
20
-79.0337
11
103.856
21
-79.0253
0
LINE
8
BLACK
6
CONTINUOUS
10
103.856
20
-79.0253
11
103.757
21
-79.0248
0
LINE
8
BLACK
6
CONTINUOUS
10
103.757
20
-79.0248
11
103.659
21
-79.0321
0
LINE
8
BLACK
6
CONTINUOUS
10
103.659
20
-79.0321
11
103.562
21
-79.0474
0
LINE
8
BLACK
6
CONTINUOUS
10
103.562
20
-79.0474
11
103.466
21
-79.0703
0
LINE
8
BLACK
6
CONTINUOUS
10
103.466
20
-79.0703
11
103.373
21
-79.1009
0
LINE
8
BLACK
6
CONTINUOUS
10
103.373
20
-79.1009
11
103.282
21
-79.1389
0
LINE
8
BLACK
6
CONTINUOUS
10
103.282
20
-79.1389
11
103.194
21
-79.184
0
LINE
8
BLACK
6
CONTINUOUS
10
103.194
20
-79.184
11
103.111
21
-79.236
0
LINE
8
BLACK
6
CONTINUOUS
10
103.111
20
-79.236
11
103.032
21
-79.2945
0
LINE
8
BLACK
6
CONTINUOUS
10
103.032
20
-79.2945
11
102.958
21
-79.3592
0
LINE
8
BLACK
6
CONTINUOUS
10
102.958
20
-79.3592
11
102.889
21
-79.4296
0
LINE
8
BLACK
6
CONTINUOUS
10
102.889
20
-79.4296
11
102.826
21
-79.5054
0
LINE
8
BLACK
6
CONTINUOUS
10
102.826
20
-79.5054
11
102.769
21
-79.5859
0
LINE
8
BLACK
6
CONTINUOUS
10
102.769
20
-79.5859
11
102.72
21
-79.6707
0
LINE
8
BLACK
6
CONTINUOUS
10
102.72
20
-79.6707
11
102.677
21
-79.7592
0
LINE
8
BLACK
6
CONTINUOUS
10
102.677
20
-79.7592
11
102.641
21
-79.8509
0
LINE
8
BLACK
6
CONTINUOUS
10
102.641
20
-79.8509
11
102.613
21
-79.9451
0
LINE
8
BLACK
6
CONTINUOUS
10
102.613
20
-79.9451
11
102.592
21
-80.0413
0
LINE
8
BLACK
6
CONTINUOUS
10
102.592
20
-80.0413
11
102.579
21
-80.1389
0
LINE
8
BLACK
6
CONTINUOUS
10
102.579
20
-80.1389
11
102.574
21
-80.2372
0
LINE
8
BLACK
6
CONTINUOUS
10
102.574
20
-80.2372
11
102.577
21
-80.3355
0
LINE
8
BLACK
6
CONTINUOUS
10
102.577
20
-80.3355
11
102.588
21
-80.4333
0
LINE
8
BLACK
6
CONTINUOUS
10
140.141
20
-65.3005
11
140.16
21
-65.2024
0
LINE
8
BLACK
6
CONTINUOUS
10
140.16
20
-65.2024
11
140.187
21
-65.106
0
LINE
8
BLACK
6
CONTINUOUS
10
140.187
20
-65.106
11
140.222
21
-65.0121
0
LINE
8
BLACK
6
CONTINUOUS
10
140.222
20
-65.0121
11
140.264
21
-64.9212
0
LINE
8
BLACK
6
CONTINUOUS
10
140.264
20
-64.9212
11
140.313
21
-64.8338
0
LINE
8
BLACK
6
CONTINUOUS
10
140.313
20
-64.8338
11
140.369
21
-64.7506
0
LINE
8
BLACK
6
CONTINUOUS
10
140.369
20
-64.7506
11
140.43
21
-64.672
0
LINE
8
BLACK
6
CONTINUOUS
10
140.43
20
-64.672
11
140.498
21
-64.5984
0
LINE
8
BLACK
6
CONTINUOUS
10
140.498
20
-64.5984
11
140.572
21
-64.5305
0
LINE
8
BLACK
6
CONTINUOUS
10
140.572
20
-64.5305
11
140.651
21
-64.4685
0
LINE
8
BLACK
6
CONTINUOUS
10
140.651
20
-64.4685
11
140.734
21
-64.4129
0
LINE
8
BLACK
6
CONTINUOUS
10
140.734
20
-64.4129
11
140.821
21
-64.364
0
LINE
8
BLACK
6
CONTINUOUS
10
140.821
20
-64.364
11
140.912
21
-64.3221
0
LINE
8
BLACK
6
CONTINUOUS
10
140.912
20
-64.3221
11
141.006
21
-64.2874
0
LINE
8
BLACK
6
CONTINUOUS
10
141.006
20
-64.2874
11
141.102
21
-64.2602
0
LINE
8
BLACK
6
CONTINUOUS
10
141.102
20
-64.2602
11
141.201
21
-64.2407
0
LINE
8
BLACK
6
CONTINUOUS
10
141.201
20
-64.2407
11
141.3
21
-64.2289
0
LINE
8
BLACK
6
CONTINUOUS
10
141.3
20
-64.2289
11
141.4
21
-64.225
0
LINE
8
BLACK
6
CONTINUOUS
10
141.4
20
-64.225
11
141.5
21
-64.2289
0
LINE
8
BLACK
6
CONTINUOUS
10
141.5
20
-64.2289
11
141.599
21
-64.2407
0
LINE
8
BLACK
6
CONTINUOUS
10
141.599
20
-64.2407
11
141.698
21
-64.2602
0
LINE
8
BLACK
6
CONTINUOUS
10
141.698
20
-64.2602
11
141.794
21
-64.2874
0
LINE
8
BLACK
6
CONTINUOUS
10
141.794
20
-64.2874
11
141.888
21
-64.3221
0
LINE
8
BLACK
6
CONTINUOUS
10
141.888
20
-64.3221
11
141.979
21
-64.364
0
LINE
8
BLACK
6
CONTINUOUS
10
141.979
20
-64.364
11
142.066
21
-64.4129
0
LINE
8
BLACK
6
CONTINUOUS
10
142.066
20
-64.4129
11
142.149
21
-64.4685
0
LINE
8
BLACK
6
CONTINUOUS
10
142.149
20
-64.4685
11
142.228
21
-64.5305
0
LINE
8
BLACK
6
CONTINUOUS
10
142.228
20
-64.5305
11
142.302
21
-64.5984
0
LINE
8
BLACK
6
CONTINUOUS
10
142.302
20
-64.5984
11
142.37
21
-64.672
0
LINE
8
BLACK
6
CONTINUOUS
10
142.37
20
-64.672
11
142.431
21
-64.7506
0
LINE
8
BLACK
6
CONTINUOUS
10
142.431
20
-64.7506
11
142.487
21
-64.8338
0
LINE
8
BLACK
6
CONTINUOUS
10
142.487
20
-64.8338
11
142.536
21
-64.9212
0
LINE
8
BLACK
6
CONTINUOUS
10
142.536
20
-64.9212
11
142.578
21
-65.0121
0
LINE
8
BLACK
6
CONTINUOUS
10
142.578
20
-65.0121
11
142.613
21
-65.106
0
LINE
8
BLACK
6
CONTINUOUS
10
142.613
20
-65.106
11
142.64
21
-65.2024
0
LINE
8
BLACK
6
CONTINUOUS
10
142.64
20
-65.2024
11
142.659
21
-65.3005
0
LINE
8
BLACK
6
CONTINUOUS
10
142.659
20
-65.3005
11
142.671
21
-65.4
0
LINE
8
BLACK
6
CONTINUOUS
10
142.671
20
-65.4
11
142.675
21
-65.5
0
LINE
8
BLACK
6
CONTINUOUS
10
142.675
20
-65.5
11
142.671
21
-65.6
0
LINE
8
BLACK
6
CONTINUOUS
10
142.671
20
-65.6
11
142.659
21
-65.6995
0
LINE
8
BLACK
6
CONTINUOUS
10
142.659
20
-65.6995
11
142.64
21
-65.7976
0
LINE
8
BLACK
6
CONTINUOUS
10
142.64
20
-65.7976
11
142.613
21
-65.894
0
LINE
8
BLACK
6
CONTINUOUS
10
142.613
20
-65.894
11
142.578
21
-65.9879
0
LINE
8
BLACK
6
CONTINUOUS
10
142.578
20
-65.9879
11
142.536
21
-66.0788
0
LINE
8
BLACK
6
CONTINUOUS
10
142.536
20
-66.0788
11
142.487
21
-66.1662
0
LINE
8
BLACK
6
CONTINUOUS
10
142.487
20
-66.1662
11
142.431
21
-66.2494
0
LINE
8
BLACK
6
CONTINUOUS
10
142.431
20
-66.2494
11
142.37
21
-66.328
0
LINE
8
BLACK
6
CONTINUOUS
10
142.37
20
-66.328
11
142.302
21
-66.4016
0
LINE
8
BLACK
6
CONTINUOUS
10
142.302
20
-66.4016
11
142.228
21
-66.4695
0
LINE
8
BLACK
6
CONTINUOUS
10
142.228
20
-66.4695
11
142.149
21
-66.5315
0
LINE
8
BLACK
6
CONTINUOUS
10
142.149
20
-66.5315
11
142.066
21
-66.5871
0
LINE
8
BLACK
6
CONTINUOUS
10
142.066
20
-66.5871
11
141.979
21
-66.636
0
LINE
8
BLACK
6
CONTINUOUS
10
141.979
20
-66.636
11
141.888
21
-66.6779
0
LINE
8
BLACK
6
CONTINUOUS
10
141.888
20
-66.6779
11
141.794
21
-66.7126
0
LINE
8
BLACK
6
CONTINUOUS
10
141.794
20
-66.7126
11
141.698
21
-66.7398
0
LINE
8
BLACK
6
CONTINUOUS
10
141.698
20
-66.7398
11
141.599
21
-66.7593
0
LINE
8
BLACK
6
CONTINUOUS
10
141.599
20
-66.7593
11
141.5
21
-66.7711
0
LINE
8
BLACK
6
CONTINUOUS
10
141.5
20
-66.7711
11
141.4
21
-66.775
0
LINE
8
BLACK
6
CONTINUOUS
10
141.4
20
-66.775
11
141.3
21
-66.7711
0
LINE
8
BLACK
6
CONTINUOUS
10
141.3
20
-66.7711
11
141.201
21
-66.7593
0
LINE
8
BLACK
6
CONTINUOUS
10
141.201
20
-66.7593
11
141.102
21
-66.7398
0
LINE
8
BLACK
6
CONTINUOUS
10
141.102
20
-66.7398
11
141.006
21
-66.7126
0
LINE
8
BLACK
6
CONTINUOUS
10
141.006
20
-66.7126
11
140.912
21
-66.6779
0
LINE
8
BLACK
6
CONTINUOUS
10
140.912
20
-66.6779
11
140.821
21
-66.636
0
LINE
8
BLACK
6
CONTINUOUS
10
140.821
20
-66.636
11
140.734
21
-66.5871
0
LINE
8
BLACK
6
CONTINUOUS
10
140.734
20
-66.5871
11
140.651
21
-66.5315
0
LINE
8
BLACK
6
CONTINUOUS
10
140.651
20
-66.5315
11
140.572
21
-66.4695
0
LINE
8
BLACK
6
CONTINUOUS
10
140.572
20
-66.4695
11
140.498
21
-66.4016
0
LINE
8
BLACK
6
CONTINUOUS
10
140.498
20
-66.4016
11
140.43
21
-66.328
0
LINE
8
BLACK
6
CONTINUOUS
10
140.43
20
-66.328
11
140.369
21
-66.2494
0
LINE
8
BLACK
6
CONTINUOUS
10
140.369
20
-66.2494
11
140.313
21
-66.1662
0
LINE
8
BLACK
6
CONTINUOUS
10
140.313
20
-66.1662
11
140.264
21
-66.0788
0
LINE
8
BLACK
6
CONTINUOUS
10
140.264
20
-66.0788
11
140.222
21
-65.9879
0
LINE
8
BLACK
6
CONTINUOUS
10
140.222
20
-65.9879
11
140.187
21
-65.894
0
LINE
8
BLACK
6
CONTINUOUS
10
140.187
20
-65.894
11
140.16
21
-65.7976
0
LINE
8
BLACK
6
CONTINUOUS
10
140.16
20
-65.7976
11
140.141
21
-65.6995
0
LINE
8
BLACK
6
CONTINUOUS
10
140.141
20
-65.6995
11
140.129
21
-65.6
0
LINE
8
BLACK
6
CONTINUOUS
10
140.129
20
-65.6
11
140.125
21
-65.5
0
LINE
8
BLACK
6
CONTINUOUS
10
140.125
20
-65.5
11
140.126
21
-65.4872
0
LINE
8
BLACK
6
CONTINUOUS
10
140.126
20
-65.4872
11
140.129
21
-65.4
0
LINE
8
BLACK
6
CONTINUOUS
10
140.129
20
-65.4
11
140.141
21
-65.3005
0
LINE
8
BLACK
6
CONTINUOUS
10
140.188
20
-65.6833
11
140.206
21
-65.78
0
LINE
8
BLACK
6
CONTINUOUS
10
140.206
20
-65.78
11
140.233
21
-65.8748
0
LINE
8
BLACK
6
CONTINUOUS
10
140.233
20
-65.8748
11
140.267
21
-65.9672
0
LINE
8
BLACK
6
CONTINUOUS
10
140.267
20
-65.9672
11
140.308
21
-66.0566
0
LINE
8
BLACK
6
CONTINUOUS
10
140.308
20
-66.0566
11
140.356
21
-66.1424
0
LINE
8
BLACK
6
CONTINUOUS
10
140.356
20
-66.1424
11
140.411
21
-66.2241
0
LINE
8
BLACK
6
CONTINUOUS
10
140.411
20
-66.2241
11
140.472
21
-66.3011
0
LINE
8
BLACK
6
CONTINUOUS
10
140.472
20
-66.3011
11
140.539
21
-66.3729
0
LINE
8
BLACK
6
CONTINUOUS
10
140.539
20
-66.3729
11
140.612
21
-66.4392
0
LINE
8
BLACK
6
CONTINUOUS
10
140.612
20
-66.4392
11
140.69
21
-66.4993
0
LINE
8
BLACK
6
CONTINUOUS
10
140.69
20
-66.4993
11
140.772
21
-66.5531
0
LINE
8
BLACK
6
CONTINUOUS
10
140.772
20
-66.5531
11
140.859
21
-66.6
0
LINE
8
BLACK
6
CONTINUOUS
10
140.859
20
-66.6
11
140.949
21
-66.6399
0
LINE
8
BLACK
6
CONTINUOUS
10
140.949
20
-66.6399
11
141.042
21
-66.6724
0
LINE
8
BLACK
6
CONTINUOUS
10
141.042
20
-66.6724
11
141.137
21
-66.6974
0
LINE
8
BLACK
6
CONTINUOUS
10
141.137
20
-66.6974
11
141.234
21
-66.7147
0
LINE
8
BLACK
6
CONTINUOUS
10
141.234
20
-66.7147
11
141.332
21
-66.7241
0
LINE
8
BLACK
6
CONTINUOUS
10
141.332
20
-66.7241
11
141.43
21
-66.7256
0
LINE
8
BLACK
6
CONTINUOUS
10
141.43
20
-66.7256
11
141.528
21
-66.7193
0
LINE
8
BLACK
6
CONTINUOUS
10
141.528
20
-66.7193
11
141.626
21
-66.7051
0
LINE
8
BLACK
6
CONTINUOUS
10
141.626
20
-66.7051
11
141.721
21
-66.6831
0
LINE
8
BLACK
6
CONTINUOUS
10
141.721
20
-66.6831
11
141.815
21
-66.6535
0
LINE
8
BLACK
6
CONTINUOUS
10
141.815
20
-66.6535
11
141.906
21
-66.6165
0
LINE
8
BLACK
6
CONTINUOUS
10
141.906
20
-66.6165
11
141.994
21
-66.5723
0
LINE
8
BLACK
6
CONTINUOUS
10
141.994
20
-66.5723
11
142.078
21
-66.5212
0
LINE
8
BLACK
6
CONTINUOUS
10
142.078
20
-66.5212
11
142.158
21
-66.4635
0
LINE
8
BLACK
6
CONTINUOUS
10
142.158
20
-66.4635
11
142.233
21
-66.3995
0
LINE
8
BLACK
6
CONTINUOUS
10
142.233
20
-66.3995
11
142.302
21
-66.3298
0
LINE
8
BLACK
6
CONTINUOUS
10
142.302
20
-66.3298
11
142.366
21
-66.2548
0
LINE
8
BLACK
6
CONTINUOUS
10
142.366
20
-66.2548
11
142.424
21
-66.1749
0
LINE
8
BLACK
6
CONTINUOUS
10
142.424
20
-66.1749
11
142.474
21
-66.0906
0
LINE
8
BLACK
6
CONTINUOUS
10
142.474
20
-66.0906
11
142.518
21
-66.0026
0
LINE
8
BLACK
6
CONTINUOUS
10
142.518
20
-66.0026
11
142.555
21
-65.9113
0
LINE
8
BLACK
6
CONTINUOUS
10
142.555
20
-65.9113
11
142.584
21
-65.8173
0
LINE
8
BLACK
6
CONTINUOUS
10
142.584
20
-65.8173
11
142.606
21
-65.7213
0
LINE
8
BLACK
6
CONTINUOUS
10
142.606
20
-65.7213
11
142.62
21
-65.6239
0
LINE
8
BLACK
6
CONTINUOUS
10
142.62
20
-65.6239
11
142.626
21
-65.5257
0
LINE
8
BLACK
6
CONTINUOUS
10
142.626
20
-65.5257
11
142.626
21
-65.5
0
LINE
8
BLACK
6
CONTINUOUS
10
142.626
20
-65.5
11
142.622
21
-65.4017
0
LINE
8
BLACK
6
CONTINUOUS
10
142.622
20
-65.4017
11
142.61
21
-65.304
0
LINE
8
BLACK
6
CONTINUOUS
10
142.61
20
-65.304
11
142.591
21
-65.2076
0
LINE
8
BLACK
6
CONTINUOUS
10
142.591
20
-65.2076
11
142.563
21
-65.113
0
LINE
8
BLACK
6
CONTINUOUS
10
142.563
20
-65.113
11
142.529
21
-65.021
0
LINE
8
BLACK
6
CONTINUOUS
10
142.529
20
-65.021
11
142.486
21
-64.932
0
LINE
8
BLACK
6
CONTINUOUS
10
142.486
20
-64.932
11
142.437
21
-64.8467
0
LINE
8
BLACK
6
CONTINUOUS
10
142.437
20
-64.8467
11
142.382
21
-64.7656
0
LINE
8
BLACK
6
CONTINUOUS
10
142.382
20
-64.7656
11
142.32
21
-64.6892
0
LINE
8
BLACK
6
CONTINUOUS
10
142.32
20
-64.6892
11
142.252
21
-64.6181
0
LINE
8
BLACK
6
CONTINUOUS
10
142.252
20
-64.6181
11
142.178
21
-64.5526
0
LINE
8
BLACK
6
CONTINUOUS
10
142.178
20
-64.5526
11
142.1
21
-64.4933
0
LINE
8
BLACK
6
CONTINUOUS
10
142.1
20
-64.4933
11
142.017
21
-64.4404
0
LINE
8
BLACK
6
CONTINUOUS
10
142.017
20
-64.4404
11
141.93
21
-64.3944
0
LINE
8
BLACK
6
CONTINUOUS
10
141.93
20
-64.3944
11
141.839
21
-64.3554
0
LINE
8
BLACK
6
CONTINUOUS
10
141.839
20
-64.3554
11
141.746
21
-64.3239
0
LINE
8
BLACK
6
CONTINUOUS
10
141.746
20
-64.3239
11
141.651
21
-64.2999
0
LINE
8
BLACK
6
CONTINUOUS
10
141.651
20
-64.2999
11
141.554
21
-64.2837
0
LINE
8
BLACK
6
CONTINUOUS
10
141.554
20
-64.2837
11
141.456
21
-64.2753
0
LINE
8
BLACK
6
CONTINUOUS
10
141.456
20
-64.2753
11
141.357
21
-64.2748
0
LINE
8
BLACK
6
CONTINUOUS
10
141.357
20
-64.2748
11
141.259
21
-64.2821
0
LINE
8
BLACK
6
CONTINUOUS
10
141.259
20
-64.2821
11
141.162
21
-64.2974
0
LINE
8
BLACK
6
CONTINUOUS
10
141.162
20
-64.2974
11
141.066
21
-64.3203
0
LINE
8
BLACK
6
CONTINUOUS
10
141.066
20
-64.3203
11
140.973
21
-64.3509
0
LINE
8
BLACK
6
CONTINUOUS
10
140.973
20
-64.3509
11
140.882
21
-64.3889
0
LINE
8
BLACK
6
CONTINUOUS
10
140.882
20
-64.3889
11
140.794
21
-64.434
0
LINE
8
BLACK
6
CONTINUOUS
10
140.794
20
-64.434
11
140.711
21
-64.486
0
LINE
8
BLACK
6
CONTINUOUS
10
140.711
20
-64.486
11
140.632
21
-64.5445
0
LINE
8
BLACK
6
CONTINUOUS
10
140.632
20
-64.5445
11
140.558
21
-64.6092
0
LINE
8
BLACK
6
CONTINUOUS
10
140.558
20
-64.6092
11
140.489
21
-64.6796
0
LINE
8
BLACK
6
CONTINUOUS
10
140.489
20
-64.6796
11
140.426
21
-64.7554
0
LINE
8
BLACK
6
CONTINUOUS
10
140.426
20
-64.7554
11
140.369
21
-64.8359
0
LINE
8
BLACK
6
CONTINUOUS
10
140.369
20
-64.8359
11
140.32
21
-64.9207
0
LINE
8
BLACK
6
CONTINUOUS
10
140.32
20
-64.9207
11
140.277
21
-65.0092
0
LINE
8
BLACK
6
CONTINUOUS
10
140.277
20
-65.0092
11
140.241
21
-65.1009
0
LINE
8
BLACK
6
CONTINUOUS
10
140.241
20
-65.1009
11
140.213
21
-65.1951
0
LINE
8
BLACK
6
CONTINUOUS
10
140.213
20
-65.1951
11
140.192
21
-65.2913
0
LINE
8
BLACK
6
CONTINUOUS
10
140.192
20
-65.2913
11
140.179
21
-65.3889
0
LINE
8
BLACK
6
CONTINUOUS
10
140.179
20
-65.3889
11
140.174
21
-65.4872
0
LINE
8
BLACK
6
CONTINUOUS
10
140.174
20
-65.4872
11
140.177
21
-65.5855
0
LINE
8
BLACK
6
CONTINUOUS
10
140.177
20
-65.5855
11
140.188
21
-65.6833
  0
ENDSEC
  0
EOF
