M48
; DRILL file {KiCad (6.0.11)} date Thu 23 Feb 2023 02:16:31 PM AEDT
; FORMAT={-:-/ absolute / metric / decimal}
; #@! TF.CreationDate,2023-02-23T14:16:31+11:00
; #@! TF.GenerationSoftware,Kicad,Pcbnew,(6.0.11)
; #@! TF.FileFunction,MixedPlating,1,4
FMAT,2
METRIC
; #@! TA.AperFunction,Plated,PTH,ViaDrill
T1C0.200
; #@! TA.AperFunction,Plated,PTH,ViaDrill
T2C0.254
; #@! TA.AperFunction,Plated,PTH,ViaDrill
T3C0.300
; #@! TA.AperFunction,Plated,PTH,ComponentDrill
T4C0.600
; #@! TA.AperFunction,Plated,PTH,ComponentDrill
T5C1.000
; #@! TA.AperFunction,NonPlated,NPTH,ComponentDrill
T6C0.600
%
G90
G05
T1
X91.5Y-58.0
X91.5Y-60.0
X91.5Y-62.0
X91.5Y-63.9
X91.5Y-65.95
X91.5Y-72.0
X91.5Y-74.0
X91.5Y-76.0
X91.5Y-78.0
X91.5Y-80.0
X91.5Y-82.0
X91.5Y-84.0
X91.5Y-86.0
X91.5Y-88.0
X91.5Y-90.0
X92.5Y-56.5
X92.5Y-91.0
X92.9Y-67.55
X92.914Y-69.536
X94.5Y-56.5
X94.5Y-91.0
X96.5Y-56.5
X96.5Y-91.0
X97.75Y-68.9
X97.75Y-70.95
X98.5Y-56.5
X98.5Y-91.0
X100.5Y-56.5
X100.5Y-91.0
X102.5Y-91.0
X104.5Y-91.0
X106.5Y-56.5
X106.5Y-91.0
X108.5Y-56.5
X108.5Y-91.0
X110.5Y-56.5
X110.5Y-91.0
X112.5Y-91.0
X114.5Y-91.0
X116.5Y-56.5
X116.5Y-91.0
X118.5Y-56.5
X118.5Y-91.0
X120.5Y-56.5
X120.5Y-72.6
X120.5Y-91.0
X120.664Y-77.186
X120.68Y-74.4
X120.7Y-76.132
X121.1Y-78.2
X121.15Y-70.825
X121.15Y-71.65
X121.675Y-70.15
X121.9Y-78.2
X122.41Y-73.067
X122.41Y-74.2
X122.42Y-76.797
X122.5Y-75.897
X122.5Y-91.0
X122.6Y-70.05
X122.8Y-77.6
X122.9Y-74.8
X123.04Y-73.542
X123.375Y-76.962
X123.6Y-70.05
X123.75Y-73.75
X123.75Y-75.0
X123.75Y-76.25
X123.95Y-77.6
X123.993Y-79.3
X124.0Y-72.4
X124.5Y-56.5
X124.5Y-72.85
X124.5Y-91.0
X124.5Y-91.0
X124.625Y-77.0
X124.906Y-79.55
X125.0Y-70.15
X125.0Y-73.75
X125.0Y-75.0
X125.0Y-76.25
X125.4Y-79.95
X125.5Y-72.8
X125.55Y-70.65
X125.55Y-77.6
X125.875Y-79.325
X126.1Y-70.05
X126.25Y-73.75
X126.25Y-75.0
X126.25Y-76.25
X126.35Y-79.952
X126.5Y-56.5
X126.5Y-91.0
X126.5Y-91.0
X126.5Y-91.0
X126.65Y-72.8
X126.8Y-70.65
X126.825Y-79.322
X127.3Y-79.95
X127.4Y-73.632
X127.7Y-70.65
X128.5Y-56.5
X128.5Y-91.0
X128.5Y-91.0
X128.5Y-91.0
X128.5Y-91.0
X128.525Y-70.8
X129.3Y-78.85
X129.35Y-74.6
X130.5Y-91.0
X130.5Y-91.0
X130.5Y-91.0
X130.5Y-91.0
X132.5Y-91.0
X132.5Y-91.0
X132.5Y-91.0
X134.1Y-77.79
X134.1Y-79.232
X134.5Y-56.5
X134.5Y-91.0
X134.5Y-91.0
X136.0Y-79.0
X136.5Y-56.5
X136.5Y-75.25
X136.5Y-91.0
X137.0Y-79.0
X138.5Y-56.5
X138.5Y-91.0
X140.5Y-91.0
X142.5Y-91.0
X144.5Y-56.5
X144.5Y-91.0
X146.1Y-61.25
X146.1Y-62.75
X146.5Y-91.0
X147.35Y-62.75
X148.45Y-62.75
X148.5Y-91.0
X149.5Y-56.5
X149.925Y-60.25
X150.5Y-91.0
X151.5Y-56.5
X152.5Y-91.0
X153.43Y-60.25
X153.5Y-56.5
X154.5Y-91.0
X154.8Y-62.75
X155.9Y-62.75
X156.0Y-90.7
X157.0Y-89.7
X157.5Y-58.0
X157.5Y-60.0
X157.5Y-62.0
X157.5Y-64.0
X157.5Y-66.0
X157.5Y-68.0
X157.5Y-70.0
X157.5Y-72.0
X157.5Y-74.0
X157.5Y-76.0
X157.5Y-78.0
X157.5Y-80.0
X157.5Y-82.0
X157.5Y-84.0
X157.5Y-86.0
X157.5Y-88.0
T2
X95.9Y-62.1
X98.45Y-62.1
X100.95Y-62.1
X103.45Y-62.1
X106.05Y-62.1
X108.6Y-62.1
X111.5Y-66.5
X112.7Y-86.65
X112.7Y-88.6
X113.5Y-66.5
X113.7Y-62.1
X116.2Y-62.1
X118.75Y-62.1
X123.25Y-63.05
X123.85Y-62.1
X126.4Y-62.1
X128.9Y-62.1
X134.05Y-62.1
X136.55Y-62.1
X139.1Y-62.1
X149.0Y-58.25
X149.0Y-59.25
X150.0Y-58.25
X150.0Y-59.25
X151.0Y-58.25
X151.0Y-59.25
X152.0Y-58.25
X152.0Y-59.25
X153.0Y-58.25
X153.0Y-59.25
X155.175Y-87.375
T3
X115.85Y-78.55
X115.85Y-80.55
X116.15Y-73.325
X116.225Y-74.95
X116.35Y-69.7
X121.2Y-66.1
X121.35Y-83.782
X123.3Y-66.1
X123.35Y-83.782
X125.55Y-83.782
X125.7Y-66.1
X127.5Y-66.1
X127.75Y-83.782
X129.55Y-66.1
X130.25Y-82.1
X132.7Y-69.8
X144.725Y-69.725
X146.975Y-64.25
X147.975Y-85.55
X152.1Y-88.4
X155.65Y-86.1
X155.675Y-66.65
X155.675Y-69.325
X156.45Y-64.0
T5
X93.3Y-78.1
X93.3Y-81.1
X94.64Y-57.725
X94.64Y-60.265
X97.18Y-57.725
X97.18Y-60.265
X98.3Y-78.1
X98.3Y-81.05
X99.72Y-57.725
X99.72Y-60.265
X101.4Y-70.3
X101.4Y-75.3
X101.4Y-83.9
X101.4Y-88.9
X102.26Y-57.725
X102.26Y-60.265
X104.35Y-70.3
X104.35Y-83.9
X104.4Y-75.3
X104.4Y-88.9
X104.8Y-57.725
X104.8Y-60.265
X106.7Y-78.1
X106.7Y-81.1
X107.34Y-57.725
X107.34Y-60.265
X109.88Y-57.725
X109.88Y-60.265
X111.7Y-78.1
X111.7Y-81.05
X112.42Y-57.725
X112.42Y-60.265
X114.96Y-57.725
X114.96Y-60.265
X117.3Y-86.35
X117.3Y-89.3
X117.5Y-57.725
X117.5Y-60.265
X120.04Y-57.725
X120.04Y-60.265
X122.3Y-86.3
X122.3Y-89.3
X122.58Y-57.725
X122.58Y-60.265
X125.12Y-57.725
X125.12Y-60.265
X127.66Y-57.725
X127.66Y-60.265
X129.46Y-86.35
X129.46Y-89.3
X130.2Y-57.725
X130.2Y-60.265
X132.74Y-57.725
X132.74Y-60.265
X134.46Y-86.3
X134.46Y-89.3
X135.28Y-57.725
X135.28Y-60.265
X137.82Y-57.725
X137.82Y-60.265
X139.45Y-78.15
X139.45Y-81.1
X140.36Y-57.725
X140.36Y-60.265
X142.9Y-57.725
X142.9Y-60.265
X144.45Y-78.1
X144.45Y-81.1
X150.5Y-78.15
X150.5Y-81.1
X155.5Y-78.1
X155.5Y-81.1
T6
X148.735Y-60.75
X154.515Y-60.75
T4
G00X147.305Y-56.66
M15
G01X147.305Y-57.46
M16
G05
G00X147.305Y-60.68
M15
G01X147.305Y-61.78
M16
G05
G00X155.945Y-56.66
M15
G01X155.945Y-57.46
M16
G05
G00X155.945Y-60.68
M15
G01X155.945Y-61.78
M16
G05
T0
M30
