  0
SECTION
  2
HEADER
  9
$ANGBASE
  50
0.0
  9
$ANGDIR
  70
1
  9
$MEASUREMENT
  70
1
  0
ENDSEC
  0
SECTION
  2
TABLES
  0
TABLE
  2
LTYPE
  70
4
  0
LTYPE
  5
40F
  2
CONTINUOUS
  70
0
  3
Solid line
  72
65
  73
0
  40
0.0
  0
LTYPE
  5
410
  2
DASHDOT
 70
0
  3
Dash Dot ____ _ ____ _
 72
65
 73
4
 40
2.0
 49
1.25
 49
-0.25
 49
0.25
 49
-0.25
  0
LTYPE
  5
411
  2
DASHED
 70
0
  3
Dashed __ __ __ __ __
 72
65
 73
2
 40
0.75
 49
0.5
 49
-0.25
  0
LTYPE
  5
43B
  2
DOTTED
 70
0
  3
Dotted .  .  .  .
 72
65
 73
2
 40
0.2
 49
0.0
 49
-0.2
  0
ENDTAB
  0
TABLE
  2
STYLE
  70
4
  0
STYLE
  2
KICAD
  70
0
  40
0
  41
1
  42
1
  50
0
  71
0
  3
isocp.shx
  0
STYLE
  2
KICADB
  70
0
  40
0
  41
1
  42
1
  50
0
  71
0
  3
isocp.shx
  0
STYLE
  2
KICADI
  70
0
  40
0
  41
1
  42
1
  50
15
  71
0
  3
isocp.shx
  0
STYLE
  2
KICADBI
  70
0
  40
0
  41
1
  42
1
  50
15
  71
0
  3
isocp.shx
  0
ENDTAB
  0
TABLE
  2
LAYER
  70
1
  0
LAYER
  2
BLACK
  70
0
  62
7
  6
CONTINUOUS
  0
ENDTAB
  0
ENDSEC
  0
SECTION
  2
ENTITIES
0
LINE
8
BLACK
6
CONTINUOUS
10
119.586
20
-65.6566
11
119.61
21
-65.6703
0
LINE
8
BLACK
6
CONTINUOUS
10
119.61
20
-65.6703
11
119.63
21
-65.6905
0
LINE
8
BLACK
6
CONTINUOUS
10
119.63
20
-65.6905
11
119.644
21
-65.7155
0
LINE
8
BLACK
6
CONTINUOUS
10
119.644
20
-65.7155
11
119.65
21
-65.7432
0
LINE
8
BLACK
6
CONTINUOUS
10
119.65
20
-65.7432
11
119.648
21
-65.7715
0
LINE
8
BLACK
6
CONTINUOUS
10
119.648
20
-65.7715
11
119.638
21
-65.798
0
LINE
8
BLACK
6
CONTINUOUS
10
119.638
20
-65.798
11
119.621
21
-65.8207
0
LINE
8
BLACK
6
CONTINUOUS
10
119.621
20
-65.8207
11
115.771
21
-69.6707
0
LINE
8
BLACK
6
CONTINUOUS
10
115.771
20
-69.6707
11
115.77
21
-69.6716
0
LINE
8
BLACK
6
CONTINUOUS
10
115.77
20
-69.6716
11
115.747
21
-69.6883
0
LINE
8
BLACK
6
CONTINUOUS
10
115.747
20
-69.6883
11
115.72
21
-69.6979
0
LINE
8
BLACK
6
CONTINUOUS
10
115.72
20
-69.6979
11
115.692
21
-69.6997
0
LINE
8
BLACK
6
CONTINUOUS
10
115.692
20
-69.6997
11
115.664
21
-69.6934
0
LINE
8
BLACK
6
CONTINUOUS
10
115.664
20
-69.6934
11
115.64
21
-69.6797
0
LINE
8
BLACK
6
CONTINUOUS
10
115.64
20
-69.6797
11
115.62
21
-69.6595
0
LINE
8
BLACK
6
CONTINUOUS
10
115.62
20
-69.6595
11
115.606
21
-69.6345
0
LINE
8
BLACK
6
CONTINUOUS
10
115.606
20
-69.6345
11
115.6
21
-69.6068
0
LINE
8
BLACK
6
CONTINUOUS
10
115.6
20
-69.6068
11
115.602
21
-69.5785
0
LINE
8
BLACK
6
CONTINUOUS
10
115.602
20
-69.5785
11
115.612
21
-69.552
0
LINE
8
BLACK
6
CONTINUOUS
10
115.612
20
-69.552
11
115.629
21
-69.5293
0
LINE
8
BLACK
6
CONTINUOUS
10
115.629
20
-69.5293
11
119.479
21
-65.6793
0
LINE
8
BLACK
6
CONTINUOUS
10
119.479
20
-65.6793
11
119.48
21
-65.6784
0
LINE
8
BLACK
6
CONTINUOUS
10
119.48
20
-65.6784
11
119.503
21
-65.6617
0
LINE
8
BLACK
6
CONTINUOUS
10
119.503
20
-65.6617
11
119.53
21
-65.6521
0
LINE
8
BLACK
6
CONTINUOUS
10
119.53
20
-65.6521
11
119.558
21
-65.6503
0
LINE
8
BLACK
6
CONTINUOUS
10
119.558
20
-65.6503
11
119.586
21
-65.6566
0
LINE
8
BLACK
6
CONTINUOUS
10
129.571
20
-61.9523
11
129.598
21
-61.9623
0
LINE
8
BLACK
6
CONTINUOUS
10
129.598
20
-61.9623
11
129.621
21
-61.9793
0
LINE
8
BLACK
6
CONTINUOUS
10
129.621
20
-61.9793
11
133.871
21
-66.2293
0
LINE
8
BLACK
6
CONTINUOUS
10
133.871
20
-66.2293
11
133.872
21
-66.2302
0
LINE
8
BLACK
6
CONTINUOUS
10
133.872
20
-66.2302
11
133.888
21
-66.2531
0
LINE
8
BLACK
6
CONTINUOUS
10
133.888
20
-66.2531
11
133.898
21
-66.2797
0
LINE
8
BLACK
6
CONTINUOUS
10
133.898
20
-66.2797
11
133.9
21
-66.308
0
LINE
8
BLACK
6
CONTINUOUS
10
133.9
20
-66.308
11
133.893
21
-66.3357
0
LINE
8
BLACK
6
CONTINUOUS
10
133.893
20
-66.3357
11
133.88
21
-66.3605
0
LINE
8
BLACK
6
CONTINUOUS
10
133.88
20
-66.3605
11
133.859
21
-66.3804
0
LINE
8
BLACK
6
CONTINUOUS
10
133.859
20
-66.3804
11
133.835
21
-66.3939
0
LINE
8
BLACK
6
CONTINUOUS
10
133.835
20
-66.3939
11
133.807
21
-66.3998
0
LINE
8
BLACK
6
CONTINUOUS
10
133.807
20
-66.3998
11
133.779
21
-66.3977
0
LINE
8
BLACK
6
CONTINUOUS
10
133.779
20
-66.3977
11
133.752
21
-66.3877
0
LINE
8
BLACK
6
CONTINUOUS
10
133.752
20
-66.3877
11
133.729
21
-66.3707
0
LINE
8
BLACK
6
CONTINUOUS
10
133.729
20
-66.3707
11
129.479
21
-62.1207
0
LINE
8
BLACK
6
CONTINUOUS
10
129.479
20
-62.1207
11
129.478
21
-62.1198
0
LINE
8
BLACK
6
CONTINUOUS
10
129.478
20
-62.1198
11
129.462
21
-62.0969
0
LINE
8
BLACK
6
CONTINUOUS
10
129.462
20
-62.0969
11
129.452
21
-62.0703
0
LINE
8
BLACK
6
CONTINUOUS
10
129.452
20
-62.0703
11
129.45
21
-62.042
0
LINE
8
BLACK
6
CONTINUOUS
10
129.45
20
-62.042
11
129.457
21
-62.0143
0
LINE
8
BLACK
6
CONTINUOUS
10
129.457
20
-62.0143
11
129.47
21
-61.9895
0
LINE
8
BLACK
6
CONTINUOUS
10
129.47
20
-61.9895
11
129.491
21
-61.9696
0
LINE
8
BLACK
6
CONTINUOUS
10
129.491
20
-61.9696
11
129.515
21
-61.9562
0
LINE
8
BLACK
6
CONTINUOUS
10
129.515
20
-61.9562
11
129.543
21
-61.9502
0
LINE
8
BLACK
6
CONTINUOUS
10
129.543
20
-61.9502
11
129.571
21
-61.9523
0
LINE
8
BLACK
6
CONTINUOUS
10
154.11
20
-55.5814
11
154.111
21
-55.5814
0
LINE
8
BLACK
6
CONTINUOUS
10
154.111
20
-55.5814
11
154.112
21
-55.5817
0
LINE
8
BLACK
6
CONTINUOUS
10
154.112
20
-55.5817
11
154.114
21
-55.5818
0
LINE
8
BLACK
6
CONTINUOUS
10
154.114
20
-55.5818
11
154.124
21
-55.5854
0
LINE
8
BLACK
6
CONTINUOUS
10
154.124
20
-55.5854
11
154.135
21
-55.5886
0
LINE
8
BLACK
6
CONTINUOUS
10
154.135
20
-55.5886
11
154.151
21
-55.5969
0
LINE
8
BLACK
6
CONTINUOUS
10
154.151
20
-55.5969
11
154.167
21
-55.5869
0
LINE
8
BLACK
6
CONTINUOUS
10
154.167
20
-55.5869
11
154.191
21
-55.5809
0
LINE
8
BLACK
6
CONTINUOUS
10
154.191
20
-55.5809
11
154.215
21
-55.5831
0
LINE
8
BLACK
6
CONTINUOUS
10
154.215
20
-55.5831
11
154.238
21
-55.593
0
LINE
8
BLACK
6
CONTINUOUS
10
154.238
20
-55.593
11
154.256
21
-55.6097
0
LINE
8
BLACK
6
CONTINUOUS
10
154.256
20
-55.6097
11
154.267
21
-55.6314
0
LINE
8
BLACK
6
CONTINUOUS
10
154.267
20
-55.6314
11
154.271
21
-55.6557
0
LINE
8
BLACK
6
CONTINUOUS
10
154.271
20
-55.6557
11
154.271
21
-56.4652
0
LINE
8
BLACK
6
CONTINUOUS
10
154.271
20
-56.4652
11
154.271
21
-56.4736
0
LINE
8
BLACK
6
CONTINUOUS
10
154.271
20
-56.4736
11
154.271
21
-56.4752
0
LINE
8
BLACK
6
CONTINUOUS
10
154.271
20
-56.4752
11
154.27
21
-56.4761
0
LINE
8
BLACK
6
CONTINUOUS
10
154.27
20
-56.4761
11
154.27
21
-56.4781
0
LINE
8
BLACK
6
CONTINUOUS
10
154.27
20
-56.4781
11
154.267
21
-56.4884
0
LINE
8
BLACK
6
CONTINUOUS
10
154.267
20
-56.4884
11
154.264
21
-56.4988
0
LINE
8
BLACK
6
CONTINUOUS
10
154.264
20
-56.4988
11
154.216
21
-56.594
0
LINE
8
BLACK
6
CONTINUOUS
10
154.216
20
-56.594
11
154.209
21
-56.6051
0
LINE
8
BLACK
6
CONTINUOUS
10
154.209
20
-56.6051
11
154.205
21
-56.609
0
LINE
8
BLACK
6
CONTINUOUS
10
154.205
20
-56.609
11
154.202
21
-56.6135
0
LINE
8
BLACK
6
CONTINUOUS
10
154.202
20
-56.6135
11
154.154
21
-56.6611
0
LINE
8
BLACK
6
CONTINUOUS
10
154.154
20
-56.6611
11
154.144
21
-56.6695
0
LINE
8
BLACK
6
CONTINUOUS
10
154.144
20
-56.6695
11
154.139
21
-56.6719
0
LINE
8
BLACK
6
CONTINUOUS
10
154.139
20
-56.6719
11
154.135
21
-56.6752
0
LINE
8
BLACK
6
CONTINUOUS
10
154.135
20
-56.6752
11
154.039
21
-56.7228
0
LINE
8
BLACK
6
CONTINUOUS
10
154.039
20
-56.7228
11
154.032
21
-56.7259
0
LINE
8
BLACK
6
CONTINUOUS
10
154.032
20
-56.7259
11
154.03
21
-56.7267
0
LINE
8
BLACK
6
CONTINUOUS
10
154.03
20
-56.7267
11
154.029
21
-56.7268
0
LINE
8
BLACK
6
CONTINUOUS
10
154.029
20
-56.7268
11
154.027
21
-56.7276
0
LINE
8
BLACK
6
CONTINUOUS
10
154.027
20
-56.7276
11
154.017
21
-56.7289
0
LINE
8
BLACK
6
CONTINUOUS
10
154.017
20
-56.7289
11
154.006
21
-56.7307
0
LINE
8
BLACK
6
CONTINUOUS
10
154.006
20
-56.7307
11
153.863
21
-56.7307
0
LINE
8
BLACK
6
CONTINUOUS
10
153.863
20
-56.7307
11
153.855
21
-56.73
0
LINE
8
BLACK
6
CONTINUOUS
10
153.855
20
-56.73
11
153.853
21
-56.73
0
LINE
8
BLACK
6
CONTINUOUS
10
153.853
20
-56.73
11
153.852
21
-56.7298
0
LINE
8
BLACK
6
CONTINUOUS
10
153.852
20
-56.7298
11
153.85
21
-56.7296
0
LINE
8
BLACK
6
CONTINUOUS
10
153.85
20
-56.7296
11
153.84
21
-56.726
0
LINE
8
BLACK
6
CONTINUOUS
10
153.84
20
-56.726
11
153.83
21
-56.7228
0
LINE
8
BLACK
6
CONTINUOUS
10
153.83
20
-56.7228
11
153.734
21
-56.6752
0
LINE
8
BLACK
6
CONTINUOUS
10
153.734
20
-56.6752
11
153.723
21
-56.6684
0
LINE
8
BLACK
6
CONTINUOUS
10
153.723
20
-56.6684
11
153.706
21
-56.6507
0
LINE
8
BLACK
6
CONTINUOUS
10
153.706
20
-56.6507
11
153.696
21
-56.6284
0
LINE
8
BLACK
6
CONTINUOUS
10
153.696
20
-56.6284
11
153.693
21
-56.604
0
LINE
8
BLACK
6
CONTINUOUS
10
153.693
20
-56.604
11
153.698
21
-56.5799
0
LINE
8
BLACK
6
CONTINUOUS
10
153.698
20
-56.5799
11
153.711
21
-56.5589
0
LINE
8
BLACK
6
CONTINUOUS
10
153.711
20
-56.5589
11
153.73
21
-56.5432
0
LINE
8
BLACK
6
CONTINUOUS
10
153.73
20
-56.5432
11
153.753
21
-56.5345
0
LINE
8
BLACK
6
CONTINUOUS
10
153.753
20
-56.5345
11
153.778
21
-56.5338
0
LINE
8
BLACK
6
CONTINUOUS
10
153.778
20
-56.5338
11
153.801
21
-56.541
0
LINE
8
BLACK
6
CONTINUOUS
10
153.801
20
-56.541
11
153.881
21
-56.5807
0
LINE
8
BLACK
6
CONTINUOUS
10
153.881
20
-56.5807
11
153.988
21
-56.5807
0
LINE
8
BLACK
6
CONTINUOUS
10
153.988
20
-56.5807
11
154.057
21
-56.5465
0
LINE
8
BLACK
6
CONTINUOUS
10
154.057
20
-56.5465
11
154.087
21
-56.516
0
LINE
8
BLACK
6
CONTINUOUS
10
154.087
20
-56.516
11
154.121
21
-56.4475
0
LINE
8
BLACK
6
CONTINUOUS
10
154.121
20
-56.4475
11
154.121
21
-56.3944
0
LINE
8
BLACK
6
CONTINUOUS
10
154.121
20
-56.3944
11
154.112
21
-56.3956
0
LINE
8
BLACK
6
CONTINUOUS
10
154.112
20
-56.3956
11
154.101
21
-56.3974
0
LINE
8
BLACK
6
CONTINUOUS
10
154.101
20
-56.3974
11
153.911
21
-56.3974
0
LINE
8
BLACK
6
CONTINUOUS
10
153.911
20
-56.3974
11
153.902
21
-56.3967
0
LINE
8
BLACK
6
CONTINUOUS
10
153.902
20
-56.3967
11
153.901
21
-56.3967
0
LINE
8
BLACK
6
CONTINUOUS
10
153.901
20
-56.3967
11
153.9
21
-56.3964
0
LINE
8
BLACK
6
CONTINUOUS
10
153.9
20
-56.3964
11
153.898
21
-56.3963
0
LINE
8
BLACK
6
CONTINUOUS
10
153.898
20
-56.3963
11
153.888
21
-56.3927
0
LINE
8
BLACK
6
CONTINUOUS
10
153.888
20
-56.3927
11
153.877
21
-56.3895
0
LINE
8
BLACK
6
CONTINUOUS
10
153.877
20
-56.3895
11
153.782
21
-56.3418
0
LINE
8
BLACK
6
CONTINUOUS
10
153.782
20
-56.3418
11
153.771
21
-56.3351
0
LINE
8
BLACK
6
CONTINUOUS
10
153.771
20
-56.3351
11
153.767
21
-56.3311
0
LINE
8
BLACK
6
CONTINUOUS
10
153.767
20
-56.3311
11
153.762
21
-56.3278
0
LINE
8
BLACK
6
CONTINUOUS
10
153.762
20
-56.3278
11
153.715
21
-56.2802
0
LINE
8
BLACK
6
CONTINUOUS
10
153.715
20
-56.2802
11
153.706
21
-56.2703
0
LINE
8
BLACK
6
CONTINUOUS
10
153.706
20
-56.2703
11
153.704
21
-56.2652
0
LINE
8
BLACK
6
CONTINUOUS
10
153.704
20
-56.2652
11
153.701
21
-56.2607
0
LINE
8
BLACK
6
CONTINUOUS
10
153.701
20
-56.2607
11
153.653
21
-56.1654
0
LINE
8
BLACK
6
CONTINUOUS
10
153.653
20
-56.1654
11
153.65
21
-56.1577
0
LINE
8
BLACK
6
CONTINUOUS
10
153.65
20
-56.1577
11
153.649
21
-56.1562
0
LINE
8
BLACK
6
CONTINUOUS
10
153.649
20
-56.1562
11
153.649
21
-56.1553
0
LINE
8
BLACK
6
CONTINUOUS
10
153.649
20
-56.1553
11
153.648
21
-56.1534
0
LINE
8
BLACK
6
CONTINUOUS
10
153.648
20
-56.1534
11
153.647
21
-56.1426
0
LINE
8
BLACK
6
CONTINUOUS
10
153.647
20
-56.1426
11
153.645
21
-56.1319
0
LINE
8
BLACK
6
CONTINUOUS
10
153.645
20
-56.1319
11
153.645
21
-55.8462
0
LINE
8
BLACK
6
CONTINUOUS
10
153.645
20
-55.8462
11
153.646
21
-55.8379
0
LINE
8
BLACK
6
CONTINUOUS
10
153.646
20
-55.8379
11
153.646
21
-55.8362
0
LINE
8
BLACK
6
CONTINUOUS
10
153.646
20
-55.8362
11
153.646
21
-55.8353
0
LINE
8
BLACK
6
CONTINUOUS
10
153.646
20
-55.8353
11
153.646
21
-55.8333
0
LINE
8
BLACK
6
CONTINUOUS
10
153.646
20
-55.8333
11
153.65
21
-55.823
0
LINE
8
BLACK
6
CONTINUOUS
10
153.65
20
-55.823
11
153.653
21
-55.8126
0
LINE
8
BLACK
6
CONTINUOUS
10
153.653
20
-55.8126
11
153.701
21
-55.7174
0
LINE
8
BLACK
6
CONTINUOUS
10
153.701
20
-55.7174
11
153.708
21
-55.7064
0
LINE
8
BLACK
6
CONTINUOUS
10
153.708
20
-55.7064
11
153.712
21
-55.7025
0
LINE
8
BLACK
6
CONTINUOUS
10
153.712
20
-55.7025
11
153.715
21
-55.6979
0
LINE
8
BLACK
6
CONTINUOUS
10
153.715
20
-55.6979
11
153.762
21
-55.6503
0
LINE
8
BLACK
6
CONTINUOUS
10
153.762
20
-55.6503
11
153.772
21
-55.642
0
LINE
8
BLACK
6
CONTINUOUS
10
153.772
20
-55.642
11
153.777
21
-55.6395
0
LINE
8
BLACK
6
CONTINUOUS
10
153.777
20
-55.6395
11
153.782
21
-55.6363
0
LINE
8
BLACK
6
CONTINUOUS
10
153.782
20
-55.6363
11
153.877
21
-55.5886
0
LINE
8
BLACK
6
CONTINUOUS
10
153.877
20
-55.5886
11
153.885
21
-55.5855
0
LINE
8
BLACK
6
CONTINUOUS
10
153.885
20
-55.5855
11
153.886
21
-55.5848
0
LINE
8
BLACK
6
CONTINUOUS
10
153.886
20
-55.5848
11
153.887
21
-55.5846
0
LINE
8
BLACK
6
CONTINUOUS
10
153.887
20
-55.5846
11
153.889
21
-55.5839
0
LINE
8
BLACK
6
CONTINUOUS
10
153.889
20
-55.5839
11
153.9
21
-55.5825
0
LINE
8
BLACK
6
CONTINUOUS
10
153.9
20
-55.5825
11
153.911
21
-55.5807
0
LINE
8
BLACK
6
CONTINUOUS
10
153.911
20
-55.5807
11
154.101
21
-55.5807
0
LINE
8
BLACK
6
CONTINUOUS
10
154.101
20
-55.5807
11
154.11
21
-55.5814
0
LINE
8
BLACK
6
CONTINUOUS
10
153.928
20
-55.7307
11
153.86
21
-55.765
0
LINE
8
BLACK
6
CONTINUOUS
10
153.86
20
-55.765
11
153.829
21
-55.7954
0
LINE
8
BLACK
6
CONTINUOUS
10
153.829
20
-55.7954
11
153.795
21
-55.8639
0
LINE
8
BLACK
6
CONTINUOUS
10
153.795
20
-55.8639
11
153.795
21
-56.1142
0
LINE
8
BLACK
6
CONTINUOUS
10
153.795
20
-56.1142
11
153.829
21
-56.1827
0
LINE
8
BLACK
6
CONTINUOUS
10
153.829
20
-56.1827
11
153.86
21
-56.2131
0
LINE
8
BLACK
6
CONTINUOUS
10
153.86
20
-56.2131
11
153.928
21
-56.2474
0
LINE
8
BLACK
6
CONTINUOUS
10
153.928
20
-56.2474
11
154.083
21
-56.2474
0
LINE
8
BLACK
6
CONTINUOUS
10
154.083
20
-56.2474
11
154.121
21
-56.2284
0
LINE
8
BLACK
6
CONTINUOUS
10
154.121
20
-56.2284
11
154.121
21
-55.7497
0
LINE
8
BLACK
6
CONTINUOUS
10
154.121
20
-55.7497
11
154.083
21
-55.7307
0
LINE
8
BLACK
6
CONTINUOUS
10
154.083
20
-55.7307
11
153.928
21
-55.7307
0
LINE
8
BLACK
6
CONTINUOUS
10
152.447
20
-55.2485
11
152.471
21
-55.2567
0
LINE
8
BLACK
6
CONTINUOUS
10
152.471
20
-55.2567
11
152.49
21
-55.2719
0
LINE
8
BLACK
6
CONTINUOUS
10
152.49
20
-55.2719
11
152.503
21
-55.2926
0
LINE
8
BLACK
6
CONTINUOUS
10
152.503
20
-55.2926
11
152.509
21
-55.3165
0
LINE
8
BLACK
6
CONTINUOUS
10
152.509
20
-55.3165
11
152.507
21
-55.341
0
LINE
8
BLACK
6
CONTINUOUS
10
152.507
20
-55.341
11
152.497
21
-55.3636
0
LINE
8
BLACK
6
CONTINUOUS
10
152.497
20
-55.3636
11
152.48
21
-55.3816
0
LINE
8
BLACK
6
CONTINUOUS
10
152.48
20
-55.3816
11
152.459
21
-55.3933
0
LINE
8
BLACK
6
CONTINUOUS
10
152.459
20
-55.3933
11
152.435
21
-55.3974
0
LINE
8
BLACK
6
CONTINUOUS
10
152.435
20
-55.3974
11
152.033
21
-55.3974
0
LINE
8
BLACK
6
CONTINUOUS
10
152.033
20
-55.3974
11
152.033
21
-55.7236
0
LINE
8
BLACK
6
CONTINUOUS
10
152.033
20
-55.7236
11
152.292
21
-55.7236
0
LINE
8
BLACK
6
CONTINUOUS
10
152.292
20
-55.7236
11
152.305
21
-55.7247
0
LINE
8
BLACK
6
CONTINUOUS
10
152.305
20
-55.7247
11
152.328
21
-55.7328
0
LINE
8
BLACK
6
CONTINUOUS
10
152.328
20
-55.7328
11
152.347
21
-55.7481
0
LINE
8
BLACK
6
CONTINUOUS
10
152.347
20
-55.7481
11
152.36
21
-55.7688
0
LINE
8
BLACK
6
CONTINUOUS
10
152.36
20
-55.7688
11
152.366
21
-55.7927
0
LINE
8
BLACK
6
CONTINUOUS
10
152.366
20
-55.7927
11
152.364
21
-55.8172
0
LINE
8
BLACK
6
CONTINUOUS
10
152.364
20
-55.8172
11
152.354
21
-55.8397
0
LINE
8
BLACK
6
CONTINUOUS
10
152.354
20
-55.8397
11
152.338
21
-55.8578
0
LINE
8
BLACK
6
CONTINUOUS
10
152.338
20
-55.8578
11
152.316
21
-55.8695
0
LINE
8
BLACK
6
CONTINUOUS
10
152.316
20
-55.8695
11
152.292
21
-55.8736
0
LINE
8
BLACK
6
CONTINUOUS
10
152.292
20
-55.8736
11
152.033
21
-55.8736
0
LINE
8
BLACK
6
CONTINUOUS
10
152.033
20
-55.8736
11
152.033
21
-56.2474
0
LINE
8
BLACK
6
CONTINUOUS
10
152.033
20
-56.2474
11
152.435
21
-56.2474
0
LINE
8
BLACK
6
CONTINUOUS
10
152.435
20
-56.2474
11
152.447
21
-56.2485
0
LINE
8
BLACK
6
CONTINUOUS
10
152.447
20
-56.2485
11
152.471
21
-56.2567
0
LINE
8
BLACK
6
CONTINUOUS
10
152.471
20
-56.2567
11
152.49
21
-56.2719
0
LINE
8
BLACK
6
CONTINUOUS
10
152.49
20
-56.2719
11
152.503
21
-56.2926
0
LINE
8
BLACK
6
CONTINUOUS
10
152.503
20
-56.2926
11
152.509
21
-56.3165
0
LINE
8
BLACK
6
CONTINUOUS
10
152.509
20
-56.3165
11
152.507
21
-56.341
0
LINE
8
BLACK
6
CONTINUOUS
10
152.507
20
-56.341
11
152.497
21
-56.3636
0
LINE
8
BLACK
6
CONTINUOUS
10
152.497
20
-56.3636
11
152.48
21
-56.3816
0
LINE
8
BLACK
6
CONTINUOUS
10
152.48
20
-56.3816
11
152.459
21
-56.3933
0
LINE
8
BLACK
6
CONTINUOUS
10
152.459
20
-56.3933
11
152.435
21
-56.3974
0
LINE
8
BLACK
6
CONTINUOUS
10
152.435
20
-56.3974
11
151.958
21
-56.3974
0
LINE
8
BLACK
6
CONTINUOUS
10
151.958
20
-56.3974
11
151.945
21
-56.3963
0
LINE
8
BLACK
6
CONTINUOUS
10
151.945
20
-56.3963
11
151.943
21
-56.3953
0
LINE
8
BLACK
6
CONTINUOUS
10
151.943
20
-56.3953
11
151.94
21
-56.395
0
LINE
8
BLACK
6
CONTINUOUS
10
151.94
20
-56.395
11
151.931
21
-56.3912
0
LINE
8
BLACK
6
CONTINUOUS
10
151.931
20
-56.3912
11
151.922
21
-56.3881
0
LINE
8
BLACK
6
CONTINUOUS
10
151.922
20
-56.3881
11
151.92
21
-56.3863
0
LINE
8
BLACK
6
CONTINUOUS
10
151.92
20
-56.3863
11
151.917
21
-56.3851
0
LINE
8
BLACK
6
CONTINUOUS
10
151.917
20
-56.3851
11
151.91
21
-56.3787
0
LINE
8
BLACK
6
CONTINUOUS
10
151.91
20
-56.3787
11
151.903
21
-56.3729
0
LINE
8
BLACK
6
CONTINUOUS
10
151.903
20
-56.3729
11
151.901
21
-56.3704
0
LINE
8
BLACK
6
CONTINUOUS
10
151.901
20
-56.3704
11
151.899
21
-56.3683
0
LINE
8
BLACK
6
CONTINUOUS
10
151.899
20
-56.3683
11
151.895
21
-56.3601
0
LINE
8
BLACK
6
CONTINUOUS
10
151.895
20
-56.3601
11
151.89
21
-56.3522
0
LINE
8
BLACK
6
CONTINUOUS
10
151.89
20
-56.3522
11
151.889
21
-56.3493
0
LINE
8
BLACK
6
CONTINUOUS
10
151.889
20
-56.3493
11
151.887
21
-56.3467
0
LINE
8
BLACK
6
CONTINUOUS
10
151.887
20
-56.3467
11
151.886
21
-56.3374
0
LINE
8
BLACK
6
CONTINUOUS
10
151.886
20
-56.3374
11
151.884
21
-56.3283
0
LINE
8
BLACK
6
CONTINUOUS
10
151.884
20
-56.3283
11
151.884
21
-56.3253
0
LINE
8
BLACK
6
CONTINUOUS
10
151.884
20
-56.3253
11
151.883
21
-56.3224
0
LINE
8
BLACK
6
CONTINUOUS
10
151.883
20
-56.3224
11
151.883
21
-55.3224
0
LINE
8
BLACK
6
CONTINUOUS
10
151.883
20
-55.3224
11
151.884
21
-55.3095
0
LINE
8
BLACK
6
CONTINUOUS
10
151.884
20
-55.3095
11
151.885
21
-55.3067
0
LINE
8
BLACK
6
CONTINUOUS
10
151.885
20
-55.3067
11
151.886
21
-55.3037
0
LINE
8
BLACK
6
CONTINUOUS
10
151.886
20
-55.3037
11
151.889
21
-55.2951
0
LINE
8
BLACK
6
CONTINUOUS
10
151.889
20
-55.2951
11
151.893
21
-55.2862
0
LINE
8
BLACK
6
CONTINUOUS
10
151.893
20
-55.2862
11
151.894
21
-55.2839
0
LINE
8
BLACK
6
CONTINUOUS
10
151.894
20
-55.2839
11
151.896
21
-55.2812
0
LINE
8
BLACK
6
CONTINUOUS
10
151.896
20
-55.2812
11
151.902
21
-55.2743
0
LINE
8
BLACK
6
CONTINUOUS
10
151.902
20
-55.2743
11
151.908
21
-55.2669
0
LINE
8
BLACK
6
CONTINUOUS
10
151.908
20
-55.2669
11
151.91
21
-55.2653
0
LINE
8
BLACK
6
CONTINUOUS
10
151.91
20
-55.2653
11
151.912
21
-55.2631
0
LINE
8
BLACK
6
CONTINUOUS
10
151.912
20
-55.2631
11
151.921
21
-55.2587
0
LINE
8
BLACK
6
CONTINUOUS
10
151.921
20
-55.2587
11
151.929
21
-55.2535
0
LINE
8
BLACK
6
CONTINUOUS
10
151.929
20
-55.2535
11
151.931
21
-55.2528
0
LINE
8
BLACK
6
CONTINUOUS
10
151.931
20
-55.2528
11
151.934
21
-55.2514
0
LINE
8
BLACK
6
CONTINUOUS
10
151.934
20
-55.2514
11
151.943
21
-55.2499
0
LINE
8
BLACK
6
CONTINUOUS
10
151.943
20
-55.2499
11
151.952
21
-55.2476
0
LINE
8
BLACK
6
CONTINUOUS
10
151.952
20
-55.2476
11
151.955
21
-55.2479
0
LINE
8
BLACK
6
CONTINUOUS
10
151.955
20
-55.2479
11
151.958
21
-55.2474
0
LINE
8
BLACK
6
CONTINUOUS
10
151.958
20
-55.2474
11
152.435
21
-55.2474
0
LINE
8
BLACK
6
CONTINUOUS
10
152.435
20
-55.2474
11
152.447
21
-55.2485
0
LINE
8
BLACK
6
CONTINUOUS
10
154.967
20
-55.5814
11
154.968
21
-55.5814
0
LINE
8
BLACK
6
CONTINUOUS
10
154.968
20
-55.5814
11
154.969
21
-55.5817
0
LINE
8
BLACK
6
CONTINUOUS
10
154.969
20
-55.5817
11
154.971
21
-55.5818
0
LINE
8
BLACK
6
CONTINUOUS
10
154.971
20
-55.5818
11
154.981
21
-55.5854
0
LINE
8
BLACK
6
CONTINUOUS
10
154.981
20
-55.5854
11
154.992
21
-55.5886
0
LINE
8
BLACK
6
CONTINUOUS
10
154.992
20
-55.5886
11
155.087
21
-55.6363
0
LINE
8
BLACK
6
CONTINUOUS
10
155.087
20
-55.6363
11
155.098
21
-55.643
0
LINE
8
BLACK
6
CONTINUOUS
10
155.098
20
-55.643
11
155.102
21
-55.6468
0
LINE
8
BLACK
6
CONTINUOUS
10
155.102
20
-55.6468
11
155.106
21
-55.6499
0
LINE
8
BLACK
6
CONTINUOUS
10
155.106
20
-55.6499
11
155.11
21
-55.6556
0
LINE
8
BLACK
6
CONTINUOUS
10
155.11
20
-55.6556
11
155.115
21
-55.6607
0
LINE
8
BLACK
6
CONTINUOUS
10
155.115
20
-55.6607
11
155.118
21
-55.6655
0
LINE
8
BLACK
6
CONTINUOUS
10
155.118
20
-55.6655
11
155.121
21
-55.6698
0
LINE
8
BLACK
6
CONTINUOUS
10
155.121
20
-55.6698
11
155.168
21
-55.765
0
LINE
8
BLACK
6
CONTINUOUS
10
155.168
20
-55.765
11
155.171
21
-55.7728
0
LINE
8
BLACK
6
CONTINUOUS
10
155.171
20
-55.7728
11
155.172
21
-55.7743
0
LINE
8
BLACK
6
CONTINUOUS
10
155.172
20
-55.7743
11
155.172
21
-55.7752
0
LINE
8
BLACK
6
CONTINUOUS
10
155.172
20
-55.7752
11
155.173
21
-55.7771
0
LINE
8
BLACK
6
CONTINUOUS
10
155.173
20
-55.7771
11
155.174
21
-55.7879
0
LINE
8
BLACK
6
CONTINUOUS
10
155.174
20
-55.7879
11
155.176
21
-55.7986
0
LINE
8
BLACK
6
CONTINUOUS
10
155.176
20
-55.7986
11
155.176
21
-55.8938
0
LINE
8
BLACK
6
CONTINUOUS
10
155.176
20
-55.8938
11
155.176
21
-55.8966
0
LINE
8
BLACK
6
CONTINUOUS
10
155.176
20
-55.8966
11
155.176
21
-55.8979
0
LINE
8
BLACK
6
CONTINUOUS
10
155.176
20
-55.8979
11
155.176
21
-55.8996
0
LINE
8
BLACK
6
CONTINUOUS
10
155.176
20
-55.8996
11
155.175
21
-55.9067
0
LINE
8
BLACK
6
CONTINUOUS
10
155.175
20
-55.9067
11
155.172
21
-55.9142
0
LINE
8
BLACK
6
CONTINUOUS
10
155.172
20
-55.9142
11
155.171
21
-55.9219
0
LINE
8
BLACK
6
CONTINUOUS
10
155.171
20
-55.9219
11
155.168
21
-55.9257
0
LINE
8
BLACK
6
CONTINUOUS
10
155.168
20
-55.9257
11
155.167
21
-55.9299
0
LINE
8
BLACK
6
CONTINUOUS
10
155.167
20
-55.9299
11
155.162
21
-55.9362
0
LINE
8
BLACK
6
CONTINUOUS
10
155.162
20
-55.9362
11
155.158
21
-55.9429
0
LINE
8
BLACK
6
CONTINUOUS
10
155.158
20
-55.9429
11
155.154
21
-55.9458
0
LINE
8
BLACK
6
CONTINUOUS
10
155.154
20
-55.9458
11
155.152
21
-55.9493
0
LINE
8
BLACK
6
CONTINUOUS
10
155.152
20
-55.9493
11
155.145
21
-55.9536
0
LINE
8
BLACK
6
CONTINUOUS
10
155.145
20
-55.9536
11
155.139
21
-55.9586
0
LINE
8
BLACK
6
CONTINUOUS
10
155.139
20
-55.9586
11
155.135
21
-55.9602
0
LINE
8
BLACK
6
CONTINUOUS
10
155.135
20
-55.9602
11
155.131
21
-55.9626
0
LINE
8
BLACK
6
CONTINUOUS
10
155.131
20
-55.9626
11
155.123
21
-55.9645
0
LINE
8
BLACK
6
CONTINUOUS
10
155.123
20
-55.9645
11
155.116
21
-55.9674
0
LINE
8
BLACK
6
CONTINUOUS
10
155.116
20
-55.9674
11
154.7
21
-56.0505
0
LINE
8
BLACK
6
CONTINUOUS
10
154.7
20
-56.0505
11
154.7
21
-56.1618
0
LINE
8
BLACK
6
CONTINUOUS
10
154.7
20
-56.1618
11
154.729
21
-56.2189
0
LINE
8
BLACK
6
CONTINUOUS
10
154.729
20
-56.2189
11
154.786
21
-56.2474
0
LINE
8
BLACK
6
CONTINUOUS
10
154.786
20
-56.2474
11
154.941
21
-56.2474
0
LINE
8
BLACK
6
CONTINUOUS
10
154.941
20
-56.2474
11
155.02
21
-56.2077
0
LINE
8
BLACK
6
CONTINUOUS
10
155.02
20
-56.2077
11
155.032
21
-56.2029
0
LINE
8
BLACK
6
CONTINUOUS
10
155.032
20
-56.2029
11
155.056
21
-56.1998
0
LINE
8
BLACK
6
CONTINUOUS
10
155.056
20
-56.1998
11
155.081
21
-56.2048
0
LINE
8
BLACK
6
CONTINUOUS
10
155.081
20
-56.2048
11
155.102
21
-56.2173
0
LINE
8
BLACK
6
CONTINUOUS
10
155.102
20
-56.2173
11
155.118
21
-56.2361
0
LINE
8
BLACK
6
CONTINUOUS
10
155.118
20
-56.2361
11
155.127
21
-56.259
0
LINE
8
BLACK
6
CONTINUOUS
10
155.127
20
-56.259
11
155.128
21
-56.2836
0
LINE
8
BLACK
6
CONTINUOUS
10
155.128
20
-56.2836
11
155.121
21
-56.3072
0
LINE
8
BLACK
6
CONTINUOUS
10
155.121
20
-56.3072
11
155.107
21
-56.3274
0
LINE
8
BLACK
6
CONTINUOUS
10
155.107
20
-56.3274
11
155.087
21
-56.3418
0
LINE
8
BLACK
6
CONTINUOUS
10
155.087
20
-56.3418
11
154.992
21
-56.3895
0
LINE
8
BLACK
6
CONTINUOUS
10
154.992
20
-56.3895
11
154.984
21
-56.3925
0
LINE
8
BLACK
6
CONTINUOUS
10
154.984
20
-56.3925
11
154.983
21
-56.3933
0
LINE
8
BLACK
6
CONTINUOUS
10
154.983
20
-56.3933
11
154.982
21
-56.3935
0
LINE
8
BLACK
6
CONTINUOUS
10
154.982
20
-56.3935
11
154.98
21
-56.3942
0
LINE
8
BLACK
6
CONTINUOUS
10
154.98
20
-56.3942
11
154.969
21
-56.3956
0
LINE
8
BLACK
6
CONTINUOUS
10
154.969
20
-56.3956
11
154.958
21
-56.3974
0
LINE
8
BLACK
6
CONTINUOUS
10
154.958
20
-56.3974
11
154.768
21
-56.3974
0
LINE
8
BLACK
6
CONTINUOUS
10
154.768
20
-56.3974
11
154.76
21
-56.3967
0
LINE
8
BLACK
6
CONTINUOUS
10
154.76
20
-56.3967
11
154.758
21
-56.3967
0
LINE
8
BLACK
6
CONTINUOUS
10
154.758
20
-56.3967
11
154.757
21
-56.3964
0
LINE
8
BLACK
6
CONTINUOUS
10
154.757
20
-56.3964
11
154.755
21
-56.3963
0
LINE
8
BLACK
6
CONTINUOUS
10
154.755
20
-56.3963
11
154.745
21
-56.3927
0
LINE
8
BLACK
6
CONTINUOUS
10
154.745
20
-56.3927
11
154.734
21
-56.3895
0
LINE
8
BLACK
6
CONTINUOUS
10
154.734
20
-56.3895
11
154.639
21
-56.3418
0
LINE
8
BLACK
6
CONTINUOUS
10
154.639
20
-56.3418
11
154.628
21
-56.3351
0
LINE
8
BLACK
6
CONTINUOUS
10
154.628
20
-56.3351
11
154.624
21
-56.3313
0
LINE
8
BLACK
6
CONTINUOUS
10
154.624
20
-56.3313
11
154.62
21
-56.3282
0
LINE
8
BLACK
6
CONTINUOUS
10
154.62
20
-56.3282
11
154.616
21
-56.3225
0
LINE
8
BLACK
6
CONTINUOUS
10
154.616
20
-56.3225
11
154.611
21
-56.3174
0
LINE
8
BLACK
6
CONTINUOUS
10
154.611
20
-56.3174
11
154.609
21
-56.3126
0
LINE
8
BLACK
6
CONTINUOUS
10
154.609
20
-56.3126
11
154.606
21
-56.3083
0
LINE
8
BLACK
6
CONTINUOUS
10
154.606
20
-56.3083
11
154.558
21
-56.2131
0
LINE
8
BLACK
6
CONTINUOUS
10
154.558
20
-56.2131
11
154.555
21
-56.2053
0
LINE
8
BLACK
6
CONTINUOUS
10
154.555
20
-56.2053
11
154.554
21
-56.2038
0
LINE
8
BLACK
6
CONTINUOUS
10
154.554
20
-56.2038
11
154.554
21
-56.2029
0
LINE
8
BLACK
6
CONTINUOUS
10
154.554
20
-56.2029
11
154.553
21
-56.201
0
LINE
8
BLACK
6
CONTINUOUS
10
154.553
20
-56.201
11
154.552
21
-56.1902
0
LINE
8
BLACK
6
CONTINUOUS
10
154.552
20
-56.1902
11
154.55
21
-56.1795
0
LINE
8
BLACK
6
CONTINUOUS
10
154.55
20
-56.1795
11
154.55
21
-55.7986
0
LINE
8
BLACK
6
CONTINUOUS
10
154.55
20
-55.7986
11
154.551
21
-55.7902
0
LINE
8
BLACK
6
CONTINUOUS
10
154.551
20
-55.7902
11
154.551
21
-55.7886
0
LINE
8
BLACK
6
CONTINUOUS
10
154.551
20
-55.7886
11
154.551
21
-55.7877
0
LINE
8
BLACK
6
CONTINUOUS
10
154.551
20
-55.7877
11
154.551
21
-55.7857
0
LINE
8
BLACK
6
CONTINUOUS
10
154.551
20
-55.7857
11
154.555
21
-55.7754
0
LINE
8
BLACK
6
CONTINUOUS
10
154.555
20
-55.7754
11
154.558
21
-55.765
0
LINE
8
BLACK
6
CONTINUOUS
10
154.558
20
-55.765
11
154.606
21
-55.6698
0
LINE
8
BLACK
6
CONTINUOUS
10
154.606
20
-55.6698
11
154.612
21
-55.6588
0
LINE
8
BLACK
6
CONTINUOUS
10
154.612
20
-55.6588
11
154.616
21
-55.6551
0
LINE
8
BLACK
6
CONTINUOUS
10
154.616
20
-55.6551
11
154.619
21
-55.6507
0
LINE
8
BLACK
6
CONTINUOUS
10
154.619
20
-55.6507
11
154.625
21
-55.6466
0
LINE
8
BLACK
6
CONTINUOUS
10
154.625
20
-55.6466
11
154.63
21
-55.6416
0
LINE
8
BLACK
6
CONTINUOUS
10
154.63
20
-55.6416
11
154.635
21
-55.6394
0
LINE
8
BLACK
6
CONTINUOUS
10
154.635
20
-55.6394
11
154.639
21
-55.6363
0
LINE
8
BLACK
6
CONTINUOUS
10
154.639
20
-55.6363
11
154.734
21
-55.5886
0
LINE
8
BLACK
6
CONTINUOUS
10
154.734
20
-55.5886
11
154.742
21
-55.5855
0
LINE
8
BLACK
6
CONTINUOUS
10
154.742
20
-55.5855
11
154.744
21
-55.5848
0
LINE
8
BLACK
6
CONTINUOUS
10
154.744
20
-55.5848
11
154.744
21
-55.5846
0
LINE
8
BLACK
6
CONTINUOUS
10
154.744
20
-55.5846
11
154.746
21
-55.5839
0
LINE
8
BLACK
6
CONTINUOUS
10
154.746
20
-55.5839
11
154.757
21
-55.5825
0
LINE
8
BLACK
6
CONTINUOUS
10
154.757
20
-55.5825
11
154.768
21
-55.5807
0
LINE
8
BLACK
6
CONTINUOUS
10
154.768
20
-55.5807
11
154.958
21
-55.5807
0
LINE
8
BLACK
6
CONTINUOUS
10
154.958
20
-55.5807
11
154.967
21
-55.5814
0
LINE
8
BLACK
6
CONTINUOUS
10
154.786
20
-55.7307
11
154.729
21
-55.7592
0
LINE
8
BLACK
6
CONTINUOUS
10
154.729
20
-55.7592
11
154.7
21
-55.8163
0
LINE
8
BLACK
6
CONTINUOUS
10
154.7
20
-55.8163
11
154.7
21
-55.8976
0
LINE
8
BLACK
6
CONTINUOUS
10
154.7
20
-55.8976
11
155.026
21
-55.8323
0
LINE
8
BLACK
6
CONTINUOUS
10
155.026
20
-55.8323
11
155.026
21
-55.8163
0
LINE
8
BLACK
6
CONTINUOUS
10
155.026
20
-55.8163
11
154.998
21
-55.7592
0
LINE
8
BLACK
6
CONTINUOUS
10
154.998
20
-55.7592
11
154.941
21
-55.7307
0
LINE
8
BLACK
6
CONTINUOUS
10
154.941
20
-55.7307
11
154.786
21
-55.7307
0
LINE
8
BLACK
6
CONTINUOUS
10
153.31
20
-55.2497
11
153.333
21
-55.2597
0
LINE
8
BLACK
6
CONTINUOUS
10
153.333
20
-55.2597
11
153.351
21
-55.2764
0
LINE
8
BLACK
6
CONTINUOUS
10
153.351
20
-55.2764
11
153.363
21
-55.2981
0
LINE
8
BLACK
6
CONTINUOUS
10
153.363
20
-55.2981
11
153.367
21
-55.3224
0
LINE
8
BLACK
6
CONTINUOUS
10
153.367
20
-55.3224
11
153.367
21
-56.3224
0
LINE
8
BLACK
6
CONTINUOUS
10
153.367
20
-56.3224
11
153.366
21
-56.3353
0
LINE
8
BLACK
6
CONTINUOUS
10
153.366
20
-56.3353
11
153.357
21
-56.3585
0
LINE
8
BLACK
6
CONTINUOUS
10
153.357
20
-56.3585
11
153.342
21
-56.3779
0
LINE
8
BLACK
6
CONTINUOUS
10
153.342
20
-56.3779
11
153.321
21
-56.3912
0
LINE
8
BLACK
6
CONTINUOUS
10
153.321
20
-56.3912
11
153.298
21
-56.3971
0
LINE
8
BLACK
6
CONTINUOUS
10
153.298
20
-56.3971
11
153.273
21
-56.395
0
LINE
8
BLACK
6
CONTINUOUS
10
153.273
20
-56.395
11
153.25
21
-56.3851
0
LINE
8
BLACK
6
CONTINUOUS
10
153.25
20
-56.3851
11
153.246
21
-56.3813
0
LINE
8
BLACK
6
CONTINUOUS
10
153.246
20
-56.3813
11
153.23
21
-56.3895
0
LINE
8
BLACK
6
CONTINUOUS
10
153.23
20
-56.3895
11
153.222
21
-56.3925
0
LINE
8
BLACK
6
CONTINUOUS
10
153.222
20
-56.3925
11
153.221
21
-56.3933
0
LINE
8
BLACK
6
CONTINUOUS
10
153.221
20
-56.3933
11
153.22
21
-56.3935
0
LINE
8
BLACK
6
CONTINUOUS
10
153.22
20
-56.3935
11
153.218
21
-56.3942
0
LINE
8
BLACK
6
CONTINUOUS
10
153.218
20
-56.3942
11
153.207
21
-56.3956
0
LINE
8
BLACK
6
CONTINUOUS
10
153.207
20
-56.3956
11
153.196
21
-56.3974
0
LINE
8
BLACK
6
CONTINUOUS
10
153.196
20
-56.3974
11
153.006
21
-56.3974
0
LINE
8
BLACK
6
CONTINUOUS
10
153.006
20
-56.3974
11
152.998
21
-56.3967
0
LINE
8
BLACK
6
CONTINUOUS
10
152.998
20
-56.3967
11
152.996
21
-56.3967
0
LINE
8
BLACK
6
CONTINUOUS
10
152.996
20
-56.3967
11
152.995
21
-56.3964
0
LINE
8
BLACK
6
CONTINUOUS
10
152.995
20
-56.3964
11
152.993
21
-56.3963
0
LINE
8
BLACK
6
CONTINUOUS
10
152.993
20
-56.3963
11
152.983
21
-56.3927
0
LINE
8
BLACK
6
CONTINUOUS
10
152.983
20
-56.3927
11
152.972
21
-56.3895
0
LINE
8
BLACK
6
CONTINUOUS
10
152.972
20
-56.3895
11
152.877
21
-56.3418
0
LINE
8
BLACK
6
CONTINUOUS
10
152.877
20
-56.3418
11
152.866
21
-56.3351
0
LINE
8
BLACK
6
CONTINUOUS
10
152.866
20
-56.3351
11
152.862
21
-56.3311
0
LINE
8
BLACK
6
CONTINUOUS
10
152.862
20
-56.3311
11
152.858
21
-56.3278
0
LINE
8
BLACK
6
CONTINUOUS
10
152.858
20
-56.3278
11
152.81
21
-56.2802
0
LINE
8
BLACK
6
CONTINUOUS
10
152.81
20
-56.2802
11
152.802
21
-56.2703
0
LINE
8
BLACK
6
CONTINUOUS
10
152.802
20
-56.2703
11
152.799
21
-56.2652
0
LINE
8
BLACK
6
CONTINUOUS
10
152.799
20
-56.2652
11
152.796
21
-56.2607
0
LINE
8
BLACK
6
CONTINUOUS
10
152.796
20
-56.2607
11
152.748
21
-56.1654
0
LINE
8
BLACK
6
CONTINUOUS
10
152.748
20
-56.1654
11
152.745
21
-56.1577
0
LINE
8
BLACK
6
CONTINUOUS
10
152.745
20
-56.1577
11
152.745
21
-56.1562
0
LINE
8
BLACK
6
CONTINUOUS
10
152.745
20
-56.1562
11
152.744
21
-56.1553
0
LINE
8
BLACK
6
CONTINUOUS
10
152.744
20
-56.1553
11
152.744
21
-56.1534
0
LINE
8
BLACK
6
CONTINUOUS
10
152.744
20
-56.1534
11
152.742
21
-56.1426
0
LINE
8
BLACK
6
CONTINUOUS
10
152.742
20
-56.1426
11
152.74
21
-56.1319
0
LINE
8
BLACK
6
CONTINUOUS
10
152.74
20
-56.1319
11
152.74
21
-55.8462
0
LINE
8
BLACK
6
CONTINUOUS
10
152.74
20
-55.8462
11
152.741
21
-55.8379
0
LINE
8
BLACK
6
CONTINUOUS
10
152.741
20
-55.8379
11
152.741
21
-55.8362
0
LINE
8
BLACK
6
CONTINUOUS
10
152.741
20
-55.8362
11
152.741
21
-55.8353
0
LINE
8
BLACK
6
CONTINUOUS
10
152.741
20
-55.8353
11
152.742
21
-55.8333
0
LINE
8
BLACK
6
CONTINUOUS
10
152.742
20
-55.8333
11
152.745
21
-55.823
0
LINE
8
BLACK
6
CONTINUOUS
10
152.745
20
-55.823
11
152.748
21
-55.8126
0
LINE
8
BLACK
6
CONTINUOUS
10
152.748
20
-55.8126
11
152.796
21
-55.7174
0
LINE
8
BLACK
6
CONTINUOUS
10
152.796
20
-55.7174
11
152.803
21
-55.7064
0
LINE
8
BLACK
6
CONTINUOUS
10
152.803
20
-55.7064
11
152.807
21
-55.7025
0
LINE
8
BLACK
6
CONTINUOUS
10
152.807
20
-55.7025
11
152.81
21
-55.6979
0
LINE
8
BLACK
6
CONTINUOUS
10
152.81
20
-55.6979
11
152.858
21
-55.6503
0
LINE
8
BLACK
6
CONTINUOUS
10
152.858
20
-55.6503
11
152.868
21
-55.642
0
LINE
8
BLACK
6
CONTINUOUS
10
152.868
20
-55.642
11
152.873
21
-55.6395
0
LINE
8
BLACK
6
CONTINUOUS
10
152.873
20
-55.6395
11
152.877
21
-55.6363
0
LINE
8
BLACK
6
CONTINUOUS
10
152.877
20
-55.6363
11
152.972
21
-55.5886
0
LINE
8
BLACK
6
CONTINUOUS
10
152.972
20
-55.5886
11
152.98
21
-55.5855
0
LINE
8
BLACK
6
CONTINUOUS
10
152.98
20
-55.5855
11
152.982
21
-55.5848
0
LINE
8
BLACK
6
CONTINUOUS
10
152.982
20
-55.5848
11
152.983
21
-55.5846
0
LINE
8
BLACK
6
CONTINUOUS
10
152.983
20
-55.5846
11
152.984
21
-55.5839
0
LINE
8
BLACK
6
CONTINUOUS
10
152.984
20
-55.5839
11
152.995
21
-55.5825
0
LINE
8
BLACK
6
CONTINUOUS
10
152.995
20
-55.5825
11
153.006
21
-55.5807
0
LINE
8
BLACK
6
CONTINUOUS
10
153.006
20
-55.5807
11
153.196
21
-55.5807
0
LINE
8
BLACK
6
CONTINUOUS
10
153.196
20
-55.5807
11
153.205
21
-55.5814
0
LINE
8
BLACK
6
CONTINUOUS
10
153.205
20
-55.5814
11
153.206
21
-55.5814
0
LINE
8
BLACK
6
CONTINUOUS
10
153.206
20
-55.5814
11
153.207
21
-55.5817
0
LINE
8
BLACK
6
CONTINUOUS
10
153.207
20
-55.5817
11
153.209
21
-55.5818
0
LINE
8
BLACK
6
CONTINUOUS
10
153.209
20
-55.5818
11
153.217
21
-55.5844
0
LINE
8
BLACK
6
CONTINUOUS
10
153.217
20
-55.5844
11
153.217
21
-55.3224
0
LINE
8
BLACK
6
CONTINUOUS
10
153.217
20
-55.3224
11
153.218
21
-55.3095
0
LINE
8
BLACK
6
CONTINUOUS
10
153.218
20
-55.3095
11
153.226
21
-55.2862
0
LINE
8
BLACK
6
CONTINUOUS
10
153.226
20
-55.2862
11
153.241
21
-55.2669
0
LINE
8
BLACK
6
CONTINUOUS
10
153.241
20
-55.2669
11
153.262
21
-55.2535
0
LINE
8
BLACK
6
CONTINUOUS
10
153.262
20
-55.2535
11
153.286
21
-55.2476
0
LINE
8
BLACK
6
CONTINUOUS
10
153.286
20
-55.2476
11
153.31
21
-55.2497
0
LINE
8
BLACK
6
CONTINUOUS
10
153.024
20
-55.7307
11
152.955
21
-55.765
0
LINE
8
BLACK
6
CONTINUOUS
10
152.955
20
-55.765
11
152.925
21
-55.7954
0
LINE
8
BLACK
6
CONTINUOUS
10
152.925
20
-55.7954
11
152.89
21
-55.8639
0
LINE
8
BLACK
6
CONTINUOUS
10
152.89
20
-55.8639
11
152.89
21
-56.1142
0
LINE
8
BLACK
6
CONTINUOUS
10
152.89
20
-56.1142
11
152.925
21
-56.1827
0
LINE
8
BLACK
6
CONTINUOUS
10
152.925
20
-56.1827
11
152.955
21
-56.2131
0
LINE
8
BLACK
6
CONTINUOUS
10
152.955
20
-56.2131
11
153.024
21
-56.2474
0
LINE
8
BLACK
6
CONTINUOUS
10
153.024
20
-56.2474
11
153.179
21
-56.2474
0
LINE
8
BLACK
6
CONTINUOUS
10
153.179
20
-56.2474
11
153.217
21
-56.2284
0
LINE
8
BLACK
6
CONTINUOUS
10
153.217
20
-56.2284
11
153.217
21
-55.7497
0
LINE
8
BLACK
6
CONTINUOUS
10
153.217
20
-55.7497
11
153.179
21
-55.7307
0
LINE
8
BLACK
6
CONTINUOUS
10
153.179
20
-55.7307
11
153.024
21
-55.7307
0
LINE
8
BLACK
6
CONTINUOUS
10
150.538
20
-55.2481
11
150.54
21
-55.248
0
LINE
8
BLACK
6
CONTINUOUS
10
150.54
20
-55.248
11
150.541
21
-55.2483
0
LINE
8
BLACK
6
CONTINUOUS
10
150.541
20
-55.2483
11
150.543
21
-55.2485
0
LINE
8
BLACK
6
CONTINUOUS
10
150.543
20
-55.2485
11
150.553
21
-55.2521
0
LINE
8
BLACK
6
CONTINUOUS
10
150.553
20
-55.2521
11
150.563
21
-55.2553
0
LINE
8
BLACK
6
CONTINUOUS
10
150.563
20
-55.2553
11
150.659
21
-55.3029
0
LINE
8
BLACK
6
CONTINUOUS
10
150.659
20
-55.3029
11
150.67
21
-55.3097
0
LINE
8
BLACK
6
CONTINUOUS
10
150.67
20
-55.3097
11
150.673
21
-55.3137
0
LINE
8
BLACK
6
CONTINUOUS
10
150.673
20
-55.3137
11
150.678
21
-55.317
0
LINE
8
BLACK
6
CONTINUOUS
10
150.678
20
-55.317
11
150.726
21
-55.3646
0
LINE
8
BLACK
6
CONTINUOUS
10
150.726
20
-55.3646
11
150.734
21
-55.3745
0
LINE
8
BLACK
6
CONTINUOUS
10
150.734
20
-55.3745
11
150.736
21
-55.3795
0
LINE
8
BLACK
6
CONTINUOUS
10
150.736
20
-55.3795
11
150.74
21
-55.3841
0
LINE
8
BLACK
6
CONTINUOUS
10
150.74
20
-55.3841
11
150.787
21
-55.4793
0
LINE
8
BLACK
6
CONTINUOUS
10
150.787
20
-55.4793
11
150.79
21
-55.4871
0
LINE
8
BLACK
6
CONTINUOUS
10
150.79
20
-55.4871
11
150.791
21
-55.4886
0
LINE
8
BLACK
6
CONTINUOUS
10
150.791
20
-55.4886
11
150.791
21
-55.4895
0
LINE
8
BLACK
6
CONTINUOUS
10
150.791
20
-55.4895
11
150.792
21
-55.4913
0
LINE
8
BLACK
6
CONTINUOUS
10
150.792
20
-55.4913
11
150.793
21
-55.5021
0
LINE
8
BLACK
6
CONTINUOUS
10
150.793
20
-55.5021
11
150.795
21
-55.5129
0
LINE
8
BLACK
6
CONTINUOUS
10
150.795
20
-55.5129
11
150.795
21
-55.6081
0
LINE
8
BLACK
6
CONTINUOUS
10
150.795
20
-55.6081
11
150.795
21
-55.6164
0
LINE
8
BLACK
6
CONTINUOUS
10
150.795
20
-55.6164
11
150.795
21
-55.6181
0
LINE
8
BLACK
6
CONTINUOUS
10
150.795
20
-55.6181
11
150.794
21
-55.619
0
LINE
8
BLACK
6
CONTINUOUS
10
150.794
20
-55.619
11
150.794
21
-55.621
0
LINE
8
BLACK
6
CONTINUOUS
10
150.794
20
-55.621
11
150.791
21
-55.6313
0
LINE
8
BLACK
6
CONTINUOUS
10
150.791
20
-55.6313
11
150.787
21
-55.6416
0
LINE
8
BLACK
6
CONTINUOUS
10
150.787
20
-55.6416
11
150.74
21
-55.7369
0
LINE
8
BLACK
6
CONTINUOUS
10
150.74
20
-55.7369
11
150.733
21
-55.7479
0
LINE
8
BLACK
6
CONTINUOUS
10
150.733
20
-55.7479
11
150.729
21
-55.7518
0
LINE
8
BLACK
6
CONTINUOUS
10
150.729
20
-55.7518
11
150.726
21
-55.7564
0
LINE
8
BLACK
6
CONTINUOUS
10
150.726
20
-55.7564
11
150.704
21
-55.7783
0
LINE
8
BLACK
6
CONTINUOUS
10
150.704
20
-55.7783
11
150.704
21
-55.7784
0
LINE
8
BLACK
6
CONTINUOUS
10
150.704
20
-55.7784
11
150.706
21
-55.7788
0
LINE
8
BLACK
6
CONTINUOUS
10
150.706
20
-55.7788
11
150.706
21
-55.7794
0
LINE
8
BLACK
6
CONTINUOUS
10
150.706
20
-55.7794
11
150.708
21
-55.7802
0
LINE
8
BLACK
6
CONTINUOUS
10
150.708
20
-55.7802
11
150.717
21
-55.7868
0
LINE
8
BLACK
6
CONTINUOUS
10
150.717
20
-55.7868
11
150.726
21
-55.7932
0
LINE
8
BLACK
6
CONTINUOUS
10
150.726
20
-55.7932
11
150.773
21
-55.8408
0
LINE
8
BLACK
6
CONTINUOUS
10
150.773
20
-55.8408
11
150.782
21
-55.8507
0
LINE
8
BLACK
6
CONTINUOUS
10
150.782
20
-55.8507
11
150.784
21
-55.8557
0
LINE
8
BLACK
6
CONTINUOUS
10
150.784
20
-55.8557
11
150.787
21
-55.8603
0
LINE
8
BLACK
6
CONTINUOUS
10
150.787
20
-55.8603
11
150.835
21
-55.9555
0
LINE
8
BLACK
6
CONTINUOUS
10
150.835
20
-55.9555
11
150.838
21
-55.9633
0
LINE
8
BLACK
6
CONTINUOUS
10
150.838
20
-55.9633
11
150.839
21
-55.9648
0
LINE
8
BLACK
6
CONTINUOUS
10
150.839
20
-55.9648
11
150.839
21
-55.9657
0
LINE
8
BLACK
6
CONTINUOUS
10
150.839
20
-55.9657
11
150.84
21
-55.9675
0
LINE
8
BLACK
6
CONTINUOUS
10
150.84
20
-55.9675
11
150.841
21
-55.9783
0
LINE
8
BLACK
6
CONTINUOUS
10
150.841
20
-55.9783
11
150.843
21
-55.989
0
LINE
8
BLACK
6
CONTINUOUS
10
150.843
20
-55.989
11
150.843
21
-56.1319
0
LINE
8
BLACK
6
CONTINUOUS
10
150.843
20
-56.1319
11
150.842
21
-56.1402
0
LINE
8
BLACK
6
CONTINUOUS
10
150.842
20
-56.1402
11
150.842
21
-56.1419
0
LINE
8
BLACK
6
CONTINUOUS
10
150.842
20
-56.1419
11
150.842
21
-56.1428
0
LINE
8
BLACK
6
CONTINUOUS
10
150.842
20
-56.1428
11
150.842
21
-56.1448
0
LINE
8
BLACK
6
CONTINUOUS
10
150.842
20
-56.1448
11
150.838
21
-56.1551
0
LINE
8
BLACK
6
CONTINUOUS
10
150.838
20
-56.1551
11
150.835
21
-56.1654
0
LINE
8
BLACK
6
CONTINUOUS
10
150.835
20
-56.1654
11
150.787
21
-56.2607
0
LINE
8
BLACK
6
CONTINUOUS
10
150.787
20
-56.2607
11
150.781
21
-56.2717
0
LINE
8
BLACK
6
CONTINUOUS
10
150.781
20
-56.2717
11
150.777
21
-56.2756
0
LINE
8
BLACK
6
CONTINUOUS
10
150.777
20
-56.2756
11
150.773
21
-56.2802
0
LINE
8
BLACK
6
CONTINUOUS
10
150.773
20
-56.2802
11
150.726
21
-56.3278
0
LINE
8
BLACK
6
CONTINUOUS
10
150.726
20
-56.3278
11
150.716
21
-56.3361
0
LINE
8
BLACK
6
CONTINUOUS
10
150.716
20
-56.3361
11
150.711
21
-56.3385
0
LINE
8
BLACK
6
CONTINUOUS
10
150.711
20
-56.3385
11
150.706
21
-56.3418
0
LINE
8
BLACK
6
CONTINUOUS
10
150.706
20
-56.3418
11
150.611
21
-56.3895
0
LINE
8
BLACK
6
CONTINUOUS
10
150.611
20
-56.3895
11
150.603
21
-56.3925
0
LINE
8
BLACK
6
CONTINUOUS
10
150.603
20
-56.3925
11
150.602
21
-56.3933
0
LINE
8
BLACK
6
CONTINUOUS
10
150.602
20
-56.3933
11
150.601
21
-56.3935
0
LINE
8
BLACK
6
CONTINUOUS
10
150.601
20
-56.3935
11
150.599
21
-56.3942
0
LINE
8
BLACK
6
CONTINUOUS
10
150.599
20
-56.3942
11
150.588
21
-56.3956
0
LINE
8
BLACK
6
CONTINUOUS
10
150.588
20
-56.3956
11
150.577
21
-56.3974
0
LINE
8
BLACK
6
CONTINUOUS
10
150.577
20
-56.3974
11
150.196
21
-56.3974
0
LINE
8
BLACK
6
CONTINUOUS
10
150.196
20
-56.3974
11
150.184
21
-56.3963
0
LINE
8
BLACK
6
CONTINUOUS
10
150.184
20
-56.3963
11
150.181
21
-56.3953
0
LINE
8
BLACK
6
CONTINUOUS
10
150.181
20
-56.3953
11
150.178
21
-56.395
0
LINE
8
BLACK
6
CONTINUOUS
10
150.178
20
-56.395
11
150.169
21
-56.3912
0
LINE
8
BLACK
6
CONTINUOUS
10
150.169
20
-56.3912
11
150.16
21
-56.3881
0
LINE
8
BLACK
6
CONTINUOUS
10
150.16
20
-56.3881
11
150.158
21
-56.3863
0
LINE
8
BLACK
6
CONTINUOUS
10
150.158
20
-56.3863
11
150.155
21
-56.3851
0
LINE
8
BLACK
6
CONTINUOUS
10
150.155
20
-56.3851
11
150.148
21
-56.3787
0
LINE
8
BLACK
6
CONTINUOUS
10
150.148
20
-56.3787
11
150.141
21
-56.3729
0
LINE
8
BLACK
6
CONTINUOUS
10
150.141
20
-56.3729
11
150.139
21
-56.3704
0
LINE
8
BLACK
6
CONTINUOUS
10
150.139
20
-56.3704
11
150.137
21
-56.3683
0
LINE
8
BLACK
6
CONTINUOUS
10
150.137
20
-56.3683
11
150.133
21
-56.3601
0
LINE
8
BLACK
6
CONTINUOUS
10
150.133
20
-56.3601
11
150.128
21
-56.3522
0
LINE
8
BLACK
6
CONTINUOUS
10
150.128
20
-56.3522
11
150.127
21
-56.3493
0
LINE
8
BLACK
6
CONTINUOUS
10
150.127
20
-56.3493
11
150.125
21
-56.3467
0
LINE
8
BLACK
6
CONTINUOUS
10
150.125
20
-56.3467
11
150.124
21
-56.3374
0
LINE
8
BLACK
6
CONTINUOUS
10
150.124
20
-56.3374
11
150.122
21
-56.3283
0
LINE
8
BLACK
6
CONTINUOUS
10
150.122
20
-56.3283
11
150.122
21
-56.3253
0
LINE
8
BLACK
6
CONTINUOUS
10
150.122
20
-56.3253
11
150.121
21
-56.3224
0
LINE
8
BLACK
6
CONTINUOUS
10
150.121
20
-56.3224
11
150.121
21
-55.3224
0
LINE
8
BLACK
6
CONTINUOUS
10
150.121
20
-55.3224
11
150.123
21
-55.3095
0
LINE
8
BLACK
6
CONTINUOUS
10
150.123
20
-55.3095
11
150.124
21
-55.3067
0
LINE
8
BLACK
6
CONTINUOUS
10
150.124
20
-55.3067
11
150.124
21
-55.3037
0
LINE
8
BLACK
6
CONTINUOUS
10
150.124
20
-55.3037
11
150.128
21
-55.2951
0
LINE
8
BLACK
6
CONTINUOUS
10
150.128
20
-55.2951
11
150.131
21
-55.2862
0
LINE
8
BLACK
6
CONTINUOUS
10
150.131
20
-55.2862
11
150.133
21
-55.2839
0
LINE
8
BLACK
6
CONTINUOUS
10
150.133
20
-55.2839
11
150.134
21
-55.2812
0
LINE
8
BLACK
6
CONTINUOUS
10
150.134
20
-55.2812
11
150.14
21
-55.2743
0
LINE
8
BLACK
6
CONTINUOUS
10
150.14
20
-55.2743
11
150.146
21
-55.2669
0
LINE
8
BLACK
6
CONTINUOUS
10
150.146
20
-55.2669
11
150.148
21
-55.2653
0
LINE
8
BLACK
6
CONTINUOUS
10
150.148
20
-55.2653
11
150.15
21
-55.2631
0
LINE
8
BLACK
6
CONTINUOUS
10
150.15
20
-55.2631
11
150.159
21
-55.2587
0
LINE
8
BLACK
6
CONTINUOUS
10
150.159
20
-55.2587
11
150.167
21
-55.2535
0
LINE
8
BLACK
6
CONTINUOUS
10
150.167
20
-55.2535
11
150.17
21
-55.2528
0
LINE
8
BLACK
6
CONTINUOUS
10
150.17
20
-55.2528
11
150.172
21
-55.2514
0
LINE
8
BLACK
6
CONTINUOUS
10
150.172
20
-55.2514
11
150.181
21
-55.2499
0
LINE
8
BLACK
6
CONTINUOUS
10
150.181
20
-55.2499
11
150.191
21
-55.2476
0
LINE
8
BLACK
6
CONTINUOUS
10
150.191
20
-55.2476
11
150.194
21
-55.2479
0
LINE
8
BLACK
6
CONTINUOUS
10
150.194
20
-55.2479
11
150.196
21
-55.2474
0
LINE
8
BLACK
6
CONTINUOUS
10
150.196
20
-55.2474
11
150.53
21
-55.2474
0
LINE
8
BLACK
6
CONTINUOUS
10
150.53
20
-55.2474
11
150.538
21
-55.2481
0
LINE
8
BLACK
6
CONTINUOUS
10
150.271
20
-55.8736
11
150.271
21
-56.2474
0
LINE
8
BLACK
6
CONTINUOUS
10
150.271
20
-56.2474
11
150.56
21
-56.2474
0
LINE
8
BLACK
6
CONTINUOUS
10
150.56
20
-56.2474
11
150.628
21
-56.2131
0
LINE
8
BLACK
6
CONTINUOUS
10
150.628
20
-56.2131
11
150.659
21
-56.1827
0
LINE
8
BLACK
6
CONTINUOUS
10
150.659
20
-56.1827
11
150.693
21
-56.1142
0
LINE
8
BLACK
6
CONTINUOUS
10
150.693
20
-56.1142
11
150.693
21
-56.0068
0
LINE
8
BLACK
6
CONTINUOUS
10
150.693
20
-56.0068
11
150.659
21
-55.9382
0
LINE
8
BLACK
6
CONTINUOUS
10
150.659
20
-55.9382
11
150.632
21
-55.9117
0
LINE
8
BLACK
6
CONTINUOUS
10
150.632
20
-55.9117
11
150.518
21
-55.8736
0
LINE
8
BLACK
6
CONTINUOUS
10
150.518
20
-55.8736
11
150.271
21
-55.8736
0
LINE
8
BLACK
6
CONTINUOUS
10
150.271
20
-55.3974
11
150.271
21
-55.7236
0
LINE
8
BLACK
6
CONTINUOUS
10
150.271
20
-55.7236
11
150.512
21
-55.7236
0
LINE
8
BLACK
6
CONTINUOUS
10
150.512
20
-55.7236
11
150.581
21
-55.6893
0
LINE
8
BLACK
6
CONTINUOUS
10
150.581
20
-55.6893
11
150.611
21
-55.6589
0
LINE
8
BLACK
6
CONTINUOUS
10
150.611
20
-55.6589
11
150.645
21
-55.5904
0
LINE
8
BLACK
6
CONTINUOUS
10
150.645
20
-55.5904
11
150.645
21
-55.5306
0
LINE
8
BLACK
6
CONTINUOUS
10
150.645
20
-55.5306
11
150.611
21
-55.462
0
LINE
8
BLACK
6
CONTINUOUS
10
150.611
20
-55.462
11
150.581
21
-55.4316
0
LINE
8
BLACK
6
CONTINUOUS
10
150.581
20
-55.4316
11
150.512
21
-55.3974
0
LINE
8
BLACK
6
CONTINUOUS
10
150.512
20
-55.3974
11
150.271
21
-55.3974
0
LINE
8
BLACK
6
CONTINUOUS
10
149.59
20
-55.2485
11
149.596
21
-55.2504
0
LINE
8
BLACK
6
CONTINUOUS
10
149.596
20
-55.2504
11
149.601
21
-55.2512
0
LINE
8
BLACK
6
CONTINUOUS
10
149.601
20
-55.2512
11
149.744
21
-55.2988
0
LINE
8
BLACK
6
CONTINUOUS
10
149.744
20
-55.2988
11
149.752
21
-55.3022
0
LINE
8
BLACK
6
CONTINUOUS
10
149.752
20
-55.3022
11
149.753
21
-55.3026
0
LINE
8
BLACK
6
CONTINUOUS
10
149.753
20
-55.3026
11
149.754
21
-55.3032
0
LINE
8
BLACK
6
CONTINUOUS
10
149.754
20
-55.3032
11
149.756
21
-55.304
0
LINE
8
BLACK
6
CONTINUOUS
10
149.756
20
-55.304
11
149.764
21
-55.3107
0
LINE
8
BLACK
6
CONTINUOUS
10
149.764
20
-55.3107
11
149.773
21
-55.317
0
LINE
8
BLACK
6
CONTINUOUS
10
149.773
20
-55.317
11
149.821
21
-55.3646
0
LINE
8
BLACK
6
CONTINUOUS
10
149.821
20
-55.3646
11
149.829
21
-55.3745
0
LINE
8
BLACK
6
CONTINUOUS
10
149.829
20
-55.3745
11
149.84
21
-55.3967
0
LINE
8
BLACK
6
CONTINUOUS
10
149.84
20
-55.3967
11
149.843
21
-55.4212
0
LINE
8
BLACK
6
CONTINUOUS
10
149.843
20
-55.4212
11
149.838
21
-55.4452
0
LINE
8
BLACK
6
CONTINUOUS
10
149.838
20
-55.4452
11
149.825
21
-55.4663
0
LINE
8
BLACK
6
CONTINUOUS
10
149.825
20
-55.4663
11
149.806
21
-55.4822
0
LINE
8
BLACK
6
CONTINUOUS
10
149.806
20
-55.4822
11
149.783
21
-55.4911
0
LINE
8
BLACK
6
CONTINUOUS
10
149.783
20
-55.4911
11
149.758
21
-55.492
0
LINE
8
BLACK
6
CONTINUOUS
10
149.758
20
-55.492
11
149.735
21
-55.485
0
LINE
8
BLACK
6
CONTINUOUS
10
149.735
20
-55.485
11
149.715
21
-55.4707
0
LINE
8
BLACK
6
CONTINUOUS
10
149.715
20
-55.4707
11
149.68
21
-55.4356
0
LINE
8
BLACK
6
CONTINUOUS
10
149.68
20
-55.4356
11
149.565
21
-55.3974
0
LINE
8
BLACK
6
CONTINUOUS
10
149.565
20
-55.3974
11
149.494
21
-55.3974
0
LINE
8
BLACK
6
CONTINUOUS
10
149.494
20
-55.3974
11
149.38
21
-55.4356
0
LINE
8
BLACK
6
CONTINUOUS
10
149.38
20
-55.4356
11
149.306
21
-55.5097
0
LINE
8
BLACK
6
CONTINUOUS
10
149.306
20
-55.5097
11
149.267
21
-55.5867
0
LINE
8
BLACK
6
CONTINUOUS
10
149.267
20
-55.5867
11
149.224
21
-55.7602
0
LINE
8
BLACK
6
CONTINUOUS
10
149.224
20
-55.7602
11
149.224
21
-55.8846
0
LINE
8
BLACK
6
CONTINUOUS
10
149.224
20
-55.8846
11
149.267
21
-56.0581
0
LINE
8
BLACK
6
CONTINUOUS
10
149.267
20
-56.0581
11
149.306
21
-56.1351
0
LINE
8
BLACK
6
CONTINUOUS
10
149.306
20
-56.1351
11
149.38
21
-56.2092
0
LINE
8
BLACK
6
CONTINUOUS
10
149.38
20
-56.2092
11
149.494
21
-56.2474
0
LINE
8
BLACK
6
CONTINUOUS
10
149.494
20
-56.2474
11
149.565
21
-56.2474
0
LINE
8
BLACK
6
CONTINUOUS
10
149.565
20
-56.2474
11
149.68
21
-56.2092
0
LINE
8
BLACK
6
CONTINUOUS
10
149.68
20
-56.2092
11
149.715
21
-56.1741
0
LINE
8
BLACK
6
CONTINUOUS
10
149.715
20
-56.1741
11
149.725
21
-56.1658
0
LINE
8
BLACK
6
CONTINUOUS
10
149.725
20
-56.1658
11
149.747
21
-56.1551
0
LINE
8
BLACK
6
CONTINUOUS
10
149.747
20
-56.1551
11
149.771
21
-56.1522
0
LINE
8
BLACK
6
CONTINUOUS
10
149.771
20
-56.1522
11
149.795
21
-56.1574
0
LINE
8
BLACK
6
CONTINUOUS
10
149.795
20
-56.1574
11
149.817
21
-56.1701
0
LINE
8
BLACK
6
CONTINUOUS
10
149.817
20
-56.1701
11
149.832
21
-56.189
0
LINE
8
BLACK
6
CONTINUOUS
10
149.832
20
-56.189
11
149.841
21
-56.2119
0
LINE
8
BLACK
6
CONTINUOUS
10
149.841
20
-56.2119
11
149.842
21
-56.2365
0
LINE
8
BLACK
6
CONTINUOUS
10
149.842
20
-56.2365
11
149.835
21
-56.2601
0
LINE
8
BLACK
6
CONTINUOUS
10
149.835
20
-56.2601
11
149.821
21
-56.2802
0
LINE
8
BLACK
6
CONTINUOUS
10
149.821
20
-56.2802
11
149.773
21
-56.3278
0
LINE
8
BLACK
6
CONTINUOUS
10
149.773
20
-56.3278
11
149.767
21
-56.3332
0
LINE
8
BLACK
6
CONTINUOUS
10
149.767
20
-56.3332
11
149.766
21
-56.3344
0
LINE
8
BLACK
6
CONTINUOUS
10
149.766
20
-56.3344
11
149.765
21
-56.3348
0
LINE
8
BLACK
6
CONTINUOUS
10
149.765
20
-56.3348
11
149.763
21
-56.3361
0
LINE
8
BLACK
6
CONTINUOUS
10
149.763
20
-56.3361
11
149.754
21
-56.3408
0
LINE
8
BLACK
6
CONTINUOUS
10
149.754
20
-56.3408
11
149.744
21
-56.3459
0
LINE
8
BLACK
6
CONTINUOUS
10
149.744
20
-56.3459
11
149.601
21
-56.3935
0
LINE
8
BLACK
6
CONTINUOUS
10
149.601
20
-56.3935
11
149.589
21
-56.3965
0
LINE
8
BLACK
6
CONTINUOUS
10
149.589
20
-56.3965
11
149.583
21
-56.3965
0
LINE
8
BLACK
6
CONTINUOUS
10
149.583
20
-56.3965
11
149.577
21
-56.3974
0
LINE
8
BLACK
6
CONTINUOUS
10
149.577
20
-56.3974
11
149.482
21
-56.3974
0
LINE
8
BLACK
6
CONTINUOUS
10
149.482
20
-56.3974
11
149.469
21
-56.3963
0
LINE
8
BLACK
6
CONTINUOUS
10
149.469
20
-56.3963
11
149.464
21
-56.3944
0
LINE
8
BLACK
6
CONTINUOUS
10
149.464
20
-56.3944
11
149.458
21
-56.3935
0
LINE
8
BLACK
6
CONTINUOUS
10
149.458
20
-56.3935
11
149.316
21
-56.3459
0
LINE
8
BLACK
6
CONTINUOUS
10
149.316
20
-56.3459
11
149.308
21
-56.3426
0
LINE
8
BLACK
6
CONTINUOUS
10
149.308
20
-56.3426
11
149.306
21
-56.3421
0
LINE
8
BLACK
6
CONTINUOUS
10
149.306
20
-56.3421
11
149.306
21
-56.3416
0
LINE
8
BLACK
6
CONTINUOUS
10
149.306
20
-56.3416
11
149.304
21
-56.3408
0
LINE
8
BLACK
6
CONTINUOUS
10
149.304
20
-56.3408
11
149.295
21
-56.3341
0
LINE
8
BLACK
6
CONTINUOUS
10
149.295
20
-56.3341
11
149.286
21
-56.3278
0
LINE
8
BLACK
6
CONTINUOUS
10
149.286
20
-56.3278
11
149.191
21
-56.2326
0
LINE
8
BLACK
6
CONTINUOUS
10
149.191
20
-56.2326
11
149.183
21
-56.2226
0
LINE
8
BLACK
6
CONTINUOUS
10
149.183
20
-56.2226
11
149.18
21
-56.2176
0
LINE
8
BLACK
6
CONTINUOUS
10
149.18
20
-56.2176
11
149.177
21
-56.2131
0
LINE
8
BLACK
6
CONTINUOUS
10
149.177
20
-56.2131
11
149.129
21
-56.1178
0
LINE
8
BLACK
6
CONTINUOUS
10
149.129
20
-56.1178
11
149.125
21
-56.1058
0
LINE
8
BLACK
6
CONTINUOUS
10
149.125
20
-56.1058
11
149.124
21
-56.1041
0
LINE
8
BLACK
6
CONTINUOUS
10
149.124
20
-56.1041
11
149.124
21
-56.1025
0
LINE
8
BLACK
6
CONTINUOUS
10
149.124
20
-56.1025
11
149.076
21
-55.912
0
LINE
8
BLACK
6
CONTINUOUS
10
149.076
20
-55.912
11
149.074
21
-55.8992
0
LINE
8
BLACK
6
CONTINUOUS
10
149.074
20
-55.8992
11
149.074
21
-55.8965
0
LINE
8
BLACK
6
CONTINUOUS
10
149.074
20
-55.8965
11
149.074
21
-55.8938
0
LINE
8
BLACK
6
CONTINUOUS
10
149.074
20
-55.8938
11
149.074
21
-55.751
0
LINE
8
BLACK
6
CONTINUOUS
10
149.074
20
-55.751
11
149.075
21
-55.7381
0
LINE
8
BLACK
6
CONTINUOUS
10
149.075
20
-55.7381
11
149.076
21
-55.7355
0
LINE
8
BLACK
6
CONTINUOUS
10
149.076
20
-55.7355
11
149.076
21
-55.7328
0
LINE
8
BLACK
6
CONTINUOUS
10
149.076
20
-55.7328
11
149.124
21
-55.5423
0
LINE
8
BLACK
6
CONTINUOUS
10
149.124
20
-55.5423
11
149.128
21
-55.53
0
LINE
8
BLACK
6
CONTINUOUS
10
149.128
20
-55.53
11
149.129
21
-55.5286
0
LINE
8
BLACK
6
CONTINUOUS
10
149.129
20
-55.5286
11
149.129
21
-55.5269
0
LINE
8
BLACK
6
CONTINUOUS
10
149.129
20
-55.5269
11
149.177
21
-55.4317
0
LINE
8
BLACK
6
CONTINUOUS
10
149.177
20
-55.4317
11
149.184
21
-55.4207
0
LINE
8
BLACK
6
CONTINUOUS
10
149.184
20
-55.4207
11
149.188
21
-55.4168
0
LINE
8
BLACK
6
CONTINUOUS
10
149.188
20
-55.4168
11
149.191
21
-55.4122
0
LINE
8
BLACK
6
CONTINUOUS
10
149.191
20
-55.4122
11
149.286
21
-55.317
0
LINE
8
BLACK
6
CONTINUOUS
10
149.286
20
-55.317
11
149.293
21
-55.3116
0
LINE
8
BLACK
6
CONTINUOUS
10
149.293
20
-55.3116
11
149.294
21
-55.3104
0
LINE
8
BLACK
6
CONTINUOUS
10
149.294
20
-55.3104
11
149.295
21
-55.3099
0
LINE
8
BLACK
6
CONTINUOUS
10
149.295
20
-55.3099
11
149.296
21
-55.3086
0
LINE
8
BLACK
6
CONTINUOUS
10
149.296
20
-55.3086
11
149.306
21
-55.3039
0
LINE
8
BLACK
6
CONTINUOUS
10
149.306
20
-55.3039
11
149.316
21
-55.2988
0
LINE
8
BLACK
6
CONTINUOUS
10
149.316
20
-55.2988
11
149.458
21
-55.2512
0
LINE
8
BLACK
6
CONTINUOUS
10
149.458
20
-55.2512
11
149.471
21
-55.2482
0
LINE
8
BLACK
6
CONTINUOUS
10
149.471
20
-55.2482
11
149.477
21
-55.2483
0
LINE
8
BLACK
6
CONTINUOUS
10
149.477
20
-55.2483
11
149.482
21
-55.2474
0
LINE
8
BLACK
6
CONTINUOUS
10
149.482
20
-55.2474
11
149.577
21
-55.2474
0
LINE
8
BLACK
6
CONTINUOUS
10
149.577
20
-55.2474
11
149.59
21
-55.2485
0
LINE
8
BLACK
6
CONTINUOUS
10
148.586
20
-55.2481
11
148.587
21
-55.248
0
LINE
8
BLACK
6
CONTINUOUS
10
148.587
20
-55.248
11
148.588
21
-55.2483
0
LINE
8
BLACK
6
CONTINUOUS
10
148.588
20
-55.2483
11
148.59
21
-55.2485
0
LINE
8
BLACK
6
CONTINUOUS
10
148.59
20
-55.2485
11
148.601
21
-55.2521
0
LINE
8
BLACK
6
CONTINUOUS
10
148.601
20
-55.2521
11
148.611
21
-55.2553
0
LINE
8
BLACK
6
CONTINUOUS
10
148.611
20
-55.2553
11
148.706
21
-55.3029
0
LINE
8
BLACK
6
CONTINUOUS
10
148.706
20
-55.3029
11
148.717
21
-55.3097
0
LINE
8
BLACK
6
CONTINUOUS
10
148.717
20
-55.3097
11
148.721
21
-55.3137
0
LINE
8
BLACK
6
CONTINUOUS
10
148.721
20
-55.3137
11
148.726
21
-55.317
0
LINE
8
BLACK
6
CONTINUOUS
10
148.726
20
-55.317
11
148.773
21
-55.3646
0
LINE
8
BLACK
6
CONTINUOUS
10
148.773
20
-55.3646
11
148.782
21
-55.3745
0
LINE
8
BLACK
6
CONTINUOUS
10
148.782
20
-55.3745
11
148.784
21
-55.3795
0
LINE
8
BLACK
6
CONTINUOUS
10
148.784
20
-55.3795
11
148.787
21
-55.3841
0
LINE
8
BLACK
6
CONTINUOUS
10
148.787
20
-55.3841
11
148.835
21
-55.4793
0
LINE
8
BLACK
6
CONTINUOUS
10
148.835
20
-55.4793
11
148.838
21
-55.4871
0
LINE
8
BLACK
6
CONTINUOUS
10
148.838
20
-55.4871
11
148.839
21
-55.4886
0
LINE
8
BLACK
6
CONTINUOUS
10
148.839
20
-55.4886
11
148.839
21
-55.4895
0
LINE
8
BLACK
6
CONTINUOUS
10
148.839
20
-55.4895
11
148.84
21
-55.4913
0
LINE
8
BLACK
6
CONTINUOUS
10
148.84
20
-55.4913
11
148.841
21
-55.5021
0
LINE
8
BLACK
6
CONTINUOUS
10
148.841
20
-55.5021
11
148.843
21
-55.5129
0
LINE
8
BLACK
6
CONTINUOUS
10
148.843
20
-55.5129
11
148.843
21
-55.6557
0
LINE
8
BLACK
6
CONTINUOUS
10
148.843
20
-55.6557
11
148.842
21
-55.6641
0
LINE
8
BLACK
6
CONTINUOUS
10
148.842
20
-55.6641
11
148.842
21
-55.6657
0
LINE
8
BLACK
6
CONTINUOUS
10
148.842
20
-55.6657
11
148.842
21
-55.6666
0
LINE
8
BLACK
6
CONTINUOUS
10
148.842
20
-55.6666
11
148.842
21
-55.6686
0
LINE
8
BLACK
6
CONTINUOUS
10
148.842
20
-55.6686
11
148.838
21
-55.6789
0
LINE
8
BLACK
6
CONTINUOUS
10
148.838
20
-55.6789
11
148.835
21
-55.6893
0
LINE
8
BLACK
6
CONTINUOUS
10
148.835
20
-55.6893
11
148.787
21
-55.7845
0
LINE
8
BLACK
6
CONTINUOUS
10
148.787
20
-55.7845
11
148.781
21
-55.7955
0
LINE
8
BLACK
6
CONTINUOUS
10
148.781
20
-55.7955
11
148.777
21
-55.7994
0
LINE
8
BLACK
6
CONTINUOUS
10
148.777
20
-55.7994
11
148.773
21
-55.804
0
LINE
8
BLACK
6
CONTINUOUS
10
148.773
20
-55.804
11
148.726
21
-55.8516
0
LINE
8
BLACK
6
CONTINUOUS
10
148.726
20
-55.8516
11
148.716
21
-55.8599
0
LINE
8
BLACK
6
CONTINUOUS
10
148.716
20
-55.8599
11
148.711
21
-55.8624
0
LINE
8
BLACK
6
CONTINUOUS
10
148.711
20
-55.8624
11
148.706
21
-55.8657
0
LINE
8
BLACK
6
CONTINUOUS
10
148.706
20
-55.8657
11
148.611
21
-55.9133
0
LINE
8
BLACK
6
CONTINUOUS
10
148.611
20
-55.9133
11
148.603
21
-55.9164
0
LINE
8
BLACK
6
CONTINUOUS
10
148.603
20
-55.9164
11
148.602
21
-55.9171
0
LINE
8
BLACK
6
CONTINUOUS
10
148.602
20
-55.9171
11
148.601
21
-55.9173
0
LINE
8
BLACK
6
CONTINUOUS
10
148.601
20
-55.9173
11
148.599
21
-55.918
0
LINE
8
BLACK
6
CONTINUOUS
10
148.599
20
-55.918
11
148.588
21
-55.9194
0
LINE
8
BLACK
6
CONTINUOUS
10
148.588
20
-55.9194
11
148.577
21
-55.9212
0
LINE
8
BLACK
6
CONTINUOUS
10
148.577
20
-55.9212
11
148.271
21
-55.9212
0
LINE
8
BLACK
6
CONTINUOUS
10
148.271
20
-55.9212
11
148.271
21
-56.3224
0
LINE
8
BLACK
6
CONTINUOUS
10
148.271
20
-56.3224
11
148.27
21
-56.3353
0
LINE
8
BLACK
6
CONTINUOUS
10
148.27
20
-56.3353
11
148.262
21
-56.3585
0
LINE
8
BLACK
6
CONTINUOUS
10
148.262
20
-56.3585
11
148.247
21
-56.3779
0
LINE
8
BLACK
6
CONTINUOUS
10
148.247
20
-56.3779
11
148.226
21
-56.3912
0
LINE
8
BLACK
6
CONTINUOUS
10
148.226
20
-56.3912
11
148.202
21
-56.3971
0
LINE
8
BLACK
6
CONTINUOUS
10
148.202
20
-56.3971
11
148.178
21
-56.395
0
LINE
8
BLACK
6
CONTINUOUS
10
148.178
20
-56.395
11
148.155
21
-56.3851
0
LINE
8
BLACK
6
CONTINUOUS
10
148.155
20
-56.3851
11
148.137
21
-56.3683
0
LINE
8
BLACK
6
CONTINUOUS
10
148.137
20
-56.3683
11
148.125
21
-56.3467
0
LINE
8
BLACK
6
CONTINUOUS
10
148.125
20
-56.3467
11
148.121
21
-56.3224
0
LINE
8
BLACK
6
CONTINUOUS
10
148.121
20
-56.3224
11
148.121
21
-55.3224
0
LINE
8
BLACK
6
CONTINUOUS
10
148.121
20
-55.3224
11
148.123
21
-55.3095
0
LINE
8
BLACK
6
CONTINUOUS
10
148.123
20
-55.3095
11
148.124
21
-55.3067
0
LINE
8
BLACK
6
CONTINUOUS
10
148.124
20
-55.3067
11
148.124
21
-55.3037
0
LINE
8
BLACK
6
CONTINUOUS
10
148.124
20
-55.3037
11
148.128
21
-55.2951
0
LINE
8
BLACK
6
CONTINUOUS
10
148.128
20
-55.2951
11
148.131
21
-55.2862
0
LINE
8
BLACK
6
CONTINUOUS
10
148.131
20
-55.2862
11
148.133
21
-55.2839
0
LINE
8
BLACK
6
CONTINUOUS
10
148.133
20
-55.2839
11
148.134
21
-55.2812
0
LINE
8
BLACK
6
CONTINUOUS
10
148.134
20
-55.2812
11
148.14
21
-55.2743
0
LINE
8
BLACK
6
CONTINUOUS
10
148.14
20
-55.2743
11
148.146
21
-55.2669
0
LINE
8
BLACK
6
CONTINUOUS
10
148.146
20
-55.2669
11
148.148
21
-55.2653
0
LINE
8
BLACK
6
CONTINUOUS
10
148.148
20
-55.2653
11
148.15
21
-55.2631
0
LINE
8
BLACK
6
CONTINUOUS
10
148.15
20
-55.2631
11
148.159
21
-55.2587
0
LINE
8
BLACK
6
CONTINUOUS
10
148.159
20
-55.2587
11
148.167
21
-55.2535
0
LINE
8
BLACK
6
CONTINUOUS
10
148.167
20
-55.2535
11
148.17
21
-55.2528
0
LINE
8
BLACK
6
CONTINUOUS
10
148.17
20
-55.2528
11
148.172
21
-55.2514
0
LINE
8
BLACK
6
CONTINUOUS
10
148.172
20
-55.2514
11
148.181
21
-55.2499
0
LINE
8
BLACK
6
CONTINUOUS
10
148.181
20
-55.2499
11
148.191
21
-55.2476
0
LINE
8
BLACK
6
CONTINUOUS
10
148.191
20
-55.2476
11
148.194
21
-55.2479
0
LINE
8
BLACK
6
CONTINUOUS
10
148.194
20
-55.2479
11
148.196
21
-55.2474
0
LINE
8
BLACK
6
CONTINUOUS
10
148.196
20
-55.2474
11
148.577
21
-55.2474
0
LINE
8
BLACK
6
CONTINUOUS
10
148.577
20
-55.2474
11
148.586
21
-55.2481
0
LINE
8
BLACK
6
CONTINUOUS
10
148.271
20
-55.3974
11
148.271
21
-55.7712
0
LINE
8
BLACK
6
CONTINUOUS
10
148.271
20
-55.7712
11
148.56
21
-55.7712
0
LINE
8
BLACK
6
CONTINUOUS
10
148.56
20
-55.7712
11
148.628
21
-55.7369
0
LINE
8
BLACK
6
CONTINUOUS
10
148.628
20
-55.7369
11
148.659
21
-55.7065
0
LINE
8
BLACK
6
CONTINUOUS
10
148.659
20
-55.7065
11
148.693
21
-55.638
0
LINE
8
BLACK
6
CONTINUOUS
10
148.693
20
-55.638
11
148.693
21
-55.5306
0
LINE
8
BLACK
6
CONTINUOUS
10
148.693
20
-55.5306
11
148.659
21
-55.462
0
LINE
8
BLACK
6
CONTINUOUS
10
148.659
20
-55.462
11
148.628
21
-55.4316
0
LINE
8
BLACK
6
CONTINUOUS
10
148.628
20
-55.4316
11
148.56
21
-55.3974
0
LINE
8
BLACK
6
CONTINUOUS
10
148.56
20
-55.3974
11
148.271
21
-55.3974
0
LINE
8
BLACK
6
CONTINUOUS
10
156.114
20
-54.9138
11
156.13
21
-54.9246
0
LINE
8
BLACK
6
CONTINUOUS
10
156.13
20
-54.9246
11
156.141
21
-54.9409
0
LINE
8
BLACK
6
CONTINUOUS
10
156.141
20
-54.9409
11
156.145
21
-54.96
0
LINE
8
BLACK
6
CONTINUOUS
10
156.145
20
-54.96
11
156.141
21
-54.9791
0
LINE
8
BLACK
6
CONTINUOUS
10
156.141
20
-54.9791
11
156.13
21
-54.9954
0
LINE
8
BLACK
6
CONTINUOUS
10
156.13
20
-54.9954
11
156.114
21
-55.0062
0
LINE
8
BLACK
6
CONTINUOUS
10
156.114
20
-55.0062
11
156.095
21
-55.01
0
LINE
8
BLACK
6
CONTINUOUS
10
156.095
20
-55.01
11
147.155
21
-55.01
0
LINE
8
BLACK
6
CONTINUOUS
10
147.155
20
-55.01
11
147.136
21
-55.0062
0
LINE
8
BLACK
6
CONTINUOUS
10
147.136
20
-55.0062
11
147.12
21
-54.9954
0
LINE
8
BLACK
6
CONTINUOUS
10
147.12
20
-54.9954
11
147.109
21
-54.9791
0
LINE
8
BLACK
6
CONTINUOUS
10
147.109
20
-54.9791
11
147.105
21
-54.96
0
LINE
8
BLACK
6
CONTINUOUS
10
147.105
20
-54.96
11
147.109
21
-54.9409
0
LINE
8
BLACK
6
CONTINUOUS
10
147.109
20
-54.9409
11
147.12
21
-54.9246
0
LINE
8
BLACK
6
CONTINUOUS
10
147.12
20
-54.9246
11
147.136
21
-54.9138
0
LINE
8
BLACK
6
CONTINUOUS
10
147.136
20
-54.9138
11
147.155
21
-54.91
0
LINE
8
BLACK
6
CONTINUOUS
10
147.155
20
-54.91
11
156.095
21
-54.91
0
LINE
8
BLACK
6
CONTINUOUS
10
156.095
20
-54.91
11
156.114
21
-54.9138
  0
ENDSEC
  0
EOF
